<svg xmlns="http://www.w3.org/2000/svg" xmlns:xlink="http://www.w3.org/1999/xlink" width="3000" zoomAndPan="magnify" viewBox="0 0 2250 749.999995" height="1000" preserveAspectRatio="xMidYMid meet" version="1.0"><defs><g/></defs><path fill="#f2f2f2" d="M 232.578125 225 C 170.746094 225 117.796875 279.226562 120.957031 345.660156 C 122.46875 377.460938 145.699219 413.8125 170.058594 446.609375 C 194.421875 479.410156 220.605469 509.078125 227.890625 522.238281 C 228.363281 523.089844 229.019531 523.765625 229.855469 524.257812 C 230.695312 524.753906 231.601562 525 232.578125 525 C 233.550781 525 234.457031 524.753906 235.296875 524.257812 C 236.136719 523.765625 236.792969 523.089844 237.265625 522.238281 C 240.875 515.710938 249.414062 504.898438 259.992188 492.007812 C 270.566406 479.121094 283.238281 463.960938 295.503906 447.730469 C 320.027344 415.269531 343.316406 378.78125 344.210938 345.554688 C 345.988281 279.195312 294.40625 225 232.578125 225 Z M 232.578125 235.714844 C 288.132812 235.714844 335.121094 284.59375 333.496094 345.265625 C 332.738281 373.496094 311.066406 409.359375 286.953125 441.273438 C 274.898438 457.230469 262.328125 472.261719 251.703125 485.207031 C 243.195312 495.578125 237.511719 503.34375 232.628906 510.707031 C 221.703125 493.929688 200.308594 469.359375 178.660156 440.21875 C 154.667969 407.917969 132.933594 371.910156 131.660156 345.160156 C 128.785156 284.675781 177.023438 235.714844 232.578125 235.714844 Z M 232.578125 235.714844 " fill-opacity="1" fill-rule="nonzero"/><path fill="#f2f2f2" d="M 232.578125 259.035156 C 188.957031 259.035156 153.488281 294.507812 153.488281 338.128906 C 153.488281 381.75 188.957031 417.230469 232.578125 417.230469 C 276.199219 417.230469 311.679688 381.75 311.679688 338.128906 C 311.679688 294.507812 276.199219 259.035156 232.578125 259.035156 Z M 232.578125 269.75 C 270.40625 269.75 300.964844 300.296875 300.964844 338.128906 C 300.964844 375.957031 270.40625 406.515625 232.578125 406.515625 C 194.746094 406.515625 164.199219 375.957031 164.199219 338.128906 C 164.199219 300.296875 194.746094 269.75 232.578125 269.75 Z M 232.578125 269.75 " fill-opacity="1" fill-rule="nonzero"/><path fill="#f2f2f2" d="M 218.304688 289.964844 C 217.953125 289.964844 217.605469 290 217.261719 290.070312 C 216.914062 290.136719 216.582031 290.238281 216.253906 290.375 C 215.929688 290.507812 215.621094 290.671875 215.328125 290.867188 C 215.039062 291.0625 214.765625 291.285156 214.519531 291.535156 C 214.269531 291.785156 214.046875 292.054688 213.851562 292.347656 C 213.65625 292.640625 213.492188 292.949219 213.355469 293.273438 C 213.222656 293.597656 213.121094 293.933594 213.050781 294.277344 C 212.984375 294.621094 212.949219 294.972656 212.949219 295.324219 L 212.949219 318.5 L 189.773438 318.5 C 189.421875 318.5 189.074219 318.535156 188.726562 318.601562 C 188.382812 318.671875 188.046875 318.773438 187.722656 318.90625 C 187.398438 319.042969 187.089844 319.207031 186.796875 319.402344 C 186.503906 319.597656 186.234375 319.820312 185.984375 320.066406 C 185.734375 320.316406 185.515625 320.585938 185.320312 320.878906 C 185.125 321.171875 184.957031 321.480469 184.824219 321.804688 C 184.6875 322.132812 184.585938 322.464844 184.519531 322.8125 C 184.449219 323.15625 184.414062 323.503906 184.414062 323.855469 L 184.414062 352.398438 C 184.414062 352.75 184.449219 353.101562 184.519531 353.445312 C 184.585938 353.789062 184.6875 354.125 184.824219 354.449219 C 184.957031 354.773438 185.125 355.082031 185.320312 355.375 C 185.515625 355.667969 185.734375 355.9375 185.984375 356.1875 C 186.234375 356.4375 186.503906 356.660156 186.796875 356.855469 C 187.089844 357.050781 187.398438 357.214844 187.722656 357.347656 C 188.046875 357.484375 188.382812 357.585938 188.726562 357.652344 C 189.074219 357.722656 189.421875 357.757812 189.773438 357.757812 L 212.949219 357.757812 L 212.949219 380.941406 C 212.949219 381.292969 212.984375 381.644531 213.050781 381.988281 C 213.121094 382.332031 213.222656 382.667969 213.355469 382.992188 C 213.492188 383.316406 213.65625 383.625 213.851562 383.917969 C 214.046875 384.210938 214.269531 384.480469 214.519531 384.730469 C 214.765625 384.980469 215.039062 385.203125 215.328125 385.398438 C 215.621094 385.59375 215.929688 385.757812 216.253906 385.890625 C 216.582031 386.027344 216.914062 386.128906 217.261719 386.195312 C 217.605469 386.265625 217.953125 386.300781 218.304688 386.300781 L 246.847656 386.300781 C 247.199219 386.300781 247.550781 386.265625 247.894531 386.195312 C 248.238281 386.128906 248.574219 386.027344 248.898438 385.890625 C 249.222656 385.757812 249.53125 385.59375 249.824219 385.398438 C 250.117188 385.203125 250.386719 384.980469 250.636719 384.730469 C 250.886719 384.480469 251.109375 384.210938 251.304688 383.917969 C 251.5 383.625 251.664062 383.316406 251.796875 382.992188 C 251.933594 382.667969 252.035156 382.332031 252.101562 381.988281 C 252.171875 381.644531 252.207031 381.292969 252.207031 380.941406 L 252.207031 357.757812 L 275.394531 357.757812 C 275.746094 357.757812 276.09375 357.722656 276.4375 357.652344 C 276.78125 357.585938 277.117188 357.484375 277.441406 357.347656 C 277.769531 357.214844 278.078125 357.050781 278.367188 356.855469 C 278.660156 356.660156 278.933594 356.4375 279.179688 356.1875 C 279.429688 355.9375 279.652344 355.667969 279.847656 355.375 C 280.042969 355.082031 280.207031 354.773438 280.34375 354.449219 C 280.476562 354.125 280.578125 353.789062 280.648438 353.445312 C 280.714844 353.101562 280.75 352.75 280.75 352.398438 L 280.75 323.855469 C 280.75 323.503906 280.714844 323.15625 280.648438 322.8125 C 280.578125 322.464844 280.476562 322.132812 280.34375 321.804688 C 280.207031 321.480469 280.042969 321.171875 279.847656 320.878906 C 279.652344 320.585938 279.429688 320.316406 279.179688 320.066406 C 278.933594 319.820312 278.660156 319.597656 278.367188 319.402344 C 278.078125 319.207031 277.769531 319.042969 277.441406 318.90625 C 277.117188 318.773438 276.78125 318.671875 276.4375 318.601562 C 276.09375 318.535156 275.746094 318.5 275.394531 318.5 L 252.207031 318.5 L 252.207031 295.324219 C 252.207031 294.972656 252.171875 294.621094 252.101562 294.277344 C 252.035156 293.933594 251.933594 293.597656 251.796875 293.273438 C 251.664062 292.949219 251.5 292.640625 251.304688 292.347656 C 251.109375 292.054688 250.886719 291.785156 250.636719 291.535156 C 250.386719 291.285156 250.117188 291.0625 249.824219 290.867188 C 249.53125 290.671875 249.222656 290.507812 248.898438 290.375 C 248.574219 290.238281 248.238281 290.136719 247.894531 290.070312 C 247.550781 290 247.199219 289.964844 246.847656 289.964844 Z M 223.664062 300.679688 L 241.492188 300.679688 L 241.492188 323.855469 C 241.492188 324.207031 241.527344 324.554688 241.59375 324.902344 C 241.664062 325.246094 241.765625 325.582031 241.898438 325.90625 C 242.035156 326.230469 242.199219 326.539062 242.394531 326.832031 C 242.589844 327.125 242.8125 327.394531 243.0625 327.644531 C 243.308594 327.894531 243.582031 328.113281 243.875 328.308594 C 244.164062 328.503906 244.472656 328.671875 244.800781 328.804688 C 245.125 328.941406 245.460938 329.042969 245.804688 329.109375 C 246.148438 329.179688 246.496094 329.214844 246.847656 329.214844 L 270.035156 329.214844 L 270.035156 347.042969 L 246.847656 347.042969 C 246.496094 347.042969 246.148438 347.078125 245.804688 347.144531 C 245.460938 347.214844 245.125 347.316406 244.800781 347.449219 C 244.472656 347.585938 244.164062 347.75 243.875 347.945312 C 243.582031 348.140625 243.308594 348.363281 243.0625 348.613281 C 242.8125 348.859375 242.589844 349.132812 242.394531 349.421875 C 242.199219 349.714844 242.035156 350.023438 241.898438 350.347656 C 241.765625 350.675781 241.664062 351.007812 241.59375 351.355469 C 241.527344 351.699219 241.492188 352.046875 241.492188 352.398438 L 241.492188 375.585938 L 223.664062 375.585938 L 223.664062 352.398438 C 223.664062 352.046875 223.628906 351.699219 223.558594 351.355469 C 223.492188 351.007812 223.390625 350.675781 223.253906 350.347656 C 223.121094 350.023438 222.957031 349.714844 222.761719 349.421875 C 222.566406 349.132812 222.34375 348.859375 222.09375 348.613281 C 221.84375 348.363281 221.574219 348.140625 221.28125 347.945312 C 220.988281 347.75 220.679688 347.585938 220.355469 347.449219 C 220.03125 347.316406 219.695312 347.214844 219.351562 347.144531 C 219.007812 347.078125 218.65625 347.042969 218.304688 347.042969 L 195.128906 347.042969 L 195.128906 329.214844 L 218.304688 329.214844 C 218.65625 329.214844 219.007812 329.179688 219.351562 329.109375 C 219.695312 329.042969 220.03125 328.941406 220.355469 328.804688 C 220.679688 328.671875 220.988281 328.503906 221.28125 328.308594 C 221.574219 328.113281 221.84375 327.894531 222.09375 327.644531 C 222.34375 327.394531 222.566406 327.125 222.761719 326.832031 C 222.957031 326.539062 223.121094 326.230469 223.253906 325.90625 C 223.390625 325.582031 223.492188 325.246094 223.558594 324.902344 C 223.628906 324.554688 223.664062 324.207031 223.664062 323.855469 Z M 223.664062 300.679688 " fill-opacity="1" fill-rule="nonzero"/><g fill="#ffffff" fill-opacity="1"><g transform="translate(468.916886, 434.888799)"><g><path d="M 6.8125 -60.765625 C 6.8125 -69.378906 8.378906 -77.441406 11.515625 -84.953125 C 14.660156 -92.460938 18.851562 -99.007812 24.09375 -104.59375 C 29.445312 -110.070312 35.90625 -114.554688 43.46875 -118.046875 C 51.039062 -121.535156 58.960938 -123.28125 67.234375 -123.28125 C 76.546875 -123.28125 85.070312 -121.390625 92.8125 -117.609375 C 100.550781 -113.828125 107.128906 -108.53125 112.546875 -101.71875 C 117.960938 -94.90625 121.832031 -86.898438 124.15625 -77.703125 L 106.703125 -77.703125 C 103.441406 -86.898438 98.285156 -93.882812 91.234375 -98.65625 C 84.191406 -103.4375 76.191406 -105.828125 67.234375 -105.828125 C 61.410156 -105.828125 55.757812 -104.570312 50.28125 -102.0625 C 44.8125 -99.5625 40.160156 -96.273438 36.328125 -92.203125 C 32.484375 -88.242188 29.453125 -83.585938 27.234375 -78.234375 C 25.023438 -72.878906 23.921875 -67.054688 23.921875 -60.765625 C 23.921875 -54.710938 25 -49.007812 27.15625 -43.65625 C 29.3125 -38.300781 32.304688 -33.585938 36.140625 -29.515625 C 39.984375 -25.554688 44.671875 -22.410156 50.203125 -20.078125 C 55.734375 -17.753906 61.410156 -16.59375 67.234375 -16.59375 C 76.546875 -16.59375 84.835938 -19.148438 92.109375 -24.265625 C 99.390625 -29.390625 104.601562 -36.550781 107.75 -45.75 L 125.03125 -45.75 C 122.695312 -36.550781 118.796875 -28.429688 113.328125 -21.390625 C 107.859375 -14.347656 101.191406 -8.875 93.328125 -4.96875 C 85.472656 -1.070312 76.773438 0.875 67.234375 0.875 C 58.960938 0.875 51.128906 -0.722656 43.734375 -3.921875 C 36.347656 -7.128906 29.976562 -11.523438 24.625 -17.109375 C 19.382812 -22.703125 15.101562 -29.25 11.78125 -36.75 C 8.46875 -44.257812 6.8125 -52.265625 6.8125 -60.765625 Z M 6.8125 -60.765625 "/></g></g></g><g fill="#ffffff" fill-opacity="1"><g transform="translate(600.565774, 434.888799)"><g><path d="M 105.828125 -51.34375 C 105.941406 -50.875 106 -50.40625 106 -49.9375 C 106 -49.476562 106 -48.957031 106 -48.375 C 106 -46.507812 105.820312 -44.757812 105.46875 -43.125 L 25.5 -43.125 C 25.5 -36.957031 27.15625 -31.660156 30.46875 -27.234375 C 33.789062 -22.816406 37.925781 -19.414062 42.875 -17.03125 C 47.820312 -14.644531 52.625 -13.453125 57.28125 -13.453125 C 63.101562 -13.453125 68.546875 -14.726562 73.609375 -17.28125 C 78.671875 -19.84375 82.597656 -23.800781 85.390625 -29.15625 L 103.03125 -29.15625 C 100.695312 -22.289062 97.144531 -16.554688 92.375 -11.953125 C 87.601562 -7.359375 82.160156 -3.925781 76.046875 -1.65625 C 69.929688 0.613281 63.617188 1.75 57.109375 1.75 C 51.046875 1.75 45.101562 0.734375 39.28125 -1.296875 C 33.46875 -3.335938 28.234375 -6.394531 23.578125 -10.46875 C 18.921875 -14.550781 15.222656 -19.644531 12.484375 -25.75 C 9.742188 -31.863281 8.375 -39 8.375 -47.15625 C 8.375 -55.300781 9.742188 -62.398438 12.484375 -68.453125 C 15.222656 -74.503906 18.921875 -79.566406 23.578125 -83.640625 C 28.234375 -87.710938 33.46875 -90.769531 39.28125 -92.8125 C 45.101562 -94.851562 51.160156 -95.875 57.453125 -95.875 C 65.253906 -95.875 72.734375 -94.210938 79.890625 -90.890625 C 87.046875 -87.578125 93.007812 -82.628906 97.78125 -76.046875 C 102.5625 -69.472656 105.242188 -61.238281 105.828125 -51.34375 Z M 87.84375 -57.28125 C 86.789062 -62.976562 84.722656 -67.546875 81.640625 -70.984375 C 78.554688 -74.421875 74.890625 -76.921875 70.640625 -78.484375 C 66.390625 -80.054688 61.992188 -80.84375 57.453125 -80.84375 C 52.910156 -80.84375 48.457031 -80.054688 44.09375 -78.484375 C 39.726562 -76.921875 35.941406 -74.390625 32.734375 -70.890625 C 29.535156 -67.398438 27.351562 -62.863281 26.1875 -57.28125 Z M 87.84375 -57.28125 "/></g></g></g><g fill="#ffffff" fill-opacity="1"><g transform="translate(715.802192, 434.888799)"><g><path d="M 30.203125 -82.765625 C 33.703125 -87.890625 37.925781 -91.351562 42.875 -93.15625 C 47.820312 -94.96875 53.265625 -95.875 59.203125 -95.875 C 68.859375 -95.875 76.679688 -94.007812 82.671875 -90.28125 C 88.671875 -86.550781 93.097656 -81.3125 95.953125 -74.5625 C 98.804688 -67.8125 100.234375 -59.894531 100.234375 -50.8125 L 100.234375 0 L 83.296875 0 L 83.296875 -50.640625 C 83.296875 -56.578125 82.625 -61.816406 81.28125 -66.359375 C 79.945312 -70.898438 77.445312 -74.421875 73.78125 -76.921875 C 70.113281 -79.421875 64.84375 -80.671875 57.96875 -80.671875 C 52.03125 -80.671875 46.992188 -79.359375 42.859375 -76.734375 C 38.734375 -74.117188 35.59375 -70.597656 33.4375 -66.171875 C 31.28125 -61.753906 30.203125 -56.8125 30.203125 -51.34375 L 30.203125 0 L 13.09375 0 L 13.09375 -94.46875 L 30.203125 -94.46875 Z M 30.203125 -82.765625 "/></g></g></g><g fill="#ffffff" fill-opacity="1"><g transform="translate(828.943404, 434.888799)"><g><path d="M 35.453125 -94.46875 L 56.234375 -94.46875 L 56.234375 -80.84375 L 35.453125 -80.84375 L 35.453125 -27.59375 C 35.453125 -22 36.726562 -18.300781 39.28125 -16.5 C 41.84375 -14.695312 45.28125 -13.796875 49.59375 -13.796875 C 50.644531 -13.796875 51.78125 -13.820312 53 -13.875 C 54.21875 -13.9375 55.46875 -14.023438 56.75 -14.140625 L 56.75 0.171875 C 55.351562 0.285156 54.015625 0.375 52.734375 0.4375 C 51.453125 0.5 50.171875 0.53125 48.890625 0.53125 C 42.722656 0.53125 37.335938 -0.3125 32.734375 -2 C 28.140625 -3.695312 24.585938 -6.582031 22.078125 -10.65625 C 19.578125 -14.726562 18.328125 -20.429688 18.328125 -27.765625 L 18.328125 -80.84375 L 4.1875 -80.84375 L 4.1875 -94.46875 L 18.328125 -94.46875 L 18.328125 -112.109375 L 35.453125 -115.421875 Z M 35.453125 -94.46875 "/></g></g></g><g fill="#ffffff" fill-opacity="1"><g transform="translate(889.006001, 434.888799)"><g><path d="M 30.03125 -82.765625 C 33.40625 -87.546875 37.390625 -91.007812 41.984375 -93.15625 C 46.585938 -95.3125 51.507812 -96.390625 56.75 -96.390625 C 58.613281 -96.390625 60.476562 -96.269531 62.34375 -96.03125 C 64.207031 -95.800781 66.066406 -95.457031 67.921875 -95 L 67.921875 -79.984375 C 65.128906 -80.796875 62.222656 -81.203125 59.203125 -81.203125 C 53.960938 -81.203125 49.128906 -79.890625 44.703125 -77.265625 C 40.273438 -74.648438 36.722656 -71.097656 34.046875 -66.609375 C 31.367188 -62.128906 30.03125 -56.984375 30.03125 -51.171875 L 30.03125 0 L 13.09375 0 L 13.09375 -94.296875 L 30.03125 -94.296875 Z M 30.03125 -82.765625 "/></g></g></g><g fill="#ffffff" fill-opacity="1"><g transform="translate(962.338295, 434.888799)"><g><path d="M 110.890625 -47.15625 C 110.890625 -39 109.460938 -31.863281 106.609375 -25.75 C 103.753906 -19.644531 99.878906 -14.550781 94.984375 -10.46875 C 90.097656 -6.394531 84.597656 -3.335938 78.484375 -1.296875 C 72.378906 0.734375 66.125 1.75 59.71875 1.75 C 53.4375 1.75 47.265625 0.734375 41.203125 -1.296875 C 35.148438 -3.335938 29.707031 -6.394531 24.875 -10.46875 C 20.050781 -14.550781 16.210938 -19.644531 13.359375 -25.75 C 10.503906 -31.863281 9.078125 -39 9.078125 -47.15625 C 9.078125 -55.300781 10.503906 -62.425781 13.359375 -68.53125 C 16.210938 -74.644531 20.082031 -79.738281 24.96875 -83.8125 C 29.863281 -87.894531 35.363281 -90.953125 41.46875 -92.984375 C 47.582031 -95.023438 53.84375 -96.046875 60.25 -96.046875 C 66.644531 -96.046875 72.84375 -95.023438 78.84375 -92.984375 C 84.84375 -90.953125 90.253906 -87.894531 95.078125 -83.8125 C 99.910156 -79.738281 103.753906 -74.644531 106.609375 -68.53125 C 109.460938 -62.425781 110.890625 -55.300781 110.890625 -47.15625 Z M 26.1875 -47.15625 C 26.1875 -39.695312 27.84375 -33.492188 31.15625 -28.546875 C 34.476562 -23.597656 38.726562 -19.875 43.90625 -17.375 C 49.09375 -14.875 54.484375 -13.625 60.078125 -13.625 C 65.773438 -13.625 71.1875 -14.875 76.3125 -17.375 C 81.4375 -19.875 85.65625 -23.625 88.96875 -28.625 C 92.289062 -33.632812 93.953125 -39.8125 93.953125 -47.15625 C 93.953125 -54.601562 92.320312 -60.828125 89.0625 -65.828125 C 85.800781 -70.835938 81.578125 -74.59375 76.390625 -77.09375 C 71.210938 -79.59375 65.832031 -80.84375 60.25 -80.84375 C 54.539062 -80.84375 49.09375 -79.59375 43.90625 -77.09375 C 38.726562 -74.59375 34.476562 -70.867188 31.15625 -65.921875 C 27.84375 -60.972656 26.1875 -54.71875 26.1875 -47.15625 Z M 26.1875 -47.15625 "/></g></g></g><g fill="#ffffff" fill-opacity="1"><g transform="translate(1083.511151, 434.888799)"><g/></g></g><g fill="#ffffff" fill-opacity="1"><g transform="translate(1126.986724, 434.888799)"><g><path d="M 59.71875 -122.234375 C 68.570312 -122.234375 75.90625 -120.253906 81.71875 -116.296875 C 87.539062 -112.335938 91.9375 -107.242188 94.90625 -101.015625 C 97.875 -94.785156 99.359375 -88.238281 99.359375 -81.375 C 99.359375 -74.625 97.875 -68.132812 94.90625 -61.90625 C 91.9375 -55.675781 87.539062 -50.582031 81.71875 -46.625 C 75.90625 -42.664062 68.570312 -40.6875 59.71875 -40.6875 L 32.828125 -40.6875 L 32.828125 0 L 15.015625 0 L 15.015625 -122.234375 Z M 59.71875 -58.15625 C 64.726562 -58.15625 68.863281 -59.285156 72.125 -61.546875 C 75.382812 -63.816406 77.828125 -66.695312 79.453125 -70.1875 C 81.085938 -73.6875 81.90625 -77.359375 81.90625 -81.203125 C 81.90625 -85.160156 81.085938 -88.882812 79.453125 -92.375 C 77.828125 -95.863281 75.382812 -98.742188 72.125 -101.015625 C 68.863281 -103.285156 64.726562 -104.421875 59.71875 -104.421875 L 32.828125 -104.421875 L 32.828125 -58.15625 Z M 59.71875 -58.15625 "/></g></g></g><g fill="#ffffff" fill-opacity="1"><g transform="translate(1230.69952, 434.888799)"><g><path d="M 30.03125 -82.765625 C 33.40625 -87.546875 37.390625 -91.007812 41.984375 -93.15625 C 46.585938 -95.3125 51.507812 -96.390625 56.75 -96.390625 C 58.613281 -96.390625 60.476562 -96.269531 62.34375 -96.03125 C 64.207031 -95.800781 66.066406 -95.457031 67.921875 -95 L 67.921875 -79.984375 C 65.128906 -80.796875 62.222656 -81.203125 59.203125 -81.203125 C 53.960938 -81.203125 49.128906 -79.890625 44.703125 -77.265625 C 40.273438 -74.648438 36.722656 -71.097656 34.046875 -66.609375 C 31.367188 -62.128906 30.03125 -56.984375 30.03125 -51.171875 L 30.03125 0 L 13.09375 0 L 13.09375 -94.296875 L 30.03125 -94.296875 Z M 30.03125 -82.765625 "/></g></g></g><g fill="#ffffff" fill-opacity="1"><g transform="translate(1304.031764, 434.888799)"><g><path d="M 110.890625 -47.15625 C 110.890625 -39 109.460938 -31.863281 106.609375 -25.75 C 103.753906 -19.644531 99.878906 -14.550781 94.984375 -10.46875 C 90.097656 -6.394531 84.597656 -3.335938 78.484375 -1.296875 C 72.378906 0.734375 66.125 1.75 59.71875 1.75 C 53.4375 1.75 47.265625 0.734375 41.203125 -1.296875 C 35.148438 -3.335938 29.707031 -6.394531 24.875 -10.46875 C 20.050781 -14.550781 16.210938 -19.644531 13.359375 -25.75 C 10.503906 -31.863281 9.078125 -39 9.078125 -47.15625 C 9.078125 -55.300781 10.503906 -62.425781 13.359375 -68.53125 C 16.210938 -74.644531 20.082031 -79.738281 24.96875 -83.8125 C 29.863281 -87.894531 35.363281 -90.953125 41.46875 -92.984375 C 47.582031 -95.023438 53.84375 -96.046875 60.25 -96.046875 C 66.644531 -96.046875 72.84375 -95.023438 78.84375 -92.984375 C 84.84375 -90.953125 90.253906 -87.894531 95.078125 -83.8125 C 99.910156 -79.738281 103.753906 -74.644531 106.609375 -68.53125 C 109.460938 -62.425781 110.890625 -55.300781 110.890625 -47.15625 Z M 26.1875 -47.15625 C 26.1875 -39.695312 27.84375 -33.492188 31.15625 -28.546875 C 34.476562 -23.597656 38.726562 -19.875 43.90625 -17.375 C 49.09375 -14.875 54.484375 -13.625 60.078125 -13.625 C 65.773438 -13.625 71.1875 -14.875 76.3125 -17.375 C 81.4375 -19.875 85.65625 -23.625 88.96875 -28.625 C 92.289062 -33.632812 93.953125 -39.8125 93.953125 -47.15625 C 93.953125 -54.601562 92.320312 -60.828125 89.0625 -65.828125 C 85.800781 -70.835938 81.578125 -74.59375 76.390625 -77.09375 C 71.210938 -79.59375 65.832031 -80.84375 60.25 -80.84375 C 54.539062 -80.84375 49.09375 -79.59375 43.90625 -77.09375 C 38.726562 -74.59375 34.476562 -70.867188 31.15625 -65.921875 C 27.84375 -60.972656 26.1875 -54.71875 26.1875 -47.15625 Z M 26.1875 -47.15625 "/></g></g></g><g fill="#ffffff" fill-opacity="1"><g transform="translate(1425.204621, 434.888799)"><g><path d="M 111.9375 -123.453125 L 62.34375 0.34375 L 49.421875 0.34375 L -0.171875 -123.453125 L 19.03125 -123.453125 L 55.875 -30.734375 L 93.078125 -123.453125 Z M 111.9375 -123.453125 "/></g></g></g><g fill="#ffffff" fill-opacity="1"><g transform="translate(1535.726844, 434.888799)"><g><path d="M 12.046875 -118.75 C 12.046875 -122.007812 13.179688 -124.453125 15.453125 -126.078125 C 17.722656 -127.710938 20.195312 -128.53125 22.875 -128.53125 C 25.550781 -128.53125 27.96875 -127.742188 30.125 -126.171875 C 32.28125 -124.597656 33.359375 -122.125 33.359375 -118.75 C 33.359375 -115.488281 32.25 -113.015625 30.03125 -111.328125 C 27.820312 -109.640625 25.378906 -108.796875 22.703125 -108.796875 C 20.140625 -108.796875 17.722656 -109.640625 15.453125 -111.328125 C 13.179688 -113.015625 12.046875 -115.488281 12.046875 -118.75 Z M 14.140625 -95.515625 L 14.140625 0 L 31.265625 0 L 31.265625 -95.515625 Z M 14.140625 -95.515625 "/></g></g></g><g fill="#ffffff" fill-opacity="1"><g transform="translate(1582.694419, 434.888799)"><g><path d="M 106 -122.234375 L 106 0 L 88.890625 0 L 88.890625 -12.75 C 85.503906 -7.625 80.875 -3.984375 75 -1.828125 C 69.125 0.316406 63.21875 1.453125 57.28125 1.578125 C 46.332031 1.578125 37.101562 -0.570312 29.59375 -4.875 C 22.082031 -9.1875 16.4375 -15.066406 12.65625 -22.515625 C 8.875 -29.972656 6.984375 -38.359375 6.984375 -47.671875 C 6.984375 -56.753906 8.929688 -64.929688 12.828125 -72.203125 C 16.734375 -79.484375 22.441406 -85.273438 29.953125 -89.578125 C 37.460938 -93.890625 46.515625 -96.046875 57.109375 -96.046875 C 62.921875 -96.046875 68.648438 -95.140625 74.296875 -93.328125 C 79.941406 -91.523438 84.804688 -87.832031 88.890625 -82.25 L 88.890625 -122.234375 Z M 88.890625 -47.328125 C 88.890625 -54.890625 87.34375 -61.144531 84.25 -66.09375 C 81.164062 -71.039062 77.207031 -74.765625 72.375 -77.265625 C 67.550781 -79.773438 62.460938 -81.03125 57.109375 -81.03125 C 50.117188 -81.03125 44.175781 -79.398438 39.28125 -76.140625 C 34.394531 -72.878906 30.640625 -68.6875 28.015625 -63.5625 C 25.398438 -58.4375 24.09375 -53.023438 24.09375 -47.328125 C 24.09375 -40.921875 25.375 -35.15625 27.9375 -30.03125 C 30.5 -24.914062 34.253906 -20.898438 39.203125 -17.984375 C 44.148438 -15.078125 50.054688 -13.625 56.921875 -13.625 C 62.273438 -13.625 67.394531 -14.84375 72.28125 -17.28125 C 77.175781 -19.726562 81.164062 -23.453125 84.25 -28.453125 C 87.34375 -33.460938 88.890625 -39.753906 88.890625 -47.328125 Z M 88.890625 -47.328125 "/></g></g></g><g fill="#ffffff" fill-opacity="1"><g transform="translate(1702.1213, 434.888799)"><g><path d="M 111.234375 0 L 94.125 0 L 94.125 -12.75 C 91.914062 -9.375 88.890625 -6.632812 85.046875 -4.53125 C 81.203125 -2.4375 77.125 -0.925781 72.8125 0 C 68.507812 0.925781 64.378906 1.453125 60.421875 1.578125 C 49.472656 1.578125 40.210938 -0.71875 32.640625 -5.3125 C 25.078125 -9.914062 19.347656 -15.972656 15.453125 -23.484375 C 11.554688 -30.992188 9.609375 -39.054688 9.609375 -47.671875 C 9.609375 -56.171875 11.585938 -64.085938 15.546875 -71.421875 C 19.503906 -78.753906 25.265625 -84.691406 32.828125 -89.234375 C 40.398438 -93.773438 49.484375 -96.046875 60.078125 -96.046875 C 64.035156 -96.046875 68.109375 -95.664062 72.296875 -94.90625 C 76.484375 -94.15625 80.5 -92.757812 84.34375 -90.71875 C 88.1875 -88.675781 91.503906 -85.738281 94.296875 -81.90625 L 94.125 -94.46875 L 111.234375 -94.46875 Z M 94.125 -47.328125 C 94.125 -54.890625 92.40625 -61.144531 88.96875 -66.09375 C 85.53125 -71.039062 81.191406 -74.765625 75.953125 -77.265625 C 70.722656 -79.773438 65.429688 -81.03125 60.078125 -81.03125 C 53.203125 -81.03125 47.257812 -79.546875 42.25 -76.578125 C 37.25 -73.609375 33.410156 -69.617188 30.734375 -64.609375 C 28.054688 -59.609375 26.71875 -53.960938 26.71875 -47.671875 C 26.71875 -41.734375 28.054688 -36.171875 30.734375 -30.984375 C 33.410156 -25.804688 37.222656 -21.617188 42.171875 -18.421875 C 47.117188 -15.222656 53.085938 -13.625 60.078125 -13.625 C 65.304688 -13.625 70.539062 -14.84375 75.78125 -17.28125 C 81.019531 -19.726562 85.382812 -23.453125 88.875 -28.453125 C 92.375 -33.460938 94.125 -39.753906 94.125 -47.328125 Z M 94.125 -47.328125 "/></g></g></g></svg>