<svg xmlns="http://www.w3.org/2000/svg" xmlns:xlink="http://www.w3.org/1999/xlink" width="500" zoomAndPan="magnify" viewBox="0 0 375 374.999991" height="500" preserveAspectRatio="xMidYMid meet" version="1.0"><defs><clipPath id="2785d403e4"><path d="M 204 47 L 353.546875 47 L 353.546875 138 L 204 138 Z M 204 47 " clip-rule="nonzero"/></clipPath><clipPath id="aa444e3b7d"><path d="M 21.296875 47 L 170 47 L 170 138 L 21.296875 138 Z M 21.296875 47 " clip-rule="nonzero"/></clipPath><clipPath id="f4ea3867a7"><path d="M 168 37.5 L 206 37.5 L 206 74 L 168 74 Z M 168 37.5 " clip-rule="nonzero"/></clipPath><clipPath id="63120e8556"><path d="M 167 257 L 214 257 L 214 337.5 L 167 337.5 Z M 167 257 " clip-rule="nonzero"/></clipPath><clipPath id="a3de8f4ccf"><path d="M 191 303 L 208 303 L 208 337.5 L 191 337.5 Z M 191 303 " clip-rule="nonzero"/></clipPath><clipPath id="a1ab6ef375"><path d="M 176 337 L 177 337 L 177 337.5 L 176 337.5 Z M 176 337 " clip-rule="nonzero"/></clipPath><clipPath id="6d07201c4c"><path d="M 197 336 L 198 336 L 198 337.5 L 197 337.5 Z M 197 336 " clip-rule="nonzero"/></clipPath></defs><path fill="#000000" d="M 199.804688 159.703125 C 202.480469 158.703125 204.171875 158.066406 205.859375 157.433594 C 205.820312 157.171875 205.78125 156.902344 205.742188 156.636719 C 203.480469 156.539062 201.210938 156.433594 198.902344 156.335938 C 198.75 153.203125 200.484375 151.59375 202.5 150.53125 C 212.292969 145.367188 222.203125 143.464844 232.148438 150.222656 C 236.054688 152.875 239.925781 155.566406 243.820312 158.230469 C 249.386719 162.035156 253.542969 171.800781 249.621094 179.652344 C 246.167969 186.554688 240.570312 190.542969 234.089844 193.71875 C 223.027344 199.144531 210.882812 200.875 199.058594 203.707031 C 191.539062 205.511719 184.0625 207.53125 176.679688 209.808594 C 173.582031 210.773438 170.597656 212.390625 167.859375 214.183594 C 159.320312 219.761719 159.347656 227.957031 163.839844 234.714844 C 165.894531 237.804688 169.21875 240.199219 172.316406 242.417969 C 174.957031 244.308594 178.097656 245.5 181.296875 247.136719 C 177.816406 248.929688 174.582031 250.652344 171.289062 252.25 C 170.59375 252.585938 169.617188 252.738281 168.898438 252.53125 C 159.101562 249.714844 149.574219 237.582031 148.839844 227.148438 C 148.269531 219.011719 151.128906 212.207031 157.027344 206.730469 C 162.207031 201.921875 168.109375 198.160156 174.820312 195.800781 C 183.195312 192.851562 191.527344 189.773438 199.96875 187.039062 C 207.445312 184.617188 215.085938 182.710938 222.578125 180.335938 C 225.824219 179.3125 229.085938 178.007812 231.980469 176.246094 C 236.09375 173.742188 236.160156 169.765625 232.4375 166.753906 C 230.292969 165.023438 228.109375 164.074219 224.976562 164.671875 C 218.695312 165.863281 212.382812 165.046875 206.320312 162.976562 C 204.351562 162.300781 202.5625 161.101562 199.804688 159.703125 Z M 211.664062 150.261719 C 211.519531 150.253906 211.382812 150.265625 211.238281 150.289062 C 209.371094 150.601562 209.667969 153.402344 211.558594 153.496094 C 211.621094 153.5 211.683594 153.5 211.746094 153.496094 C 213.777344 153.441406 213.691406 150.335938 211.664062 150.261719 Z M 211.664062 150.261719 " fill-opacity="1" fill-rule="nonzero"/><g clip-path="url(#2785d403e4)"><path fill="#000000" d="M 204.386719 137.140625 C 205.097656 134.398438 206.175781 131.691406 206.460938 128.902344 C 207.457031 119.207031 208.027344 109.46875 209.078125 99.78125 C 209.488281 95.960938 210.503906 92.171875 211.613281 88.476562 C 217.589844 68.566406 232.578125 58.140625 252.078125 56.628906 C 270.230469 55.21875 288.449219 54.703125 306.632812 53.796875 C 318.953125 53.179688 331.269531 52.5 343.335938 49.660156 C 346.367188 48.945312 349.382812 48.171875 353.535156 47.144531 C 352.128906 49.578125 351.386719 51.363281 350.21875 52.796875 C 346.832031 56.933594 342.246094 59.277344 337.242188 60.828125 C 327.996094 63.6875 318.476562 64.859375 308.835938 65.0625 C 293.496094 65.378906 278.148438 65.515625 262.816406 65.878906 C 259.542969 65.957031 256.234375 66.472656 253.015625 67.121094 C 236.015625 70.558594 224.261719 80.375 218.628906 96.792969 C 215.984375 104.488281 214.5625 112.585938 212.425781 120.464844 C 211.195312 125.007812 209.808594 129.53125 208.140625 133.925781 C 207.597656 135.363281 206.988281 137.699219 204.359375 137.046875 Z M 204.386719 137.140625 " fill-opacity="1" fill-rule="nonzero"/></g><g clip-path="url(#aa444e3b7d)"><path fill="#000000" d="M 169.449219 137.359375 C 166.300781 136.277344 165.472656 133.320312 164.660156 130.722656 C 163.121094 125.820312 162.097656 120.75 160.847656 115.75 C 159.527344 110.480469 158.480469 105.113281 156.808594 99.949219 C 149.898438 78.648438 135.554688 67.28125 113.171875 66.027344 C 99.160156 65.242188 85.101562 65.308594 71.054688 65.175781 C 60.410156 65.078125 49.882812 64.277344 39.550781 61.574219 C 34.503906 60.25 29.769531 58.277344 25.867188 54.695312 C 23.792969 52.785156 21.945312 50.691406 21.410156 47.539062 C 27.726562 48.847656 33.65625 50.5 39.699219 51.230469 C 49.644531 52.429688 59.648438 53.230469 69.65625 53.828125 C 87.105469 54.871094 104.574219 55.558594 122.03125 56.546875 C 129.726562 56.980469 136.9375 59.300781 143.601562 63.195312 C 155.457031 70.125 161.53125 81.082031 164.140625 94.054688 C 165.574219 101.191406 166 108.523438 166.855469 115.773438 C 167.707031 122.996094 168.53125 130.222656 169.367188 137.453125 Z M 169.449219 137.359375 " fill-opacity="1" fill-rule="nonzero"/></g><path fill="#000000" d="M 175.480469 156.445312 L 168.453125 156.445312 C 168.359375 156.90625 168.382812 156.808594 168.289062 157.269531 C 170.011719 157.976562 171.742188 158.6875 173.785156 159.527344 C 170.652344 162.382812 167.113281 164.007812 163.289062 164.320312 C 158.1875 164.734375 153.03125 164.617188 147.90625 164.441406 C 144.972656 164.34375 139.722656 167.386719 139.292969 170.230469 C 139.105469 171.476562 139.523438 173.214844 140.34375 174.125 C 141.734375 175.667969 143.484375 177.179688 145.386719 177.921875 C 150.582031 179.953125 155.902344 181.671875 161.230469 183.34375 C 166.960938 185.136719 172.753906 186.738281 178.503906 188.449219 C 178.871094 188.558594 179.175781 188.90625 179.652344 189.246094 C 174.566406 191.734375 169.355469 193.710938 164.785156 196.679688 C 160.394531 199.527344 156.523438 199.589844 151.625 198.160156 C 144.332031 196.035156 137.800781 192.707031 131.703125 188.378906 C 127.59375 185.460938 125.03125 181.34375 123.488281 176.585938 C 121.53125 170.570312 124.738281 162.300781 130.671875 158.109375 C 134.167969 155.636719 137.761719 153.292969 141.238281 150.78125 C 151.121094 143.660156 161.171875 145.074219 171.238281 150.191406 C 174.132812 151.65625 174.535156 152.546875 175.480469 156.445312 Z M 161.542969 153.027344 C 162.53125 153.847656 163.066406 153.820312 163.902344 152.902344 C 164.679688 152.046875 164.328125 150.628906 163.207031 150.320312 C 162.957031 150.25 162.703125 150.21875 162.457031 150.222656 C 161.011719 150.265625 160.429688 152.105469 161.542969 153.027344 Z M 161.542969 153.027344 " fill-opacity="1" fill-rule="nonzero"/><path fill="#000000" d="M 196.109375 208.25 C 201.269531 207.109375 206.449219 206.027344 211.597656 204.796875 C 213.589844 204.316406 215.089844 204.667969 216.667969 206.066406 C 227.027344 215.242188 228.496094 230.390625 219.972656 241.320312 C 216.65625 245.570312 212.535156 248.945312 207.71875 251.257812 C 201.539062 254.226562 195.148438 256.753906 188.878906 259.535156 C 184.964844 261.269531 180.859375 262.746094 177.269531 265.015625 C 168.042969 270.832031 167.261719 280.152344 175.1875 287.644531 C 177.558594 289.886719 180.273438 291.78125 183.234375 294.160156 C 181.179688 295.558594 179.230469 296.882812 177.175781 298.277344 C 171.132812 295.464844 166 291.820312 162.929688 285.765625 C 158.292969 276.632812 159.988281 266.15625 167.878906 259.644531 C 171.679688 256.503906 176.214844 254.125 180.683594 251.949219 C 186.210938 249.261719 192.117188 247.363281 197.65625 244.703125 C 201.101562 243.050781 204.339844 240.84375 207.378906 238.503906 C 210.410156 236.167969 212.070312 232.796875 212.910156 229.039062 C 214.078125 223.804688 212.828125 219.246094 208.625 215.933594 C 205.960938 213.835938 202.832031 212.316406 199.855469 210.628906 C 198.652344 209.941406 197.304688 209.503906 196.027344 208.949219 C 196.054688 208.710938 196.082031 208.480469 196.109375 208.25 Z M 196.109375 208.25 " fill-opacity="1" fill-rule="nonzero"/><path fill="#000000" d="M 143.753906 92.046875 C 133.949219 87.773438 124.28125 86.777344 114.496094 86.5625 C 101.023438 86.273438 87.550781 86.121094 74.082031 85.777344 C 65.738281 85.570312 57.53125 84.339844 49.613281 81.5625 C 45.054688 79.957031 41.042969 77.519531 38.1875 73.542969 C 37.15625 72.109375 36.511719 70.398438 35.539062 68.515625 C 42.476562 69.476562 48.777344 70.742188 55.132812 71.15625 C 68.144531 72.015625 81.183594 72.433594 94.210938 73.015625 C 104.097656 73.453125 114.035156 73.785156 123.613281 76.429688 C 128.375 77.75 132.996094 79.890625 137.359375 82.246094 C 140.765625 84.082031 143.105469 87.210938 143.753906 92.046875 Z M 143.753906 92.046875 " fill-opacity="1" fill-rule="nonzero"/><path fill="#000000" d="M 338.46875 68.578125 C 336.980469 73.96875 333.519531 77.417969 329.046875 79.496094 C 324.808594 81.46875 320.246094 83 315.664062 83.910156 C 310.214844 85.003906 304.601562 85.546875 299.042969 85.769531 C 288.019531 86.195312 276.980469 86.261719 265.945312 86.425781 C 254.054688 86.601562 242.195312 86.925781 230.492188 92.039062 C 230.925781 88.371094 232.535156 85.980469 234.742188 83.917969 C 238.394531 80.507812 242.847656 78.574219 247.554688 77.179688 C 257.816406 74.140625 268.417969 73.5625 279.011719 73.054688 C 292.320312 72.414062 305.644531 72.027344 318.941406 71.164062 C 325.308594 70.757812 331.628906 69.511719 338.46875 68.578125 Z M 338.46875 68.578125 " fill-opacity="1" fill-rule="nonzero"/><g clip-path="url(#f4ea3867a7)"><path fill="#000000" d="M 186.953125 73.96875 C 176.929688 73.871094 168.949219 65.847656 168.929688 55.839844 C 168.914062 45.738281 177.21875 37.511719 187.347656 37.605469 C 197.40625 37.691406 205.632812 46.1875 205.402344 56.234375 C 205.171875 66.171875 196.960938 74.070312 186.953125 73.96875 Z M 186.953125 73.96875 " fill-opacity="1" fill-rule="nonzero"/></g><path fill="#000000" d="M 181.625 90.101562 C 185.375 90.101562 188.875 90.101562 192.8125 90.101562 C 192.8125 91.722656 192.828125 93.117188 192.8125 94.507812 C 192.5 118.574219 192.179688 142.648438 191.867188 166.714844 C 191.796875 172.292969 191.609375 177.871094 191.691406 183.445312 C 191.726562 185.835938 191.050781 187.207031 188.59375 187.6875 C 186.925781 188.015625 185.332031 188.699219 183.097656 189.417969 C 182.84375 187.097656 182.441406 185.042969 182.421875 182.992188 C 182.058594 153.195312 181.746094 123.398438 181.433594 93.601562 C 181.40625 92.496094 181.542969 91.382812 181.625 90.101562 Z M 181.625 90.101562 " fill-opacity="1" fill-rule="nonzero"/><path fill="#000000" d="M 308.203125 89.847656 C 306.605469 96.40625 302.90625 100.460938 297.484375 103.027344 C 291.4375 105.886719 284.964844 107.132812 278.320312 107.351562 C 268.863281 107.667969 259.398438 107.886719 249.933594 108.054688 C 240.859375 108.222656 231.910156 108.886719 223.160156 113.585938 C 223.714844 108.09375 226.519531 104.707031 230.359375 102.03125 C 235.296875 98.59375 240.9375 96.890625 246.816406 96.199219 C 253.5 95.40625 260.226562 94.988281 266.941406 94.453125 C 277.792969 93.582031 288.65625 92.835938 299.5 91.855469 C 302.179688 91.613281 304.792969 90.65625 308.203125 89.847656 Z M 308.203125 89.847656 " fill-opacity="1" fill-rule="nonzero"/><path fill="#000000" d="M 151.285156 113.726562 C 142.78125 109.109375 134.40625 108.277344 125.898438 108.085938 C 115.714844 107.859375 105.53125 107.671875 95.355469 107.320312 C 89 107.101562 82.832031 105.804688 77.019531 103.136719 C 71.503906 100.601562 67.820312 96.476562 66.199219 90.589844 C 66.5625 90.347656 66.835938 90.023438 67.007812 90.074219 C 78.976562 93.601562 91.355469 93.5625 103.648438 94.332031 C 111.65625 94.832031 119.675781 95.339844 127.648438 96.214844 C 133.230469 96.824219 138.597656 98.511719 143.378906 101.625 C 147.472656 104.300781 150.328125 107.824219 151.285156 113.726562 Z M 151.285156 113.726562 " fill-opacity="1" fill-rule="nonzero"/><path fill="#000000" d="M 219.308594 132.816406 C 220.191406 126.226562 223.527344 122.578125 228.265625 119.996094 C 233.40625 117.191406 239.070312 116.289062 244.792969 115.84375 C 252.785156 115.222656 260.808594 115 268.78125 114.230469 C 274.015625 113.730469 279.1875 112.578125 284.742188 111.652344 C 284.082031 116.558594 281.328125 120.429688 276.816406 123.050781 C 272.144531 125.765625 266.972656 126.90625 261.617188 127.109375 C 254.464844 127.382812 247.308594 127.585938 240.152344 127.730469 C 233.082031 127.875 226.140625 128.503906 219.308594 132.816406 Z M 219.308594 132.816406 " fill-opacity="1" fill-rule="nonzero"/><path fill="#000000" d="M 89.527344 111.121094 C 102.460938 115.53125 115.726562 114.546875 128.75 115.761719 C 134.757812 116.324219 140.714844 117.101562 146.109375 120.046875 C 150.828125 122.617188 154.179688 126.246094 154.871094 132.582031 C 143.859375 126.09375 132.066406 128.246094 120.683594 127.363281 C 115.5625 126.960938 110.359375 126.949219 105.339844 125.996094 C 97.917969 124.582031 92.015625 120.835938 89.71875 113.015625 C 89.566406 112.511719 89.601562 111.957031 89.527344 111.121094 Z M 89.527344 111.121094 " fill-opacity="1" fill-rule="nonzero"/><g clip-path="url(#63120e8556)"><path fill="#000000" d="M 176.28125 337.109375 C 167.265625 332.558594 164.042969 319.710938 170.226562 310.796875 C 172.851562 307.003906 176.597656 303.871094 180.25 300.953125 C 183.925781 298.019531 188.175781 295.816406 192.054688 293.113281 C 194.746094 291.238281 197.449219 289.277344 199.753906 286.964844 C 206.742188 279.949219 205.996094 271.480469 198.046875 265.652344 C 196.554688 264.558594 194.9375 263.640625 192.847656 262.300781 C 196.816406 260.660156 200.425781 259.167969 203.875 257.742188 C 215.320312 264.609375 218.117188 281.761719 206.050781 292.53125 C 203.417969 294.882812 200.195312 296.628906 197.097656 298.386719 C 192.988281 300.714844 188.695312 302.699219 184.5625 304.988281 C 182.316406 306.230469 180.128906 307.644531 178.125 309.246094 C 169.480469 316.179688 168.367188 326.710938 175.21875 335.433594 C 175.632812 335.957031 175.867188 336.617188 176.1875 337.214844 Z M 176.28125 337.109375 " fill-opacity="1" fill-rule="nonzero"/></g><path fill="#000000" d="M 161.847656 70.121094 C 167.546875 73.9375 173.433594 77.222656 180.398438 78.269531 C 191.671875 79.96875 201.886719 77.695312 211.066406 70.855469 C 211.773438 70.328125 212.703125 70.097656 213.523438 69.722656 L 213.488281 69.609375 C 203.359375 89.855469 177.132812 92.671875 163.9375 74.902344 C 162.9375 73.558594 162.324219 71.933594 161.527344 70.433594 C 161.632812 70.328125 161.738281 70.222656 161.847656 70.121094 Z M 161.847656 70.121094 " fill-opacity="1" fill-rule="nonzero"/><path fill="#000000" d="M 190.597656 244.683594 C 188.285156 245.609375 186.359375 246.378906 183.875 247.375 C 183.613281 234.785156 183.367188 222.820312 183.113281 210.652344 C 185.714844 209.9375 188.019531 209.304688 190.597656 208.597656 C 190.597656 220.828125 190.597656 232.71875 190.597656 244.683594 Z M 190.597656 244.683594 " fill-opacity="1" fill-rule="nonzero"/><path fill="#000000" d="M 184.699219 293.84375 C 184.699219 284.003906 184.699219 274.351562 184.699219 264.289062 C 186.078125 263.730469 187.761719 263.050781 189.8125 262.214844 C 189.917969 263.613281 190.078125 264.679688 190.0625 265.734375 C 189.941406 273.023438 189.628906 280.316406 189.703125 287.605469 C 189.738281 291.035156 188.480469 292.960938 184.699219 293.84375 Z M 184.699219 293.84375 " fill-opacity="1" fill-rule="nonzero"/><path fill="#000000" d="M 185.144531 315.84375 C 185.089844 314.265625 185.234375 312.675781 185.03125 311.121094 C 184.660156 308.300781 185.882812 306.8125 189.226562 306.1875 " fill-opacity="1" fill-rule="nonzero"/><g clip-path="url(#a3de8f4ccf)"><path fill="#000000" d="M 197.777344 337.023438 C 200.28125 334.226562 202.296875 331.1875 203.007812 327.386719 C 204.390625 319.941406 202.269531 313.855469 196.207031 309.21875 C 194.746094 308.105469 193.28125 306.988281 191.496094 305.632812 C 193.417969 304.664062 195.039062 303.851562 196.554688 303.09375 C 206.785156 309.890625 210.074219 321.097656 204.605469 330.699219 C 203.046875 333.441406 201.496094 336.542969 197.667969 336.921875 Z M 197.777344 337.023438 " fill-opacity="1" fill-rule="nonzero"/></g><path fill="#000000" d="M 213.519531 69.722656 L 213.425781 69.410156 L 213.488281 69.609375 Z M 213.519531 69.722656 " fill-opacity="1" fill-rule="nonzero"/><path fill="#000000" d="M 161.527344 70.433594 C 161.402344 70.164062 161.269531 69.898438 161.144531 69.632812 C 161.375 69.796875 161.609375 69.960938 161.847656 70.121094 C 161.738281 70.222656 161.632812 70.328125 161.527344 70.433594 Z M 161.527344 70.433594 " fill-opacity="1" fill-rule="nonzero"/><path fill="#000000" d="M 169.355469 137.453125 C 169.46875 137.492188 169.585938 137.527344 169.699219 137.566406 C 169.613281 137.496094 169.53125 137.429688 169.441406 137.359375 Z M 169.355469 137.453125 " fill-opacity="1" fill-rule="nonzero"/><path fill="#000000" d="M 204.351562 137.046875 C 204.414062 137.140625 204.46875 137.234375 204.527344 137.324219 C 204.480469 137.265625 204.433594 137.207031 204.386719 137.140625 Z M 204.351562 137.046875 " fill-opacity="1" fill-rule="nonzero"/><g clip-path="url(#a1ab6ef375)"><path fill="#000000" d="M 176.179688 337.214844 C 176.355469 337.292969 176.527344 337.375 176.703125 337.449219 C 176.621094 337.445312 176.503906 337.472656 176.46875 337.433594 C 176.386719 337.347656 176.339844 337.21875 176.28125 337.109375 Z M 176.179688 337.214844 " fill-opacity="1" fill-rule="nonzero"/></g><g clip-path="url(#6d07201c4c)"><path fill="#000000" d="M 197.664062 336.917969 C 197.625 337.117188 197.589844 337.3125 197.554688 337.511719 C 197.535156 337.441406 197.488281 337.339844 197.515625 337.296875 C 197.582031 337.191406 197.683594 337.117188 197.777344 337.023438 Z M 197.664062 336.917969 " fill-opacity="1" fill-rule="nonzero"/></g></svg>