<svg xmlns="http://www.w3.org/2000/svg" xmlns:xlink="http://www.w3.org/1999/xlink" width="3000" zoomAndPan="magnify" viewBox="0 0 2250 749.999995" height="1000" preserveAspectRatio="xMidYMid meet" version="1.0"><defs><g/><clipPath id="7ebc34d2fb"><path d="M 92.863281 225 L 392.863281 225 L 392.863281 525 L 92.863281 525 Z M 92.863281 225 " clip-rule="nonzero"/></clipPath></defs><g clip-path="url(#7ebc34d2fb)"><path fill="#ffffff" d="M 242.863281 225 C 240.40625 225 237.953125 225.058594 235.5 225.179688 C 233.050781 225.300781 230.601562 225.480469 228.160156 225.722656 C 225.714844 225.964844 223.28125 226.261719 220.851562 226.625 C 218.425781 226.984375 216.007812 227.402344 213.597656 227.882812 C 211.191406 228.359375 208.796875 228.898438 206.414062 229.496094 C 204.035156 230.09375 201.667969 230.746094 199.320312 231.457031 C 196.96875 232.171875 194.640625 232.941406 192.328125 233.769531 C 190.015625 234.59375 187.726562 235.480469 185.460938 236.417969 C 183.191406 237.359375 180.949219 238.351562 178.730469 239.402344 C 176.507812 240.453125 174.316406 241.554688 172.152344 242.710938 C 169.988281 243.867188 167.851562 245.078125 165.746094 246.339844 C 163.640625 247.601562 161.566406 248.914062 159.527344 250.28125 C 157.484375 251.644531 155.480469 253.054688 153.507812 254.519531 C 151.535156 255.980469 149.601562 257.492188 147.703125 259.046875 C 145.804688 260.605469 143.945312 262.207031 142.128906 263.855469 C 140.308594 265.507812 138.53125 267.199219 136.796875 268.933594 C 135.058594 270.667969 133.367188 272.445312 131.71875 274.265625 C 130.070312 276.085938 128.46875 277.945312 126.910156 279.839844 C 125.351562 281.738281 123.84375 283.671875 122.378906 285.644531 C 120.917969 287.617188 119.503906 289.625 118.140625 291.664062 C 116.777344 293.707031 115.464844 295.777344 114.203125 297.882812 C 112.941406 299.988281 111.730469 302.125 110.574219 304.289062 C 109.417969 306.457031 108.3125 308.648438 107.261719 310.867188 C 106.214844 313.085938 105.21875 315.328125 104.28125 317.597656 C 103.339844 319.867188 102.457031 322.15625 101.628906 324.464844 C 100.804688 326.777344 100.035156 329.109375 99.320312 331.457031 C 98.609375 333.804688 97.953125 336.171875 97.355469 338.554688 C 96.761719 340.933594 96.222656 343.328125 95.742188 345.738281 C 95.265625 348.144531 94.84375 350.5625 94.484375 352.992188 C 94.125 355.417969 93.824219 357.855469 93.585938 360.296875 C 93.34375 362.742188 93.164062 365.1875 93.042969 367.640625 C 92.921875 370.089844 92.863281 372.546875 92.863281 375 C 92.863281 377.453125 92.921875 379.910156 93.042969 382.359375 C 93.164062 384.8125 93.34375 387.257812 93.585938 389.703125 C 93.824219 392.144531 94.125 394.582031 94.484375 397.007812 C 94.84375 399.4375 95.265625 401.855469 95.742188 404.261719 C 96.222656 406.671875 96.761719 409.066406 97.355469 411.445312 C 97.953125 413.828125 98.609375 416.195312 99.320312 418.542969 C 100.035156 420.890625 100.804688 423.222656 101.628906 425.535156 C 102.457031 427.84375 103.339844 430.132812 104.28125 432.402344 C 105.21875 434.671875 106.214844 436.914062 107.261719 439.132812 C 108.3125 441.351562 109.417969 443.542969 110.574219 445.710938 C 111.730469 447.875 112.941406 450.007812 114.203125 452.117188 C 115.464844 454.222656 116.777344 456.292969 118.140625 458.335938 C 119.503906 460.375 120.917969 462.382812 122.378906 464.355469 C 123.84375 466.328125 125.351562 468.261719 126.910156 470.160156 C 128.46875 472.054688 130.070312 473.914062 131.71875 475.734375 C 133.367188 477.550781 135.058594 479.332031 136.796875 481.066406 C 138.53125 482.800781 140.308594 484.492188 142.128906 486.144531 C 143.945312 487.792969 145.804688 489.394531 147.703125 490.953125 C 149.601562 492.507812 151.535156 494.019531 153.507812 495.480469 C 155.480469 496.945312 157.484375 498.355469 159.527344 499.71875 C 161.566406 501.085938 163.640625 502.398438 165.746094 503.660156 C 167.851562 504.921875 169.988281 506.132812 172.152344 507.289062 C 174.316406 508.445312 176.507812 509.546875 178.730469 510.597656 C 180.949219 511.648438 183.191406 512.640625 185.460938 513.582031 C 187.726562 514.519531 190.015625 515.40625 192.328125 516.230469 C 194.640625 517.058594 196.96875 517.828125 199.320312 518.542969 C 201.667969 519.253906 204.035156 519.90625 206.414062 520.503906 C 208.796875 521.101562 211.191406 521.640625 213.597656 522.117188 C 216.007812 522.597656 218.425781 523.015625 220.851562 523.375 C 223.28125 523.738281 225.714844 524.035156 228.160156 524.277344 C 230.601562 524.519531 233.050781 524.699219 235.5 524.820312 C 237.953125 524.941406 240.40625 525 242.863281 525 C 245.316406 525 247.769531 524.941406 250.222656 524.820312 C 252.675781 524.699219 255.121094 524.519531 257.5625 524.277344 C 260.007812 524.035156 262.441406 523.738281 264.871094 523.375 C 267.300781 523.015625 269.71875 522.597656 272.125 522.117188 C 274.53125 521.640625 276.925781 521.101562 279.308594 520.503906 C 281.691406 519.90625 284.054688 519.253906 286.40625 518.542969 C 288.753906 517.828125 291.082031 517.058594 293.394531 516.230469 C 295.707031 515.40625 297.996094 514.519531 300.265625 513.582031 C 302.53125 512.640625 304.777344 511.648438 306.996094 510.597656 C 309.214844 509.546875 311.40625 508.445312 313.570312 507.289062 C 315.734375 506.132812 317.871094 504.921875 319.976562 503.660156 C 322.082031 502.398438 324.15625 501.085938 326.199219 499.71875 C 328.238281 498.355469 330.246094 496.945312 332.214844 495.480469 C 334.1875 494.019531 336.125 492.507812 338.019531 490.953125 C 339.917969 489.394531 341.777344 487.792969 343.59375 486.144531 C 345.414062 484.492188 347.191406 482.800781 348.929688 481.066406 C 350.664062 479.332031 352.355469 477.550781 354.003906 475.734375 C 355.652344 473.914062 357.257812 472.054688 358.8125 470.160156 C 360.371094 468.261719 361.878906 466.328125 363.34375 464.355469 C 364.804688 462.382812 366.21875 460.375 367.582031 458.335938 C 368.945312 456.292969 370.257812 454.222656 371.519531 452.117188 C 372.78125 450.007812 373.992188 447.875 375.148438 445.710938 C 376.308594 443.542969 377.410156 441.351562 378.460938 439.132812 C 379.507812 436.914062 380.503906 434.671875 381.445312 432.402344 C 382.382812 430.132812 383.265625 427.84375 384.09375 425.535156 C 384.921875 423.222656 385.691406 420.890625 386.402344 418.542969 C 387.117188 416.195312 387.769531 413.828125 388.367188 411.445312 C 388.964844 409.066406 389.5 406.671875 389.980469 404.261719 C 390.457031 401.855469 390.878906 399.4375 391.238281 397.007812 C 391.597656 394.582031 391.898438 392.144531 392.140625 389.703125 C 392.378906 387.257812 392.5625 384.8125 392.679688 382.359375 C 392.800781 379.910156 392.863281 377.453125 392.863281 375 C 392.863281 372.546875 392.800781 370.089844 392.679688 367.640625 C 392.5625 365.1875 392.378906 362.742188 392.140625 360.296875 C 391.898438 357.855469 391.597656 355.417969 391.238281 352.992188 C 390.878906 350.5625 390.457031 348.144531 389.980469 345.738281 C 389.5 343.328125 388.964844 340.933594 388.367188 338.554688 C 387.769531 336.171875 387.117188 333.804688 386.402344 331.457031 C 385.691406 329.109375 384.921875 326.777344 384.09375 324.464844 C 383.265625 322.15625 382.382812 319.867188 381.445312 317.597656 C 380.503906 315.328125 379.507812 313.085938 378.460938 310.867188 C 377.410156 308.648438 376.308594 306.457031 375.148438 304.289062 C 373.992188 302.125 372.78125 299.988281 371.519531 297.882812 C 370.257812 295.777344 368.945312 293.707031 367.582031 291.664062 C 366.21875 289.625 364.804688 287.617188 363.34375 285.644531 C 361.878906 283.671875 360.371094 281.738281 358.8125 279.839844 C 357.257812 277.945312 355.652344 276.085938 354.003906 274.265625 C 352.355469 272.445312 350.664062 270.667969 348.929688 268.933594 C 347.191406 267.199219 345.414062 265.507812 343.59375 263.855469 C 341.777344 262.207031 339.917969 260.605469 338.019531 259.046875 C 336.125 257.492188 334.1875 255.980469 332.214844 254.519531 C 330.246094 253.054688 328.238281 251.644531 326.199219 250.28125 C 324.15625 248.914062 322.082031 247.601562 319.976562 246.339844 C 317.871094 245.078125 315.734375 243.867188 313.570312 242.710938 C 311.40625 241.554688 309.214844 240.453125 306.996094 239.402344 C 304.777344 238.351562 302.53125 237.359375 300.265625 236.417969 C 297.996094 235.480469 295.707031 234.59375 293.394531 233.769531 C 291.082031 232.941406 288.753906 232.171875 286.40625 231.457031 C 284.054688 230.746094 281.691406 230.09375 279.308594 229.496094 C 276.925781 228.898438 274.53125 228.359375 272.125 227.882812 C 269.71875 227.402344 267.300781 226.984375 264.871094 226.625 C 262.441406 226.261719 260.007812 225.964844 257.5625 225.722656 C 255.121094 225.480469 252.675781 225.300781 250.222656 225.179688 C 247.769531 225.058594 245.316406 225 242.863281 225 Z M 242.863281 235 C 245.101562 235 247.339844 235.050781 249.578125 235.15625 C 251.816406 235.261719 254.050781 235.421875 256.277344 235.636719 C 258.507812 235.847656 260.730469 236.117188 262.949219 236.4375 C 265.167969 236.753906 267.375 237.128906 269.574219 237.554688 C 271.773438 237.980469 273.960938 238.460938 276.136719 238.988281 C 278.3125 239.519531 280.476562 240.105469 282.625 240.738281 C 284.769531 241.375 286.902344 242.058594 289.019531 242.796875 C 291.132812 243.535156 293.230469 244.320312 295.308594 245.160156 C 297.386719 245.996094 299.441406 246.882812 301.476562 247.820312 C 303.511719 248.757812 305.523438 249.742188 307.511719 250.773438 C 309.496094 251.804688 311.460938 252.886719 313.394531 254.015625 C 315.332031 255.140625 317.238281 256.3125 319.117188 257.53125 C 320.996094 258.75 322.847656 260.015625 324.664062 261.320312 C 326.484375 262.628906 328.269531 263.980469 330.023438 265.371094 C 331.777344 266.765625 333.5 268.199219 335.183594 269.675781 C 336.867188 271.152344 338.519531 272.667969 340.128906 274.222656 C 341.742188 275.777344 343.316406 277.371094 344.851562 279 C 346.390625 280.628906 347.886719 282.296875 349.339844 284 C 350.796875 285.699219 352.210938 287.4375 353.582031 289.207031 C 354.957031 290.976562 356.285156 292.78125 357.570312 294.613281 C 358.859375 296.449219 360.101562 298.3125 361.296875 300.203125 C 362.492188 302.097656 363.644531 304.019531 364.75 305.96875 C 365.851562 307.917969 366.910156 309.890625 367.917969 311.890625 C 368.929688 313.890625 369.890625 315.914062 370.804688 317.957031 C 371.714844 320.003906 372.578125 322.070312 373.394531 324.15625 C 374.207031 326.246094 374.96875 328.351562 375.683594 330.472656 C 376.394531 332.597656 377.054688 334.738281 377.664062 336.890625 C 378.273438 339.046875 378.832031 341.214844 379.335938 343.398438 C 379.84375 345.582031 380.296875 347.773438 380.695312 349.976562 C 381.097656 352.183594 381.445312 354.394531 381.738281 356.613281 C 382.03125 358.835938 382.273438 361.0625 382.460938 363.292969 C 382.648438 365.527344 382.78125 367.761719 382.863281 370 L 357.863281 370 L 357.863281 353.75 C 357.863281 352.847656 357.773438 351.953125 357.597656 351.066406 C 357.421875 350.183594 357.160156 349.320312 356.816406 348.488281 C 356.46875 347.652344 356.046875 346.863281 355.542969 346.109375 C 355.042969 345.359375 354.472656 344.664062 353.835938 344.027344 C 353.195312 343.390625 352.5 342.820312 351.75 342.316406 C 351 341.816406 350.207031 341.390625 349.375 341.046875 C 348.539062 340.699219 347.679688 340.441406 346.792969 340.265625 C 345.910156 340.089844 345.015625 340 344.113281 340 L 277.863281 340 L 277.863281 273.75 C 277.863281 272.847656 277.773438 271.953125 277.597656 271.066406 C 277.421875 270.183594 277.160156 269.320312 276.816406 268.488281 C 276.46875 267.652344 276.046875 266.863281 275.542969 266.109375 C 275.042969 265.359375 274.472656 264.664062 273.835938 264.027344 C 273.195312 263.390625 272.5 262.820312 271.75 262.316406 C 271 261.816406 270.207031 261.390625 269.375 261.046875 C 268.539062 260.699219 267.679688 260.441406 266.792969 260.265625 C 265.910156 260.089844 265.015625 260 264.113281 260 L 221.613281 260 C 220.707031 260 219.816406 260.089844 218.929688 260.265625 C 218.042969 260.441406 217.183594 260.699219 216.351562 261.046875 C 215.515625 261.390625 214.722656 261.816406 213.972656 262.316406 C 213.222656 262.820312 212.527344 263.390625 211.890625 264.027344 C 211.25 264.664062 210.679688 265.359375 210.179688 266.109375 C 209.675781 266.863281 209.253906 267.652344 208.910156 268.488281 C 208.5625 269.320312 208.300781 270.183594 208.125 271.066406 C 207.949219 271.953125 207.863281 272.847656 207.863281 273.75 L 207.863281 340 L 141.613281 340 C 140.707031 340 139.816406 340.089844 138.929688 340.265625 C 138.042969 340.441406 137.183594 340.699219 136.351562 341.046875 C 135.515625 341.390625 134.722656 341.816406 133.972656 342.316406 C 133.222656 342.820312 132.527344 343.390625 131.890625 344.027344 C 131.25 344.664062 130.679688 345.359375 130.179688 346.109375 C 129.675781 346.863281 129.253906 347.652344 128.910156 348.488281 C 128.5625 349.320312 128.300781 350.183594 128.125 351.066406 C 127.949219 351.953125 127.863281 352.847656 127.863281 353.75 L 127.863281 370 L 102.863281 370 C 102.941406 367.761719 103.074219 365.527344 103.261719 363.292969 C 103.449219 361.0625 103.691406 358.835938 103.984375 356.613281 C 104.277344 354.394531 104.625 352.183594 105.027344 349.976562 C 105.425781 347.773438 105.878906 345.582031 106.386719 343.398438 C 106.890625 341.214844 107.449219 339.046875 108.058594 336.890625 C 108.667969 334.738281 109.328125 332.597656 110.042969 330.472656 C 110.753906 328.351562 111.515625 326.246094 112.332031 324.15625 C 113.144531 322.070312 114.007812 320.003906 114.921875 317.957031 C 115.832031 315.914062 116.792969 313.890625 117.804688 311.890625 C 118.8125 309.890625 119.871094 307.917969 120.976562 305.96875 C 122.078125 304.019531 123.230469 302.097656 124.425781 300.203125 C 125.625 298.3125 126.863281 296.449219 128.152344 294.613281 C 129.4375 292.78125 130.765625 290.976562 132.140625 289.207031 C 133.511719 287.4375 134.925781 285.699219 136.382812 284 C 137.839844 282.296875 139.335938 280.628906 140.871094 279 C 142.40625 277.371094 143.980469 275.777344 145.59375 274.222656 C 147.207031 272.667969 148.855469 271.152344 150.539062 269.675781 C 152.226562 268.199219 153.945312 266.765625 155.699219 265.371094 C 157.453125 263.980469 159.238281 262.628906 161.058594 261.320312 C 162.878906 260.015625 164.726562 258.75 166.605469 257.53125 C 168.484375 256.3125 170.394531 255.140625 172.328125 254.015625 C 174.265625 252.886719 176.226562 251.804688 178.214844 250.773438 C 180.203125 249.742188 182.210938 248.757812 184.246094 247.820312 C 186.28125 246.882812 188.339844 245.996094 190.417969 245.160156 C 192.492188 244.320312 194.589844 243.535156 196.707031 242.796875 C 198.820312 242.058594 200.953125 241.375 203.101562 240.738281 C 205.25 240.105469 207.410156 239.519531 209.585938 238.988281 C 211.761719 238.460938 213.949219 237.980469 216.148438 237.554688 C 218.347656 237.128906 220.558594 236.753906 222.773438 236.4375 C 224.992188 236.117188 227.214844 235.847656 229.445312 235.636719 C 231.675781 235.421875 233.90625 235.261719 236.144531 235.15625 C 238.382812 235.050781 240.621094 235 242.863281 235 Z M 212.863281 400 L 141.613281 400 C 141.117188 399.992188 140.640625 399.894531 140.183594 399.703125 C 139.726562 399.507812 139.324219 399.238281 138.972656 398.886719 C 138.625 398.535156 138.351562 398.132812 138.160156 397.675781 C 137.96875 397.222656 137.867188 396.746094 137.863281 396.25 L 137.863281 380 L 200.8125 380 L 209.3125 388.550781 C 209.882812 389.121094 210.550781 389.527344 211.316406 389.777344 C 212.085938 390.023438 212.867188 390.082031 213.660156 389.949219 C 214.449219 389.816406 215.167969 389.515625 215.8125 389.039062 C 216.453125 388.5625 216.953125 387.964844 217.3125 387.25 L 223.160156 375.601562 L 238.511719 402.5 C 238.960938 403.277344 239.574219 403.886719 240.351562 404.335938 C 241.128906 404.78125 241.964844 405.003906 242.863281 405 C 243.320312 404.976562 243.769531 404.890625 244.203125 404.742188 C 244.640625 404.59375 245.046875 404.390625 245.425781 404.128906 C 245.804688 403.871094 246.144531 403.5625 246.4375 403.210938 C 246.734375 402.855469 246.972656 402.46875 247.160156 402.050781 L 262.863281 366.699219 L 268.160156 377.25 C 268.378906 377.683594 268.652344 378.074219 268.984375 378.425781 C 269.3125 378.777344 269.6875 379.078125 270.105469 379.320312 C 270.523438 379.566406 270.964844 379.746094 271.433594 379.859375 C 271.902344 379.976562 272.378906 380.023438 272.863281 380 L 347.863281 380 L 347.863281 396.25 C 347.855469 396.746094 347.753906 397.222656 347.5625 397.675781 C 347.371094 398.132812 347.097656 398.535156 346.75 398.886719 C 346.398438 399.238281 345.996094 399.507812 345.539062 399.703125 C 345.082031 399.894531 344.605469 399.992188 344.113281 400 L 272.863281 400 C 272.535156 400 272.207031 400.03125 271.886719 400.097656 C 271.5625 400.160156 271.25 400.253906 270.949219 400.378906 C 270.644531 400.507812 270.355469 400.660156 270.082031 400.84375 C 269.8125 401.023438 269.558594 401.230469 269.328125 401.464844 C 269.09375 401.695312 268.886719 401.949219 268.703125 402.222656 C 268.523438 402.496094 268.367188 402.785156 268.242188 403.085938 C 268.117188 403.390625 268.023438 403.703125 267.957031 404.023438 C 267.894531 404.347656 267.863281 404.671875 267.863281 405 L 267.863281 476.25 C 267.855469 476.746094 267.753906 477.222656 267.5625 477.675781 C 267.371094 478.132812 267.097656 478.535156 266.75 478.886719 C 266.398438 479.238281 265.996094 479.507812 265.539062 479.703125 C 265.082031 479.894531 264.605469 479.992188 264.113281 480 L 221.613281 480 C 221.117188 479.992188 220.640625 479.894531 220.183594 479.703125 C 219.726562 479.507812 219.324219 479.238281 218.972656 478.886719 C 218.625 478.535156 218.351562 478.132812 218.160156 477.675781 C 217.96875 477.222656 217.867188 476.746094 217.863281 476.25 L 217.863281 405 C 217.863281 404.671875 217.828125 404.347656 217.765625 404.023438 C 217.703125 403.703125 217.605469 403.390625 217.480469 403.085938 C 217.355469 402.78125 217.203125 402.496094 217.019531 402.222656 C 216.835938 401.949219 216.628906 401.695312 216.398438 401.464844 C 216.164062 401.230469 215.914062 401.023438 215.640625 400.84375 C 215.367188 400.660156 215.078125 400.507812 214.773438 400.378906 C 214.472656 400.253906 214.160156 400.160156 213.835938 400.097656 C 213.515625 400.03125 213.191406 400 212.863281 400 Z M 275.960938 370 L 267.3125 352.75 C 267.105469 352.335938 266.84375 351.960938 266.53125 351.621094 C 266.21875 351.28125 265.867188 350.988281 265.476562 350.746094 C 265.082031 350.503906 264.664062 350.320312 264.21875 350.191406 C 263.777344 350.066406 263.324219 350 262.863281 350 C 262.390625 350.011719 261.929688 350.085938 261.476562 350.226562 C 261.027344 350.367188 260.605469 350.570312 260.210938 350.832031 C 259.816406 351.09375 259.464844 351.402344 259.160156 351.761719 C 258.855469 352.125 258.605469 352.519531 258.410156 352.949219 L 242.410156 388.949219 L 227.410156 362.5 C 227.183594 362.101562 226.90625 361.746094 226.578125 361.425781 C 226.25 361.105469 225.886719 360.832031 225.488281 360.613281 C 225.085938 360.394531 224.660156 360.230469 224.214844 360.125 C 223.769531 360.023438 223.320312 359.980469 222.863281 360 C 221.949219 360.03125 221.105469 360.292969 220.335938 360.785156 C 219.5625 361.277344 218.972656 361.933594 218.5625 362.75 L 211.660156 376.550781 L 206.660156 371.550781 C 206.167969 371.03125 205.589844 370.636719 204.929688 370.367188 C 204.265625 370.097656 203.578125 369.972656 202.863281 370 L 137.863281 370 L 137.863281 353.75 C 137.867188 353.253906 137.96875 352.777344 138.160156 352.324219 C 138.351562 351.867188 138.625 351.460938 138.972656 351.113281 C 139.324219 350.761719 139.726562 350.492188 140.183594 350.296875 C 140.640625 350.105469 141.117188 350.007812 141.613281 350 L 212.863281 350 C 213.191406 350 213.515625 349.96875 213.835938 349.902344 C 214.160156 349.839844 214.472656 349.746094 214.773438 349.621094 C 215.078125 349.492188 215.367188 349.339844 215.640625 349.15625 C 215.914062 348.976562 216.164062 348.769531 216.398438 348.535156 C 216.628906 348.304688 216.835938 348.050781 217.019531 347.777344 C 217.203125 347.503906 217.355469 347.214844 217.480469 346.914062 C 217.605469 346.609375 217.703125 346.296875 217.765625 345.976562 C 217.828125 345.652344 217.863281 345.328125 217.863281 345 L 217.863281 273.75 C 217.867188 273.253906 217.96875 272.777344 218.160156 272.324219 C 218.351562 271.867188 218.625 271.464844 218.972656 271.113281 C 219.324219 270.761719 219.726562 270.492188 220.183594 270.296875 C 220.640625 270.105469 221.117188 270.007812 221.613281 270 L 264.113281 270 C 264.605469 270.007812 265.082031 270.105469 265.539062 270.296875 C 265.996094 270.492188 266.398438 270.761719 266.75 271.113281 C 267.097656 271.464844 267.371094 271.867188 267.5625 272.324219 C 267.753906 272.777344 267.855469 273.253906 267.863281 273.75 L 267.863281 345 C 267.863281 345.328125 267.894531 345.652344 267.957031 345.976562 C 268.023438 346.296875 268.117188 346.609375 268.242188 346.914062 C 268.367188 347.214844 268.523438 347.503906 268.703125 347.777344 C 268.886719 348.050781 269.09375 348.304688 269.328125 348.535156 C 269.558594 348.769531 269.8125 348.976562 270.082031 349.15625 C 270.355469 349.339844 270.644531 349.492188 270.949219 349.621094 C 271.25 349.746094 271.5625 349.839844 271.886719 349.902344 C 272.207031 349.96875 272.535156 350 272.863281 350 L 344.113281 350 C 344.605469 350.007812 345.082031 350.105469 345.539062 350.296875 C 345.996094 350.492188 346.398438 350.761719 346.75 351.113281 C 347.097656 351.460938 347.371094 351.867188 347.5625 352.324219 C 347.753906 352.777344 347.855469 353.253906 347.863281 353.75 L 347.863281 370 Z M 242.863281 515 C 240.621094 515 238.382812 514.949219 236.144531 514.84375 C 233.90625 514.738281 231.675781 514.578125 229.445312 514.363281 C 227.214844 514.152344 224.992188 513.882812 222.773438 513.5625 C 220.558594 513.246094 218.347656 512.871094 216.148438 512.445312 C 213.949219 512.019531 211.761719 511.539062 209.585938 511.011719 C 207.410156 510.480469 205.25 509.894531 203.101562 509.261719 C 200.953125 508.625 198.820312 507.941406 196.707031 507.203125 C 194.589844 506.464844 192.492188 505.679688 190.417969 504.839844 C 188.339844 504.003906 186.28125 503.117188 184.246094 502.179688 C 182.210938 501.242188 180.203125 500.257812 178.214844 499.226562 C 176.226562 498.195312 174.265625 497.113281 172.328125 495.984375 C 170.394531 494.859375 168.484375 493.6875 166.605469 492.46875 C 164.726562 491.25 162.878906 489.984375 161.058594 488.679688 C 159.238281 487.371094 157.453125 486.019531 155.699219 484.628906 C 153.945312 483.234375 152.226562 481.800781 150.539062 480.324219 C 148.855469 478.847656 147.207031 477.332031 145.59375 475.777344 C 143.980469 474.222656 142.40625 472.628906 140.871094 471 C 139.335938 469.371094 137.839844 467.703125 136.382812 466 C 134.925781 464.300781 133.511719 462.5625 132.140625 460.792969 C 130.765625 459.023438 129.4375 457.21875 128.152344 455.386719 C 126.863281 453.550781 125.625 451.6875 124.425781 449.796875 C 123.230469 447.902344 122.078125 445.980469 120.976562 444.03125 C 119.871094 442.082031 118.8125 440.109375 117.804688 438.109375 C 116.792969 436.109375 115.832031 434.085938 114.921875 432.042969 C 114.007812 429.996094 113.144531 427.929688 112.332031 425.84375 C 111.515625 423.753906 110.753906 421.648438 110.042969 419.527344 C 109.328125 417.402344 108.667969 415.261719 108.058594 413.109375 C 107.449219 410.953125 106.890625 408.785156 106.386719 406.601562 C 105.878906 404.417969 105.425781 402.226562 105.027344 400.023438 C 104.625 397.816406 104.277344 395.605469 103.984375 393.386719 C 103.691406 391.164062 103.449219 388.9375 103.261719 386.707031 C 103.074219 384.472656 102.941406 382.238281 102.863281 380 L 127.863281 380 L 127.863281 396.25 C 127.863281 397.152344 127.949219 398.046875 128.125 398.933594 C 128.300781 399.816406 128.5625 400.679688 128.910156 401.511719 C 129.253906 402.347656 129.675781 403.136719 130.179688 403.890625 C 130.679688 404.640625 131.25 405.335938 131.890625 405.972656 C 132.527344 406.609375 133.222656 407.179688 133.972656 407.683594 C 134.722656 408.183594 135.515625 408.609375 136.351562 408.953125 C 137.183594 409.296875 138.042969 409.558594 138.929688 409.734375 C 139.816406 409.910156 140.707031 410 141.613281 410 L 207.863281 410 L 207.863281 476.25 C 207.863281 477.152344 207.949219 478.046875 208.125 478.933594 C 208.300781 479.816406 208.5625 480.675781 208.910156 481.511719 C 209.253906 482.347656 209.675781 483.136719 210.179688 483.890625 C 210.679688 484.640625 211.25 485.335938 211.890625 485.972656 C 212.527344 486.609375 213.222656 487.179688 213.972656 487.683594 C 214.722656 488.183594 215.515625 488.609375 216.351562 488.953125 C 217.183594 489.296875 218.042969 489.558594 218.929688 489.734375 C 219.816406 489.910156 220.707031 490 221.613281 490 L 264.113281 490 C 265.015625 490 265.910156 489.910156 266.792969 489.734375 C 267.679688 489.558594 268.539062 489.296875 269.375 488.953125 C 270.207031 488.609375 271 488.183594 271.75 487.683594 C 272.5 487.179688 273.195312 486.609375 273.835938 485.972656 C 274.472656 485.335938 275.042969 484.640625 275.542969 483.890625 C 276.046875 483.136719 276.46875 482.347656 276.816406 481.511719 C 277.160156 480.675781 277.421875 479.816406 277.597656 478.933594 C 277.773438 478.046875 277.863281 477.152344 277.863281 476.25 L 277.863281 410 L 344.113281 410 C 345.015625 410 345.910156 409.910156 346.792969 409.734375 C 347.679688 409.558594 348.539062 409.296875 349.375 408.953125 C 350.207031 408.609375 351 408.183594 351.75 407.683594 C 352.5 407.179688 353.195312 406.609375 353.835938 405.972656 C 354.472656 405.335938 355.042969 404.640625 355.542969 403.890625 C 356.046875 403.136719 356.46875 402.347656 356.816406 401.511719 C 357.160156 400.679688 357.421875 399.816406 357.597656 398.933594 C 357.773438 398.046875 357.863281 397.152344 357.863281 396.25 L 357.863281 380 L 382.863281 380 C 382.78125 382.238281 382.648438 384.472656 382.460938 386.707031 C 382.273438 388.9375 382.03125 391.164062 381.738281 393.386719 C 381.445312 395.605469 381.097656 397.816406 380.695312 400.023438 C 380.296875 402.226562 379.84375 404.417969 379.339844 406.601562 C 378.832031 408.785156 378.273438 410.953125 377.664062 413.109375 C 377.054688 415.261719 376.394531 417.402344 375.683594 419.527344 C 374.96875 421.648438 374.207031 423.753906 373.394531 425.84375 C 372.578125 427.929688 371.714844 429.996094 370.804688 432.042969 C 369.890625 434.085938 368.929688 436.109375 367.917969 438.109375 C 366.910156 440.109375 365.851562 442.082031 364.75 444.03125 C 363.644531 445.980469 362.492188 447.902344 361.296875 449.796875 C 360.101562 451.6875 358.859375 453.550781 357.574219 455.386719 C 356.285156 457.21875 354.957031 459.023438 353.582031 460.792969 C 352.210938 462.5625 350.796875 464.300781 349.339844 466 C 347.886719 467.703125 346.390625 469.371094 344.851562 471 C 343.316406 472.628906 341.742188 474.222656 340.128906 475.777344 C 338.519531 477.332031 336.867188 478.847656 335.183594 480.324219 C 333.5 481.800781 331.777344 483.234375 330.023438 484.628906 C 328.269531 486.019531 326.484375 487.371094 324.664062 488.679688 C 322.847656 489.984375 320.996094 491.25 319.117188 492.46875 C 317.238281 493.6875 315.332031 494.859375 313.394531 495.984375 C 311.460938 497.113281 309.496094 498.195312 307.511719 499.226562 C 305.523438 500.257812 303.511719 501.242188 301.476562 502.179688 C 299.441406 503.117188 297.386719 504.003906 295.308594 504.839844 C 293.230469 505.679688 291.132812 506.464844 289.019531 507.203125 C 286.902344 507.941406 284.769531 508.625 282.625 509.261719 C 280.476562 509.894531 278.3125 510.480469 276.136719 511.011719 C 273.960938 511.539062 271.773438 512.019531 269.574219 512.445312 C 267.375 512.871094 265.167969 513.246094 262.949219 513.5625 C 260.730469 513.882812 258.507812 514.152344 256.277344 514.363281 C 254.050781 514.578125 251.816406 514.738281 249.578125 514.84375 C 247.339844 514.949219 245.101562 515 242.863281 515 Z M 242.863281 515 " fill-opacity="1" fill-rule="nonzero"/></g><g fill="#ffffff" fill-opacity="1"><g transform="translate(409.592339, 434.888799)"><g><path d="M 55.359375 -107.046875 L 55.359375 -16.421875 L 78.0625 -16.421875 L 78.0625 0 L 15.015625 0 L 15.015625 -16.421875 L 37.71875 -16.421875 L 37.71875 -107.046875 L 15.015625 -107.046875 L 15.015625 -123.28125 L 78.0625 -123.28125 L 78.0625 -107.046875 Z M 55.359375 -107.046875 "/></g></g></g><g fill="#ffffff" fill-opacity="1"><g transform="translate(502.479874, 434.888799)"><g><path d="M 30.203125 -82.765625 C 33.703125 -87.890625 37.925781 -91.351562 42.875 -93.15625 C 47.820312 -94.96875 53.265625 -95.875 59.203125 -95.875 C 68.859375 -95.875 76.679688 -94.007812 82.671875 -90.28125 C 88.671875 -86.550781 93.097656 -81.3125 95.953125 -74.5625 C 98.804688 -67.8125 100.234375 -59.894531 100.234375 -50.8125 L 100.234375 0 L 83.296875 0 L 83.296875 -50.640625 C 83.296875 -56.578125 82.625 -61.816406 81.28125 -66.359375 C 79.945312 -70.898438 77.445312 -74.421875 73.78125 -76.921875 C 70.113281 -79.421875 64.84375 -80.671875 57.96875 -80.671875 C 52.03125 -80.671875 46.992188 -79.359375 42.859375 -76.734375 C 38.734375 -74.117188 35.59375 -70.597656 33.4375 -66.171875 C 31.28125 -61.753906 30.203125 -56.8125 30.203125 -51.34375 L 30.203125 0 L 13.09375 0 L 13.09375 -94.46875 L 30.203125 -94.46875 Z M 30.203125 -82.765625 "/></g></g></g><g fill="#ffffff" fill-opacity="1"><g transform="translate(615.621086, 434.888799)"><g><path d="M 24.96875 -67.234375 C 24.96875 -64.316406 25.695312 -62.039062 27.15625 -60.40625 C 28.613281 -58.78125 30.503906 -57.617188 32.828125 -56.921875 C 35.160156 -56.222656 37.578125 -55.785156 40.078125 -55.609375 C 42.578125 -55.441406 44.875 -55.300781 46.96875 -55.1875 C 51.394531 -54.832031 55.847656 -54.160156 60.328125 -53.171875 C 64.816406 -52.179688 68.921875 -50.664062 72.640625 -48.625 C 76.367188 -46.59375 79.367188 -43.800781 81.640625 -40.25 C 83.910156 -36.695312 85.046875 -32.242188 85.046875 -26.890625 C 85.046875 -21.421875 83.847656 -16.851562 81.453125 -13.1875 C 79.066406 -9.519531 75.925781 -6.609375 72.03125 -4.453125 C 68.132812 -2.296875 63.859375 -0.753906 59.203125 0.171875 C 54.546875 1.109375 50.003906 1.578125 45.578125 1.578125 C 39.054688 1.578125 32.914062 0.585938 27.15625 -1.390625 C 21.394531 -3.367188 16.648438 -6.597656 12.921875 -11.078125 C 9.191406 -15.566406 7.097656 -21.535156 6.640625 -28.984375 L 23.75 -28.984375 C 24.09375 -23.742188 26.414062 -19.8125 30.71875 -17.1875 C 35.03125 -14.570312 40.097656 -13.265625 45.921875 -13.265625 C 48.835938 -13.265625 51.984375 -13.644531 55.359375 -14.40625 C 58.734375 -15.164062 61.671875 -16.5625 64.171875 -18.59375 C 66.671875 -20.632812 67.921875 -23.515625 67.921875 -27.234375 C 67.921875 -29.921875 67.132812 -32.046875 65.5625 -33.609375 C 64 -35.179688 61.992188 -36.40625 59.546875 -37.28125 C 57.097656 -38.15625 54.59375 -38.765625 52.03125 -39.109375 C 49.476562 -39.460938 47.148438 -39.695312 45.046875 -39.8125 C 40.859375 -40.039062 36.582031 -40.59375 32.21875 -41.46875 C 27.851562 -42.34375 23.835938 -43.769531 20.171875 -45.75 C 16.503906 -47.726562 13.5625 -50.429688 11.34375 -53.859375 C 9.132812 -57.296875 8.03125 -61.632812 8.03125 -66.875 C 8.03125 -74.207031 9.890625 -80.03125 13.609375 -84.34375 C 17.335938 -88.65625 22.113281 -91.738281 27.9375 -93.59375 C 33.757812 -95.457031 39.695312 -96.390625 45.75 -96.390625 C 52.039062 -96.390625 57.863281 -95.457031 63.21875 -93.59375 C 68.570312 -91.738281 72.992188 -88.769531 76.484375 -84.6875 C 79.972656 -80.613281 81.894531 -75.257812 82.25 -68.625 L 65.3125 -68.625 C 64.84375 -72.820312 62.65625 -75.9375 58.75 -77.96875 C 54.851562 -80.007812 50.347656 -81.03125 45.234375 -81.03125 C 39.992188 -81.03125 35.304688 -79.953125 31.171875 -77.796875 C 27.035156 -75.640625 24.96875 -72.117188 24.96875 -67.234375 Z M 24.96875 -67.234375 "/></g></g></g><g fill="#ffffff" fill-opacity="1"><g transform="translate(706.588018, 434.888799)"><g><path d="M 35.453125 -94.46875 L 56.234375 -94.46875 L 56.234375 -80.84375 L 35.453125 -80.84375 L 35.453125 -27.59375 C 35.453125 -22 36.726562 -18.300781 39.28125 -16.5 C 41.84375 -14.695312 45.28125 -13.796875 49.59375 -13.796875 C 50.644531 -13.796875 51.78125 -13.820312 53 -13.875 C 54.21875 -13.9375 55.46875 -14.023438 56.75 -14.140625 L 56.75 0.171875 C 55.351562 0.285156 54.015625 0.375 52.734375 0.4375 C 51.453125 0.5 50.171875 0.53125 48.890625 0.53125 C 42.722656 0.53125 37.335938 -0.3125 32.734375 -2 C 28.140625 -3.695312 24.585938 -6.582031 22.078125 -10.65625 C 19.578125 -14.726562 18.328125 -20.429688 18.328125 -27.765625 L 18.328125 -80.84375 L 4.1875 -80.84375 L 4.1875 -94.46875 L 18.328125 -94.46875 L 18.328125 -112.109375 L 35.453125 -115.421875 Z M 35.453125 -94.46875 "/></g></g></g><g fill="#ffffff" fill-opacity="1"><g transform="translate(766.650639, 434.888799)"><g><path d="M 12.046875 -118.75 C 12.046875 -122.007812 13.179688 -124.453125 15.453125 -126.078125 C 17.722656 -127.710938 20.195312 -128.53125 22.875 -128.53125 C 25.550781 -128.53125 27.96875 -127.742188 30.125 -126.171875 C 32.28125 -124.597656 33.359375 -122.125 33.359375 -118.75 C 33.359375 -115.488281 32.25 -113.015625 30.03125 -111.328125 C 27.820312 -109.640625 25.378906 -108.796875 22.703125 -108.796875 C 20.140625 -108.796875 17.722656 -109.640625 15.453125 -111.328125 C 13.179688 -113.015625 12.046875 -115.488281 12.046875 -118.75 Z M 14.140625 -95.515625 L 14.140625 0 L 31.265625 0 L 31.265625 -95.515625 Z M 14.140625 -95.515625 "/></g></g></g><g fill="#ffffff" fill-opacity="1"><g transform="translate(813.618215, 434.888799)"><g><path d="M 35.453125 -94.46875 L 56.234375 -94.46875 L 56.234375 -80.84375 L 35.453125 -80.84375 L 35.453125 -27.59375 C 35.453125 -22 36.726562 -18.300781 39.28125 -16.5 C 41.84375 -14.695312 45.28125 -13.796875 49.59375 -13.796875 C 50.644531 -13.796875 51.78125 -13.820312 53 -13.875 C 54.21875 -13.9375 55.46875 -14.023438 56.75 -14.140625 L 56.75 0.171875 C 55.351562 0.285156 54.015625 0.375 52.734375 0.4375 C 51.453125 0.5 50.171875 0.53125 48.890625 0.53125 C 42.722656 0.53125 37.335938 -0.3125 32.734375 -2 C 28.140625 -3.695312 24.585938 -6.582031 22.078125 -10.65625 C 19.578125 -14.726562 18.328125 -20.429688 18.328125 -27.765625 L 18.328125 -80.84375 L 4.1875 -80.84375 L 4.1875 -94.46875 L 18.328125 -94.46875 L 18.328125 -112.109375 L 35.453125 -115.421875 Z M 35.453125 -94.46875 "/></g></g></g><g fill="#ffffff" fill-opacity="1"><g transform="translate(873.680811, 434.888799)"><g><path d="M 82.765625 -12.390625 C 79.273438 -7.273438 74.96875 -3.695312 69.84375 -1.65625 C 64.726562 0.375 59.082031 1.390625 52.90625 1.390625 C 43.363281 1.390625 35.566406 -0.46875 29.515625 -4.1875 C 23.460938 -7.914062 19.007812 -13.179688 16.15625 -19.984375 C 13.300781 -26.796875 11.875 -34.6875 11.875 -43.65625 L 11.875 -95.34375 L 28.984375 -95.34375 L 28.984375 -43.65625 C 28.984375 -37.832031 29.648438 -32.648438 30.984375 -28.109375 C 32.328125 -23.566406 34.800781 -20.046875 38.40625 -17.546875 C 42.019531 -15.046875 47.265625 -13.796875 54.140625 -13.796875 C 63.097656 -13.796875 69.960938 -16.617188 74.734375 -22.265625 C 79.515625 -27.910156 81.90625 -34.863281 81.90625 -43.125 L 81.90625 -95.34375 L 99.015625 -95.34375 L 99.015625 0 L 82.765625 0 Z M 82.765625 -12.390625 "/></g></g></g><g fill="#ffffff" fill-opacity="1"><g transform="translate(986.123638, 434.888799)"><g><path d="M 35.453125 -94.46875 L 56.234375 -94.46875 L 56.234375 -80.84375 L 35.453125 -80.84375 L 35.453125 -27.59375 C 35.453125 -22 36.726562 -18.300781 39.28125 -16.5 C 41.84375 -14.695312 45.28125 -13.796875 49.59375 -13.796875 C 50.644531 -13.796875 51.78125 -13.820312 53 -13.875 C 54.21875 -13.9375 55.46875 -14.023438 56.75 -14.140625 L 56.75 0.171875 C 55.351562 0.285156 54.015625 0.375 52.734375 0.4375 C 51.453125 0.5 50.171875 0.53125 48.890625 0.53125 C 42.722656 0.53125 37.335938 -0.3125 32.734375 -2 C 28.140625 -3.695312 24.585938 -6.582031 22.078125 -10.65625 C 19.578125 -14.726562 18.328125 -20.429688 18.328125 -27.765625 L 18.328125 -80.84375 L 4.1875 -80.84375 L 4.1875 -94.46875 L 18.328125 -94.46875 L 18.328125 -112.109375 L 35.453125 -115.421875 Z M 35.453125 -94.46875 "/></g></g></g><g fill="#ffffff" fill-opacity="1"><g transform="translate(1046.186282, 434.888799)"><g><path d="M 110.890625 -47.15625 C 110.890625 -39 109.460938 -31.863281 106.609375 -25.75 C 103.753906 -19.644531 99.878906 -14.550781 94.984375 -10.46875 C 90.097656 -6.394531 84.597656 -3.335938 78.484375 -1.296875 C 72.378906 0.734375 66.125 1.75 59.71875 1.75 C 53.4375 1.75 47.265625 0.734375 41.203125 -1.296875 C 35.148438 -3.335938 29.707031 -6.394531 24.875 -10.46875 C 20.050781 -14.550781 16.210938 -19.644531 13.359375 -25.75 C 10.503906 -31.863281 9.078125 -39 9.078125 -47.15625 C 9.078125 -55.300781 10.503906 -62.425781 13.359375 -68.53125 C 16.210938 -74.644531 20.082031 -79.738281 24.96875 -83.8125 C 29.863281 -87.894531 35.363281 -90.953125 41.46875 -92.984375 C 47.582031 -95.023438 53.84375 -96.046875 60.25 -96.046875 C 66.644531 -96.046875 72.84375 -95.023438 78.84375 -92.984375 C 84.84375 -90.953125 90.253906 -87.894531 95.078125 -83.8125 C 99.910156 -79.738281 103.753906 -74.644531 106.609375 -68.53125 C 109.460938 -62.425781 110.890625 -55.300781 110.890625 -47.15625 Z M 26.1875 -47.15625 C 26.1875 -39.695312 27.84375 -33.492188 31.15625 -28.546875 C 34.476562 -23.597656 38.726562 -19.875 43.90625 -17.375 C 49.09375 -14.875 54.484375 -13.625 60.078125 -13.625 C 65.773438 -13.625 71.1875 -14.875 76.3125 -17.375 C 81.4375 -19.875 85.65625 -23.625 88.96875 -28.625 C 92.289062 -33.632812 93.953125 -39.8125 93.953125 -47.15625 C 93.953125 -54.601562 92.320312 -60.828125 89.0625 -65.828125 C 85.800781 -70.835938 81.578125 -74.59375 76.390625 -77.09375 C 71.210938 -79.59375 65.832031 -80.84375 60.25 -80.84375 C 54.539062 -80.84375 49.09375 -79.59375 43.90625 -77.09375 C 38.726562 -74.59375 34.476562 -70.867188 31.15625 -65.921875 C 27.84375 -60.972656 26.1875 -54.71875 26.1875 -47.15625 Z M 26.1875 -47.15625 "/></g></g></g><g fill="#ffffff" fill-opacity="1"><g transform="translate(1167.359138, 434.888799)"><g/></g></g><g fill="#ffffff" fill-opacity="1"><g transform="translate(1210.834712, 434.888799)"><g><path d="M 76.140625 -90.625 C 75.328125 -94.238281 73.640625 -97.179688 71.078125 -99.453125 C 68.515625 -101.722656 65.515625 -103.410156 62.078125 -104.515625 C 58.640625 -105.617188 55.175781 -106.171875 51.6875 -106.171875 C 47.5 -106.171875 43.304688 -105.441406 39.109375 -103.984375 C 34.921875 -102.535156 31.546875 -100.179688 28.984375 -96.921875 C 27.941406 -95.640625 27.1875 -94.15625 26.71875 -92.46875 C 26.25 -90.78125 26.015625 -89.0625 26.015625 -87.3125 C 26.015625 -82.65625 27.378906 -79.160156 30.109375 -76.828125 C 32.847656 -74.503906 36.34375 -72.929688 40.59375 -72.109375 C 44.84375 -71.296875 49.238281 -70.660156 53.78125 -70.203125 C 57.976562 -69.734375 62.285156 -69.003906 66.703125 -68.015625 C 71.128906 -67.023438 75.347656 -65.597656 79.359375 -63.734375 C 83.378906 -61.867188 86.875 -59.363281 89.84375 -56.21875 C 92.8125 -53.082031 94.878906 -49.070312 96.046875 -44.1875 C 96.628906 -41.269531 96.921875 -38.585938 96.921875 -36.140625 C 96.921875 -30.203125 95.609375 -24.9375 92.984375 -20.34375 C 90.367188 -15.75 86.878906 -11.847656 82.515625 -8.640625 C 78.148438 -5.441406 73.257812 -3.023438 67.84375 -1.390625 C 62.425781 0.234375 56.984375 1.046875 51.515625 1.046875 C 46.859375 1.046875 42.054688 0.347656 37.109375 -1.046875 C 32.160156 -2.441406 27.5625 -4.503906 23.3125 -7.234375 C 19.0625 -9.972656 15.507812 -13.410156 12.65625 -17.546875 C 9.800781 -21.679688 8.085938 -26.484375 7.515625 -31.953125 L 7.328125 -35.28125 L 25.140625 -35.625 L 25.328125 -33 L 25.328125 -33.703125 C 25.785156 -29.972656 27.378906 -26.796875 30.109375 -24.171875 C 32.847656 -21.554688 36.195312 -19.609375 40.15625 -18.328125 C 44.113281 -17.054688 47.957031 -16.421875 51.6875 -16.421875 C 56.113281 -16.421875 60.421875 -17.203125 64.609375 -18.765625 C 68.796875 -20.335938 72.257812 -22.609375 75 -25.578125 C 77.738281 -28.546875 79.109375 -32.128906 79.109375 -36.328125 C 79.109375 -37.609375 78.929688 -39.003906 78.578125 -40.515625 C 77.878906 -43.660156 76.160156 -46.015625 73.421875 -47.578125 C 70.691406 -49.148438 67.40625 -50.285156 63.5625 -50.984375 C 59.71875 -51.679688 55.757812 -52.207031 51.6875 -52.5625 C 46.914062 -53.03125 42.082031 -53.757812 37.1875 -54.75 C 32.300781 -55.738281 27.757812 -57.335938 23.5625 -59.546875 C 19.375 -61.753906 15.910156 -64.804688 13.171875 -68.703125 C 10.441406 -72.609375 8.84375 -77.765625 8.375 -84.171875 L 8.375 -84 C 8.375 -84.582031 8.34375 -85.101562 8.28125 -85.5625 C 8.226562 -86.03125 8.203125 -86.5 8.203125 -86.96875 C 8.203125 -94.53125 10.472656 -101.28125 15.015625 -107.21875 C 19.085938 -112.570312 24.5 -116.613281 31.25 -119.34375 C 38.007812 -122.082031 44.9375 -123.453125 52.03125 -123.453125 C 58.320312 -123.453125 64.460938 -122.316406 70.453125 -120.046875 C 76.453125 -117.785156 81.546875 -114.296875 85.734375 -109.578125 C 89.929688 -104.859375 92.550781 -98.773438 93.59375 -91.328125 Z M 76.140625 -90.625 "/></g></g></g><g fill="#ffffff" fill-opacity="1"><g transform="translate(1314.722134, 434.888799)"><g><path d="M 111.234375 0 L 94.125 0 L 94.125 -12.75 C 91.914062 -9.375 88.890625 -6.632812 85.046875 -4.53125 C 81.203125 -2.4375 77.125 -0.925781 72.8125 0 C 68.507812 0.925781 64.378906 1.453125 60.421875 1.578125 C 49.472656 1.578125 40.210938 -0.71875 32.640625 -5.3125 C 25.078125 -9.914062 19.347656 -15.972656 15.453125 -23.484375 C 11.554688 -30.992188 9.609375 -39.054688 9.609375 -47.671875 C 9.609375 -56.171875 11.585938 -64.085938 15.546875 -71.421875 C 19.503906 -78.753906 25.265625 -84.691406 32.828125 -89.234375 C 40.398438 -93.773438 49.484375 -96.046875 60.078125 -96.046875 C 64.035156 -96.046875 68.109375 -95.664062 72.296875 -94.90625 C 76.484375 -94.15625 80.5 -92.757812 84.34375 -90.71875 C 88.1875 -88.675781 91.503906 -85.738281 94.296875 -81.90625 L 94.125 -94.46875 L 111.234375 -94.46875 Z M 94.125 -47.328125 C 94.125 -54.890625 92.40625 -61.144531 88.96875 -66.09375 C 85.53125 -71.039062 81.191406 -74.765625 75.953125 -77.265625 C 70.722656 -79.773438 65.429688 -81.03125 60.078125 -81.03125 C 53.203125 -81.03125 47.257812 -79.546875 42.25 -76.578125 C 37.25 -73.609375 33.410156 -69.617188 30.734375 -64.609375 C 28.054688 -59.609375 26.71875 -53.960938 26.71875 -47.671875 C 26.71875 -41.734375 28.054688 -36.171875 30.734375 -30.984375 C 33.410156 -25.804688 37.222656 -21.617188 42.171875 -18.421875 C 47.117188 -15.222656 53.085938 -13.625 60.078125 -13.625 C 65.304688 -13.625 70.539062 -14.84375 75.78125 -17.28125 C 81.019531 -19.726562 85.382812 -23.453125 88.875 -28.453125 C 92.375 -33.460938 94.125 -39.753906 94.125 -47.328125 Z M 94.125 -47.328125 "/></g></g></g><g fill="#ffffff" fill-opacity="1"><g transform="translate(1437.291811, 434.888799)"><g><path d="M 57.625 -129.921875 L 79.984375 -129.921875 L 60.25 -111.234375 L 45.046875 -111.234375 Z M 82.765625 -12.390625 C 79.273438 -7.273438 74.96875 -3.695312 69.84375 -1.65625 C 64.726562 0.375 59.082031 1.390625 52.90625 1.390625 C 43.363281 1.390625 35.566406 -0.46875 29.515625 -4.1875 C 23.460938 -7.914062 19.007812 -13.179688 16.15625 -19.984375 C 13.300781 -26.796875 11.875 -34.6875 11.875 -43.65625 L 11.875 -94.46875 L 28.984375 -94.46875 L 28.984375 -43.65625 C 28.984375 -37.832031 29.648438 -32.648438 30.984375 -28.109375 C 32.328125 -23.566406 34.800781 -20.046875 38.40625 -17.546875 C 42.019531 -15.046875 47.265625 -13.796875 54.140625 -13.796875 C 63.097656 -13.796875 69.960938 -16.617188 74.734375 -22.265625 C 79.515625 -27.910156 81.90625 -34.863281 81.90625 -43.125 L 81.90625 -94.46875 L 99.015625 -94.46875 L 99.015625 0 L 82.765625 0 Z M 82.765625 -12.390625 "/></g></g></g><g fill="#ffffff" fill-opacity="1"><g transform="translate(1549.734687, 434.888799)"><g><path d="M 106 -122.234375 L 106 0 L 88.890625 0 L 88.890625 -12.75 C 85.503906 -7.625 80.875 -3.984375 75 -1.828125 C 69.125 0.316406 63.21875 1.453125 57.28125 1.578125 C 46.332031 1.578125 37.101562 -0.570312 29.59375 -4.875 C 22.082031 -9.1875 16.4375 -15.066406 12.65625 -22.515625 C 8.875 -29.972656 6.984375 -38.359375 6.984375 -47.671875 C 6.984375 -56.753906 8.929688 -64.929688 12.828125 -72.203125 C 16.734375 -79.484375 22.441406 -85.273438 29.953125 -89.578125 C 37.460938 -93.890625 46.515625 -96.046875 57.109375 -96.046875 C 62.921875 -96.046875 68.648438 -95.140625 74.296875 -93.328125 C 79.941406 -91.523438 84.804688 -87.832031 88.890625 -82.25 L 88.890625 -122.234375 Z M 88.890625 -47.328125 C 88.890625 -54.890625 87.34375 -61.144531 84.25 -66.09375 C 81.164062 -71.039062 77.207031 -74.765625 72.375 -77.265625 C 67.550781 -79.773438 62.460938 -81.03125 57.109375 -81.03125 C 50.117188 -81.03125 44.175781 -79.398438 39.28125 -76.140625 C 34.394531 -72.878906 30.640625 -68.6875 28.015625 -63.5625 C 25.398438 -58.4375 24.09375 -53.023438 24.09375 -47.328125 C 24.09375 -40.921875 25.375 -35.15625 27.9375 -30.03125 C 30.5 -24.914062 34.253906 -20.898438 39.203125 -17.984375 C 44.148438 -15.078125 50.054688 -13.625 56.921875 -13.625 C 62.273438 -13.625 67.394531 -14.84375 72.28125 -17.28125 C 77.175781 -19.726562 81.164062 -23.453125 84.25 -28.453125 C 87.34375 -33.460938 88.890625 -39.753906 88.890625 -47.328125 Z M 88.890625 -47.328125 "/></g></g></g><g fill="#ffffff" fill-opacity="1"><g transform="translate(1669.161568, 434.888799)"><g><path d="M 105.828125 -51.34375 C 105.941406 -50.875 106 -50.40625 106 -49.9375 C 106 -49.476562 106 -48.957031 106 -48.375 C 106 -46.507812 105.820312 -44.757812 105.46875 -43.125 L 25.5 -43.125 C 25.5 -36.957031 27.15625 -31.660156 30.46875 -27.234375 C 33.789062 -22.816406 37.925781 -19.414062 42.875 -17.03125 C 47.820312 -14.644531 52.625 -13.453125 57.28125 -13.453125 C 63.101562 -13.453125 68.546875 -14.726562 73.609375 -17.28125 C 78.671875 -19.84375 82.597656 -23.800781 85.390625 -29.15625 L 103.03125 -29.15625 C 100.695312 -22.289062 97.144531 -16.554688 92.375 -11.953125 C 87.601562 -7.359375 82.160156 -3.925781 76.046875 -1.65625 C 69.929688 0.613281 63.617188 1.75 57.109375 1.75 C 51.046875 1.75 45.101562 0.734375 39.28125 -1.296875 C 33.46875 -3.335938 28.234375 -6.394531 23.578125 -10.46875 C 18.921875 -14.550781 15.222656 -19.644531 12.484375 -25.75 C 9.742188 -31.863281 8.375 -39 8.375 -47.15625 C 8.375 -55.300781 9.742188 -62.398438 12.484375 -68.453125 C 15.222656 -74.503906 18.921875 -79.566406 23.578125 -83.640625 C 28.234375 -87.710938 33.46875 -90.769531 39.28125 -92.8125 C 45.101562 -94.851562 51.160156 -95.875 57.453125 -95.875 C 65.253906 -95.875 72.734375 -94.210938 79.890625 -90.890625 C 87.046875 -87.578125 93.007812 -82.628906 97.78125 -76.046875 C 102.5625 -69.472656 105.242188 -61.238281 105.828125 -51.34375 Z M 87.84375 -57.28125 C 86.789062 -62.976562 84.722656 -67.546875 81.640625 -70.984375 C 78.554688 -74.421875 74.890625 -76.921875 70.640625 -78.484375 C 66.390625 -80.054688 61.992188 -80.84375 57.453125 -80.84375 C 52.910156 -80.84375 48.457031 -80.054688 44.09375 -78.484375 C 39.726562 -76.921875 35.941406 -74.390625 32.734375 -70.890625 C 29.535156 -67.398438 27.351562 -62.863281 26.1875 -57.28125 Z M 87.84375 -57.28125 "/></g></g></g><g fill="#ffffff" fill-opacity="1"><g transform="translate(1784.397986, 434.888799)"><g/></g></g><g fill="#ffffff" fill-opacity="1"><g transform="translate(1827.87351, 434.888799)"><g><path d="M 108.796875 -79.28125 C 107.160156 -86.03125 104.160156 -91.351562 99.796875 -95.25 C 95.429688 -99.15625 90.484375 -101.953125 84.953125 -103.640625 C 79.421875 -105.328125 73.976562 -106.171875 68.625 -106.171875 C 60.476562 -106.171875 53.144531 -104.21875 46.625 -100.3125 C 40.101562 -96.414062 34.921875 -91.0625 31.078125 -84.25 C 27.242188 -77.445312 25.328125 -69.675781 25.328125 -60.9375 C 25.328125 -52.207031 27.242188 -44.378906 31.078125 -37.453125 C 34.921875 -30.523438 40.101562 -25.082031 46.625 -21.125 C 53.144531 -17.164062 60.476562 -15.1875 68.625 -15.1875 C 73.75 -15.1875 78.84375 -16.144531 83.90625 -18.0625 C 88.96875 -19.988281 93.59375 -22.898438 97.78125 -26.796875 C 101.976562 -30.703125 105.300781 -35.679688 107.75 -41.734375 L 61.640625 -41.734375 L 61.640625 -59.71875 L 128.875 -59.71875 C 128.40625 -54.476562 127.9375 -50.082031 127.46875 -46.53125 C 127.007812 -42.988281 126.3125 -40.164062 125.375 -38.0625 L 125.375 -38.25 C 122.582031 -30.332031 118.128906 -23.34375 112.015625 -17.28125 C 105.910156 -11.226562 99.046875 -6.484375 91.421875 -3.046875 C 83.796875 0.378906 76.195312 2.09375 68.625 2.09375 C 59.894531 2.09375 51.800781 0.550781 44.34375 -2.53125 C 36.894531 -5.613281 30.40625 -9.976562 24.875 -15.625 C 19.351562 -21.269531 15.046875 -27.9375 11.953125 -35.625 C 8.867188 -43.3125 7.328125 -51.75 7.328125 -60.9375 C 7.328125 -70.132812 8.898438 -78.601562 12.046875 -86.34375 C 15.191406 -94.09375 19.554688 -100.789062 25.140625 -106.4375 C 30.734375 -112.082031 37.222656 -116.445312 44.609375 -119.53125 C 52.003906 -122.613281 60.007812 -124.15625 68.625 -124.15625 C 74.5625 -124.15625 80.671875 -123.367188 86.953125 -121.796875 C 93.242188 -120.222656 99.179688 -117.691406 104.765625 -114.203125 C 110.359375 -110.710938 115.222656 -106.082031 119.359375 -100.3125 C 123.492188 -94.550781 126.375 -87.539062 128 -79.28125 Z M 108.796875 -79.28125 "/></g></g></g><g fill="#ffffff" fill-opacity="1"><g transform="translate(1965.982595, 434.888799)"><g><path d="M 110.890625 -47.15625 C 110.890625 -39 109.460938 -31.863281 106.609375 -25.75 C 103.753906 -19.644531 99.878906 -14.550781 94.984375 -10.46875 C 90.097656 -6.394531 84.597656 -3.335938 78.484375 -1.296875 C 72.378906 0.734375 66.125 1.75 59.71875 1.75 C 53.4375 1.75 47.265625 0.734375 41.203125 -1.296875 C 35.148438 -3.335938 29.707031 -6.394531 24.875 -10.46875 C 20.050781 -14.550781 16.210938 -19.644531 13.359375 -25.75 C 10.503906 -31.863281 9.078125 -39 9.078125 -47.15625 C 9.078125 -55.300781 10.503906 -62.425781 13.359375 -68.53125 C 16.210938 -74.644531 20.082031 -79.738281 24.96875 -83.8125 C 29.863281 -87.894531 35.363281 -90.953125 41.46875 -92.984375 C 47.582031 -95.023438 53.84375 -96.046875 60.25 -96.046875 C 66.644531 -96.046875 72.84375 -95.023438 78.84375 -92.984375 C 84.84375 -90.953125 90.253906 -87.894531 95.078125 -83.8125 C 99.910156 -79.738281 103.753906 -74.644531 106.609375 -68.53125 C 109.460938 -62.425781 110.890625 -55.300781 110.890625 -47.15625 Z M 26.1875 -47.15625 C 26.1875 -39.695312 27.84375 -33.492188 31.15625 -28.546875 C 34.476562 -23.597656 38.726562 -19.875 43.90625 -17.375 C 49.09375 -14.875 54.484375 -13.625 60.078125 -13.625 C 65.773438 -13.625 71.1875 -14.875 76.3125 -17.375 C 81.4375 -19.875 85.65625 -23.625 88.96875 -28.625 C 92.289062 -33.632812 93.953125 -39.8125 93.953125 -47.15625 C 93.953125 -54.601562 92.320312 -60.828125 89.0625 -65.828125 C 85.800781 -70.835938 81.578125 -74.59375 76.390625 -77.09375 C 71.210938 -79.59375 65.832031 -80.84375 60.25 -80.84375 C 54.539062 -80.84375 49.09375 -79.59375 43.90625 -77.09375 C 38.726562 -74.59375 34.476562 -70.867188 31.15625 -65.921875 C 27.84375 -60.972656 26.1875 -54.71875 26.1875 -47.15625 Z M 26.1875 -47.15625 "/></g></g></g><g fill="#ffffff" fill-opacity="1"><g transform="translate(2087.155549, 434.888799)"><g><path d="M 13.09375 0 L 13.09375 -122.234375 L 30.203125 -122.234375 L 30.203125 0 Z M 13.09375 0 "/></g></g></g><g fill="#ffffff" fill-opacity="1"><g transform="translate(2130.456592, 434.888799)"><g><path d="M 106 -122.234375 L 106 0 L 88.890625 0 L 88.890625 -12.75 C 85.503906 -7.625 80.875 -3.984375 75 -1.828125 C 69.125 0.316406 63.21875 1.453125 57.28125 1.578125 C 46.332031 1.578125 37.101562 -0.570312 29.59375 -4.875 C 22.082031 -9.1875 16.4375 -15.066406 12.65625 -22.515625 C 8.875 -29.972656 6.984375 -38.359375 6.984375 -47.671875 C 6.984375 -56.753906 8.929688 -64.929688 12.828125 -72.203125 C 16.734375 -79.484375 22.441406 -85.273438 29.953125 -89.578125 C 37.460938 -93.890625 46.515625 -96.046875 57.109375 -96.046875 C 62.921875 -96.046875 68.648438 -95.140625 74.296875 -93.328125 C 79.941406 -91.523438 84.804688 -87.832031 88.890625 -82.25 L 88.890625 -122.234375 Z M 88.890625 -47.328125 C 88.890625 -54.890625 87.34375 -61.144531 84.25 -66.09375 C 81.164062 -71.039062 77.207031 -74.765625 72.375 -77.265625 C 67.550781 -79.773438 62.460938 -81.03125 57.109375 -81.03125 C 50.117188 -81.03125 44.175781 -79.398438 39.28125 -76.140625 C 34.394531 -72.878906 30.640625 -68.6875 28.015625 -63.5625 C 25.398438 -58.4375 24.09375 -53.023438 24.09375 -47.328125 C 24.09375 -40.921875 25.375 -35.15625 27.9375 -30.03125 C 30.5 -24.914062 34.253906 -20.898438 39.203125 -17.984375 C 44.148438 -15.078125 50.054688 -13.625 56.921875 -13.625 C 62.273438 -13.625 67.394531 -14.84375 72.28125 -17.28125 C 77.175781 -19.726562 81.164062 -23.453125 84.25 -28.453125 C 87.34375 -33.460938 88.890625 -39.753906 88.890625 -47.328125 Z M 88.890625 -47.328125 "/></g></g></g></svg>