<svg xmlns="http://www.w3.org/2000/svg" xmlns:xlink="http://www.w3.org/1999/xlink" width="3000" zoomAndPan="magnify" viewBox="0 0 2250 749.999995" height="1000" preserveAspectRatio="xMidYMid meet" version="1.0"><defs><g/><clipPath id="96969c9025"><path d="M 135.617188 225 L 367.367188 225 L 367.367188 525 L 135.617188 525 Z M 135.617188 225 " clip-rule="nonzero"/></clipPath></defs><path fill="#000000" d="M 340.105469 490.875 C 340.105469 491.324219 340.058594 491.765625 339.972656 492.203125 C 339.886719 492.644531 339.757812 493.070312 339.585938 493.484375 C 339.414062 493.898438 339.203125 494.289062 338.957031 494.660156 C 338.707031 495.035156 338.425781 495.378906 338.109375 495.695312 C 337.789062 496.011719 337.445312 496.292969 337.074219 496.542969 C 336.703125 496.792969 336.308594 497 335.894531 497.171875 C 335.484375 497.34375 335.054688 497.472656 334.617188 497.558594 C 334.179688 497.648438 333.734375 497.691406 333.289062 497.691406 C 332.839844 497.691406 332.398438 497.648438 331.957031 497.558594 C 331.519531 497.472656 331.09375 497.34375 330.679688 497.171875 C 330.265625 497 329.871094 496.792969 329.5 496.542969 C 329.128906 496.292969 328.785156 496.011719 328.46875 495.695312 C 328.152344 495.378906 327.867188 495.035156 327.621094 494.660156 C 327.371094 494.289062 327.160156 493.898438 326.992188 493.484375 C 326.820312 493.070312 326.691406 492.644531 326.601562 492.203125 C 326.515625 491.765625 326.472656 491.324219 326.472656 490.875 C 326.472656 490.425781 326.515625 489.984375 326.601562 489.546875 C 326.691406 489.105469 326.820312 488.679688 326.992188 488.265625 C 327.160156 487.851562 327.371094 487.460938 327.621094 487.089844 C 327.867188 486.714844 328.152344 486.371094 328.46875 486.054688 C 328.785156 485.738281 329.128906 485.457031 329.5 485.207031 C 329.871094 484.957031 330.265625 484.75 330.679688 484.578125 C 331.09375 484.40625 331.519531 484.277344 331.957031 484.191406 C 332.398438 484.101562 332.839844 484.058594 333.289062 484.058594 C 333.734375 484.058594 334.179688 484.101562 334.617188 484.191406 C 335.054688 484.277344 335.484375 484.40625 335.894531 484.578125 C 336.308594 484.75 336.703125 484.957031 337.074219 485.207031 C 337.445312 485.457031 337.789062 485.738281 338.109375 486.054688 C 338.425781 486.371094 338.707031 486.714844 338.957031 487.089844 C 339.203125 487.460938 339.414062 487.851562 339.585938 488.265625 C 339.757812 488.679688 339.886719 489.105469 339.972656 489.546875 C 340.058594 489.984375 340.105469 490.425781 340.105469 490.875 Z M 340.105469 490.875 " fill-opacity="1" fill-rule="nonzero"/><path fill="#000000" d="M 223.546875 340.917969 C 224.910156 340.917969 225.59375 340.917969 226.957031 340.238281 C 246.039062 329.332031 258.308594 308.882812 258.308594 286.390625 L 258.308594 259.125 C 258.308594 247.539062 249.449219 238.675781 237.859375 238.675781 L 237.859375 231.859375 C 237.859375 227.769531 235.136719 225.042969 231.046875 225.042969 C 226.957031 225.042969 224.230469 227.769531 224.230469 231.859375 L 224.230469 259.125 C 224.230469 263.214844 226.957031 265.941406 231.046875 265.941406 C 235.136719 265.941406 237.859375 263.214844 237.859375 259.125 L 237.859375 252.308594 C 241.949219 252.308594 244.675781 255.035156 244.675781 259.125 L 244.675781 286.390625 C 244.675781 303.429688 235.136719 319.789062 220.140625 327.96875 C 216.730469 330.011719 215.367188 334.101562 217.414062 337.511719 C 218.777344 339.554688 220.820312 340.917969 223.546875 340.917969 Z M 223.546875 340.917969 " fill-opacity="1" fill-rule="nonzero"/><g clip-path="url(#96969c9025)"><path fill="#000000" d="M 362.597656 473.835938 C 360.550781 470.425781 356.460938 469.746094 353.054688 471.109375 C 349.648438 473.152344 348.964844 477.242188 350.328125 480.652344 C 352.371094 484.058594 353.054688 487.46875 353.054688 490.875 C 353.054688 502.460938 344.195312 511.324219 332.605469 511.324219 C 321.019531 511.324219 312.15625 502.460938 312.15625 490.875 C 312.15625 479.289062 321.019531 470.425781 332.605469 470.425781 C 336.695312 470.425781 339.421875 467.699219 339.421875 463.609375 L 339.421875 415.898438 C 339.421875 393.402344 321.019531 375 298.523438 375 C 276.03125 375 257.628906 393.402344 257.628906 415.898438 L 257.628906 443.160156 C 257.628906 458.15625 245.359375 470.425781 230.363281 470.425781 C 215.367188 470.425781 203.097656 458.15625 203.097656 443.160156 L 203.097656 353.1875 C 203.097656 343.644531 196.28125 334.785156 186.738281 333.421875 C 165.609375 328.648438 149.25 308.882812 149.25 286.390625 L 149.25 259.125 C 149.25 255.035156 151.976562 252.308594 156.066406 252.308594 L 156.066406 259.125 C 156.066406 263.214844 158.792969 265.941406 162.882812 265.941406 C 166.972656 265.941406 169.699219 263.214844 169.699219 259.125 L 169.699219 231.859375 C 169.699219 227.769531 166.972656 225.042969 162.882812 225.042969 C 158.792969 225.042969 156.066406 227.769531 156.066406 231.859375 L 156.066406 238.675781 C 144.480469 238.675781 135.617188 247.539062 135.617188 259.125 L 135.617188 286.390625 C 135.617188 315.699219 156.066406 340.917969 184.695312 346.371094 C 187.421875 347.054688 190.148438 349.78125 190.148438 353.1875 L 190.148438 443.160156 C 190.148438 465.65625 208.550781 484.058594 231.046875 484.058594 C 253.539062 484.058594 271.941406 465.65625 271.941406 443.160156 L 271.941406 415.898438 C 271.941406 400.902344 284.210938 388.632812 299.207031 388.632812 C 314.203125 388.632812 326.472656 400.902344 326.472656 415.898438 L 326.472656 457.476562 C 310.792969 460.882812 299.207031 474.515625 299.207031 490.875 C 299.207031 509.960938 314.203125 524.957031 333.289062 524.957031 C 352.371094 524.957031 367.367188 509.960938 367.367188 490.875 C 367.367188 484.742188 366.003906 479.289062 362.597656 473.835938 Z M 362.597656 473.835938 " fill-opacity="1" fill-rule="nonzero"/></g><g fill="#000000" fill-opacity="1"><g transform="translate(540.658259, 434.888799)"><g><path d="M 55.359375 -107.046875 L 55.359375 -16.421875 L 78.0625 -16.421875 L 78.0625 0 L 15.015625 0 L 15.015625 -16.421875 L 37.71875 -16.421875 L 37.71875 -107.046875 L 15.015625 -107.046875 L 15.015625 -123.28125 L 78.0625 -123.28125 L 78.0625 -107.046875 Z M 55.359375 -107.046875 "/></g></g></g><g fill="#000000" fill-opacity="1"><g transform="translate(633.545794, 434.888799)"><g><path d="M 30.203125 -82.765625 C 33.703125 -87.890625 37.925781 -91.351562 42.875 -93.15625 C 47.820312 -94.96875 53.265625 -95.875 59.203125 -95.875 C 68.859375 -95.875 76.679688 -94.007812 82.671875 -90.28125 C 88.671875 -86.550781 93.097656 -81.3125 95.953125 -74.5625 C 98.804688 -67.8125 100.234375 -59.894531 100.234375 -50.8125 L 100.234375 0 L 83.296875 0 L 83.296875 -50.640625 C 83.296875 -56.578125 82.625 -61.816406 81.28125 -66.359375 C 79.945312 -70.898438 77.445312 -74.421875 73.78125 -76.921875 C 70.113281 -79.421875 64.84375 -80.671875 57.96875 -80.671875 C 52.03125 -80.671875 46.992188 -79.359375 42.859375 -76.734375 C 38.734375 -74.117188 35.59375 -70.597656 33.4375 -66.171875 C 31.28125 -61.753906 30.203125 -56.8125 30.203125 -51.34375 L 30.203125 0 L 13.09375 0 L 13.09375 -94.46875 L 30.203125 -94.46875 Z M 30.203125 -82.765625 "/></g></g></g><g fill="#000000" fill-opacity="1"><g transform="translate(746.687006, 434.888799)"><g><path d="M 24.96875 -67.234375 C 24.96875 -64.316406 25.695312 -62.039062 27.15625 -60.40625 C 28.613281 -58.78125 30.503906 -57.617188 32.828125 -56.921875 C 35.160156 -56.222656 37.578125 -55.785156 40.078125 -55.609375 C 42.578125 -55.441406 44.875 -55.300781 46.96875 -55.1875 C 51.394531 -54.832031 55.847656 -54.160156 60.328125 -53.171875 C 64.816406 -52.179688 68.921875 -50.664062 72.640625 -48.625 C 76.367188 -46.59375 79.367188 -43.800781 81.640625 -40.25 C 83.910156 -36.695312 85.046875 -32.242188 85.046875 -26.890625 C 85.046875 -21.421875 83.847656 -16.851562 81.453125 -13.1875 C 79.066406 -9.519531 75.925781 -6.609375 72.03125 -4.453125 C 68.132812 -2.296875 63.859375 -0.753906 59.203125 0.171875 C 54.546875 1.109375 50.003906 1.578125 45.578125 1.578125 C 39.054688 1.578125 32.914062 0.585938 27.15625 -1.390625 C 21.394531 -3.367188 16.648438 -6.597656 12.921875 -11.078125 C 9.191406 -15.566406 7.097656 -21.535156 6.640625 -28.984375 L 23.75 -28.984375 C 24.09375 -23.742188 26.414062 -19.8125 30.71875 -17.1875 C 35.03125 -14.570312 40.097656 -13.265625 45.921875 -13.265625 C 48.835938 -13.265625 51.984375 -13.644531 55.359375 -14.40625 C 58.734375 -15.164062 61.671875 -16.5625 64.171875 -18.59375 C 66.671875 -20.632812 67.921875 -23.515625 67.921875 -27.234375 C 67.921875 -29.921875 67.132812 -32.046875 65.5625 -33.609375 C 64 -35.179688 61.992188 -36.40625 59.546875 -37.28125 C 57.097656 -38.15625 54.59375 -38.765625 52.03125 -39.109375 C 49.476562 -39.460938 47.148438 -39.695312 45.046875 -39.8125 C 40.859375 -40.039062 36.582031 -40.59375 32.21875 -41.46875 C 27.851562 -42.34375 23.835938 -43.769531 20.171875 -45.75 C 16.503906 -47.726562 13.5625 -50.429688 11.34375 -53.859375 C 9.132812 -57.296875 8.03125 -61.632812 8.03125 -66.875 C 8.03125 -74.207031 9.890625 -80.03125 13.609375 -84.34375 C 17.335938 -88.65625 22.113281 -91.738281 27.9375 -93.59375 C 33.757812 -95.457031 39.695312 -96.390625 45.75 -96.390625 C 52.039062 -96.390625 57.863281 -95.457031 63.21875 -93.59375 C 68.570312 -91.738281 72.992188 -88.769531 76.484375 -84.6875 C 79.972656 -80.613281 81.894531 -75.257812 82.25 -68.625 L 65.3125 -68.625 C 64.84375 -72.820312 62.65625 -75.9375 58.75 -77.96875 C 54.851562 -80.007812 50.347656 -81.03125 45.234375 -81.03125 C 39.992188 -81.03125 35.304688 -79.953125 31.171875 -77.796875 C 27.035156 -75.640625 24.96875 -72.117188 24.96875 -67.234375 Z M 24.96875 -67.234375 "/></g></g></g><g fill="#000000" fill-opacity="1"><g transform="translate(837.653938, 434.888799)"><g><path d="M 35.453125 -94.46875 L 56.234375 -94.46875 L 56.234375 -80.84375 L 35.453125 -80.84375 L 35.453125 -27.59375 C 35.453125 -22 36.726562 -18.300781 39.28125 -16.5 C 41.84375 -14.695312 45.28125 -13.796875 49.59375 -13.796875 C 50.644531 -13.796875 51.78125 -13.820312 53 -13.875 C 54.21875 -13.9375 55.46875 -14.023438 56.75 -14.140625 L 56.75 0.171875 C 55.351562 0.285156 54.015625 0.375 52.734375 0.4375 C 51.453125 0.5 50.171875 0.53125 48.890625 0.53125 C 42.722656 0.53125 37.335938 -0.3125 32.734375 -2 C 28.140625 -3.695312 24.585938 -6.582031 22.078125 -10.65625 C 19.578125 -14.726562 18.328125 -20.429688 18.328125 -27.765625 L 18.328125 -80.84375 L 4.1875 -80.84375 L 4.1875 -94.46875 L 18.328125 -94.46875 L 18.328125 -112.109375 L 35.453125 -115.421875 Z M 35.453125 -94.46875 "/></g></g></g><g fill="#000000" fill-opacity="1"><g transform="translate(897.716559, 434.888799)"><g><path d="M 12.046875 -118.75 C 12.046875 -122.007812 13.179688 -124.453125 15.453125 -126.078125 C 17.722656 -127.710938 20.195312 -128.53125 22.875 -128.53125 C 25.550781 -128.53125 27.96875 -127.742188 30.125 -126.171875 C 32.28125 -124.597656 33.359375 -122.125 33.359375 -118.75 C 33.359375 -115.488281 32.25 -113.015625 30.03125 -111.328125 C 27.820312 -109.640625 25.378906 -108.796875 22.703125 -108.796875 C 20.140625 -108.796875 17.722656 -109.640625 15.453125 -111.328125 C 13.179688 -113.015625 12.046875 -115.488281 12.046875 -118.75 Z M 14.140625 -95.515625 L 14.140625 0 L 31.265625 0 L 31.265625 -95.515625 Z M 14.140625 -95.515625 "/></g></g></g><g fill="#000000" fill-opacity="1"><g transform="translate(944.684135, 434.888799)"><g><path d="M 35.453125 -94.46875 L 56.234375 -94.46875 L 56.234375 -80.84375 L 35.453125 -80.84375 L 35.453125 -27.59375 C 35.453125 -22 36.726562 -18.300781 39.28125 -16.5 C 41.84375 -14.695312 45.28125 -13.796875 49.59375 -13.796875 C 50.644531 -13.796875 51.78125 -13.820312 53 -13.875 C 54.21875 -13.9375 55.46875 -14.023438 56.75 -14.140625 L 56.75 0.171875 C 55.351562 0.285156 54.015625 0.375 52.734375 0.4375 C 51.453125 0.5 50.171875 0.53125 48.890625 0.53125 C 42.722656 0.53125 37.335938 -0.3125 32.734375 -2 C 28.140625 -3.695312 24.585938 -6.582031 22.078125 -10.65625 C 19.578125 -14.726562 18.328125 -20.429688 18.328125 -27.765625 L 18.328125 -80.84375 L 4.1875 -80.84375 L 4.1875 -94.46875 L 18.328125 -94.46875 L 18.328125 -112.109375 L 35.453125 -115.421875 Z M 35.453125 -94.46875 "/></g></g></g><g fill="#000000" fill-opacity="1"><g transform="translate(1004.746731, 434.888799)"><g><path d="M 82.765625 -12.390625 C 79.273438 -7.273438 74.96875 -3.695312 69.84375 -1.65625 C 64.726562 0.375 59.082031 1.390625 52.90625 1.390625 C 43.363281 1.390625 35.566406 -0.46875 29.515625 -4.1875 C 23.460938 -7.914062 19.007812 -13.179688 16.15625 -19.984375 C 13.300781 -26.796875 11.875 -34.6875 11.875 -43.65625 L 11.875 -95.34375 L 28.984375 -95.34375 L 28.984375 -43.65625 C 28.984375 -37.832031 29.648438 -32.648438 30.984375 -28.109375 C 32.328125 -23.566406 34.800781 -20.046875 38.40625 -17.546875 C 42.019531 -15.046875 47.265625 -13.796875 54.140625 -13.796875 C 63.097656 -13.796875 69.960938 -16.617188 74.734375 -22.265625 C 79.515625 -27.910156 81.90625 -34.863281 81.90625 -43.125 L 81.90625 -95.34375 L 99.015625 -95.34375 L 99.015625 0 L 82.765625 0 Z M 82.765625 -12.390625 "/></g></g></g><g fill="#000000" fill-opacity="1"><g transform="translate(1117.189558, 434.888799)"><g><path d="M 35.453125 -94.46875 L 56.234375 -94.46875 L 56.234375 -80.84375 L 35.453125 -80.84375 L 35.453125 -27.59375 C 35.453125 -22 36.726562 -18.300781 39.28125 -16.5 C 41.84375 -14.695312 45.28125 -13.796875 49.59375 -13.796875 C 50.644531 -13.796875 51.78125 -13.820312 53 -13.875 C 54.21875 -13.9375 55.46875 -14.023438 56.75 -14.140625 L 56.75 0.171875 C 55.351562 0.285156 54.015625 0.375 52.734375 0.4375 C 51.453125 0.5 50.171875 0.53125 48.890625 0.53125 C 42.722656 0.53125 37.335938 -0.3125 32.734375 -2 C 28.140625 -3.695312 24.585938 -6.582031 22.078125 -10.65625 C 19.578125 -14.726562 18.328125 -20.429688 18.328125 -27.765625 L 18.328125 -80.84375 L 4.1875 -80.84375 L 4.1875 -94.46875 L 18.328125 -94.46875 L 18.328125 -112.109375 L 35.453125 -115.421875 Z M 35.453125 -94.46875 "/></g></g></g><g fill="#000000" fill-opacity="1"><g transform="translate(1177.252202, 434.888799)"><g><path d="M 110.890625 -47.15625 C 110.890625 -39 109.460938 -31.863281 106.609375 -25.75 C 103.753906 -19.644531 99.878906 -14.550781 94.984375 -10.46875 C 90.097656 -6.394531 84.597656 -3.335938 78.484375 -1.296875 C 72.378906 0.734375 66.125 1.75 59.71875 1.75 C 53.4375 1.75 47.265625 0.734375 41.203125 -1.296875 C 35.148438 -3.335938 29.707031 -6.394531 24.875 -10.46875 C 20.050781 -14.550781 16.210938 -19.644531 13.359375 -25.75 C 10.503906 -31.863281 9.078125 -39 9.078125 -47.15625 C 9.078125 -55.300781 10.503906 -62.425781 13.359375 -68.53125 C 16.210938 -74.644531 20.082031 -79.738281 24.96875 -83.8125 C 29.863281 -87.894531 35.363281 -90.953125 41.46875 -92.984375 C 47.582031 -95.023438 53.84375 -96.046875 60.25 -96.046875 C 66.644531 -96.046875 72.84375 -95.023438 78.84375 -92.984375 C 84.84375 -90.953125 90.253906 -87.894531 95.078125 -83.8125 C 99.910156 -79.738281 103.753906 -74.644531 106.609375 -68.53125 C 109.460938 -62.425781 110.890625 -55.300781 110.890625 -47.15625 Z M 26.1875 -47.15625 C 26.1875 -39.695312 27.84375 -33.492188 31.15625 -28.546875 C 34.476562 -23.597656 38.726562 -19.875 43.90625 -17.375 C 49.09375 -14.875 54.484375 -13.625 60.078125 -13.625 C 65.773438 -13.625 71.1875 -14.875 76.3125 -17.375 C 81.4375 -19.875 85.65625 -23.625 88.96875 -28.625 C 92.289062 -33.632812 93.953125 -39.8125 93.953125 -47.15625 C 93.953125 -54.601562 92.320312 -60.828125 89.0625 -65.828125 C 85.800781 -70.835938 81.578125 -74.59375 76.390625 -77.09375 C 71.210938 -79.59375 65.832031 -80.84375 60.25 -80.84375 C 54.539062 -80.84375 49.09375 -79.59375 43.90625 -77.09375 C 38.726562 -74.59375 34.476562 -70.867188 31.15625 -65.921875 C 27.84375 -60.972656 26.1875 -54.71875 26.1875 -47.15625 Z M 26.1875 -47.15625 "/></g></g></g><g fill="#000000" fill-opacity="1"><g transform="translate(1298.425058, 434.888799)"><g/></g></g><g fill="#000000" fill-opacity="1"><g transform="translate(1341.900632, 434.888799)"><g><path d="M 15.015625 0 L 15.015625 -122.234375 L 29.34375 -122.234375 L 69.671875 -62.859375 L 110.015625 -122.234375 L 123.984375 -122.234375 L 123.984375 0 L 106.515625 0 L 106.515625 -86.09375 L 74.5625 -38.59375 L 64.609375 -38.59375 L 32.65625 -86.09375 L 32.65625 0 Z M 15.015625 0 "/></g></g></g><g fill="#000000" fill-opacity="1"><g transform="translate(1480.708176, 434.888799)"><g><path d="M 105.828125 -51.34375 C 105.941406 -50.875 106 -50.40625 106 -49.9375 C 106 -49.476562 106 -48.957031 106 -48.375 C 106 -46.507812 105.820312 -44.757812 105.46875 -43.125 L 25.5 -43.125 C 25.5 -36.957031 27.15625 -31.660156 30.46875 -27.234375 C 33.789062 -22.816406 37.925781 -19.414062 42.875 -17.03125 C 47.820312 -14.644531 52.625 -13.453125 57.28125 -13.453125 C 63.101562 -13.453125 68.546875 -14.726562 73.609375 -17.28125 C 78.671875 -19.84375 82.597656 -23.800781 85.390625 -29.15625 L 103.03125 -29.15625 C 100.695312 -22.289062 97.144531 -16.554688 92.375 -11.953125 C 87.601562 -7.359375 82.160156 -3.925781 76.046875 -1.65625 C 69.929688 0.613281 63.617188 1.75 57.109375 1.75 C 51.046875 1.75 45.101562 0.734375 39.28125 -1.296875 C 33.46875 -3.335938 28.234375 -6.394531 23.578125 -10.46875 C 18.921875 -14.550781 15.222656 -19.644531 12.484375 -25.75 C 9.742188 -31.863281 8.375 -39 8.375 -47.15625 C 8.375 -55.300781 9.742188 -62.398438 12.484375 -68.453125 C 15.222656 -74.503906 18.921875 -79.566406 23.578125 -83.640625 C 28.234375 -87.710938 33.46875 -90.769531 39.28125 -92.8125 C 45.101562 -94.851562 51.160156 -95.875 57.453125 -95.875 C 65.253906 -95.875 72.734375 -94.210938 79.890625 -90.890625 C 87.046875 -87.578125 93.007812 -82.628906 97.78125 -76.046875 C 102.5625 -69.472656 105.242188 -61.238281 105.828125 -51.34375 Z M 87.84375 -57.28125 C 86.789062 -62.976562 84.722656 -67.546875 81.640625 -70.984375 C 78.554688 -74.421875 74.890625 -76.921875 70.640625 -78.484375 C 66.390625 -80.054688 61.992188 -80.84375 57.453125 -80.84375 C 52.910156 -80.84375 48.457031 -80.054688 44.09375 -78.484375 C 39.726562 -76.921875 35.941406 -74.390625 32.734375 -70.890625 C 29.535156 -67.398438 27.351562 -62.863281 26.1875 -57.28125 Z M 87.84375 -57.28125 "/></g></g></g><g fill="#000000" fill-opacity="1"><g transform="translate(1595.944594, 434.888799)"><g><path d="M 106 -122.234375 L 106 0 L 88.890625 0 L 88.890625 -12.75 C 85.503906 -7.625 80.875 -3.984375 75 -1.828125 C 69.125 0.316406 63.21875 1.453125 57.28125 1.578125 C 46.332031 1.578125 37.101562 -0.570312 29.59375 -4.875 C 22.082031 -9.1875 16.4375 -15.066406 12.65625 -22.515625 C 8.875 -29.972656 6.984375 -38.359375 6.984375 -47.671875 C 6.984375 -56.753906 8.929688 -64.929688 12.828125 -72.203125 C 16.734375 -79.484375 22.441406 -85.273438 29.953125 -89.578125 C 37.460938 -93.890625 46.515625 -96.046875 57.109375 -96.046875 C 62.921875 -96.046875 68.648438 -95.140625 74.296875 -93.328125 C 79.941406 -91.523438 84.804688 -87.832031 88.890625 -82.25 L 88.890625 -122.234375 Z M 88.890625 -47.328125 C 88.890625 -54.890625 87.34375 -61.144531 84.25 -66.09375 C 81.164062 -71.039062 77.207031 -74.765625 72.375 -77.265625 C 67.550781 -79.773438 62.460938 -81.03125 57.109375 -81.03125 C 50.117188 -81.03125 44.175781 -79.398438 39.28125 -76.140625 C 34.394531 -72.878906 30.640625 -68.6875 28.015625 -63.5625 C 25.398438 -58.4375 24.09375 -53.023438 24.09375 -47.328125 C 24.09375 -40.921875 25.375 -35.15625 27.9375 -30.03125 C 30.5 -24.914062 34.253906 -20.898438 39.203125 -17.984375 C 44.148438 -15.078125 50.054688 -13.625 56.921875 -13.625 C 62.273438 -13.625 67.394531 -14.84375 72.28125 -17.28125 C 77.175781 -19.726562 81.164062 -23.453125 84.25 -28.453125 C 87.34375 -33.460938 88.890625 -39.753906 88.890625 -47.328125 Z M 88.890625 -47.328125 "/></g></g></g><g fill="#000000" fill-opacity="1"><g transform="translate(1715.371475, 434.888799)"><g><path d="M 90.109375 -17.640625 L 90.109375 0 L 15.015625 0 L 15.015625 -122.234375 L 32.65625 -122.234375 L 32.65625 -17.640625 Z M 90.109375 -17.640625 "/></g></g></g><g fill="#000000" fill-opacity="1"><g transform="translate(1806.338406, 434.888799)"><g><path d="M 12.046875 -118.75 C 12.046875 -122.007812 13.179688 -124.453125 15.453125 -126.078125 C 17.722656 -127.710938 20.195312 -128.53125 22.875 -128.53125 C 25.550781 -128.53125 27.96875 -127.742188 30.125 -126.171875 C 32.28125 -124.597656 33.359375 -122.125 33.359375 -118.75 C 33.359375 -115.488281 32.25 -113.015625 30.03125 -111.328125 C 27.820312 -109.640625 25.378906 -108.796875 22.703125 -108.796875 C 20.140625 -108.796875 17.722656 -109.640625 15.453125 -111.328125 C 13.179688 -113.015625 12.046875 -115.488281 12.046875 -118.75 Z M 14.140625 -95.515625 L 14.140625 0 L 31.265625 0 L 31.265625 -95.515625 Z M 14.140625 -95.515625 "/></g></g></g><g fill="#000000" fill-opacity="1"><g transform="translate(1853.305982, 434.888799)"><g><path d="M 20.078125 0 L 20.078125 -80.328125 L 5.59375 -80.328125 L 5.59375 -95.171875 L 20.078125 -95.171875 C 20.078125 -105.535156 22.785156 -112.957031 28.203125 -117.4375 C 33.617188 -121.914062 41.445312 -124.15625 51.6875 -124.15625 C 52.738281 -124.15625 53.84375 -124.125 55 -124.0625 C 56.164062 -124.007812 57.332031 -123.925781 58.5 -123.8125 L 58.5 -109.484375 C 57.445312 -109.609375 56.394531 -109.695312 55.34375 -109.75 C 54.300781 -109.8125 53.316406 -109.84375 52.390625 -109.84375 C 47.847656 -109.84375 44.175781 -108.851562 41.375 -106.875 C 38.582031 -104.894531 37.1875 -100.992188 37.1875 -95.171875 L 56.40625 -95.171875 L 56.40625 -80.328125 L 37.1875 -80.328125 L 37.1875 0 Z M 20.078125 0 "/></g></g></g><g fill="#000000" fill-opacity="1"><g transform="translate(1914.590821, 434.888799)"><g><path d="M 105.828125 -51.34375 C 105.941406 -50.875 106 -50.40625 106 -49.9375 C 106 -49.476562 106 -48.957031 106 -48.375 C 106 -46.507812 105.820312 -44.757812 105.46875 -43.125 L 25.5 -43.125 C 25.5 -36.957031 27.15625 -31.660156 30.46875 -27.234375 C 33.789062 -22.816406 37.925781 -19.414062 42.875 -17.03125 C 47.820312 -14.644531 52.625 -13.453125 57.28125 -13.453125 C 63.101562 -13.453125 68.546875 -14.726562 73.609375 -17.28125 C 78.671875 -19.84375 82.597656 -23.800781 85.390625 -29.15625 L 103.03125 -29.15625 C 100.695312 -22.289062 97.144531 -16.554688 92.375 -11.953125 C 87.601562 -7.359375 82.160156 -3.925781 76.046875 -1.65625 C 69.929688 0.613281 63.617188 1.75 57.109375 1.75 C 51.046875 1.75 45.101562 0.734375 39.28125 -1.296875 C 33.46875 -3.335938 28.234375 -6.394531 23.578125 -10.46875 C 18.921875 -14.550781 15.222656 -19.644531 12.484375 -25.75 C 9.742188 -31.863281 8.375 -39 8.375 -47.15625 C 8.375 -55.300781 9.742188 -62.398438 12.484375 -68.453125 C 15.222656 -74.503906 18.921875 -79.566406 23.578125 -83.640625 C 28.234375 -87.710938 33.46875 -90.769531 39.28125 -92.8125 C 45.101562 -94.851562 51.160156 -95.875 57.453125 -95.875 C 65.253906 -95.875 72.734375 -94.210938 79.890625 -90.890625 C 87.046875 -87.578125 93.007812 -82.628906 97.78125 -76.046875 C 102.5625 -69.472656 105.242188 -61.238281 105.828125 -51.34375 Z M 87.84375 -57.28125 C 86.789062 -62.976562 84.722656 -67.546875 81.640625 -70.984375 C 78.554688 -74.421875 74.890625 -76.921875 70.640625 -78.484375 C 66.390625 -80.054688 61.992188 -80.84375 57.453125 -80.84375 C 52.910156 -80.84375 48.457031 -80.054688 44.09375 -78.484375 C 39.726562 -76.921875 35.941406 -74.390625 32.734375 -70.890625 C 29.535156 -67.398438 27.351562 -62.863281 26.1875 -57.28125 Z M 87.84375 -57.28125 "/></g></g></g></svg>