<svg xmlns="http://www.w3.org/2000/svg" xmlns:xlink="http://www.w3.org/1999/xlink" width="3000" zoomAndPan="magnify" viewBox="0 0 2250 749.999995" height="1000" preserveAspectRatio="xMidYMid meet" version="1.0"><defs><g/><clipPath id="8064c471d9"><path d="M 165 260 L 359.996094 260 L 359.996094 524.984375 L 165 524.984375 Z M 165 260 " clip-rule="nonzero"/></clipPath><clipPath id="0e154e471d"><path d="M 230 432.011719 L 295.191406 432.011719 L 295.191406 524.984375 L 230 524.984375 Z M 230 432.011719 " clip-rule="nonzero"/></clipPath><clipPath id="69bae5573a"><path d="M 107.519531 379 L 175.6875 379 L 175.6875 524.984375 L 107.519531 524.984375 Z M 107.519531 379 " clip-rule="nonzero"/></clipPath><clipPath id="ae353d6cde"><path d="M 125.195312 448.84375 L 157.171875 448.84375 L 157.171875 524.984375 L 125.195312 524.984375 Z M 125.195312 448.84375 " clip-rule="nonzero"/></clipPath><clipPath id="6f0282ac7f"><path d="M 350 379 L 417.761719 379 L 417.761719 524.984375 L 350 524.984375 Z M 350 379 " clip-rule="nonzero"/></clipPath><clipPath id="7af081dfba"><path d="M 368 448.84375 L 400 448.84375 L 400 524.984375 L 368 524.984375 Z M 368 448.84375 " clip-rule="nonzero"/></clipPath></defs><g clip-path="url(#8064c471d9)"><path fill="#000000" d="M 192.734375 269.996094 C 188.289062 270.667969 184.296875 272.773438 181.246094 275.824219 C 177.511719 279.558594 175.195312 284.703125 175.195312 290.363281 L 175.195312 515.289062 L 350.085938 515.289062 L 350.085938 290.363281 C 350.085938 284.703125 347.769531 279.558594 344.035156 275.824219 C 340.300781 272.089844 335.152344 269.769531 329.492188 269.769531 L 297.515625 269.769531 C 294.839844 269.769531 292.671875 267.601562 292.671875 264.921875 C 292.671875 262.246094 294.839844 260.078125 297.515625 260.078125 L 329.492188 260.078125 C 337.828125 260.078125 345.402344 263.484375 350.886719 268.96875 C 356.375 274.457031 359.78125 282.027344 359.78125 290.363281 L 359.78125 520.136719 C 359.78125 522.8125 357.609375 524.984375 354.929688 524.984375 L 170.351562 524.984375 C 167.671875 524.984375 165.5 522.8125 165.5 520.136719 L 165.5 290.363281 C 165.5 282.027344 168.90625 274.457031 174.394531 268.96875 C 178.796875 264.566406 184.542969 261.503906 190.945312 260.464844 C 193.476562 260.054688 195.792969 260.078125 198.324219 260.078125 L 229.949219 260.078125 C 232.625 260.078125 234.796875 262.246094 234.796875 264.921875 C 234.796875 267.601562 232.625 269.769531 229.949219 269.769531 L 195.679688 269.769531 C 194.4375 269.769531 193.945312 269.816406 192.734375 269.996094 " fill-opacity="1" fill-rule="nonzero"/></g><g clip-path="url(#0e154e471d)"><path fill="#000000" d="M 234.988281 432.71875 L 290.292969 432.71875 C 292.96875 432.71875 295.136719 434.890625 295.136719 437.566406 L 295.136719 520.136719 C 295.136719 522.8125 292.96875 524.984375 290.292969 524.984375 L 234.988281 524.984375 C 232.3125 524.984375 230.140625 522.8125 230.140625 520.136719 L 230.140625 437.566406 C 230.140625 434.890625 232.3125 432.71875 234.988281 432.71875 Z M 285.441406 442.414062 L 239.839844 442.414062 L 239.839844 515.289062 L 285.441406 515.289062 L 285.441406 442.414062 " fill-opacity="1" fill-rule="nonzero"/></g><path fill="#000000" d="M 263.730469 225.003906 C 274.410156 225.003906 284.074219 229.328125 291.070312 236.324219 C 298.066406 243.320312 302.390625 252.984375 302.390625 263.65625 C 302.390625 274.332031 298.066406 283.996094 291.070312 290.988281 C 284.074219 297.984375 274.410156 302.3125 263.730469 302.3125 C 253.058594 302.3125 243.394531 297.984375 236.398438 290.988281 C 229.402344 283.996094 225.074219 274.332031 225.074219 263.65625 C 225.074219 252.984375 229.402344 243.320312 236.398438 236.324219 C 243.394531 229.328125 253.058594 225.003906 263.730469 225.003906 Z M 284.210938 243.179688 C 278.972656 237.9375 271.730469 234.695312 263.730469 234.695312 C 255.734375 234.695312 248.496094 237.9375 243.25 243.179688 C 238.011719 248.417969 234.769531 255.660156 234.769531 263.65625 C 234.769531 271.65625 238.011719 278.894531 243.25 284.136719 C 248.496094 289.375 255.734375 292.617188 263.730469 292.617188 C 271.730469 292.617188 278.972656 289.375 284.210938 284.136719 C 289.457031 278.894531 292.699219 271.65625 292.699219 263.65625 C 292.699219 255.660156 289.457031 248.417969 284.210938 243.179688 " fill-opacity="1" fill-rule="nonzero"/><path fill="#000000" d="M 268.582031 245.175781 C 268.582031 242.496094 266.410156 240.328125 263.730469 240.328125 C 261.054688 240.328125 258.886719 242.496094 258.886719 245.175781 L 258.886719 282.136719 C 258.886719 284.816406 261.054688 286.984375 263.730469 286.984375 C 266.410156 286.984375 268.582031 284.816406 268.582031 282.136719 L 268.582031 245.175781 " fill-opacity="1" fill-rule="nonzero"/><path fill="#000000" d="M 282.21875 268.503906 C 284.894531 268.503906 287.0625 266.332031 287.0625 263.65625 C 287.0625 260.980469 284.894531 258.8125 282.21875 258.8125 L 245.25 258.8125 C 242.574219 258.8125 240.402344 260.980469 240.402344 263.65625 C 240.402344 266.332031 242.574219 268.503906 245.25 268.503906 L 282.21875 268.503906 " fill-opacity="1" fill-rule="nonzero"/><path fill="#000000" d="M 204.375 314.300781 L 248.816406 314.300781 C 251.492188 314.300781 253.664062 316.472656 253.664062 319.152344 L 253.664062 353.71875 C 253.664062 356.394531 251.492188 358.5625 248.816406 358.5625 L 204.375 358.5625 C 201.695312 358.5625 199.527344 356.394531 199.527344 353.71875 L 199.527344 319.152344 C 199.527344 316.472656 201.695312 314.300781 204.375 314.300781 Z M 243.96875 323.996094 L 209.21875 323.996094 L 209.21875 348.871094 L 243.96875 348.871094 L 243.96875 323.996094 " fill-opacity="1" fill-rule="nonzero"/><path fill="#000000" d="M 276.464844 314.300781 L 320.90625 314.300781 C 323.585938 314.300781 325.753906 316.472656 325.753906 319.152344 L 325.753906 353.71875 C 325.753906 356.394531 323.585938 358.5625 320.90625 358.5625 L 276.464844 358.5625 C 273.789062 358.5625 271.617188 356.394531 271.617188 353.71875 L 271.617188 319.152344 C 271.617188 316.472656 273.789062 314.300781 276.464844 314.300781 Z M 316.0625 323.996094 L 281.3125 323.996094 L 281.3125 348.871094 L 316.0625 348.871094 L 316.0625 323.996094 " fill-opacity="1" fill-rule="nonzero"/><path fill="#000000" d="M 204.375 376.519531 L 248.816406 376.519531 C 251.492188 376.519531 253.664062 378.6875 253.664062 381.363281 L 253.664062 415.933594 C 253.664062 418.609375 251.492188 420.777344 248.816406 420.777344 L 204.375 420.777344 C 201.695312 420.777344 199.527344 418.609375 199.527344 415.933594 L 199.527344 381.363281 C 199.527344 378.6875 201.695312 376.519531 204.375 376.519531 Z M 243.96875 386.210938 L 209.21875 386.210938 L 209.21875 411.082031 L 243.96875 411.082031 L 243.96875 386.210938 " fill-opacity="1" fill-rule="nonzero"/><path fill="#000000" d="M 276.464844 376.519531 L 320.90625 376.519531 C 323.585938 376.519531 325.753906 378.6875 325.753906 381.363281 L 325.753906 415.933594 C 325.753906 418.609375 323.585938 420.777344 320.90625 420.777344 L 276.464844 420.777344 C 273.789062 420.777344 271.617188 418.609375 271.617188 415.933594 L 271.617188 381.363281 C 271.617188 378.6875 273.789062 376.519531 276.464844 376.519531 Z M 316.0625 386.210938 L 281.3125 386.210938 L 281.3125 411.082031 L 316.0625 411.082031 L 316.0625 386.210938 " fill-opacity="1" fill-rule="nonzero"/><g clip-path="url(#69bae5573a)"><path fill="#000000" d="M 162.359375 389.007812 L 120.359375 389.007812 C 119.5 389.007812 118.714844 389.363281 118.140625 389.933594 C 117.570312 390.503906 117.214844 391.289062 117.214844 392.148438 L 117.214844 515.289062 L 165.5 515.289062 L 165.5 392.148438 C 165.5 391.289062 165.144531 390.503906 164.574219 389.933594 C 164 389.363281 163.214844 389.007812 162.359375 389.007812 Z M 120.359375 379.3125 L 162.359375 379.3125 C 165.890625 379.3125 169.105469 380.753906 171.429688 383.078125 C 173.753906 385.402344 175.195312 388.613281 175.195312 392.148438 L 175.195312 520.136719 C 175.195312 522.8125 173.027344 524.984375 170.351562 524.984375 L 112.371094 524.984375 C 109.691406 524.984375 107.519531 522.8125 107.519531 520.136719 L 107.519531 392.148438 C 107.519531 388.613281 108.964844 385.402344 111.289062 383.078125 C 113.613281 380.753906 116.824219 379.3125 120.359375 379.3125 " fill-opacity="1" fill-rule="nonzero"/></g><g clip-path="url(#ae353d6cde)"><path fill="#000000" d="M 130.5 448.914062 L 152.214844 448.914062 C 154.890625 448.914062 157.0625 451.085938 157.0625 453.761719 L 157.0625 520.136719 C 157.0625 522.8125 154.890625 524.984375 152.214844 524.984375 L 130.5 524.984375 C 127.824219 524.984375 125.652344 522.8125 125.652344 520.136719 L 125.652344 453.761719 C 125.652344 451.085938 127.824219 448.914062 130.5 448.914062 Z M 147.367188 458.609375 L 135.347656 458.609375 L 135.347656 515.289062 L 147.367188 515.289062 L 147.367188 458.609375 " fill-opacity="1" fill-rule="nonzero"/></g><g clip-path="url(#6f0282ac7f)"><path fill="#000000" d="M 404.921875 389.007812 L 362.921875 389.007812 C 362.066406 389.007812 361.28125 389.363281 360.707031 389.933594 C 360.136719 390.503906 359.78125 391.289062 359.78125 392.148438 L 359.78125 515.289062 L 408.066406 515.289062 L 408.066406 392.148438 C 408.066406 391.289062 407.710938 390.503906 407.140625 389.933594 C 406.566406 389.363281 405.78125 389.007812 404.921875 389.007812 Z M 362.921875 379.3125 L 404.921875 379.3125 C 408.460938 379.3125 411.667969 380.753906 413.992188 383.078125 C 416.316406 385.402344 417.761719 388.613281 417.761719 392.148438 L 417.761719 520.136719 C 417.761719 522.8125 415.589844 524.984375 412.910156 524.984375 L 354.929688 524.984375 C 352.253906 524.984375 350.085938 522.8125 350.085938 520.136719 L 350.085938 392.148438 C 350.085938 388.613281 351.527344 385.402344 353.851562 383.078125 C 356.175781 380.753906 359.386719 379.3125 362.921875 379.3125 " fill-opacity="1" fill-rule="nonzero"/></g><g clip-path="url(#7af081dfba)"><path fill="#000000" d="M 373.066406 448.914062 L 394.78125 448.914062 C 397.457031 448.914062 399.628906 451.085938 399.628906 453.761719 L 399.628906 520.136719 C 399.628906 522.8125 397.457031 524.984375 394.78125 524.984375 L 373.066406 524.984375 C 370.390625 524.984375 368.21875 522.8125 368.21875 520.136719 L 368.21875 453.761719 C 368.21875 451.085938 370.390625 448.914062 373.066406 448.914062 Z M 389.933594 458.609375 L 377.910156 458.609375 L 377.910156 515.289062 L 389.933594 515.289062 L 389.933594 458.609375 " fill-opacity="1" fill-rule="nonzero"/></g><g fill="#000000" fill-opacity="1"><g transform="translate(444.253761, 437.181982)"><g><path d="M 6.8125 -60.765625 C 6.8125 -69.378906 8.378906 -77.441406 11.515625 -84.953125 C 14.660156 -92.460938 18.851562 -99.007812 24.09375 -104.59375 C 29.445312 -110.070312 35.90625 -114.554688 43.46875 -118.046875 C 51.039062 -121.535156 58.960938 -123.28125 67.234375 -123.28125 C 76.546875 -123.28125 85.070312 -121.390625 92.8125 -117.609375 C 100.550781 -113.828125 107.128906 -108.53125 112.546875 -101.71875 C 117.960938 -94.90625 121.832031 -86.898438 124.15625 -77.703125 L 106.703125 -77.703125 C 103.441406 -86.898438 98.285156 -93.882812 91.234375 -98.65625 C 84.191406 -103.4375 76.191406 -105.828125 67.234375 -105.828125 C 61.410156 -105.828125 55.757812 -104.570312 50.28125 -102.0625 C 44.8125 -99.5625 40.160156 -96.273438 36.328125 -92.203125 C 32.484375 -88.242188 29.453125 -83.585938 27.234375 -78.234375 C 25.023438 -72.878906 23.921875 -67.054688 23.921875 -60.765625 C 23.921875 -54.710938 25 -49.007812 27.15625 -43.65625 C 29.3125 -38.300781 32.304688 -33.585938 36.140625 -29.515625 C 39.984375 -25.554688 44.671875 -22.410156 50.203125 -20.078125 C 55.734375 -17.753906 61.410156 -16.59375 67.234375 -16.59375 C 76.546875 -16.59375 84.835938 -19.148438 92.109375 -24.265625 C 99.390625 -29.390625 104.601562 -36.550781 107.75 -45.75 L 125.03125 -45.75 C 122.695312 -36.550781 118.796875 -28.429688 113.328125 -21.390625 C 107.859375 -14.347656 101.191406 -8.875 93.328125 -4.96875 C 85.472656 -1.070312 76.773438 0.875 67.234375 0.875 C 58.960938 0.875 51.128906 -0.722656 43.734375 -3.921875 C 36.347656 -7.128906 29.976562 -11.523438 24.625 -17.109375 C 19.382812 -22.703125 15.101562 -29.25 11.78125 -36.75 C 8.46875 -44.257812 6.8125 -52.265625 6.8125 -60.765625 Z M 6.8125 -60.765625 "/></g></g></g><g fill="#000000" fill-opacity="1"><g transform="translate(575.902648, 437.181982)"><g><path d="M 105.828125 -51.34375 C 105.941406 -50.875 106 -50.40625 106 -49.9375 C 106 -49.476562 106 -48.957031 106 -48.375 C 106 -46.507812 105.820312 -44.757812 105.46875 -43.125 L 25.5 -43.125 C 25.5 -36.957031 27.15625 -31.660156 30.46875 -27.234375 C 33.789062 -22.816406 37.925781 -19.414062 42.875 -17.03125 C 47.820312 -14.644531 52.625 -13.453125 57.28125 -13.453125 C 63.101562 -13.453125 68.546875 -14.726562 73.609375 -17.28125 C 78.671875 -19.84375 82.597656 -23.800781 85.390625 -29.15625 L 103.03125 -29.15625 C 100.695312 -22.289062 97.144531 -16.554688 92.375 -11.953125 C 87.601562 -7.359375 82.160156 -3.925781 76.046875 -1.65625 C 69.929688 0.613281 63.617188 1.75 57.109375 1.75 C 51.046875 1.75 45.101562 0.734375 39.28125 -1.296875 C 33.46875 -3.335938 28.234375 -6.394531 23.578125 -10.46875 C 18.921875 -14.550781 15.222656 -19.644531 12.484375 -25.75 C 9.742188 -31.863281 8.375 -39 8.375 -47.15625 C 8.375 -55.300781 9.742188 -62.398438 12.484375 -68.453125 C 15.222656 -74.503906 18.921875 -79.566406 23.578125 -83.640625 C 28.234375 -87.710938 33.46875 -90.769531 39.28125 -92.8125 C 45.101562 -94.851562 51.160156 -95.875 57.453125 -95.875 C 65.253906 -95.875 72.734375 -94.210938 79.890625 -90.890625 C 87.046875 -87.578125 93.007812 -82.628906 97.78125 -76.046875 C 102.5625 -69.472656 105.242188 -61.238281 105.828125 -51.34375 Z M 87.84375 -57.28125 C 86.789062 -62.976562 84.722656 -67.546875 81.640625 -70.984375 C 78.554688 -74.421875 74.890625 -76.921875 70.640625 -78.484375 C 66.390625 -80.054688 61.992188 -80.84375 57.453125 -80.84375 C 52.910156 -80.84375 48.457031 -80.054688 44.09375 -78.484375 C 39.726562 -76.921875 35.941406 -74.390625 32.734375 -70.890625 C 29.535156 -67.398438 27.351562 -62.863281 26.1875 -57.28125 Z M 87.84375 -57.28125 "/></g></g></g><g fill="#000000" fill-opacity="1"><g transform="translate(691.139067, 437.181982)"><g><path d="M 30.203125 -82.765625 C 33.703125 -87.890625 37.925781 -91.351562 42.875 -93.15625 C 47.820312 -94.96875 53.265625 -95.875 59.203125 -95.875 C 68.859375 -95.875 76.679688 -94.007812 82.671875 -90.28125 C 88.671875 -86.550781 93.097656 -81.3125 95.953125 -74.5625 C 98.804688 -67.8125 100.234375 -59.894531 100.234375 -50.8125 L 100.234375 0 L 83.296875 0 L 83.296875 -50.640625 C 83.296875 -56.578125 82.625 -61.816406 81.28125 -66.359375 C 79.945312 -70.898438 77.445312 -74.421875 73.78125 -76.921875 C 70.113281 -79.421875 64.84375 -80.671875 57.96875 -80.671875 C 52.03125 -80.671875 46.992188 -79.359375 42.859375 -76.734375 C 38.734375 -74.117188 35.59375 -70.597656 33.4375 -66.171875 C 31.28125 -61.753906 30.203125 -56.8125 30.203125 -51.34375 L 30.203125 0 L 13.09375 0 L 13.09375 -94.46875 L 30.203125 -94.46875 Z M 30.203125 -82.765625 "/></g></g></g><g fill="#000000" fill-opacity="1"><g transform="translate(804.280279, 437.181982)"><g><path d="M 35.453125 -94.46875 L 56.234375 -94.46875 L 56.234375 -80.84375 L 35.453125 -80.84375 L 35.453125 -27.59375 C 35.453125 -22 36.726562 -18.300781 39.28125 -16.5 C 41.84375 -14.695312 45.28125 -13.796875 49.59375 -13.796875 C 50.644531 -13.796875 51.78125 -13.820312 53 -13.875 C 54.21875 -13.9375 55.46875 -14.023438 56.75 -14.140625 L 56.75 0.171875 C 55.351562 0.285156 54.015625 0.375 52.734375 0.4375 C 51.453125 0.5 50.171875 0.53125 48.890625 0.53125 C 42.722656 0.53125 37.335938 -0.3125 32.734375 -2 C 28.140625 -3.695312 24.585938 -6.582031 22.078125 -10.65625 C 19.578125 -14.726562 18.328125 -20.429688 18.328125 -27.765625 L 18.328125 -80.84375 L 4.1875 -80.84375 L 4.1875 -94.46875 L 18.328125 -94.46875 L 18.328125 -112.109375 L 35.453125 -115.421875 Z M 35.453125 -94.46875 "/></g></g></g><g fill="#000000" fill-opacity="1"><g transform="translate(864.342876, 437.181982)"><g><path d="M 30.03125 -82.765625 C 33.40625 -87.546875 37.390625 -91.007812 41.984375 -93.15625 C 46.585938 -95.3125 51.507812 -96.390625 56.75 -96.390625 C 58.613281 -96.390625 60.476562 -96.269531 62.34375 -96.03125 C 64.207031 -95.800781 66.066406 -95.457031 67.921875 -95 L 67.921875 -79.984375 C 65.128906 -80.796875 62.222656 -81.203125 59.203125 -81.203125 C 53.960938 -81.203125 49.128906 -79.890625 44.703125 -77.265625 C 40.273438 -74.648438 36.722656 -71.097656 34.046875 -66.609375 C 31.367188 -62.128906 30.03125 -56.984375 30.03125 -51.171875 L 30.03125 0 L 13.09375 0 L 13.09375 -94.296875 L 30.03125 -94.296875 Z M 30.03125 -82.765625 "/></g></g></g><g fill="#000000" fill-opacity="1"><g transform="translate(937.67517, 437.181982)"><g><path d="M 110.890625 -47.15625 C 110.890625 -39 109.460938 -31.863281 106.609375 -25.75 C 103.753906 -19.644531 99.878906 -14.550781 94.984375 -10.46875 C 90.097656 -6.394531 84.597656 -3.335938 78.484375 -1.296875 C 72.378906 0.734375 66.125 1.75 59.71875 1.75 C 53.4375 1.75 47.265625 0.734375 41.203125 -1.296875 C 35.148438 -3.335938 29.707031 -6.394531 24.875 -10.46875 C 20.050781 -14.550781 16.210938 -19.644531 13.359375 -25.75 C 10.503906 -31.863281 9.078125 -39 9.078125 -47.15625 C 9.078125 -55.300781 10.503906 -62.425781 13.359375 -68.53125 C 16.210938 -74.644531 20.082031 -79.738281 24.96875 -83.8125 C 29.863281 -87.894531 35.363281 -90.953125 41.46875 -92.984375 C 47.582031 -95.023438 53.84375 -96.046875 60.25 -96.046875 C 66.644531 -96.046875 72.84375 -95.023438 78.84375 -92.984375 C 84.84375 -90.953125 90.253906 -87.894531 95.078125 -83.8125 C 99.910156 -79.738281 103.753906 -74.644531 106.609375 -68.53125 C 109.460938 -62.425781 110.890625 -55.300781 110.890625 -47.15625 Z M 26.1875 -47.15625 C 26.1875 -39.695312 27.84375 -33.492188 31.15625 -28.546875 C 34.476562 -23.597656 38.726562 -19.875 43.90625 -17.375 C 49.09375 -14.875 54.484375 -13.625 60.078125 -13.625 C 65.773438 -13.625 71.1875 -14.875 76.3125 -17.375 C 81.4375 -19.875 85.65625 -23.625 88.96875 -28.625 C 92.289062 -33.632812 93.953125 -39.8125 93.953125 -47.15625 C 93.953125 -54.601562 92.320312 -60.828125 89.0625 -65.828125 C 85.800781 -70.835938 81.578125 -74.59375 76.390625 -77.09375 C 71.210938 -79.59375 65.832031 -80.84375 60.25 -80.84375 C 54.539062 -80.84375 49.09375 -79.59375 43.90625 -77.09375 C 38.726562 -74.59375 34.476562 -70.867188 31.15625 -65.921875 C 27.84375 -60.972656 26.1875 -54.71875 26.1875 -47.15625 Z M 26.1875 -47.15625 "/></g></g></g><g fill="#000000" fill-opacity="1"><g transform="translate(1058.848026, 437.181982)"><g/></g></g><g fill="#000000" fill-opacity="1"><g transform="translate(1102.323599, 437.181982)"><g><path d="M 15.015625 -122.234375 L 28.640625 -122.234375 L 88.1875 -36.140625 L 88.1875 -122.234375 L 105.640625 -122.234375 L 105.640625 0 L 91.671875 0 L 32.65625 -85.390625 L 32.65625 0 L 15.015625 0 Z M 15.015625 -122.234375 "/></g></g></g><g fill="#000000" fill-opacity="1"><g transform="translate(1222.972673, 437.181982)"><g><path d="M 110.890625 -47.15625 C 110.890625 -39 109.460938 -31.863281 106.609375 -25.75 C 103.753906 -19.644531 99.878906 -14.550781 94.984375 -10.46875 C 90.097656 -6.394531 84.597656 -3.335938 78.484375 -1.296875 C 72.378906 0.734375 66.125 1.75 59.71875 1.75 C 53.4375 1.75 47.265625 0.734375 41.203125 -1.296875 C 35.148438 -3.335938 29.707031 -6.394531 24.875 -10.46875 C 20.050781 -14.550781 16.210938 -19.644531 13.359375 -25.75 C 10.503906 -31.863281 9.078125 -39 9.078125 -47.15625 C 9.078125 -55.300781 10.503906 -62.425781 13.359375 -68.53125 C 16.210938 -74.644531 20.082031 -79.738281 24.96875 -83.8125 C 29.863281 -87.894531 35.363281 -90.953125 41.46875 -92.984375 C 47.582031 -95.023438 53.84375 -96.046875 60.25 -96.046875 C 66.644531 -96.046875 72.84375 -95.023438 78.84375 -92.984375 C 84.84375 -90.953125 90.253906 -87.894531 95.078125 -83.8125 C 99.910156 -79.738281 103.753906 -74.644531 106.609375 -68.53125 C 109.460938 -62.425781 110.890625 -55.300781 110.890625 -47.15625 Z M 26.1875 -47.15625 C 26.1875 -39.695312 27.84375 -33.492188 31.15625 -28.546875 C 34.476562 -23.597656 38.726562 -19.875 43.90625 -17.375 C 49.09375 -14.875 54.484375 -13.625 60.078125 -13.625 C 65.773438 -13.625 71.1875 -14.875 76.3125 -17.375 C 81.4375 -19.875 85.65625 -23.625 88.96875 -28.625 C 92.289062 -33.632812 93.953125 -39.8125 93.953125 -47.15625 C 93.953125 -54.601562 92.320312 -60.828125 89.0625 -65.828125 C 85.800781 -70.835938 81.578125 -74.59375 76.390625 -77.09375 C 71.210938 -79.59375 65.832031 -80.84375 60.25 -80.84375 C 54.539062 -80.84375 49.09375 -79.59375 43.90625 -77.09375 C 38.726562 -74.59375 34.476562 -70.867188 31.15625 -65.921875 C 27.84375 -60.972656 26.1875 -54.71875 26.1875 -47.15625 Z M 26.1875 -47.15625 "/></g></g></g><g fill="#000000" fill-opacity="1"><g transform="translate(1344.145529, 437.181982)"><g><path d="M 74.734375 -94.46875 L 92.90625 -94.46875 L 54.65625 0.703125 L 41.03125 0.703125 L 2.625 -94.46875 L 20.78125 -94.46875 L 36.328125 -56.046875 L 47.84375 -22.875 L 59.375 -55.703125 Z M 74.734375 -94.46875 "/></g></g></g><g fill="#000000" fill-opacity="1"><g transform="translate(1440.001332, 437.181982)"><g><path d="M 111.234375 0 L 94.125 0 L 94.125 -12.75 C 91.914062 -9.375 88.890625 -6.632812 85.046875 -4.53125 C 81.203125 -2.4375 77.125 -0.925781 72.8125 0 C 68.507812 0.925781 64.378906 1.453125 60.421875 1.578125 C 49.472656 1.578125 40.210938 -0.71875 32.640625 -5.3125 C 25.078125 -9.914062 19.347656 -15.972656 15.453125 -23.484375 C 11.554688 -30.992188 9.609375 -39.054688 9.609375 -47.671875 C 9.609375 -56.171875 11.585938 -64.085938 15.546875 -71.421875 C 19.503906 -78.753906 25.265625 -84.691406 32.828125 -89.234375 C 40.398438 -93.773438 49.484375 -96.046875 60.078125 -96.046875 C 64.035156 -96.046875 68.109375 -95.664062 72.296875 -94.90625 C 76.484375 -94.15625 80.5 -92.757812 84.34375 -90.71875 C 88.1875 -88.675781 91.503906 -85.738281 94.296875 -81.90625 L 94.125 -94.46875 L 111.234375 -94.46875 Z M 94.125 -47.328125 C 94.125 -54.890625 92.40625 -61.144531 88.96875 -66.09375 C 85.53125 -71.039062 81.191406 -74.765625 75.953125 -77.265625 C 70.722656 -79.773438 65.429688 -81.03125 60.078125 -81.03125 C 53.203125 -81.03125 47.257812 -79.546875 42.25 -76.578125 C 37.25 -73.609375 33.410156 -69.617188 30.734375 -64.609375 C 28.054688 -59.609375 26.71875 -53.960938 26.71875 -47.671875 C 26.71875 -41.734375 28.054688 -36.171875 30.734375 -30.984375 C 33.410156 -25.804688 37.222656 -21.617188 42.171875 -18.421875 C 47.117188 -15.222656 53.085938 -13.625 60.078125 -13.625 C 65.304688 -13.625 70.539062 -14.84375 75.78125 -17.28125 C 81.019531 -19.726562 85.382812 -23.453125 88.875 -28.453125 C 92.375 -33.460938 94.125 -39.753906 94.125 -47.328125 Z M 94.125 -47.328125 "/></g></g></g><g fill="#000000" fill-opacity="1"><g transform="translate(1562.571009, 437.181982)"><g/></g></g><g fill="#000000" fill-opacity="1"><g transform="translate(1606.046533, 437.181982)"><g><path d="M 30.203125 -30.90625 L 18.328125 0 L -0.703125 0 L 48.375 -123.8125 L 61.296875 -123.8125 L 110.359375 0 L 91.5 0 L 79.796875 -30.90625 Z M 73.34375 -47.5 L 55 -95.6875 L 36.671875 -47.5 Z M 73.34375 -47.5 "/></g></g></g><g fill="#000000" fill-opacity="1"><g transform="translate(1716.743334, 437.181982)"><g><path d="M 82.765625 -12.390625 C 79.273438 -7.273438 74.96875 -3.695312 69.84375 -1.65625 C 64.726562 0.375 59.082031 1.390625 52.90625 1.390625 C 43.363281 1.390625 35.566406 -0.46875 29.515625 -4.1875 C 23.460938 -7.914062 19.007812 -13.179688 16.15625 -19.984375 C 13.300781 -26.796875 11.875 -34.6875 11.875 -43.65625 L 11.875 -95.34375 L 28.984375 -95.34375 L 28.984375 -43.65625 C 28.984375 -37.832031 29.648438 -32.648438 30.984375 -28.109375 C 32.328125 -23.566406 34.800781 -20.046875 38.40625 -17.546875 C 42.019531 -15.046875 47.265625 -13.796875 54.140625 -13.796875 C 63.097656 -13.796875 69.960938 -16.617188 74.734375 -22.265625 C 79.515625 -27.910156 81.90625 -34.863281 81.90625 -43.125 L 81.90625 -95.34375 L 99.015625 -95.34375 L 99.015625 0 L 82.765625 0 Z M 82.765625 -12.390625 "/></g></g></g><g fill="#000000" fill-opacity="1"><g transform="translate(1829.186112, 437.181982)"><g><path d="M 30.03125 -82.765625 C 33.40625 -87.546875 37.390625 -91.007812 41.984375 -93.15625 C 46.585938 -95.3125 51.507812 -96.390625 56.75 -96.390625 C 58.613281 -96.390625 60.476562 -96.269531 62.34375 -96.03125 C 64.207031 -95.800781 66.066406 -95.457031 67.921875 -95 L 67.921875 -79.984375 C 65.128906 -80.796875 62.222656 -81.203125 59.203125 -81.203125 C 53.960938 -81.203125 49.128906 -79.890625 44.703125 -77.265625 C 40.273438 -74.648438 36.722656 -71.097656 34.046875 -66.609375 C 31.367188 -62.128906 30.03125 -56.984375 30.03125 -51.171875 L 30.03125 0 L 13.09375 0 L 13.09375 -94.296875 L 30.03125 -94.296875 Z M 30.03125 -82.765625 "/></g></g></g><g fill="#000000" fill-opacity="1"><g transform="translate(1902.518405, 437.181982)"><g><path d="M 110.890625 -47.15625 C 110.890625 -39 109.460938 -31.863281 106.609375 -25.75 C 103.753906 -19.644531 99.878906 -14.550781 94.984375 -10.46875 C 90.097656 -6.394531 84.597656 -3.335938 78.484375 -1.296875 C 72.378906 0.734375 66.125 1.75 59.71875 1.75 C 53.4375 1.75 47.265625 0.734375 41.203125 -1.296875 C 35.148438 -3.335938 29.707031 -6.394531 24.875 -10.46875 C 20.050781 -14.550781 16.210938 -19.644531 13.359375 -25.75 C 10.503906 -31.863281 9.078125 -39 9.078125 -47.15625 C 9.078125 -55.300781 10.503906 -62.425781 13.359375 -68.53125 C 16.210938 -74.644531 20.082031 -79.738281 24.96875 -83.8125 C 29.863281 -87.894531 35.363281 -90.953125 41.46875 -92.984375 C 47.582031 -95.023438 53.84375 -96.046875 60.25 -96.046875 C 66.644531 -96.046875 72.84375 -95.023438 78.84375 -92.984375 C 84.84375 -90.953125 90.253906 -87.894531 95.078125 -83.8125 C 99.910156 -79.738281 103.753906 -74.644531 106.609375 -68.53125 C 109.460938 -62.425781 110.890625 -55.300781 110.890625 -47.15625 Z M 26.1875 -47.15625 C 26.1875 -39.695312 27.84375 -33.492188 31.15625 -28.546875 C 34.476562 -23.597656 38.726562 -19.875 43.90625 -17.375 C 49.09375 -14.875 54.484375 -13.625 60.078125 -13.625 C 65.773438 -13.625 71.1875 -14.875 76.3125 -17.375 C 81.4375 -19.875 85.65625 -23.625 88.96875 -28.625 C 92.289062 -33.632812 93.953125 -39.8125 93.953125 -47.15625 C 93.953125 -54.601562 92.320312 -60.828125 89.0625 -65.828125 C 85.800781 -70.835938 81.578125 -74.59375 76.390625 -77.09375 C 71.210938 -79.59375 65.832031 -80.84375 60.25 -80.84375 C 54.539062 -80.84375 49.09375 -79.59375 43.90625 -77.09375 C 38.726562 -74.59375 34.476562 -70.867188 31.15625 -65.921875 C 27.84375 -60.972656 26.1875 -54.71875 26.1875 -47.15625 Z M 26.1875 -47.15625 "/></g></g></g><g fill="#000000" fill-opacity="1"><g transform="translate(2023.691262, 437.181982)"><g><path d="M 30.03125 -82.765625 C 33.40625 -87.546875 37.390625 -91.007812 41.984375 -93.15625 C 46.585938 -95.3125 51.507812 -96.390625 56.75 -96.390625 C 58.613281 -96.390625 60.476562 -96.269531 62.34375 -96.03125 C 64.207031 -95.800781 66.066406 -95.457031 67.921875 -95 L 67.921875 -79.984375 C 65.128906 -80.796875 62.222656 -81.203125 59.203125 -81.203125 C 53.960938 -81.203125 49.128906 -79.890625 44.703125 -77.265625 C 40.273438 -74.648438 36.722656 -71.097656 34.046875 -66.609375 C 31.367188 -62.128906 30.03125 -56.984375 30.03125 -51.171875 L 30.03125 0 L 13.09375 0 L 13.09375 -94.296875 L 30.03125 -94.296875 Z M 30.03125 -82.765625 "/></g></g></g><g fill="#000000" fill-opacity="1"><g transform="translate(2097.023555, 437.181982)"><g><path d="M 111.234375 0 L 94.125 0 L 94.125 -12.75 C 91.914062 -9.375 88.890625 -6.632812 85.046875 -4.53125 C 81.203125 -2.4375 77.125 -0.925781 72.8125 0 C 68.507812 0.925781 64.378906 1.453125 60.421875 1.578125 C 49.472656 1.578125 40.210938 -0.71875 32.640625 -5.3125 C 25.078125 -9.914062 19.347656 -15.972656 15.453125 -23.484375 C 11.554688 -30.992188 9.609375 -39.054688 9.609375 -47.671875 C 9.609375 -56.171875 11.585938 -64.085938 15.546875 -71.421875 C 19.503906 -78.753906 25.265625 -84.691406 32.828125 -89.234375 C 40.398438 -93.773438 49.484375 -96.046875 60.078125 -96.046875 C 64.035156 -96.046875 68.109375 -95.664062 72.296875 -94.90625 C 76.484375 -94.15625 80.5 -92.757812 84.34375 -90.71875 C 88.1875 -88.675781 91.503906 -85.738281 94.296875 -81.90625 L 94.125 -94.46875 L 111.234375 -94.46875 Z M 94.125 -47.328125 C 94.125 -54.890625 92.40625 -61.144531 88.96875 -66.09375 C 85.53125 -71.039062 81.191406 -74.765625 75.953125 -77.265625 C 70.722656 -79.773438 65.429688 -81.03125 60.078125 -81.03125 C 53.203125 -81.03125 47.257812 -79.546875 42.25 -76.578125 C 37.25 -73.609375 33.410156 -69.617188 30.734375 -64.609375 C 28.054688 -59.609375 26.71875 -53.960938 26.71875 -47.671875 C 26.71875 -41.734375 28.054688 -36.171875 30.734375 -30.984375 C 33.410156 -25.804688 37.222656 -21.617188 42.171875 -18.421875 C 47.117188 -15.222656 53.085938 -13.625 60.078125 -13.625 C 65.304688 -13.625 70.539062 -14.84375 75.78125 -17.28125 C 81.019531 -19.726562 85.382812 -23.453125 88.875 -28.453125 C 92.375 -33.460938 94.125 -39.753906 94.125 -47.328125 Z M 94.125 -47.328125 "/></g></g></g></svg>