<svg xmlns="http://www.w3.org/2000/svg" xmlns:xlink="http://www.w3.org/1999/xlink" width="3000" zoomAndPan="magnify" viewBox="0 0 2250 749.999995" height="1000" preserveAspectRatio="xMidYMid meet" version="1.0"><defs><g/><clipPath id="5bb093a86a"><path d="M 282 236 L 431.796875 236 L 431.796875 327 L 282 327 Z M 282 236 " clip-rule="nonzero"/></clipPath><clipPath id="44ff0d29c7"><path d="M 99.546875 237 L 248 237 L 248 328 L 99.546875 328 Z M 99.546875 237 " clip-rule="nonzero"/></clipPath><clipPath id="f451fda8b1"><path d="M 247 227.300781 L 284 227.300781 L 284 264 L 247 264 Z M 247 227.300781 " clip-rule="nonzero"/></clipPath><clipPath id="8ec20bec2d"><path d="M 245 447 L 293 447 L 293 527.300781 L 245 527.300781 Z M 245 447 " clip-rule="nonzero"/></clipPath><clipPath id="572110384c"><path d="M 254 526 L 255 526 L 255 527.300781 L 254 527.300781 Z M 254 526 " clip-rule="nonzero"/></clipPath><clipPath id="4fddf7ab96"><path d="M 275 526 L 277 526 L 277 527.300781 L 275 527.300781 Z M 275 526 " clip-rule="nonzero"/></clipPath></defs><path fill="#000000" d="M 278.058594 349.5 C 280.734375 348.503906 282.425781 347.863281 284.109375 347.234375 C 284.074219 346.96875 284.035156 346.699219 283.996094 346.4375 C 281.734375 346.339844 279.464844 346.234375 277.15625 346.136719 C 277.003906 343.003906 278.738281 341.394531 280.753906 340.328125 C 290.546875 335.167969 300.457031 333.265625 310.402344 340.023438 C 314.308594 342.675781 318.179688 345.367188 322.074219 348.03125 C 327.640625 351.835938 331.796875 361.601562 327.875 369.449219 C 324.421875 376.355469 318.824219 380.34375 312.34375 383.515625 C 301.28125 388.945312 289.136719 390.671875 277.3125 393.507812 C 269.792969 395.308594 262.316406 397.332031 254.933594 399.609375 C 251.835938 400.570312 248.847656 402.191406 246.113281 403.980469 C 237.574219 409.5625 237.601562 417.757812 242.09375 424.511719 C 244.148438 427.605469 247.46875 430 250.570312 432.21875 C 253.210938 434.109375 256.351562 435.300781 259.546875 436.9375 C 256.070312 438.726562 252.835938 440.453125 249.542969 442.050781 C 248.847656 442.386719 247.871094 442.539062 247.152344 442.332031 C 237.351562 439.511719 227.828125 427.378906 227.09375 416.949219 C 226.523438 408.808594 229.382812 402.003906 235.28125 396.527344 C 240.460938 391.722656 246.359375 387.960938 253.074219 385.597656 C 261.449219 382.648438 269.78125 379.574219 278.222656 376.839844 C 285.699219 374.414062 293.339844 372.511719 300.832031 370.136719 C 304.078125 369.109375 307.339844 367.808594 310.234375 366.046875 C 314.347656 363.539062 314.414062 359.5625 310.6875 356.554688 C 308.546875 354.824219 306.359375 353.875 303.230469 354.472656 C 296.945312 355.664062 290.636719 354.847656 284.574219 352.773438 C 282.605469 352.101562 280.816406 350.902344 278.058594 349.5 Z M 289.917969 340.058594 C 289.773438 340.054688 289.636719 340.066406 289.492188 340.085938 C 287.625 340.402344 287.921875 343.203125 289.8125 343.296875 C 289.871094 343.300781 289.9375 343.300781 290 343.296875 C 292.03125 343.242188 291.945312 340.136719 289.917969 340.058594 Z M 289.917969 340.058594 " fill-opacity="1" fill-rule="nonzero"/><g clip-path="url(#5bb093a86a)"><path fill="#000000" d="M 282.640625 326.9375 C 283.351562 324.199219 284.429688 321.488281 284.714844 318.699219 C 285.710938 309.003906 286.28125 299.265625 287.328125 289.578125 C 287.742188 285.761719 288.757812 281.972656 289.867188 278.273438 C 295.84375 258.363281 310.832031 247.941406 330.332031 246.429688 C 348.484375 245.019531 366.703125 244.5 384.886719 243.59375 C 397.207031 242.980469 409.519531 242.300781 421.589844 239.460938 C 424.621094 238.746094 427.636719 237.972656 431.789062 236.945312 C 430.382812 239.378906 429.640625 241.164062 428.46875 242.597656 C 425.085938 246.730469 420.5 249.078125 415.496094 250.625 C 406.246094 253.488281 396.730469 254.65625 387.089844 254.859375 C 371.75 255.179688 356.402344 255.316406 341.070312 255.679688 C 337.792969 255.757812 334.488281 256.273438 331.269531 256.921875 C 314.269531 260.359375 302.515625 270.171875 296.882812 286.589844 C 294.238281 294.285156 292.816406 302.386719 290.679688 310.261719 C 289.449219 314.804688 288.058594 319.332031 286.394531 323.726562 C 285.851562 325.164062 285.242188 327.5 282.613281 326.84375 Z M 282.640625 326.9375 " fill-opacity="1" fill-rule="nonzero"/></g><g clip-path="url(#44ff0d29c7)"><path fill="#000000" d="M 247.703125 327.160156 C 244.554688 326.078125 243.726562 323.121094 242.910156 320.523438 C 241.375 315.617188 240.351562 310.550781 239.101562 305.550781 C 237.78125 300.277344 236.734375 294.910156 235.0625 289.75 C 228.152344 268.449219 213.808594 257.078125 191.425781 255.828125 C 177.414062 255.042969 163.351562 255.109375 149.308594 254.976562 C 138.664062 254.878906 128.136719 254.074219 117.804688 251.371094 C 112.757812 250.050781 108.023438 248.078125 104.121094 244.496094 C 102.046875 242.585938 100.199219 240.492188 99.664062 237.339844 C 105.980469 238.648438 111.910156 240.300781 117.953125 241.03125 C 127.898438 242.226562 137.902344 243.03125 147.910156 243.628906 C 165.359375 244.671875 182.828125 245.359375 200.285156 246.347656 C 207.980469 246.78125 215.191406 249.097656 221.855469 252.992188 C 233.710938 259.925781 239.785156 270.882812 242.394531 283.855469 C 243.828125 290.992188 244.253906 298.324219 245.109375 305.574219 C 245.960938 312.796875 246.785156 320.023438 247.617188 327.25 Z M 247.703125 327.160156 " fill-opacity="1" fill-rule="nonzero"/></g><path fill="#000000" d="M 253.730469 346.246094 L 246.707031 346.246094 C 246.613281 346.707031 246.636719 346.605469 246.542969 347.070312 C 248.265625 347.777344 249.996094 348.484375 252.039062 349.324219 C 248.902344 352.183594 245.367188 353.808594 241.542969 354.121094 C 236.441406 354.53125 231.285156 354.417969 226.160156 354.242188 C 223.226562 354.144531 217.976562 357.1875 217.546875 360.03125 C 217.359375 361.277344 217.777344 363.011719 218.597656 363.925781 C 219.984375 365.46875 221.738281 366.980469 223.640625 367.71875 C 228.835938 369.753906 234.15625 371.472656 239.484375 373.140625 C 245.214844 374.9375 251.007812 376.535156 256.757812 378.25 C 257.125 378.359375 257.429688 378.707031 257.90625 379.046875 C 252.820312 381.535156 247.609375 383.511719 243.039062 386.476562 C 238.648438 389.328125 234.777344 389.386719 229.878906 387.960938 C 222.585938 385.835938 216.054688 382.507812 209.957031 378.179688 C 205.847656 375.261719 203.285156 371.140625 201.742188 366.386719 C 199.785156 360.371094 202.992188 352.101562 208.925781 347.910156 C 212.421875 345.4375 216.015625 343.09375 219.492188 340.582031 C 229.371094 333.457031 239.425781 334.875 249.492188 339.988281 C 252.386719 341.457031 252.789062 342.34375 253.730469 346.246094 Z M 239.796875 342.828125 C 240.785156 343.648438 241.320312 343.621094 242.152344 342.703125 C 242.933594 341.84375 242.582031 340.429688 241.460938 340.121094 C 241.210938 340.050781 240.957031 340.015625 240.710938 340.023438 C 239.265625 340.066406 238.683594 341.90625 239.796875 342.828125 Z M 239.796875 342.828125 " fill-opacity="1" fill-rule="nonzero"/><path fill="#000000" d="M 274.363281 398.050781 C 279.523438 396.90625 284.703125 395.824219 289.851562 394.59375 C 291.84375 394.117188 293.34375 394.46875 294.921875 395.863281 C 305.277344 405.042969 306.75 420.191406 298.226562 431.121094 C 294.910156 435.371094 290.789062 438.742188 285.972656 441.054688 C 279.792969 444.027344 273.402344 446.554688 267.132812 449.332031 C 263.21875 451.070312 259.113281 452.546875 255.523438 454.816406 C 246.296875 460.632812 245.515625 469.953125 253.441406 477.445312 C 255.8125 479.683594 258.527344 481.578125 261.488281 483.957031 C 259.433594 485.359375 257.484375 486.683594 255.429688 488.078125 C 249.386719 485.265625 244.253906 481.617188 241.183594 475.566406 C 236.546875 466.429688 238.242188 455.957031 246.128906 449.441406 C 249.929688 446.300781 254.46875 443.921875 258.9375 441.75 C 264.464844 439.0625 270.367188 437.160156 275.910156 434.503906 C 279.355469 432.851562 282.59375 430.640625 285.632812 428.300781 C 288.664062 425.96875 290.324219 422.597656 291.164062 418.839844 C 292.332031 413.605469 291.082031 409.046875 286.878906 405.734375 C 284.214844 403.636719 281.085938 402.113281 278.109375 400.429688 C 276.90625 399.742188 275.558594 399.300781 274.28125 398.746094 C 274.308594 398.511719 274.335938 398.28125 274.363281 398.050781 Z M 274.363281 398.050781 " fill-opacity="1" fill-rule="nonzero"/><path fill="#000000" d="M 222.007812 281.84375 C 212.203125 277.570312 202.535156 276.578125 192.75 276.363281 C 179.277344 276.074219 165.804688 275.917969 152.335938 275.578125 C 143.992188 275.371094 135.785156 274.140625 127.867188 271.359375 C 123.308594 269.757812 119.296875 267.316406 116.441406 263.339844 C 115.410156 261.90625 114.765625 260.199219 113.792969 258.316406 C 120.730469 259.277344 127.03125 260.539062 133.386719 260.957031 C 146.398438 261.8125 159.4375 262.230469 172.464844 262.8125 C 182.351562 263.253906 192.289062 263.582031 201.867188 266.230469 C 206.628906 267.546875 211.246094 269.691406 215.613281 272.046875 C 219.019531 273.882812 221.359375 277.011719 222.007812 281.84375 Z M 222.007812 281.84375 " fill-opacity="1" fill-rule="nonzero"/><path fill="#000000" d="M 416.722656 258.375 C 415.234375 263.769531 411.773438 267.21875 407.300781 269.296875 C 403.0625 271.265625 398.496094 272.800781 393.917969 273.710938 C 388.46875 274.804688 382.855469 275.347656 377.296875 275.566406 C 366.273438 275.996094 355.234375 276.0625 344.199219 276.226562 C 332.308594 276.402344 320.449219 276.726562 308.746094 281.839844 C 309.179688 278.171875 310.789062 275.78125 312.996094 273.714844 C 316.648438 270.304688 321.101562 268.371094 325.808594 266.976562 C 336.070312 263.941406 346.671875 263.363281 357.265625 262.851562 C 370.574219 262.214844 383.898438 261.824219 397.195312 260.964844 C 403.5625 260.554688 409.882812 259.308594 416.722656 258.375 Z M 416.722656 258.375 " fill-opacity="1" fill-rule="nonzero"/><g clip-path="url(#f451fda8b1)"><path fill="#000000" d="M 265.207031 263.769531 C 255.183594 263.671875 247.203125 255.644531 247.183594 245.640625 C 247.167969 235.539062 255.472656 227.308594 265.601562 227.402344 C 275.65625 227.492188 283.886719 235.988281 283.65625 246.035156 C 283.425781 255.96875 275.214844 263.867188 265.207031 263.769531 Z M 265.207031 263.769531 " fill-opacity="1" fill-rule="nonzero"/></g><path fill="#000000" d="M 259.878906 279.902344 C 263.628906 279.902344 267.128906 279.902344 271.066406 279.902344 C 271.066406 281.519531 271.082031 282.917969 271.066406 284.304688 C 270.753906 308.375 270.433594 332.449219 270.121094 356.515625 C 270.050781 362.089844 269.863281 367.671875 269.945312 373.246094 C 269.980469 375.636719 269.304688 377.007812 266.847656 377.484375 C 265.179688 377.816406 263.585938 378.496094 261.351562 379.214844 C 261.097656 376.898438 260.695312 374.84375 260.675781 372.789062 C 260.3125 342.992188 260 313.195312 259.6875 283.398438 C 259.660156 282.296875 259.796875 281.179688 259.878906 279.902344 Z M 259.878906 279.902344 " fill-opacity="1" fill-rule="nonzero"/><path fill="#000000" d="M 386.457031 279.648438 C 384.859375 286.207031 381.15625 290.261719 375.738281 292.824219 C 369.691406 295.6875 363.21875 296.933594 356.574219 297.152344 C 347.117188 297.464844 337.652344 297.6875 328.1875 297.855469 C 319.113281 298.019531 310.160156 298.683594 301.414062 303.386719 C 301.96875 297.894531 304.773438 294.503906 308.613281 291.832031 C 313.550781 288.390625 319.191406 286.691406 325.070312 285.996094 C 331.753906 285.207031 338.480469 284.789062 345.191406 284.25 C 356.046875 283.382812 366.910156 282.636719 377.753906 281.652344 C 380.433594 281.410156 383.046875 280.457031 386.457031 279.648438 Z M 386.457031 279.648438 " fill-opacity="1" fill-rule="nonzero"/><path fill="#000000" d="M 229.539062 303.523438 C 221.035156 298.910156 212.660156 298.074219 204.152344 297.882812 C 193.96875 297.660156 183.785156 297.472656 173.609375 297.121094 C 167.253906 296.898438 161.085938 295.605469 155.273438 292.933594 C 149.757812 290.402344 146.074219 286.277344 144.453125 280.390625 C 144.816406 280.148438 145.089844 279.824219 145.261719 279.875 C 157.230469 283.398438 169.609375 283.359375 181.902344 284.128906 C 189.910156 284.628906 197.929688 285.140625 205.902344 286.015625 C 211.484375 286.625 216.851562 288.308594 221.632812 291.425781 C 225.726562 294.097656 228.582031 297.625 229.539062 303.523438 Z M 229.539062 303.523438 " fill-opacity="1" fill-rule="nonzero"/><path fill="#000000" d="M 297.5625 322.617188 C 298.445312 316.023438 301.78125 312.378906 306.519531 309.796875 C 311.660156 306.988281 317.324219 306.089844 323.046875 305.644531 C 331.039062 305.023438 339.0625 304.796875 347.03125 304.03125 C 352.265625 303.53125 357.441406 302.375 362.996094 301.453125 C 362.335938 306.359375 359.582031 310.230469 355.070312 312.851562 C 350.398438 315.5625 345.226562 316.707031 339.871094 316.910156 C 332.71875 317.183594 325.5625 317.386719 318.40625 317.53125 C 311.335938 317.671875 304.394531 318.304688 297.5625 322.617188 Z M 297.5625 322.617188 " fill-opacity="1" fill-rule="nonzero"/><path fill="#000000" d="M 167.78125 300.921875 C 180.714844 305.332031 193.980469 304.347656 207.003906 305.5625 C 213.011719 306.121094 218.96875 306.902344 224.363281 309.847656 C 229.082031 312.417969 232.433594 316.046875 233.125 322.378906 C 222.113281 315.894531 210.320312 318.046875 198.9375 317.160156 C 193.816406 316.761719 188.613281 316.75 183.59375 315.792969 C 176.171875 314.382812 170.269531 310.636719 167.972656 302.816406 C 167.820312 302.308594 167.855469 301.753906 167.78125 300.921875 Z M 167.78125 300.921875 " fill-opacity="1" fill-rule="nonzero"/><g clip-path="url(#8ec20bec2d)"><path fill="#000000" d="M 254.535156 526.910156 C 245.519531 522.355469 242.296875 509.507812 248.480469 500.59375 C 251.105469 496.804688 254.851562 493.667969 258.503906 490.753906 C 262.179688 487.820312 266.429688 485.617188 270.308594 482.914062 C 273 481.035156 275.703125 479.074219 278.007812 476.761719 C 284.996094 469.75 284.25 461.28125 276.300781 455.453125 C 274.808594 454.359375 273.191406 453.441406 271.097656 452.101562 C 275.070312 450.460938 278.679688 448.964844 282.128906 447.542969 C 293.574219 454.410156 296.371094 471.5625 284.304688 482.332031 C 281.671875 484.683594 278.449219 486.429688 275.351562 488.1875 C 271.242188 490.515625 266.945312 492.5 262.816406 494.789062 C 260.570312 496.03125 258.382812 497.441406 256.378906 499.046875 C 247.734375 505.976562 246.621094 516.511719 253.472656 525.234375 C 253.886719 525.757812 254.121094 526.414062 254.441406 527.015625 Z M 254.535156 526.910156 " fill-opacity="1" fill-rule="nonzero"/></g><path fill="#000000" d="M 240.101562 259.917969 C 245.800781 263.738281 251.6875 267.019531 258.652344 268.070312 C 269.925781 269.765625 280.140625 267.492188 289.316406 260.65625 C 290.027344 260.128906 290.953125 259.898438 291.777344 259.523438 L 291.738281 259.410156 C 281.613281 279.652344 255.386719 282.472656 242.191406 264.703125 C 241.191406 263.359375 240.578125 261.730469 239.78125 260.230469 C 239.886719 260.128906 239.988281 260.023438 240.101562 259.917969 Z M 240.101562 259.917969 " fill-opacity="1" fill-rule="nonzero"/><path fill="#000000" d="M 268.851562 434.480469 C 266.539062 435.410156 264.613281 436.179688 262.128906 437.171875 C 261.867188 424.585938 261.621094 412.621094 261.367188 400.449219 C 263.96875 399.734375 266.273438 399.105469 268.851562 398.394531 C 268.851562 410.628906 268.851562 422.519531 268.851562 434.480469 Z M 268.851562 434.480469 " fill-opacity="1" fill-rule="nonzero"/><path fill="#000000" d="M 262.953125 483.644531 C 262.953125 473.800781 262.953125 464.152344 262.953125 454.089844 C 264.332031 453.53125 266.011719 452.847656 268.066406 452.015625 C 268.171875 453.414062 268.332031 454.480469 268.316406 455.535156 C 268.195312 462.824219 267.878906 470.117188 267.957031 477.40625 C 267.992188 480.832031 266.734375 482.761719 262.953125 483.644531 Z M 262.953125 483.644531 " fill-opacity="1" fill-rule="nonzero"/><path fill="#000000" d="M 263.398438 505.640625 C 263.34375 504.066406 263.488281 502.472656 263.285156 500.917969 C 262.914062 498.101562 264.136719 496.613281 267.480469 495.988281 " fill-opacity="1" fill-rule="nonzero"/><path fill="#000000" d="M 276.03125 526.820312 C 278.535156 524.027344 280.550781 520.988281 281.261719 517.1875 C 282.644531 509.738281 280.523438 503.652344 274.460938 499.019531 C 273 497.902344 271.535156 496.789062 269.75 495.433594 C 271.671875 494.464844 273.289062 493.652344 274.808594 492.894531 C 285.039062 499.6875 288.328125 510.898438 282.859375 520.5 C 281.300781 523.242188 279.75 526.34375 275.921875 526.722656 Z M 276.03125 526.820312 " fill-opacity="1" fill-rule="nonzero"/><path fill="#000000" d="M 291.773438 259.523438 L 291.679688 259.210938 L 291.738281 259.410156 Z M 291.773438 259.523438 " fill-opacity="1" fill-rule="nonzero"/><path fill="#000000" d="M 239.78125 260.230469 C 239.65625 259.964844 239.523438 259.699219 239.398438 259.429688 C 239.628906 259.59375 239.863281 259.761719 240.101562 259.917969 C 239.988281 260.023438 239.886719 260.128906 239.78125 260.230469 Z M 239.78125 260.230469 " fill-opacity="1" fill-rule="nonzero"/><path fill="#000000" d="M 247.609375 327.25 C 247.722656 327.289062 247.839844 327.328125 247.953125 327.367188 C 247.867188 327.296875 247.785156 327.230469 247.695312 327.160156 Z M 247.609375 327.25 " fill-opacity="1" fill-rule="nonzero"/><path fill="#000000" d="M 282.605469 326.84375 C 282.667969 326.9375 282.722656 327.03125 282.78125 327.125 C 282.734375 327.066406 282.6875 327.003906 282.640625 326.9375 Z M 282.605469 326.84375 " fill-opacity="1" fill-rule="nonzero"/><g clip-path="url(#572110384c)"><path fill="#000000" d="M 254.433594 527.015625 C 254.609375 527.089844 254.78125 527.171875 254.957031 527.25 C 254.875 527.246094 254.757812 527.273438 254.722656 527.234375 C 254.636719 527.144531 254.59375 527.019531 254.535156 526.910156 Z M 254.433594 527.015625 " fill-opacity="1" fill-rule="nonzero"/></g><g clip-path="url(#4fddf7ab96)"><path fill="#000000" d="M 275.917969 526.71875 C 275.878906 526.914062 275.84375 527.113281 275.804688 527.308594 C 275.789062 527.238281 275.742188 527.140625 275.769531 527.097656 C 275.832031 526.992188 275.9375 526.914062 276.03125 526.820312 Z M 275.917969 526.71875 " fill-opacity="1" fill-rule="nonzero"/></g><g fill="#000000" fill-opacity="1"><g transform="translate(494.083099, 437.181982)"><g><path d="M 84.34375 -73.6875 L 84.34375 -123.28125 L 102.15625 -123.28125 L 102.15625 0 L 84.34375 0 L 84.34375 -56.234375 L 32.65625 -56.234375 L 32.65625 0 L 15.015625 0 L 15.015625 -123.28125 L 32.65625 -123.28125 L 32.65625 -73.6875 Z M 84.34375 -73.6875 "/></g></g></g><g fill="#000000" fill-opacity="1"><g transform="translate(611.240146, 437.181982)"><g><path d="M 110.890625 -47.15625 C 110.890625 -39 109.460938 -31.863281 106.609375 -25.75 C 103.753906 -19.644531 99.878906 -14.550781 94.984375 -10.46875 C 90.097656 -6.394531 84.597656 -3.335938 78.484375 -1.296875 C 72.378906 0.734375 66.125 1.75 59.71875 1.75 C 53.4375 1.75 47.265625 0.734375 41.203125 -1.296875 C 35.148438 -3.335938 29.707031 -6.394531 24.875 -10.46875 C 20.050781 -14.550781 16.210938 -19.644531 13.359375 -25.75 C 10.503906 -31.863281 9.078125 -39 9.078125 -47.15625 C 9.078125 -55.300781 10.503906 -62.425781 13.359375 -68.53125 C 16.210938 -74.644531 20.082031 -79.738281 24.96875 -83.8125 C 29.863281 -87.894531 35.363281 -90.953125 41.46875 -92.984375 C 47.582031 -95.023438 53.84375 -96.046875 60.25 -96.046875 C 66.644531 -96.046875 72.84375 -95.023438 78.84375 -92.984375 C 84.84375 -90.953125 90.253906 -87.894531 95.078125 -83.8125 C 99.910156 -79.738281 103.753906 -74.644531 106.609375 -68.53125 C 109.460938 -62.425781 110.890625 -55.300781 110.890625 -47.15625 Z M 26.1875 -47.15625 C 26.1875 -39.695312 27.84375 -33.492188 31.15625 -28.546875 C 34.476562 -23.597656 38.726562 -19.875 43.90625 -17.375 C 49.09375 -14.875 54.484375 -13.625 60.078125 -13.625 C 65.773438 -13.625 71.1875 -14.875 76.3125 -17.375 C 81.4375 -19.875 85.65625 -23.625 88.96875 -28.625 C 92.289062 -33.632812 93.953125 -39.8125 93.953125 -47.15625 C 93.953125 -54.601562 92.320312 -60.828125 89.0625 -65.828125 C 85.800781 -70.835938 81.578125 -74.59375 76.390625 -77.09375 C 71.210938 -79.59375 65.832031 -80.84375 60.25 -80.84375 C 54.539062 -80.84375 49.09375 -79.59375 43.90625 -77.09375 C 38.726562 -74.59375 34.476562 -70.867188 31.15625 -65.921875 C 27.84375 -60.972656 26.1875 -54.71875 26.1875 -47.15625 Z M 26.1875 -47.15625 "/></g></g></g><g fill="#000000" fill-opacity="1"><g transform="translate(732.413003, 437.181982)"><g><path d="M 24.96875 -67.234375 C 24.96875 -64.316406 25.695312 -62.039062 27.15625 -60.40625 C 28.613281 -58.78125 30.503906 -57.617188 32.828125 -56.921875 C 35.160156 -56.222656 37.578125 -55.785156 40.078125 -55.609375 C 42.578125 -55.441406 44.875 -55.300781 46.96875 -55.1875 C 51.394531 -54.832031 55.847656 -54.160156 60.328125 -53.171875 C 64.816406 -52.179688 68.921875 -50.664062 72.640625 -48.625 C 76.367188 -46.59375 79.367188 -43.800781 81.640625 -40.25 C 83.910156 -36.695312 85.046875 -32.242188 85.046875 -26.890625 C 85.046875 -21.421875 83.847656 -16.851562 81.453125 -13.1875 C 79.066406 -9.519531 75.925781 -6.609375 72.03125 -4.453125 C 68.132812 -2.296875 63.859375 -0.753906 59.203125 0.171875 C 54.546875 1.109375 50.003906 1.578125 45.578125 1.578125 C 39.054688 1.578125 32.914062 0.585938 27.15625 -1.390625 C 21.394531 -3.367188 16.648438 -6.597656 12.921875 -11.078125 C 9.191406 -15.566406 7.097656 -21.535156 6.640625 -28.984375 L 23.75 -28.984375 C 24.09375 -23.742188 26.414062 -19.8125 30.71875 -17.1875 C 35.03125 -14.570312 40.097656 -13.265625 45.921875 -13.265625 C 48.835938 -13.265625 51.984375 -13.644531 55.359375 -14.40625 C 58.734375 -15.164062 61.671875 -16.5625 64.171875 -18.59375 C 66.671875 -20.632812 67.921875 -23.515625 67.921875 -27.234375 C 67.921875 -29.921875 67.132812 -32.046875 65.5625 -33.609375 C 64 -35.179688 61.992188 -36.40625 59.546875 -37.28125 C 57.097656 -38.15625 54.59375 -38.765625 52.03125 -39.109375 C 49.476562 -39.460938 47.148438 -39.695312 45.046875 -39.8125 C 40.859375 -40.039062 36.582031 -40.59375 32.21875 -41.46875 C 27.851562 -42.34375 23.835938 -43.769531 20.171875 -45.75 C 16.503906 -47.726562 13.5625 -50.429688 11.34375 -53.859375 C 9.132812 -57.296875 8.03125 -61.632812 8.03125 -66.875 C 8.03125 -74.207031 9.890625 -80.03125 13.609375 -84.34375 C 17.335938 -88.65625 22.113281 -91.738281 27.9375 -93.59375 C 33.757812 -95.457031 39.695312 -96.390625 45.75 -96.390625 C 52.039062 -96.390625 57.863281 -95.457031 63.21875 -93.59375 C 68.570312 -91.738281 72.992188 -88.769531 76.484375 -84.6875 C 79.972656 -80.613281 81.894531 -75.257812 82.25 -68.625 L 65.3125 -68.625 C 64.84375 -72.820312 62.65625 -75.9375 58.75 -77.96875 C 54.851562 -80.007812 50.347656 -81.03125 45.234375 -81.03125 C 39.992188 -81.03125 35.304688 -79.953125 31.171875 -77.796875 C 27.035156 -75.640625 24.96875 -72.117188 24.96875 -67.234375 Z M 24.96875 -67.234375 "/></g></g></g><g fill="#000000" fill-opacity="1"><g transform="translate(823.379934, 437.181982)"><g><path d="M 12.921875 27.59375 L 12.921875 -94.46875 L 30.03125 -94.46875 L 30.03125 -81.90625 C 33.40625 -87.019531 38.09375 -90.65625 44.09375 -92.8125 C 50.09375 -94.96875 56.054688 -96.046875 61.984375 -96.046875 C 72.929688 -96.046875 81.984375 -93.742188 89.140625 -89.140625 C 96.304688 -84.546875 101.660156 -78.519531 105.203125 -71.0625 C 108.753906 -63.613281 110.53125 -55.582031 110.53125 -46.96875 C 110.53125 -38.46875 108.695312 -30.519531 105.03125 -23.125 C 101.363281 -15.738281 95.921875 -9.773438 88.703125 -5.234375 C 81.484375 -0.691406 72.519531 1.578125 61.8125 1.578125 C 56 1.578125 50.296875 0.644531 44.703125 -1.21875 C 39.117188 -3.082031 34.226562 -6.804688 30.03125 -12.390625 L 30.03125 27.59375 Z M 30.03125 -47.328125 C 30.03125 -39.867188 31.570312 -33.632812 34.65625 -28.625 C 37.75 -23.625 41.738281 -19.875 46.625 -17.375 C 51.507812 -14.875 56.570312 -13.625 61.8125 -13.625 C 68.800781 -13.625 74.648438 -15.253906 79.359375 -18.515625 C 84.078125 -21.773438 87.597656 -25.992188 89.921875 -31.171875 C 92.253906 -36.347656 93.421875 -41.734375 93.421875 -47.328125 C 93.421875 -53.023438 92.253906 -58.4375 89.921875 -63.5625 C 87.597656 -68.6875 84.109375 -72.878906 79.453125 -76.140625 C 74.796875 -79.398438 68.972656 -81.03125 61.984375 -81.03125 C 56.753906 -81.03125 51.691406 -79.773438 46.796875 -77.265625 C 41.910156 -74.765625 37.894531 -71.039062 34.75 -66.09375 C 31.601562 -61.144531 30.03125 -54.890625 30.03125 -47.328125 Z M 30.03125 -47.328125 "/></g></g></g><g fill="#000000" fill-opacity="1"><g transform="translate(943.679778, 437.181982)"><g><path d="M 12.046875 -118.75 C 12.046875 -122.007812 13.179688 -124.453125 15.453125 -126.078125 C 17.722656 -127.710938 20.195312 -128.53125 22.875 -128.53125 C 25.550781 -128.53125 27.96875 -127.742188 30.125 -126.171875 C 32.28125 -124.597656 33.359375 -122.125 33.359375 -118.75 C 33.359375 -115.488281 32.25 -113.015625 30.03125 -111.328125 C 27.820312 -109.640625 25.378906 -108.796875 22.703125 -108.796875 C 20.140625 -108.796875 17.722656 -109.640625 15.453125 -111.328125 C 13.179688 -113.015625 12.046875 -115.488281 12.046875 -118.75 Z M 14.140625 -95.515625 L 14.140625 0 L 31.265625 0 L 31.265625 -95.515625 Z M 14.140625 -95.515625 "/></g></g></g><g fill="#000000" fill-opacity="1"><g transform="translate(990.647354, 437.181982)"><g><path d="M 35.453125 -94.46875 L 56.234375 -94.46875 L 56.234375 -80.84375 L 35.453125 -80.84375 L 35.453125 -27.59375 C 35.453125 -22 36.726562 -18.300781 39.28125 -16.5 C 41.84375 -14.695312 45.28125 -13.796875 49.59375 -13.796875 C 50.644531 -13.796875 51.78125 -13.820312 53 -13.875 C 54.21875 -13.9375 55.46875 -14.023438 56.75 -14.140625 L 56.75 0.171875 C 55.351562 0.285156 54.015625 0.375 52.734375 0.4375 C 51.453125 0.5 50.171875 0.53125 48.890625 0.53125 C 42.722656 0.53125 37.335938 -0.3125 32.734375 -2 C 28.140625 -3.695312 24.585938 -6.582031 22.078125 -10.65625 C 19.578125 -14.726562 18.328125 -20.429688 18.328125 -27.765625 L 18.328125 -80.84375 L 4.1875 -80.84375 L 4.1875 -94.46875 L 18.328125 -94.46875 L 18.328125 -112.109375 L 35.453125 -115.421875 Z M 35.453125 -94.46875 "/></g></g></g><g fill="#000000" fill-opacity="1"><g transform="translate(1050.709998, 437.181982)"><g><path d="M 111.234375 0 L 94.125 0 L 94.125 -12.75 C 91.914062 -9.375 88.890625 -6.632812 85.046875 -4.53125 C 81.203125 -2.4375 77.125 -0.925781 72.8125 0 C 68.507812 0.925781 64.378906 1.453125 60.421875 1.578125 C 49.472656 1.578125 40.210938 -0.71875 32.640625 -5.3125 C 25.078125 -9.914062 19.347656 -15.972656 15.453125 -23.484375 C 11.554688 -30.992188 9.609375 -39.054688 9.609375 -47.671875 C 9.609375 -56.171875 11.585938 -64.085938 15.546875 -71.421875 C 19.503906 -78.753906 25.265625 -84.691406 32.828125 -89.234375 C 40.398438 -93.773438 49.484375 -96.046875 60.078125 -96.046875 C 64.035156 -96.046875 68.109375 -95.664062 72.296875 -94.90625 C 76.484375 -94.15625 80.5 -92.757812 84.34375 -90.71875 C 88.1875 -88.675781 91.503906 -85.738281 94.296875 -81.90625 L 94.125 -94.46875 L 111.234375 -94.46875 Z M 94.125 -47.328125 C 94.125 -54.890625 92.40625 -61.144531 88.96875 -66.09375 C 85.53125 -71.039062 81.191406 -74.765625 75.953125 -77.265625 C 70.722656 -79.773438 65.429688 -81.03125 60.078125 -81.03125 C 53.203125 -81.03125 47.257812 -79.546875 42.25 -76.578125 C 37.25 -73.609375 33.410156 -69.617188 30.734375 -64.609375 C 28.054688 -59.609375 26.71875 -53.960938 26.71875 -47.671875 C 26.71875 -41.734375 28.054688 -36.171875 30.734375 -30.984375 C 33.410156 -25.804688 37.222656 -21.617188 42.171875 -18.421875 C 47.117188 -15.222656 53.085938 -13.625 60.078125 -13.625 C 65.304688 -13.625 70.539062 -14.84375 75.78125 -17.28125 C 81.019531 -19.726562 85.382812 -23.453125 88.875 -28.453125 C 92.375 -33.460938 94.125 -39.753906 94.125 -47.328125 Z M 94.125 -47.328125 "/></g></g></g><g fill="#000000" fill-opacity="1"><g transform="translate(1173.279675, 437.181982)"><g><path d="M 13.09375 0 L 13.09375 -122.234375 L 30.203125 -122.234375 L 30.203125 0 Z M 13.09375 0 "/></g></g></g><g fill="#000000" fill-opacity="1"><g transform="translate(1216.580621, 437.181982)"><g/></g></g><g fill="#000000" fill-opacity="1"><g transform="translate(1260.056194, 437.181982)"><g><path d="M 76.140625 -90.625 C 75.328125 -94.238281 73.640625 -97.179688 71.078125 -99.453125 C 68.515625 -101.722656 65.515625 -103.410156 62.078125 -104.515625 C 58.640625 -105.617188 55.175781 -106.171875 51.6875 -106.171875 C 47.5 -106.171875 43.304688 -105.441406 39.109375 -103.984375 C 34.921875 -102.535156 31.546875 -100.179688 28.984375 -96.921875 C 27.941406 -95.640625 27.1875 -94.15625 26.71875 -92.46875 C 26.25 -90.78125 26.015625 -89.0625 26.015625 -87.3125 C 26.015625 -82.65625 27.378906 -79.160156 30.109375 -76.828125 C 32.847656 -74.503906 36.34375 -72.929688 40.59375 -72.109375 C 44.84375 -71.296875 49.238281 -70.660156 53.78125 -70.203125 C 57.976562 -69.734375 62.285156 -69.003906 66.703125 -68.015625 C 71.128906 -67.023438 75.347656 -65.597656 79.359375 -63.734375 C 83.378906 -61.867188 86.875 -59.363281 89.84375 -56.21875 C 92.8125 -53.082031 94.878906 -49.070312 96.046875 -44.1875 C 96.628906 -41.269531 96.921875 -38.585938 96.921875 -36.140625 C 96.921875 -30.203125 95.609375 -24.9375 92.984375 -20.34375 C 90.367188 -15.75 86.878906 -11.847656 82.515625 -8.640625 C 78.148438 -5.441406 73.257812 -3.023438 67.84375 -1.390625 C 62.425781 0.234375 56.984375 1.046875 51.515625 1.046875 C 46.859375 1.046875 42.054688 0.347656 37.109375 -1.046875 C 32.160156 -2.441406 27.5625 -4.503906 23.3125 -7.234375 C 19.0625 -9.972656 15.507812 -13.410156 12.65625 -17.546875 C 9.800781 -21.679688 8.085938 -26.484375 7.515625 -31.953125 L 7.328125 -35.28125 L 25.140625 -35.625 L 25.328125 -33 L 25.328125 -33.703125 C 25.785156 -29.972656 27.378906 -26.796875 30.109375 -24.171875 C 32.847656 -21.554688 36.195312 -19.609375 40.15625 -18.328125 C 44.113281 -17.054688 47.957031 -16.421875 51.6875 -16.421875 C 56.113281 -16.421875 60.421875 -17.203125 64.609375 -18.765625 C 68.796875 -20.335938 72.257812 -22.609375 75 -25.578125 C 77.738281 -28.546875 79.109375 -32.128906 79.109375 -36.328125 C 79.109375 -37.609375 78.929688 -39.003906 78.578125 -40.515625 C 77.878906 -43.660156 76.160156 -46.015625 73.421875 -47.578125 C 70.691406 -49.148438 67.40625 -50.285156 63.5625 -50.984375 C 59.71875 -51.679688 55.757812 -52.207031 51.6875 -52.5625 C 46.914062 -53.03125 42.082031 -53.757812 37.1875 -54.75 C 32.300781 -55.738281 27.757812 -57.335938 23.5625 -59.546875 C 19.375 -61.753906 15.910156 -64.804688 13.171875 -68.703125 C 10.441406 -72.609375 8.84375 -77.765625 8.375 -84.171875 L 8.375 -84 C 8.375 -84.582031 8.34375 -85.101562 8.28125 -85.5625 C 8.226562 -86.03125 8.203125 -86.5 8.203125 -86.96875 C 8.203125 -94.53125 10.472656 -101.28125 15.015625 -107.21875 C 19.085938 -112.570312 24.5 -116.613281 31.25 -119.34375 C 38.007812 -122.082031 44.9375 -123.453125 52.03125 -123.453125 C 58.320312 -123.453125 64.460938 -122.316406 70.453125 -120.046875 C 76.453125 -117.785156 81.546875 -114.296875 85.734375 -109.578125 C 89.929688 -104.859375 92.550781 -98.773438 93.59375 -91.328125 Z M 76.140625 -90.625 "/></g></g></g><g fill="#000000" fill-opacity="1"><g transform="translate(1363.943617, 437.181982)"><g><path d="M 92.71875 -126.078125 C 90.738281 -122.003906 88.148438 -118.921875 84.953125 -116.828125 C 81.753906 -114.734375 78.289062 -113.6875 74.5625 -113.6875 C 71.769531 -113.6875 69.328125 -114.296875 67.234375 -115.515625 C 65.140625 -116.734375 63.160156 -117.953125 61.296875 -119.171875 C 59.429688 -120.398438 57.453125 -121.015625 55.359375 -121.015625 C 53.960938 -121.015625 52.332031 -120.578125 50.46875 -119.703125 C 48.601562 -118.828125 46.859375 -117.285156 45.234375 -115.078125 L 35.453125 -121.71875 C 38.015625 -125.90625 41.007812 -129.046875 44.4375 -131.140625 C 47.875 -133.234375 51.394531 -134.28125 55 -134.28125 C 57.914062 -134.28125 60.476562 -133.671875 62.6875 -132.453125 C 64.90625 -131.234375 66.941406 -129.984375 68.796875 -128.703125 C 70.660156 -127.421875 72.46875 -126.78125 74.21875 -126.78125 C 77.707031 -126.78125 80.90625 -128.875 83.8125 -133.0625 Z M 108.4375 0 L 91.328125 0 L 91.328125 -12.75 C 89.117188 -9.375 86.09375 -6.632812 82.25 -4.53125 C 78.40625 -2.4375 74.328125 -0.925781 70.015625 0 C 65.710938 0.925781 61.582031 1.453125 57.625 1.578125 C 46.6875 1.578125 37.429688 -0.71875 29.859375 -5.3125 C 22.296875 -9.914062 16.5625 -15.972656 12.65625 -23.484375 C 8.757812 -30.992188 6.8125 -39.054688 6.8125 -47.671875 C 6.8125 -56.171875 8.789062 -64.085938 12.75 -71.421875 C 16.707031 -78.753906 22.46875 -84.691406 30.03125 -89.234375 C 37.601562 -93.773438 46.6875 -96.046875 57.28125 -96.046875 C 61.238281 -96.046875 65.3125 -95.664062 69.5 -94.90625 C 73.6875 -94.15625 77.703125 -92.757812 81.546875 -90.71875 C 85.390625 -88.675781 88.707031 -85.738281 91.5 -81.90625 L 91.328125 -94.46875 L 108.4375 -94.46875 Z M 91.328125 -47.328125 C 91.328125 -54.890625 89.609375 -61.144531 86.171875 -66.09375 C 82.742188 -71.039062 78.410156 -74.765625 73.171875 -77.265625 C 67.929688 -79.773438 62.632812 -81.03125 57.28125 -81.03125 C 50.40625 -81.03125 44.460938 -79.546875 39.453125 -76.578125 C 34.453125 -73.609375 30.613281 -69.617188 27.9375 -64.609375 C 25.257812 -59.609375 23.921875 -53.960938 23.921875 -47.671875 C 23.921875 -41.734375 25.257812 -36.171875 27.9375 -30.984375 C 30.613281 -25.804688 34.425781 -21.617188 39.375 -18.421875 C 44.320312 -15.222656 50.289062 -13.625 57.28125 -13.625 C 62.519531 -13.625 67.753906 -14.84375 72.984375 -17.28125 C 78.222656 -19.726562 82.585938 -23.453125 86.078125 -28.453125 C 89.578125 -33.460938 91.328125 -39.753906 91.328125 -47.328125 Z M 91.328125 -47.328125 "/></g></g></g><g fill="#000000" fill-opacity="1"><g transform="translate(1483.719652, 437.181982)"><g><path d="M 110.890625 -47.15625 C 110.890625 -39 109.460938 -31.863281 106.609375 -25.75 C 103.753906 -19.644531 99.878906 -14.550781 94.984375 -10.46875 C 90.097656 -6.394531 84.597656 -3.335938 78.484375 -1.296875 C 72.378906 0.734375 66.125 1.75 59.71875 1.75 C 53.4375 1.75 47.265625 0.734375 41.203125 -1.296875 C 35.148438 -3.335938 29.707031 -6.394531 24.875 -10.46875 C 20.050781 -14.550781 16.210938 -19.644531 13.359375 -25.75 C 10.503906 -31.863281 9.078125 -39 9.078125 -47.15625 C 9.078125 -55.300781 10.503906 -62.425781 13.359375 -68.53125 C 16.210938 -74.644531 20.082031 -79.738281 24.96875 -83.8125 C 29.863281 -87.894531 35.363281 -90.953125 41.46875 -92.984375 C 47.582031 -95.023438 53.84375 -96.046875 60.25 -96.046875 C 66.644531 -96.046875 72.84375 -95.023438 78.84375 -92.984375 C 84.84375 -90.953125 90.253906 -87.894531 95.078125 -83.8125 C 99.910156 -79.738281 103.753906 -74.644531 106.609375 -68.53125 C 109.460938 -62.425781 110.890625 -55.300781 110.890625 -47.15625 Z M 26.1875 -47.15625 C 26.1875 -39.695312 27.84375 -33.492188 31.15625 -28.546875 C 34.476562 -23.597656 38.726562 -19.875 43.90625 -17.375 C 49.09375 -14.875 54.484375 -13.625 60.078125 -13.625 C 65.773438 -13.625 71.1875 -14.875 76.3125 -17.375 C 81.4375 -19.875 85.65625 -23.625 88.96875 -28.625 C 92.289062 -33.632812 93.953125 -39.8125 93.953125 -47.15625 C 93.953125 -54.601562 92.320312 -60.828125 89.0625 -65.828125 C 85.800781 -70.835938 81.578125 -74.59375 76.390625 -77.09375 C 71.210938 -79.59375 65.832031 -80.84375 60.25 -80.84375 C 54.539062 -80.84375 49.09375 -79.59375 43.90625 -77.09375 C 38.726562 -74.59375 34.476562 -70.867188 31.15625 -65.921875 C 27.84375 -60.972656 26.1875 -54.71875 26.1875 -47.15625 Z M 26.1875 -47.15625 "/></g></g></g><g fill="#000000" fill-opacity="1"><g transform="translate(1604.892508, 437.181982)"><g/></g></g><g fill="#000000" fill-opacity="1"><g transform="translate(1648.36813, 437.181982)"><g><path d="M 111.9375 -123.453125 L 62.34375 0.34375 L 49.421875 0.34375 L -0.171875 -123.453125 L 19.03125 -123.453125 L 55.875 -30.734375 L 93.078125 -123.453125 Z M 111.9375 -123.453125 "/></g></g></g><g fill="#000000" fill-opacity="1"><g transform="translate(1758.890352, 437.181982)"><g><path d="M 12.046875 -118.75 C 12.046875 -122.007812 13.179688 -124.453125 15.453125 -126.078125 C 17.722656 -127.710938 20.195312 -128.53125 22.875 -128.53125 C 25.550781 -128.53125 27.96875 -127.742188 30.125 -126.171875 C 32.28125 -124.597656 33.359375 -122.125 33.359375 -118.75 C 33.359375 -115.488281 32.25 -113.015625 30.03125 -111.328125 C 27.820312 -109.640625 25.378906 -108.796875 22.703125 -108.796875 C 20.140625 -108.796875 17.722656 -109.640625 15.453125 -111.328125 C 13.179688 -113.015625 12.046875 -115.488281 12.046875 -118.75 Z M 14.140625 -95.515625 L 14.140625 0 L 31.265625 0 L 31.265625 -95.515625 Z M 14.140625 -95.515625 "/></g></g></g><g fill="#000000" fill-opacity="1"><g transform="translate(1805.857928, 437.181982)"><g><path d="M 35.453125 -94.46875 L 56.234375 -94.46875 L 56.234375 -80.84375 L 35.453125 -80.84375 L 35.453125 -27.59375 C 35.453125 -22 36.726562 -18.300781 39.28125 -16.5 C 41.84375 -14.695312 45.28125 -13.796875 49.59375 -13.796875 C 50.644531 -13.796875 51.78125 -13.820312 53 -13.875 C 54.21875 -13.9375 55.46875 -14.023438 56.75 -14.140625 L 56.75 0.171875 C 55.351562 0.285156 54.015625 0.375 52.734375 0.4375 C 51.453125 0.5 50.171875 0.53125 48.890625 0.53125 C 42.722656 0.53125 37.335938 -0.3125 32.734375 -2 C 28.140625 -3.695312 24.585938 -6.582031 22.078125 -10.65625 C 19.578125 -14.726562 18.328125 -20.429688 18.328125 -27.765625 L 18.328125 -80.84375 L 4.1875 -80.84375 L 4.1875 -94.46875 L 18.328125 -94.46875 L 18.328125 -112.109375 L 35.453125 -115.421875 Z M 35.453125 -94.46875 "/></g></g></g><g fill="#000000" fill-opacity="1"><g transform="translate(1865.920525, 437.181982)"><g><path d="M 111.234375 0 L 94.125 0 L 94.125 -12.75 C 91.914062 -9.375 88.890625 -6.632812 85.046875 -4.53125 C 81.203125 -2.4375 77.125 -0.925781 72.8125 0 C 68.507812 0.925781 64.378906 1.453125 60.421875 1.578125 C 49.472656 1.578125 40.210938 -0.71875 32.640625 -5.3125 C 25.078125 -9.914062 19.347656 -15.972656 15.453125 -23.484375 C 11.554688 -30.992188 9.609375 -39.054688 9.609375 -47.671875 C 9.609375 -56.171875 11.585938 -64.085938 15.546875 -71.421875 C 19.503906 -78.753906 25.265625 -84.691406 32.828125 -89.234375 C 40.398438 -93.773438 49.484375 -96.046875 60.078125 -96.046875 C 64.035156 -96.046875 68.109375 -95.664062 72.296875 -94.90625 C 76.484375 -94.15625 80.5 -92.757812 84.34375 -90.71875 C 88.1875 -88.675781 91.503906 -85.738281 94.296875 -81.90625 L 94.125 -94.46875 L 111.234375 -94.46875 Z M 94.125 -47.328125 C 94.125 -54.890625 92.40625 -61.144531 88.96875 -66.09375 C 85.53125 -71.039062 81.191406 -74.765625 75.953125 -77.265625 C 70.722656 -79.773438 65.429688 -81.03125 60.078125 -81.03125 C 53.203125 -81.03125 47.257812 -79.546875 42.25 -76.578125 C 37.25 -73.609375 33.410156 -69.617188 30.734375 -64.609375 C 28.054688 -59.609375 26.71875 -53.960938 26.71875 -47.671875 C 26.71875 -41.734375 28.054688 -36.171875 30.734375 -30.984375 C 33.410156 -25.804688 37.222656 -21.617188 42.171875 -18.421875 C 47.117188 -15.222656 53.085938 -13.625 60.078125 -13.625 C 65.304688 -13.625 70.539062 -14.84375 75.78125 -17.28125 C 81.019531 -19.726562 85.382812 -23.453125 88.875 -28.453125 C 92.375 -33.460938 94.125 -39.753906 94.125 -47.328125 Z M 94.125 -47.328125 "/></g></g></g><g fill="#000000" fill-opacity="1"><g transform="translate(1988.490202, 437.181982)"><g><path d="M 13.09375 0 L 13.09375 -122.234375 L 30.203125 -122.234375 L 30.203125 0 Z M 13.09375 0 "/></g></g></g><g fill="#000000" fill-opacity="1"><g transform="translate(2031.791148, 437.181982)"><g><path d="M 12.046875 -118.75 C 12.046875 -122.007812 13.179688 -124.453125 15.453125 -126.078125 C 17.722656 -127.710938 20.195312 -128.53125 22.875 -128.53125 C 25.550781 -128.53125 27.96875 -127.742188 30.125 -126.171875 C 32.28125 -124.597656 33.359375 -122.125 33.359375 -118.75 C 33.359375 -115.488281 32.25 -113.015625 30.03125 -111.328125 C 27.820312 -109.640625 25.378906 -108.796875 22.703125 -108.796875 C 20.140625 -108.796875 17.722656 -109.640625 15.453125 -111.328125 C 13.179688 -113.015625 12.046875 -115.488281 12.046875 -118.75 Z M 14.140625 -95.515625 L 14.140625 0 L 31.265625 0 L 31.265625 -95.515625 Z M 14.140625 -95.515625 "/></g></g></g><g fill="#000000" fill-opacity="1"><g transform="translate(2078.758723, 437.181982)"><g><path d="M 24.96875 -67.234375 C 24.96875 -64.316406 25.695312 -62.039062 27.15625 -60.40625 C 28.613281 -58.78125 30.503906 -57.617188 32.828125 -56.921875 C 35.160156 -56.222656 37.578125 -55.785156 40.078125 -55.609375 C 42.578125 -55.441406 44.875 -55.300781 46.96875 -55.1875 C 51.394531 -54.832031 55.847656 -54.160156 60.328125 -53.171875 C 64.816406 -52.179688 68.921875 -50.664062 72.640625 -48.625 C 76.367188 -46.59375 79.367188 -43.800781 81.640625 -40.25 C 83.910156 -36.695312 85.046875 -32.242188 85.046875 -26.890625 C 85.046875 -21.421875 83.847656 -16.851562 81.453125 -13.1875 C 79.066406 -9.519531 75.925781 -6.609375 72.03125 -4.453125 C 68.132812 -2.296875 63.859375 -0.753906 59.203125 0.171875 C 54.546875 1.109375 50.003906 1.578125 45.578125 1.578125 C 39.054688 1.578125 32.914062 0.585938 27.15625 -1.390625 C 21.394531 -3.367188 16.648438 -6.597656 12.921875 -11.078125 C 9.191406 -15.566406 7.097656 -21.535156 6.640625 -28.984375 L 23.75 -28.984375 C 24.09375 -23.742188 26.414062 -19.8125 30.71875 -17.1875 C 35.03125 -14.570312 40.097656 -13.265625 45.921875 -13.265625 C 48.835938 -13.265625 51.984375 -13.644531 55.359375 -14.40625 C 58.734375 -15.164062 61.671875 -16.5625 64.171875 -18.59375 C 66.671875 -20.632812 67.921875 -23.515625 67.921875 -27.234375 C 67.921875 -29.921875 67.132812 -32.046875 65.5625 -33.609375 C 64 -35.179688 61.992188 -36.40625 59.546875 -37.28125 C 57.097656 -38.15625 54.59375 -38.765625 52.03125 -39.109375 C 49.476562 -39.460938 47.148438 -39.695312 45.046875 -39.8125 C 40.859375 -40.039062 36.582031 -40.59375 32.21875 -41.46875 C 27.851562 -42.34375 23.835938 -43.769531 20.171875 -45.75 C 16.503906 -47.726562 13.5625 -50.429688 11.34375 -53.859375 C 9.132812 -57.296875 8.03125 -61.632812 8.03125 -66.875 C 8.03125 -74.207031 9.890625 -80.03125 13.609375 -84.34375 C 17.335938 -88.65625 22.113281 -91.738281 27.9375 -93.59375 C 33.757812 -95.457031 39.695312 -96.390625 45.75 -96.390625 C 52.039062 -96.390625 57.863281 -95.457031 63.21875 -93.59375 C 68.570312 -91.738281 72.992188 -88.769531 76.484375 -84.6875 C 79.972656 -80.613281 81.894531 -75.257812 82.25 -68.625 L 65.3125 -68.625 C 64.84375 -72.820312 62.65625 -75.9375 58.75 -77.96875 C 54.851562 -80.007812 50.347656 -81.03125 45.234375 -81.03125 C 39.992188 -81.03125 35.304688 -79.953125 31.171875 -77.796875 C 27.035156 -75.640625 24.96875 -72.117188 24.96875 -67.234375 Z M 24.96875 -67.234375 "/></g></g></g></svg>