<svg xmlns="http://www.w3.org/2000/svg" xmlns:xlink="http://www.w3.org/1999/xlink" width="3000" zoomAndPan="magnify" viewBox="0 0 2250 749.999995" height="1000" preserveAspectRatio="xMidYMid meet" version="1.0"><defs><g/><clipPath id="1edbed237d"><path d="M 127.160156 348 L 251 348 L 251 527.300781 L 127.160156 527.300781 Z M 127.160156 348 " clip-rule="nonzero"/></clipPath><clipPath id="b261bb236d"><path d="M 273 349 L 396.410156 349 L 396.410156 527.300781 L 273 527.300781 Z M 273 349 " clip-rule="nonzero"/></clipPath></defs><g fill="#000000" fill-opacity="1"><g transform="translate(529.174193, 437.181982)"><g><path d="M 84.34375 -73.6875 L 84.34375 -123.28125 L 102.15625 -123.28125 L 102.15625 0 L 84.34375 0 L 84.34375 -56.234375 L 32.65625 -56.234375 L 32.65625 0 L 15.015625 0 L 15.015625 -123.28125 L 32.65625 -123.28125 L 32.65625 -73.6875 Z M 84.34375 -73.6875 "/></g></g></g><g fill="#000000" fill-opacity="1"><g transform="translate(646.331241, 437.181982)"><g><path d="M 110.890625 -47.15625 C 110.890625 -39 109.460938 -31.863281 106.609375 -25.75 C 103.753906 -19.644531 99.878906 -14.550781 94.984375 -10.46875 C 90.097656 -6.394531 84.597656 -3.335938 78.484375 -1.296875 C 72.378906 0.734375 66.125 1.75 59.71875 1.75 C 53.4375 1.75 47.265625 0.734375 41.203125 -1.296875 C 35.148438 -3.335938 29.707031 -6.394531 24.875 -10.46875 C 20.050781 -14.550781 16.210938 -19.644531 13.359375 -25.75 C 10.503906 -31.863281 9.078125 -39 9.078125 -47.15625 C 9.078125 -55.300781 10.503906 -62.425781 13.359375 -68.53125 C 16.210938 -74.644531 20.082031 -79.738281 24.96875 -83.8125 C 29.863281 -87.894531 35.363281 -90.953125 41.46875 -92.984375 C 47.582031 -95.023438 53.84375 -96.046875 60.25 -96.046875 C 66.644531 -96.046875 72.84375 -95.023438 78.84375 -92.984375 C 84.84375 -90.953125 90.253906 -87.894531 95.078125 -83.8125 C 99.910156 -79.738281 103.753906 -74.644531 106.609375 -68.53125 C 109.460938 -62.425781 110.890625 -55.300781 110.890625 -47.15625 Z M 26.1875 -47.15625 C 26.1875 -39.695312 27.84375 -33.492188 31.15625 -28.546875 C 34.476562 -23.597656 38.726562 -19.875 43.90625 -17.375 C 49.09375 -14.875 54.484375 -13.625 60.078125 -13.625 C 65.773438 -13.625 71.1875 -14.875 76.3125 -17.375 C 81.4375 -19.875 85.65625 -23.625 88.96875 -28.625 C 92.289062 -33.632812 93.953125 -39.8125 93.953125 -47.15625 C 93.953125 -54.601562 92.320312 -60.828125 89.0625 -65.828125 C 85.800781 -70.835938 81.578125 -74.59375 76.390625 -77.09375 C 71.210938 -79.59375 65.832031 -80.84375 60.25 -80.84375 C 54.539062 -80.84375 49.09375 -79.59375 43.90625 -77.09375 C 38.726562 -74.59375 34.476562 -70.867188 31.15625 -65.921875 C 27.84375 -60.972656 26.1875 -54.71875 26.1875 -47.15625 Z M 26.1875 -47.15625 "/></g></g></g><g fill="#000000" fill-opacity="1"><g transform="translate(767.504097, 437.181982)"><g><path d="M 24.96875 -67.234375 C 24.96875 -64.316406 25.695312 -62.039062 27.15625 -60.40625 C 28.613281 -58.78125 30.503906 -57.617188 32.828125 -56.921875 C 35.160156 -56.222656 37.578125 -55.785156 40.078125 -55.609375 C 42.578125 -55.441406 44.875 -55.300781 46.96875 -55.1875 C 51.394531 -54.832031 55.847656 -54.160156 60.328125 -53.171875 C 64.816406 -52.179688 68.921875 -50.664062 72.640625 -48.625 C 76.367188 -46.59375 79.367188 -43.800781 81.640625 -40.25 C 83.910156 -36.695312 85.046875 -32.242188 85.046875 -26.890625 C 85.046875 -21.421875 83.847656 -16.851562 81.453125 -13.1875 C 79.066406 -9.519531 75.925781 -6.609375 72.03125 -4.453125 C 68.132812 -2.296875 63.859375 -0.753906 59.203125 0.171875 C 54.546875 1.109375 50.003906 1.578125 45.578125 1.578125 C 39.054688 1.578125 32.914062 0.585938 27.15625 -1.390625 C 21.394531 -3.367188 16.648438 -6.597656 12.921875 -11.078125 C 9.191406 -15.566406 7.097656 -21.535156 6.640625 -28.984375 L 23.75 -28.984375 C 24.09375 -23.742188 26.414062 -19.8125 30.71875 -17.1875 C 35.03125 -14.570312 40.097656 -13.265625 45.921875 -13.265625 C 48.835938 -13.265625 51.984375 -13.644531 55.359375 -14.40625 C 58.734375 -15.164062 61.671875 -16.5625 64.171875 -18.59375 C 66.671875 -20.632812 67.921875 -23.515625 67.921875 -27.234375 C 67.921875 -29.921875 67.132812 -32.046875 65.5625 -33.609375 C 64 -35.179688 61.992188 -36.40625 59.546875 -37.28125 C 57.097656 -38.15625 54.59375 -38.765625 52.03125 -39.109375 C 49.476562 -39.460938 47.148438 -39.695312 45.046875 -39.8125 C 40.859375 -40.039062 36.582031 -40.59375 32.21875 -41.46875 C 27.851562 -42.34375 23.835938 -43.769531 20.171875 -45.75 C 16.503906 -47.726562 13.5625 -50.429688 11.34375 -53.859375 C 9.132812 -57.296875 8.03125 -61.632812 8.03125 -66.875 C 8.03125 -74.207031 9.890625 -80.03125 13.609375 -84.34375 C 17.335938 -88.65625 22.113281 -91.738281 27.9375 -93.59375 C 33.757812 -95.457031 39.695312 -96.390625 45.75 -96.390625 C 52.039062 -96.390625 57.863281 -95.457031 63.21875 -93.59375 C 68.570312 -91.738281 72.992188 -88.769531 76.484375 -84.6875 C 79.972656 -80.613281 81.894531 -75.257812 82.25 -68.625 L 65.3125 -68.625 C 64.84375 -72.820312 62.65625 -75.9375 58.75 -77.96875 C 54.851562 -80.007812 50.347656 -81.03125 45.234375 -81.03125 C 39.992188 -81.03125 35.304688 -79.953125 31.171875 -77.796875 C 27.035156 -75.640625 24.96875 -72.117188 24.96875 -67.234375 Z M 24.96875 -67.234375 "/></g></g></g><g fill="#000000" fill-opacity="1"><g transform="translate(858.471029, 437.181982)"><g><path d="M 12.921875 27.59375 L 12.921875 -94.46875 L 30.03125 -94.46875 L 30.03125 -81.90625 C 33.40625 -87.019531 38.09375 -90.65625 44.09375 -92.8125 C 50.09375 -94.96875 56.054688 -96.046875 61.984375 -96.046875 C 72.929688 -96.046875 81.984375 -93.742188 89.140625 -89.140625 C 96.304688 -84.546875 101.660156 -78.519531 105.203125 -71.0625 C 108.753906 -63.613281 110.53125 -55.582031 110.53125 -46.96875 C 110.53125 -38.46875 108.695312 -30.519531 105.03125 -23.125 C 101.363281 -15.738281 95.921875 -9.773438 88.703125 -5.234375 C 81.484375 -0.691406 72.519531 1.578125 61.8125 1.578125 C 56 1.578125 50.296875 0.644531 44.703125 -1.21875 C 39.117188 -3.082031 34.226562 -6.804688 30.03125 -12.390625 L 30.03125 27.59375 Z M 30.03125 -47.328125 C 30.03125 -39.867188 31.570312 -33.632812 34.65625 -28.625 C 37.75 -23.625 41.738281 -19.875 46.625 -17.375 C 51.507812 -14.875 56.570312 -13.625 61.8125 -13.625 C 68.800781 -13.625 74.648438 -15.253906 79.359375 -18.515625 C 84.078125 -21.773438 87.597656 -25.992188 89.921875 -31.171875 C 92.253906 -36.347656 93.421875 -41.734375 93.421875 -47.328125 C 93.421875 -53.023438 92.253906 -58.4375 89.921875 -63.5625 C 87.597656 -68.6875 84.109375 -72.878906 79.453125 -76.140625 C 74.796875 -79.398438 68.972656 -81.03125 61.984375 -81.03125 C 56.753906 -81.03125 51.691406 -79.773438 46.796875 -77.265625 C 41.910156 -74.765625 37.894531 -71.039062 34.75 -66.09375 C 31.601562 -61.144531 30.03125 -54.890625 30.03125 -47.328125 Z M 30.03125 -47.328125 "/></g></g></g><g fill="#000000" fill-opacity="1"><g transform="translate(978.770872, 437.181982)"><g><path d="M 12.046875 -118.75 C 12.046875 -122.007812 13.179688 -124.453125 15.453125 -126.078125 C 17.722656 -127.710938 20.195312 -128.53125 22.875 -128.53125 C 25.550781 -128.53125 27.96875 -127.742188 30.125 -126.171875 C 32.28125 -124.597656 33.359375 -122.125 33.359375 -118.75 C 33.359375 -115.488281 32.25 -113.015625 30.03125 -111.328125 C 27.820312 -109.640625 25.378906 -108.796875 22.703125 -108.796875 C 20.140625 -108.796875 17.722656 -109.640625 15.453125 -111.328125 C 13.179688 -113.015625 12.046875 -115.488281 12.046875 -118.75 Z M 14.140625 -95.515625 L 14.140625 0 L 31.265625 0 L 31.265625 -95.515625 Z M 14.140625 -95.515625 "/></g></g></g><g fill="#000000" fill-opacity="1"><g transform="translate(1025.738448, 437.181982)"><g><path d="M 35.453125 -94.46875 L 56.234375 -94.46875 L 56.234375 -80.84375 L 35.453125 -80.84375 L 35.453125 -27.59375 C 35.453125 -22 36.726562 -18.300781 39.28125 -16.5 C 41.84375 -14.695312 45.28125 -13.796875 49.59375 -13.796875 C 50.644531 -13.796875 51.78125 -13.820312 53 -13.875 C 54.21875 -13.9375 55.46875 -14.023438 56.75 -14.140625 L 56.75 0.171875 C 55.351562 0.285156 54.015625 0.375 52.734375 0.4375 C 51.453125 0.5 50.171875 0.53125 48.890625 0.53125 C 42.722656 0.53125 37.335938 -0.3125 32.734375 -2 C 28.140625 -3.695312 24.585938 -6.582031 22.078125 -10.65625 C 19.578125 -14.726562 18.328125 -20.429688 18.328125 -27.765625 L 18.328125 -80.84375 L 4.1875 -80.84375 L 4.1875 -94.46875 L 18.328125 -94.46875 L 18.328125 -112.109375 L 35.453125 -115.421875 Z M 35.453125 -94.46875 "/></g></g></g><g fill="#000000" fill-opacity="1"><g transform="translate(1085.801093, 437.181982)"><g><path d="M 111.234375 0 L 94.125 0 L 94.125 -12.75 C 91.914062 -9.375 88.890625 -6.632812 85.046875 -4.53125 C 81.203125 -2.4375 77.125 -0.925781 72.8125 0 C 68.507812 0.925781 64.378906 1.453125 60.421875 1.578125 C 49.472656 1.578125 40.210938 -0.71875 32.640625 -5.3125 C 25.078125 -9.914062 19.347656 -15.972656 15.453125 -23.484375 C 11.554688 -30.992188 9.609375 -39.054688 9.609375 -47.671875 C 9.609375 -56.171875 11.585938 -64.085938 15.546875 -71.421875 C 19.503906 -78.753906 25.265625 -84.691406 32.828125 -89.234375 C 40.398438 -93.773438 49.484375 -96.046875 60.078125 -96.046875 C 64.035156 -96.046875 68.109375 -95.664062 72.296875 -94.90625 C 76.484375 -94.15625 80.5 -92.757812 84.34375 -90.71875 C 88.1875 -88.675781 91.503906 -85.738281 94.296875 -81.90625 L 94.125 -94.46875 L 111.234375 -94.46875 Z M 94.125 -47.328125 C 94.125 -54.890625 92.40625 -61.144531 88.96875 -66.09375 C 85.53125 -71.039062 81.191406 -74.765625 75.953125 -77.265625 C 70.722656 -79.773438 65.429688 -81.03125 60.078125 -81.03125 C 53.203125 -81.03125 47.257812 -79.546875 42.25 -76.578125 C 37.25 -73.609375 33.410156 -69.617188 30.734375 -64.609375 C 28.054688 -59.609375 26.71875 -53.960938 26.71875 -47.671875 C 26.71875 -41.734375 28.054688 -36.171875 30.734375 -30.984375 C 33.410156 -25.804688 37.222656 -21.617188 42.171875 -18.421875 C 47.117188 -15.222656 53.085938 -13.625 60.078125 -13.625 C 65.304688 -13.625 70.539062 -14.84375 75.78125 -17.28125 C 81.019531 -19.726562 85.382812 -23.453125 88.875 -28.453125 C 92.375 -33.460938 94.125 -39.753906 94.125 -47.328125 Z M 94.125 -47.328125 "/></g></g></g><g fill="#000000" fill-opacity="1"><g transform="translate(1208.37077, 437.181982)"><g><path d="M 13.09375 0 L 13.09375 -122.234375 L 30.203125 -122.234375 L 30.203125 0 Z M 13.09375 0 "/></g></g></g><g fill="#000000" fill-opacity="1"><g transform="translate(1251.671715, 437.181982)"><g/></g></g><g fill="#000000" fill-opacity="1"><g transform="translate(1295.147289, 437.181982)"><g><path d="M 76.140625 -90.625 C 75.328125 -94.238281 73.640625 -97.179688 71.078125 -99.453125 C 68.515625 -101.722656 65.515625 -103.410156 62.078125 -104.515625 C 58.640625 -105.617188 55.175781 -106.171875 51.6875 -106.171875 C 47.5 -106.171875 43.304688 -105.441406 39.109375 -103.984375 C 34.921875 -102.535156 31.546875 -100.179688 28.984375 -96.921875 C 27.941406 -95.640625 27.1875 -94.15625 26.71875 -92.46875 C 26.25 -90.78125 26.015625 -89.0625 26.015625 -87.3125 C 26.015625 -82.65625 27.378906 -79.160156 30.109375 -76.828125 C 32.847656 -74.503906 36.34375 -72.929688 40.59375 -72.109375 C 44.84375 -71.296875 49.238281 -70.660156 53.78125 -70.203125 C 57.976562 -69.734375 62.285156 -69.003906 66.703125 -68.015625 C 71.128906 -67.023438 75.347656 -65.597656 79.359375 -63.734375 C 83.378906 -61.867188 86.875 -59.363281 89.84375 -56.21875 C 92.8125 -53.082031 94.878906 -49.070312 96.046875 -44.1875 C 96.628906 -41.269531 96.921875 -38.585938 96.921875 -36.140625 C 96.921875 -30.203125 95.609375 -24.9375 92.984375 -20.34375 C 90.367188 -15.75 86.878906 -11.847656 82.515625 -8.640625 C 78.148438 -5.441406 73.257812 -3.023438 67.84375 -1.390625 C 62.425781 0.234375 56.984375 1.046875 51.515625 1.046875 C 46.859375 1.046875 42.054688 0.347656 37.109375 -1.046875 C 32.160156 -2.441406 27.5625 -4.503906 23.3125 -7.234375 C 19.0625 -9.972656 15.507812 -13.410156 12.65625 -17.546875 C 9.800781 -21.679688 8.085938 -26.484375 7.515625 -31.953125 L 7.328125 -35.28125 L 25.140625 -35.625 L 25.328125 -33 L 25.328125 -33.703125 C 25.785156 -29.972656 27.378906 -26.796875 30.109375 -24.171875 C 32.847656 -21.554688 36.195312 -19.609375 40.15625 -18.328125 C 44.113281 -17.054688 47.957031 -16.421875 51.6875 -16.421875 C 56.113281 -16.421875 60.421875 -17.203125 64.609375 -18.765625 C 68.796875 -20.335938 72.257812 -22.609375 75 -25.578125 C 77.738281 -28.546875 79.109375 -32.128906 79.109375 -36.328125 C 79.109375 -37.609375 78.929688 -39.003906 78.578125 -40.515625 C 77.878906 -43.660156 76.160156 -46.015625 73.421875 -47.578125 C 70.691406 -49.148438 67.40625 -50.285156 63.5625 -50.984375 C 59.71875 -51.679688 55.757812 -52.207031 51.6875 -52.5625 C 46.914062 -53.03125 42.082031 -53.757812 37.1875 -54.75 C 32.300781 -55.738281 27.757812 -57.335938 23.5625 -59.546875 C 19.375 -61.753906 15.910156 -64.804688 13.171875 -68.703125 C 10.441406 -72.609375 8.84375 -77.765625 8.375 -84.171875 L 8.375 -84 C 8.375 -84.582031 8.34375 -85.101562 8.28125 -85.5625 C 8.226562 -86.03125 8.203125 -86.5 8.203125 -86.96875 C 8.203125 -94.53125 10.472656 -101.28125 15.015625 -107.21875 C 19.085938 -112.570312 24.5 -116.613281 31.25 -119.34375 C 38.007812 -122.082031 44.9375 -123.453125 52.03125 -123.453125 C 58.320312 -123.453125 64.460938 -122.316406 70.453125 -120.046875 C 76.453125 -117.785156 81.546875 -114.296875 85.734375 -109.578125 C 89.929688 -104.859375 92.550781 -98.773438 93.59375 -91.328125 Z M 76.140625 -90.625 "/></g></g></g><g fill="#000000" fill-opacity="1"><g transform="translate(1399.034711, 437.181982)"><g><path d="M 110.890625 -47.15625 C 110.890625 -39 109.460938 -31.863281 106.609375 -25.75 C 103.753906 -19.644531 99.878906 -14.550781 94.984375 -10.46875 C 90.097656 -6.394531 84.597656 -3.335938 78.484375 -1.296875 C 72.378906 0.734375 66.125 1.75 59.71875 1.75 C 53.4375 1.75 47.265625 0.734375 41.203125 -1.296875 C 35.148438 -3.335938 29.707031 -6.394531 24.875 -10.46875 C 20.050781 -14.550781 16.210938 -19.644531 13.359375 -25.75 C 10.503906 -31.863281 9.078125 -39 9.078125 -47.15625 C 9.078125 -55.300781 10.503906 -62.425781 13.359375 -68.53125 C 16.210938 -74.644531 20.082031 -79.738281 24.96875 -83.8125 C 29.863281 -87.894531 35.363281 -90.953125 41.46875 -92.984375 C 47.582031 -95.023438 53.84375 -96.046875 60.25 -96.046875 C 66.644531 -96.046875 72.84375 -95.023438 78.84375 -92.984375 C 84.84375 -90.953125 90.253906 -87.894531 95.078125 -83.8125 C 99.910156 -79.738281 103.753906 -74.644531 106.609375 -68.53125 C 109.460938 -62.425781 110.890625 -55.300781 110.890625 -47.15625 Z M 26.1875 -47.15625 C 26.1875 -39.695312 27.84375 -33.492188 31.15625 -28.546875 C 34.476562 -23.597656 38.726562 -19.875 43.90625 -17.375 C 49.09375 -14.875 54.484375 -13.625 60.078125 -13.625 C 65.773438 -13.625 71.1875 -14.875 76.3125 -17.375 C 81.4375 -19.875 85.65625 -23.625 88.96875 -28.625 C 92.289062 -33.632812 93.953125 -39.8125 93.953125 -47.15625 C 93.953125 -54.601562 92.320312 -60.828125 89.0625 -65.828125 C 85.800781 -70.835938 81.578125 -74.59375 76.390625 -77.09375 C 71.210938 -79.59375 65.832031 -80.84375 60.25 -80.84375 C 54.539062 -80.84375 49.09375 -79.59375 43.90625 -77.09375 C 38.726562 -74.59375 34.476562 -70.867188 31.15625 -65.921875 C 27.84375 -60.972656 26.1875 -54.71875 26.1875 -47.15625 Z M 26.1875 -47.15625 "/></g></g></g><g fill="#000000" fill-opacity="1"><g transform="translate(1520.207567, 437.181982)"><g><path d="M 13.09375 0 L 13.09375 -122.234375 L 30.203125 -122.234375 L 30.203125 0 Z M 13.09375 0 "/></g></g></g><g fill="#000000" fill-opacity="1"><g transform="translate(1563.508513, 437.181982)"><g><path d="M 12.046875 -118.75 C 12.046875 -122.007812 13.179688 -124.453125 15.453125 -126.078125 C 17.722656 -127.710938 20.195312 -128.53125 22.875 -128.53125 C 25.550781 -128.53125 27.96875 -127.742188 30.125 -126.171875 C 32.28125 -124.597656 33.359375 -122.125 33.359375 -118.75 C 33.359375 -115.488281 32.25 -113.015625 30.03125 -111.328125 C 27.820312 -109.640625 25.378906 -108.796875 22.703125 -108.796875 C 20.140625 -108.796875 17.722656 -109.640625 15.453125 -111.328125 C 13.179688 -113.015625 12.046875 -115.488281 12.046875 -118.75 Z M 14.140625 -95.515625 L 14.140625 0 L 31.265625 0 L 31.265625 -95.515625 Z M 14.140625 -95.515625 "/></g></g></g><g fill="#000000" fill-opacity="1"><g transform="translate(1610.476089, 437.181982)"><g><path d="M 106 -122.234375 L 106 0 L 88.890625 0 L 88.890625 -12.75 C 85.503906 -7.625 80.875 -3.984375 75 -1.828125 C 69.125 0.316406 63.21875 1.453125 57.28125 1.578125 C 46.332031 1.578125 37.101562 -0.570312 29.59375 -4.875 C 22.082031 -9.1875 16.4375 -15.066406 12.65625 -22.515625 C 8.875 -29.972656 6.984375 -38.359375 6.984375 -47.671875 C 6.984375 -56.753906 8.929688 -64.929688 12.828125 -72.203125 C 16.734375 -79.484375 22.441406 -85.273438 29.953125 -89.578125 C 37.460938 -93.890625 46.515625 -96.046875 57.109375 -96.046875 C 62.921875 -96.046875 68.648438 -95.140625 74.296875 -93.328125 C 79.941406 -91.523438 84.804688 -87.832031 88.890625 -82.25 L 88.890625 -122.234375 Z M 88.890625 -47.328125 C 88.890625 -54.890625 87.34375 -61.144531 84.25 -66.09375 C 81.164062 -71.039062 77.207031 -74.765625 72.375 -77.265625 C 67.550781 -79.773438 62.460938 -81.03125 57.109375 -81.03125 C 50.117188 -81.03125 44.175781 -79.398438 39.28125 -76.140625 C 34.394531 -72.878906 30.640625 -68.6875 28.015625 -63.5625 C 25.398438 -58.4375 24.09375 -53.023438 24.09375 -47.328125 C 24.09375 -40.921875 25.375 -35.15625 27.9375 -30.03125 C 30.5 -24.914062 34.253906 -20.898438 39.203125 -17.984375 C 44.148438 -15.078125 50.054688 -13.625 56.921875 -13.625 C 62.273438 -13.625 67.394531 -14.84375 72.28125 -17.28125 C 77.175781 -19.726562 81.164062 -23.453125 84.25 -28.453125 C 87.34375 -33.460938 88.890625 -39.753906 88.890625 -47.328125 Z M 88.890625 -47.328125 "/></g></g></g><g fill="#000000" fill-opacity="1"><g transform="translate(1729.902969, 437.181982)"><g><path d="M 59.375 -132.1875 L 81.71875 -132.1875 L 61.984375 -113.5 L 46.796875 -113.5 Z M 108.4375 0 L 91.328125 0 L 91.328125 -12.75 C 89.117188 -9.375 86.09375 -6.632812 82.25 -4.53125 C 78.40625 -2.4375 74.328125 -0.925781 70.015625 0 C 65.710938 0.925781 61.582031 1.453125 57.625 1.578125 C 46.6875 1.578125 37.429688 -0.71875 29.859375 -5.3125 C 22.296875 -9.914062 16.5625 -15.972656 12.65625 -23.484375 C 8.757812 -30.992188 6.8125 -39.054688 6.8125 -47.671875 C 6.8125 -56.171875 8.789062 -64.085938 12.75 -71.421875 C 16.707031 -78.753906 22.46875 -84.691406 30.03125 -89.234375 C 37.601562 -93.773438 46.6875 -96.046875 57.28125 -96.046875 C 61.238281 -96.046875 65.3125 -95.664062 69.5 -94.90625 C 73.6875 -94.15625 77.703125 -92.757812 81.546875 -90.71875 C 85.390625 -88.675781 88.707031 -85.738281 91.5 -81.90625 L 91.328125 -94.46875 L 108.4375 -94.46875 Z M 91.328125 -47.328125 C 91.328125 -54.890625 89.609375 -61.144531 86.171875 -66.09375 C 82.742188 -71.039062 78.410156 -74.765625 73.171875 -77.265625 C 67.929688 -79.773438 62.632812 -81.03125 57.28125 -81.03125 C 50.40625 -81.03125 44.460938 -79.546875 39.453125 -76.578125 C 34.453125 -73.609375 30.613281 -69.617188 27.9375 -64.609375 C 25.257812 -59.609375 23.921875 -53.960938 23.921875 -47.671875 C 23.921875 -41.734375 25.257812 -36.171875 27.9375 -30.984375 C 30.613281 -25.804688 34.425781 -21.617188 39.375 -18.421875 C 44.320312 -15.222656 50.289062 -13.625 57.28125 -13.625 C 62.519531 -13.625 67.753906 -14.84375 72.984375 -17.28125 C 78.222656 -19.726562 82.585938 -23.453125 86.078125 -28.453125 C 89.578125 -33.460938 91.328125 -39.753906 91.328125 -47.328125 Z M 91.328125 -47.328125 "/></g></g></g><g fill="#000000" fill-opacity="1"><g transform="translate(1849.679005, 437.181982)"><g><path d="M 30.03125 -82.765625 C 33.40625 -87.546875 37.390625 -91.007812 41.984375 -93.15625 C 46.585938 -95.3125 51.507812 -96.390625 56.75 -96.390625 C 58.613281 -96.390625 60.476562 -96.269531 62.34375 -96.03125 C 64.207031 -95.800781 66.066406 -95.457031 67.921875 -95 L 67.921875 -79.984375 C 65.128906 -80.796875 62.222656 -81.203125 59.203125 -81.203125 C 53.960938 -81.203125 49.128906 -79.890625 44.703125 -77.265625 C 40.273438 -74.648438 36.722656 -71.097656 34.046875 -66.609375 C 31.367188 -62.128906 30.03125 -56.984375 30.03125 -51.171875 L 30.03125 0 L 13.09375 0 L 13.09375 -94.296875 L 30.03125 -94.296875 Z M 30.03125 -82.765625 "/></g></g></g><g fill="#000000" fill-opacity="1"><g transform="translate(1923.011298, 437.181982)"><g><path d="M 12.046875 -118.75 C 12.046875 -122.007812 13.179688 -124.453125 15.453125 -126.078125 C 17.722656 -127.710938 20.195312 -128.53125 22.875 -128.53125 C 25.550781 -128.53125 27.96875 -127.742188 30.125 -126.171875 C 32.28125 -124.597656 33.359375 -122.125 33.359375 -118.75 C 33.359375 -115.488281 32.25 -113.015625 30.03125 -111.328125 C 27.820312 -109.640625 25.378906 -108.796875 22.703125 -108.796875 C 20.140625 -108.796875 17.722656 -109.640625 15.453125 -111.328125 C 13.179688 -113.015625 12.046875 -115.488281 12.046875 -118.75 Z M 14.140625 -95.515625 L 14.140625 0 L 31.265625 0 L 31.265625 -95.515625 Z M 14.140625 -95.515625 "/></g></g></g><g fill="#000000" fill-opacity="1"><g transform="translate(1969.978874, 437.181982)"><g><path d="M 110.890625 -47.15625 C 110.890625 -39 109.460938 -31.863281 106.609375 -25.75 C 103.753906 -19.644531 99.878906 -14.550781 94.984375 -10.46875 C 90.097656 -6.394531 84.597656 -3.335938 78.484375 -1.296875 C 72.378906 0.734375 66.125 1.75 59.71875 1.75 C 53.4375 1.75 47.265625 0.734375 41.203125 -1.296875 C 35.148438 -3.335938 29.707031 -6.394531 24.875 -10.46875 C 20.050781 -14.550781 16.210938 -19.644531 13.359375 -25.75 C 10.503906 -31.863281 9.078125 -39 9.078125 -47.15625 C 9.078125 -55.300781 10.503906 -62.425781 13.359375 -68.53125 C 16.210938 -74.644531 20.082031 -79.738281 24.96875 -83.8125 C 29.863281 -87.894531 35.363281 -90.953125 41.46875 -92.984375 C 47.582031 -95.023438 53.84375 -96.046875 60.25 -96.046875 C 66.644531 -96.046875 72.84375 -95.023438 78.84375 -92.984375 C 84.84375 -90.953125 90.253906 -87.894531 95.078125 -83.8125 C 99.910156 -79.738281 103.753906 -74.644531 106.609375 -68.53125 C 109.460938 -62.425781 110.890625 -55.300781 110.890625 -47.15625 Z M 26.1875 -47.15625 C 26.1875 -39.695312 27.84375 -33.492188 31.15625 -28.546875 C 34.476562 -23.597656 38.726562 -19.875 43.90625 -17.375 C 49.09375 -14.875 54.484375 -13.625 60.078125 -13.625 C 65.773438 -13.625 71.1875 -14.875 76.3125 -17.375 C 81.4375 -19.875 85.65625 -23.625 88.96875 -28.625 C 92.289062 -33.632812 93.953125 -39.8125 93.953125 -47.15625 C 93.953125 -54.601562 92.320312 -60.828125 89.0625 -65.828125 C 85.800781 -70.835938 81.578125 -74.59375 76.390625 -77.09375 C 71.210938 -79.59375 65.832031 -80.84375 60.25 -80.84375 C 54.539062 -80.84375 49.09375 -79.59375 43.90625 -77.09375 C 38.726562 -74.59375 34.476562 -70.867188 31.15625 -65.921875 C 27.84375 -60.972656 26.1875 -54.71875 26.1875 -47.15625 Z M 26.1875 -47.15625 "/></g></g></g><g fill="#000000" fill-opacity="1"><g transform="translate(2091.173857, 437.181982)"><g/></g></g><path fill="#000000" d="M 184.105469 403.5625 L 339.71875 403.5625 C 340.230469 403.5625 340.722656 403.464844 341.191406 403.269531 C 341.664062 403.078125 342.082031 402.796875 342.441406 402.4375 C 342.804688 402.078125 343.082031 401.660156 343.277344 401.191406 C 343.472656 400.71875 343.570312 400.230469 343.570312 399.71875 L 343.570312 381.707031 C 343.566406 380.207031 343.460938 378.714844 343.246094 377.230469 C 343.035156 375.742188 342.71875 374.28125 342.300781 372.839844 C 341.882812 371.402344 341.363281 369.996094 340.746094 368.628906 C 340.132812 367.261719 339.421875 365.945312 338.621094 364.675781 C 337.816406 363.40625 336.929688 362.203125 335.957031 361.058594 C 334.988281 359.914062 333.941406 358.847656 332.816406 357.851562 C 331.695312 356.855469 330.507812 355.941406 329.253906 355.113281 C 328.003906 354.28125 326.703125 353.542969 325.347656 352.898438 C 326 352.417969 326.628906 351.902344 327.230469 351.359375 C 327.832031 350.8125 328.40625 350.234375 328.945312 349.628906 C 329.488281 349.023438 329.996094 348.390625 330.472656 347.730469 C 330.945312 347.074219 331.386719 346.390625 331.789062 345.6875 C 332.191406 344.980469 332.558594 344.257812 332.886719 343.515625 C 333.214844 342.769531 333.503906 342.011719 333.75 341.238281 C 334 340.464844 334.207031 339.683594 334.375 338.886719 C 334.539062 338.09375 334.664062 337.289062 334.746094 336.484375 C 334.828125 335.675781 334.867188 334.863281 334.867188 334.054688 C 334.863281 333.242188 334.816406 332.429688 334.730469 331.625 C 334.644531 330.816406 334.515625 330.015625 334.34375 329.222656 C 334.171875 328.429688 333.960938 327.644531 333.707031 326.875 C 333.453125 326.101562 333.160156 325.34375 332.828125 324.605469 C 332.496094 323.863281 332.125 323.140625 331.71875 322.4375 C 331.308594 321.738281 330.867188 321.058594 330.386719 320.402344 C 329.90625 319.746094 329.394531 319.117188 328.851562 318.511719 C 328.304688 317.910156 327.730469 317.339844 327.125 316.796875 C 326.519531 316.253906 325.886719 315.742188 325.230469 315.265625 C 324.570312 314.789062 323.890625 314.351562 323.183594 313.945312 C 322.480469 313.539062 321.753906 313.171875 321.011719 312.84375 C 320.269531 312.511719 319.511719 312.222656 318.738281 311.972656 C 317.964844 311.722656 317.179688 311.511719 316.382812 311.34375 C 315.589844 311.175781 314.785156 311.046875 313.976562 310.964844 C 313.167969 310.878906 312.359375 310.835938 311.542969 310.835938 C 310.730469 310.835938 309.921875 310.878906 309.113281 310.964844 C 308.304688 311.046875 307.5 311.175781 306.707031 311.34375 C 305.910156 311.511719 305.125 311.722656 304.351562 311.972656 C 303.578125 312.222656 302.820312 312.511719 302.078125 312.84375 C 301.332031 313.171875 300.609375 313.539062 299.90625 313.945312 C 299.199219 314.351562 298.519531 314.789062 297.859375 315.265625 C 297.203125 315.742188 296.570312 316.253906 295.964844 316.796875 C 295.359375 317.339844 294.785156 317.910156 294.238281 318.511719 C 293.695312 319.117188 293.183594 319.746094 292.703125 320.402344 C 292.222656 321.058594 291.78125 321.738281 291.371094 322.4375 C 290.964844 323.140625 290.59375 323.863281 290.261719 324.605469 C 289.929688 325.34375 289.636719 326.101562 289.382812 326.875 C 289.128906 327.644531 288.917969 328.429688 288.746094 329.222656 C 288.574219 330.015625 288.445312 330.816406 288.359375 331.625 C 288.269531 332.429688 288.226562 333.242188 288.222656 334.054688 C 288.222656 334.863281 288.261719 335.675781 288.34375 336.484375 C 288.425781 337.289062 288.550781 338.09375 288.714844 338.886719 C 288.882812 339.683594 289.089844 340.464844 289.339844 341.238281 C 289.585938 342.011719 289.875 342.769531 290.203125 343.515625 C 290.53125 344.257812 290.894531 344.980469 291.300781 345.6875 C 291.703125 346.390625 292.144531 347.074219 292.617188 347.730469 C 293.09375 348.390625 293.601562 349.023438 294.144531 349.628906 C 294.683594 350.234375 295.253906 350.8125 295.859375 351.359375 C 296.460938 351.902344 297.085938 352.417969 297.742188 352.898438 C 295.960938 353.75 294.273438 354.757812 292.679688 355.921875 C 291.085938 357.085938 289.609375 358.386719 288.257812 359.820312 C 286.902344 361.257812 285.6875 362.804688 284.621094 364.460938 C 283.550781 366.121094 282.640625 367.863281 281.894531 369.6875 C 279.835938 367.132812 277.359375 365.082031 274.464844 363.535156 C 274.929688 363.117188 275.367188 362.675781 275.785156 362.210938 C 276.207031 361.746094 276.597656 361.265625 276.96875 360.761719 C 277.339844 360.257812 277.683594 359.738281 278 359.203125 C 278.316406 358.664062 278.605469 358.113281 278.867188 357.546875 C 279.132812 356.980469 279.363281 356.402344 279.570312 355.8125 C 279.773438 355.222656 279.945312 354.625 280.089844 354.015625 C 280.234375 353.410156 280.347656 352.796875 280.429688 352.179688 C 280.511719 351.5625 280.5625 350.941406 280.585938 350.316406 C 280.605469 349.691406 280.59375 349.070312 280.550781 348.449219 C 280.507812 347.824219 280.433594 347.207031 280.328125 346.589844 C 280.226562 345.976562 280.089844 345.367188 279.925781 344.765625 C 279.757812 344.164062 279.5625 343.574219 279.339844 342.992188 C 279.113281 342.410156 278.859375 341.839844 278.578125 341.285156 C 278.296875 340.726562 277.984375 340.1875 277.648438 339.660156 C 277.3125 339.132812 276.949219 338.628906 276.5625 338.136719 C 276.175781 337.648438 275.765625 337.179688 275.332031 336.730469 C 274.894531 336.285156 274.441406 335.859375 273.960938 335.457031 C 273.484375 335.054688 272.988281 334.675781 272.472656 334.324219 C 271.957031 333.96875 271.425781 333.644531 270.878906 333.34375 C 270.332031 333.042969 269.769531 332.773438 269.195312 332.527344 C 268.617188 332.285156 268.03125 332.070312 267.4375 331.886719 C 266.839844 331.703125 266.234375 331.546875 265.621094 331.425781 C 265.011719 331.300781 264.394531 331.207031 263.773438 331.144531 C 263.152344 331.082031 262.527344 331.050781 261.902344 331.050781 C 261.277344 331.050781 260.65625 331.082031 260.035156 331.144531 C 259.410156 331.207031 258.792969 331.300781 258.183594 331.425781 C 257.570312 331.546875 256.964844 331.703125 256.371094 331.886719 C 255.773438 332.070312 255.1875 332.285156 254.609375 332.527344 C 254.035156 332.773438 253.472656 333.042969 252.925781 333.34375 C 252.378906 333.644531 251.847656 333.96875 251.332031 334.324219 C 250.816406 334.675781 250.320312 335.054688 249.84375 335.457031 C 249.367188 335.859375 248.910156 336.285156 248.476562 336.730469 C 248.039062 337.179688 247.628906 337.648438 247.242188 338.136719 C 246.855469 338.628906 246.492188 339.132812 246.15625 339.660156 C 245.820312 340.1875 245.511719 340.726562 245.226562 341.285156 C 244.945312 341.839844 244.691406 342.410156 244.46875 342.992188 C 244.242188 343.574219 244.046875 344.164062 243.882812 344.765625 C 243.714844 345.367188 243.582031 345.976562 243.476562 346.589844 C 243.371094 347.207031 243.296875 347.824219 243.253906 348.449219 C 243.210938 349.070312 243.203125 349.691406 243.222656 350.316406 C 243.242188 350.941406 243.292969 351.5625 243.375 352.179688 C 243.457031 352.796875 243.570312 353.410156 243.714844 354.015625 C 243.859375 354.625 244.03125 355.222656 244.238281 355.8125 C 244.441406 356.402344 244.675781 356.980469 244.9375 357.546875 C 245.199219 358.113281 245.488281 358.664062 245.804688 359.203125 C 246.125 359.738281 246.46875 360.257812 246.835938 360.761719 C 247.207031 361.265625 247.601562 361.746094 248.019531 362.210938 C 248.4375 362.675781 248.878906 363.117188 249.339844 363.535156 C 246.480469 365.0625 244.03125 367.082031 241.984375 369.59375 C 241.242188 367.75 240.335938 365.988281 239.265625 364.3125 C 238.195312 362.636719 236.980469 361.070312 235.621094 359.621094 C 234.257812 358.167969 232.777344 356.855469 231.171875 355.679688 C 229.566406 354.503906 227.863281 353.484375 226.070312 352.625 C 226.726562 352.144531 227.355469 351.628906 227.957031 351.082031 C 228.558594 350.539062 229.128906 349.960938 229.671875 349.355469 C 230.210938 348.75 230.71875 348.117188 231.195312 347.457031 C 231.671875 346.800781 232.109375 346.117188 232.511719 345.410156 C 232.917969 344.707031 233.28125 343.984375 233.609375 343.238281 C 233.9375 342.496094 234.226562 341.738281 234.476562 340.964844 C 234.722656 340.191406 234.929688 339.40625 235.097656 338.613281 C 235.261719 337.816406 235.386719 337.015625 235.46875 336.207031 C 235.550781 335.402344 235.59375 334.589844 235.589844 333.777344 C 235.585938 332.964844 235.542969 332.15625 235.453125 331.347656 C 235.367188 330.542969 235.238281 329.742188 235.066406 328.949219 C 234.894531 328.152344 234.683594 327.371094 234.429688 326.597656 C 234.175781 325.828125 233.882812 325.070312 233.550781 324.332031 C 233.21875 323.589844 232.847656 322.867188 232.441406 322.164062 C 232.035156 321.460938 231.589844 320.78125 231.109375 320.128906 C 230.632812 319.472656 230.117188 318.839844 229.574219 318.238281 C 229.027344 317.636719 228.453125 317.0625 227.847656 316.519531 C 227.242188 315.980469 226.613281 315.46875 225.953125 314.992188 C 225.292969 314.515625 224.613281 314.074219 223.910156 313.671875 C 223.203125 313.265625 222.480469 312.898438 221.738281 312.566406 C 220.992188 312.238281 220.234375 311.949219 219.460938 311.699219 C 218.6875 311.445312 217.902344 311.238281 217.109375 311.070312 C 216.3125 310.902344 215.511719 310.773438 214.703125 310.6875 C 213.894531 310.605469 213.082031 310.5625 212.269531 310.5625 C 211.457031 310.5625 210.644531 310.605469 209.835938 310.6875 C 209.027344 310.773438 208.226562 310.902344 207.429688 311.070312 C 206.632812 311.238281 205.847656 311.445312 205.074219 311.699219 C 204.300781 311.949219 203.542969 312.238281 202.800781 312.566406 C 202.058594 312.898438 201.332031 313.265625 200.628906 313.671875 C 199.925781 314.074219 199.242188 314.515625 198.585938 314.992188 C 197.925781 315.46875 197.292969 315.980469 196.6875 316.519531 C 196.082031 317.0625 195.507812 317.636719 194.964844 318.238281 C 194.417969 318.839844 193.90625 319.472656 193.425781 320.128906 C 192.949219 320.78125 192.503906 321.460938 192.097656 322.164062 C 191.6875 322.867188 191.316406 323.589844 190.984375 324.332031 C 190.652344 325.070312 190.359375 325.828125 190.105469 326.597656 C 189.851562 327.371094 189.640625 328.152344 189.46875 328.949219 C 189.296875 329.742188 189.167969 330.542969 189.082031 331.347656 C 188.996094 332.15625 188.949219 332.964844 188.949219 333.777344 C 188.945312 334.589844 188.984375 335.402344 189.066406 336.207031 C 189.148438 337.015625 189.273438 337.816406 189.441406 338.613281 C 189.605469 339.40625 189.8125 340.191406 190.0625 340.964844 C 190.308594 341.738281 190.597656 342.496094 190.925781 343.238281 C 191.253906 343.984375 191.621094 344.707031 192.023438 345.410156 C 192.425781 346.117188 192.867188 346.800781 193.34375 347.457031 C 193.816406 348.117188 194.324219 348.75 194.867188 349.355469 C 195.40625 349.960938 195.980469 350.539062 196.582031 351.082031 C 197.183594 351.628906 197.8125 352.144531 198.46875 352.625 C 197.113281 353.269531 195.808594 354.007812 194.558594 354.835938 C 193.304688 355.667969 192.117188 356.578125 190.996094 357.574219 C 189.875 358.570312 188.828125 359.640625 187.855469 360.785156 C 186.882812 361.929688 185.996094 363.132812 185.191406 364.402344 C 184.390625 365.667969 183.683594 366.988281 183.066406 368.355469 C 182.449219 369.722656 181.929688 371.125 181.511719 372.566406 C 181.09375 374.007812 180.777344 375.46875 180.566406 376.953125 C 180.351562 378.4375 180.246094 379.929688 180.242188 381.429688 L 180.242188 399.71875 C 180.242188 400.230469 180.339844 400.722656 180.539062 401.191406 C 180.734375 401.664062 181.011719 402.082031 181.375 402.441406 C 181.738281 402.800781 182.15625 403.078125 182.628906 403.273438 C 183.101562 403.46875 183.59375 403.566406 184.105469 403.5625 Z M 295.929688 334.167969 C 295.929688 333.148438 296.027344 332.140625 296.226562 331.140625 C 296.421875 330.140625 296.714844 329.167969 297.105469 328.226562 C 297.492188 327.28125 297.96875 326.386719 298.53125 325.539062 C 299.09375 324.6875 299.738281 323.902344 300.453125 323.175781 C 301.171875 322.453125 301.957031 321.804688 302.800781 321.234375 C 303.644531 320.664062 304.539062 320.179688 305.480469 319.78125 C 306.421875 319.386719 307.390625 319.085938 308.390625 318.878906 C 309.390625 318.671875 310.398438 318.566406 311.421875 318.558594 C 312.441406 318.546875 313.453125 318.636719 314.457031 318.828125 C 315.457031 319.015625 316.433594 319.300781 317.378906 319.683594 C 318.328125 320.0625 319.226562 320.53125 320.082031 321.089844 C 320.9375 321.644531 321.730469 322.277344 322.460938 322.992188 C 323.191406 323.703125 323.847656 324.476562 324.425781 325.320312 C 325.003906 326.160156 325.496094 327.046875 325.898438 327.980469 C 326.300781 328.917969 326.609375 329.886719 326.824219 330.882812 C 327.039062 331.878906 327.15625 332.886719 327.171875 333.90625 C 327.1875 334.925781 327.105469 335.933594 326.921875 336.9375 C 326.742188 337.941406 326.464844 338.917969 326.089844 339.867188 C 325.714844 340.8125 325.253906 341.71875 324.703125 342.574219 C 324.152344 343.433594 323.523438 344.230469 322.816406 344.964844 C 322.109375 345.699219 321.335938 346.359375 320.5 346.941406 C 319.664062 347.527344 318.777344 348.023438 317.84375 348.433594 C 316.910156 348.84375 315.941406 349.160156 314.945312 349.382812 C 313.949219 349.605469 312.941406 349.726562 311.921875 349.75 C 311.796875 349.75 311.679688 349.730469 311.550781 349.730469 C 311.425781 349.730469 311.296875 349.75 311.179688 349.75 C 310.171875 349.726562 309.175781 349.605469 308.1875 349.386719 C 307.203125 349.167969 306.246094 348.859375 305.320312 348.457031 C 304.398438 348.054688 303.519531 347.566406 302.6875 346.996094 C 301.855469 346.421875 301.089844 345.777344 300.382812 345.054688 C 299.679688 344.335938 299.046875 343.554688 298.496094 342.710938 C 297.941406 341.867188 297.472656 340.980469 297.089844 340.046875 C 296.710938 339.113281 296.421875 338.152344 296.226562 337.164062 C 296.03125 336.175781 295.933594 335.175781 295.929688 334.167969 Z M 287.234375 381.707031 C 287.234375 380.917969 287.273438 380.132812 287.351562 379.351562 C 287.429688 378.566406 287.542969 377.789062 287.695312 377.015625 C 287.847656 376.246094 288.039062 375.480469 288.265625 374.726562 C 288.496094 373.972656 288.757812 373.234375 289.058594 372.503906 C 289.355469 371.777344 289.691406 371.066406 290.058594 370.371094 C 290.429688 369.675781 290.832031 368.996094 291.265625 368.339844 C 291.699219 367.683594 292.164062 367.050781 292.660156 366.4375 C 293.15625 365.828125 293.683594 365.242188 294.234375 364.679688 C 294.789062 364.121094 295.367188 363.585938 295.972656 363.082031 C 296.578125 362.578125 297.207031 362.105469 297.855469 361.660156 C 298.507812 361.21875 299.179688 360.804688 299.871094 360.429688 C 300.5625 360.050781 301.269531 359.707031 301.996094 359.394531 C 302.71875 359.085938 303.457031 358.8125 304.207031 358.574219 C 304.960938 358.335938 305.722656 358.136719 306.492188 357.972656 C 307.261719 357.808594 308.039062 357.679688 308.824219 357.59375 C 309.605469 357.503906 310.390625 357.453125 311.179688 357.441406 C 311.304688 357.441406 311.4375 357.457031 311.550781 357.457031 C 311.667969 357.457031 311.808594 357.441406 311.921875 357.441406 C 312.710938 357.453125 313.496094 357.503906 314.277344 357.589844 C 315.0625 357.679688 315.839844 357.808594 316.609375 357.972656 C 317.382812 358.136719 318.140625 358.335938 318.894531 358.574219 C 319.644531 358.8125 320.382812 359.085938 321.109375 359.394531 C 321.832031 359.707031 322.539062 360.050781 323.230469 360.425781 C 323.921875 360.804688 324.59375 361.214844 325.246094 361.660156 C 325.898438 362.105469 326.523438 362.578125 327.128906 363.082031 C 327.734375 363.585938 328.3125 364.117188 328.867188 364.679688 C 329.421875 365.242188 329.945312 365.828125 330.441406 366.4375 C 330.9375 367.050781 331.402344 367.683594 331.839844 368.339844 C 332.273438 368.996094 332.675781 369.671875 333.042969 370.367188 C 333.410156 371.066406 333.746094 371.777344 334.046875 372.503906 C 334.34375 373.234375 334.609375 373.972656 334.835938 374.726562 C 335.0625 375.480469 335.253906 376.246094 335.40625 377.015625 C 335.558594 377.789062 335.675781 378.566406 335.75 379.351562 C 335.828125 380.132812 335.867188 380.917969 335.871094 381.707031 L 335.871094 395.875 L 287.234375 395.875 Z M 261.910156 338.78125 C 262.628906 338.78125 263.339844 338.847656 264.042969 338.984375 C 264.746094 339.121094 265.429688 339.324219 266.09375 339.59375 C 266.757812 339.863281 267.386719 340.195312 267.988281 340.589844 C 268.585938 340.984375 269.140625 341.429688 269.648438 341.933594 C 270.160156 342.433594 270.617188 342.980469 271.023438 343.574219 C 271.425781 344.164062 271.769531 344.789062 272.046875 345.449219 C 272.328125 346.105469 272.542969 346.785156 272.691406 347.484375 C 272.839844 348.1875 272.917969 348.894531 272.925781 349.609375 C 272.933594 350.324219 272.875 351.035156 272.746094 351.738281 C 272.613281 352.441406 272.417969 353.125 272.152344 353.792969 C 271.886719 354.457031 271.5625 355.089844 271.171875 355.691406 C 270.785156 356.292969 270.339844 356.851562 269.84375 357.367188 C 269.34375 357.878906 268.800781 358.339844 268.210938 358.75 C 267.625 359.15625 267 359.503906 266.34375 359.792969 C 265.6875 360.078125 265.007812 360.296875 264.308594 360.453125 C 263.609375 360.605469 262.898438 360.691406 262.183594 360.707031 L 261.640625 360.707031 C 260.921875 360.691406 260.214844 360.605469 259.515625 360.453125 C 258.816406 360.296875 258.136719 360.078125 257.480469 359.792969 C 256.824219 359.503906 256.199219 359.15625 255.613281 358.75 C 255.023438 358.339844 254.480469 357.878906 253.980469 357.367188 C 253.484375 356.851562 253.039062 356.292969 252.652344 355.691406 C 252.261719 355.089844 251.9375 354.457031 251.671875 353.792969 C 251.40625 353.125 251.210938 352.441406 251.078125 351.738281 C 250.949219 351.035156 250.886719 350.324219 250.898438 349.609375 C 250.90625 348.894531 250.984375 348.1875 251.132812 347.484375 C 251.28125 346.785156 251.492188 346.105469 251.773438 345.449219 C 252.054688 344.789062 252.398438 344.164062 252.800781 343.574219 C 253.207031 342.980469 253.664062 342.433594 254.171875 341.933594 C 254.683594 341.429688 255.238281 340.984375 255.835938 340.589844 C 256.4375 340.195312 257.066406 339.863281 257.730469 339.59375 C 258.394531 339.324219 259.078125 339.121094 259.78125 338.984375 C 260.484375 338.847656 261.195312 338.78125 261.910156 338.78125 Z M 260.660156 368.394531 L 261.367188 368.394531 C 261.550781 368.394531 261.726562 368.421875 261.910156 368.421875 C 262.097656 368.421875 262.273438 368.398438 262.457031 368.394531 L 263.160156 368.394531 C 263.699219 368.394531 264.230469 368.421875 264.765625 368.476562 C 265.296875 368.527344 265.828125 368.605469 266.351562 368.710938 C 266.878906 368.816406 267.398438 368.945312 267.910156 369.101562 C 268.421875 369.257812 268.925781 369.4375 269.421875 369.640625 C 269.917969 369.847656 270.402344 370.074219 270.871094 370.328125 C 271.34375 370.582031 271.804688 370.855469 272.25 371.152344 C 272.695312 371.449219 273.125 371.769531 273.539062 372.109375 C 273.953125 372.445312 274.351562 372.804688 274.730469 373.183594 C 275.109375 373.5625 275.46875 373.957031 275.808594 374.371094 C 276.148438 374.785156 276.46875 375.214844 276.765625 375.660156 C 277.0625 376.101562 277.339844 376.5625 277.589844 377.035156 C 277.84375 377.503906 278.074219 377.988281 278.277344 378.480469 C 278.484375 378.976562 278.664062 379.480469 278.820312 379.992188 C 278.976562 380.503906 279.109375 381.019531 279.214844 381.546875 C 279.320312 382.070312 279.398438 382.597656 279.449219 383.132812 C 279.503906 383.664062 279.53125 384.199219 279.53125 384.734375 L 279.53125 395.867188 L 244.292969 395.867188 L 244.292969 384.734375 C 244.292969 384.199219 244.320312 383.664062 244.371094 383.132812 C 244.425781 382.597656 244.503906 382.070312 244.609375 381.546875 C 244.714844 381.019531 244.84375 380.503906 245 379.992188 C 245.15625 379.480469 245.339844 378.976562 245.542969 378.480469 C 245.75 377.988281 245.976562 377.503906 246.230469 377.035156 C 246.484375 376.5625 246.757812 376.105469 247.058594 375.660156 C 247.355469 375.214844 247.675781 374.785156 248.015625 374.371094 C 248.355469 373.957031 248.714844 373.5625 249.09375 373.183594 C 249.472656 372.804688 249.867188 372.445312 250.28125 372.109375 C 250.695312 371.769531 251.125 371.449219 251.570312 371.152344 C 252.015625 370.855469 252.476562 370.582031 252.949219 370.328125 C 253.421875 370.074219 253.90625 369.847656 254.398438 369.640625 C 254.894531 369.4375 255.398438 369.257812 255.910156 369.101562 C 256.421875 368.945312 256.941406 368.816406 257.46875 368.710938 C 257.992188 368.605469 258.523438 368.527344 259.054688 368.476562 C 259.589844 368.421875 260.125 368.394531 260.660156 368.394531 Z M 196.648438 333.894531 C 196.648438 332.875 196.746094 331.867188 196.945312 330.867188 C 197.140625 329.867188 197.433594 328.894531 197.820312 327.953125 C 198.210938 327.007812 198.683594 326.113281 199.25 325.261719 C 199.8125 324.414062 200.453125 323.625 201.171875 322.902344 C 201.890625 322.175781 202.671875 321.53125 203.519531 320.957031 C 204.363281 320.386719 205.257812 319.902344 206.195312 319.507812 C 207.136719 319.109375 208.105469 318.808594 209.105469 318.601562 C 210.105469 318.398438 211.117188 318.289062 212.136719 318.28125 C 213.15625 318.269531 214.167969 318.363281 215.171875 318.550781 C 216.175781 318.738281 217.148438 319.023438 218.097656 319.40625 C 219.042969 319.785156 219.945312 320.253906 220.800781 320.808594 C 221.65625 321.367188 222.449219 322 223.179688 322.710938 C 223.910156 323.425781 224.5625 324.199219 225.140625 325.039062 C 225.722656 325.878906 226.210938 326.765625 226.617188 327.703125 C 227.019531 328.640625 227.328125 329.605469 227.542969 330.601562 C 227.757812 331.597656 227.875 332.605469 227.890625 333.625 C 227.90625 334.644531 227.824219 335.65625 227.640625 336.660156 C 227.460938 337.660156 227.183594 338.636719 226.808594 339.585938 C 226.4375 340.535156 225.972656 341.4375 225.421875 342.296875 C 224.871094 343.15625 224.242188 343.949219 223.535156 344.6875 C 222.828125 345.421875 222.058594 346.082031 221.21875 346.664062 C 220.382812 347.25 219.5 347.746094 218.5625 348.15625 C 217.628906 348.566406 216.664062 348.882812 215.667969 349.105469 C 214.671875 349.328125 213.664062 349.449219 212.644531 349.472656 C 212.519531 349.472656 212.386719 349.457031 212.269531 349.457031 C 212.15625 349.457031 212.015625 349.472656 211.902344 349.472656 C 210.894531 349.449219 209.894531 349.328125 208.910156 349.109375 C 207.925781 348.894531 206.96875 348.582031 206.042969 348.179688 C 205.117188 347.777344 204.238281 347.292969 203.410156 346.71875 C 202.578125 346.148438 201.808594 345.5 201.105469 344.78125 C 200.398438 344.058594 199.769531 343.277344 199.214844 342.4375 C 198.660156 341.59375 198.191406 340.707031 197.8125 339.773438 C 197.429688 338.839844 197.140625 337.878906 196.945312 336.890625 C 196.75 335.902344 196.652344 334.902344 196.648438 333.894531 Z M 187.953125 381.429688 C 187.953125 380.644531 187.996094 379.859375 188.070312 379.074219 C 188.148438 378.292969 188.265625 377.515625 188.417969 376.742188 C 188.570312 375.96875 188.761719 375.207031 188.988281 374.453125 C 189.214844 373.699219 189.480469 372.957031 189.777344 372.230469 C 190.078125 371.503906 190.414062 370.789062 190.78125 370.09375 C 191.148438 369.398438 191.550781 368.722656 191.984375 368.066406 C 192.421875 367.410156 192.886719 366.773438 193.382812 366.164062 C 193.878906 365.550781 194.402344 364.964844 194.957031 364.40625 C 195.507812 363.84375 196.089844 363.3125 196.695312 362.808594 C 197.300781 362.304688 197.925781 361.828125 198.578125 361.386719 C 199.230469 360.941406 199.902344 360.53125 200.59375 360.152344 C 201.285156 359.773438 201.992188 359.429688 202.714844 359.121094 C 203.441406 358.8125 204.179688 358.535156 204.929688 358.296875 C 205.679688 358.0625 206.441406 357.859375 207.214844 357.695312 C 207.984375 357.53125 208.761719 357.40625 209.542969 357.316406 C 210.328125 357.226562 211.113281 357.175781 211.902344 357.164062 C 212.023438 357.164062 212.144531 357.183594 212.269531 357.183594 C 212.398438 357.183594 212.527344 357.164062 212.644531 357.164062 C 213.429688 357.175781 214.21875 357.226562 215 357.316406 C 215.785156 357.40625 216.5625 357.53125 217.332031 357.695312 C 218.101562 357.859375 218.863281 358.0625 219.613281 358.296875 C 220.367188 358.535156 221.105469 358.8125 221.828125 359.121094 C 222.554688 359.429688 223.261719 359.773438 223.953125 360.152344 C 224.644531 360.53125 225.316406 360.941406 225.964844 361.386719 C 226.617188 361.828125 227.246094 362.304688 227.851562 362.808594 C 228.457031 363.3125 229.035156 363.84375 229.589844 364.40625 C 230.140625 364.964844 230.667969 365.550781 231.164062 366.164062 C 231.660156 366.773438 232.125 367.410156 232.558594 368.066406 C 232.992188 368.722656 233.394531 369.398438 233.765625 370.09375 C 234.132812 370.789062 234.464844 371.503906 234.765625 372.230469 C 235.066406 372.957031 235.328125 373.699219 235.554688 374.453125 C 235.785156 375.207031 235.972656 375.96875 236.128906 376.742188 C 236.28125 377.515625 236.394531 378.292969 236.472656 379.074219 C 236.550781 379.859375 236.589844 380.644531 236.589844 381.429688 L 236.589844 395.875 L 187.953125 395.875 Z M 187.953125 381.429688 " fill-opacity="1" fill-rule="nonzero"/><path fill="#000000" d="M 239.039062 307.359375 L 239.121094 307.425781 C 250.203125 316.011719 256.414062 320.308594 262.597656 320.308594 C 268.78125 320.308594 274.984375 315.976562 286.042969 307.300781 L 286.09375 307.257812 C 315.1875 284.40625 313.40625 261.988281 311.289062 253.40625 C 310.976562 251.945312 310.5625 250.515625 310.046875 249.113281 C 309.527344 247.710938 308.914062 246.351562 308.203125 245.039062 C 307.492188 243.722656 306.691406 242.464844 305.800781 241.265625 C 304.910156 240.066406 303.941406 238.933594 302.886719 237.875 C 301.835938 236.8125 300.710938 235.832031 299.519531 234.929688 C 298.328125 234.027344 297.074219 233.214844 295.765625 232.492188 C 294.457031 231.769531 293.105469 231.140625 291.703125 230.613281 C 290.304688 230.082031 288.878906 229.65625 287.417969 229.328125 C 278.035156 227.589844 268.953125 231.121094 261.894531 239.046875 C 253.855469 230.804688 244.007812 227.371094 234.296875 229.578125 C 232.925781 229.941406 231.589844 230.398438 230.285156 230.949219 C 228.980469 231.5 227.722656 232.136719 226.507812 232.863281 C 225.292969 233.589844 224.132812 234.394531 223.03125 235.285156 C 221.929688 236.171875 220.894531 237.132812 219.929688 238.167969 C 218.964844 239.199219 218.074219 240.296875 217.261719 241.453125 C 216.449219 242.613281 215.71875 243.820312 215.078125 245.082031 C 214.433594 246.339844 213.882812 247.640625 213.421875 248.976562 C 212.960938 250.316406 212.597656 251.675781 212.328125 253.066406 C 210.410156 261.683594 209.195312 284.207031 239.039062 307.359375 Z M 219.835938 254.730469 C 220.027344 253.695312 220.289062 252.675781 220.621094 251.679688 C 220.953125 250.679688 221.355469 249.710938 221.824219 248.769531 C 222.292969 247.824219 222.828125 246.921875 223.421875 246.050781 C 224.019531 245.183594 224.671875 244.363281 225.382812 243.585938 C 226.09375 242.808594 226.855469 242.085938 227.667969 241.414062 C 228.484375 240.746094 229.339844 240.136719 230.238281 239.585938 C 231.132812 239.035156 232.066406 238.550781 233.03125 238.128906 C 234 237.710938 234.992188 237.359375 236.003906 237.078125 C 244.023438 235.253906 252.410156 239.03125 259.019531 247.433594 C 259.394531 247.917969 259.859375 248.289062 260.414062 248.546875 C 260.96875 248.804688 261.550781 248.921875 262.160156 248.902344 C 262.769531 248.882812 263.34375 248.730469 263.878906 248.4375 C 264.417969 248.148438 264.859375 247.753906 265.207031 247.253906 C 270.855469 239.136719 278.246094 235.464844 286.011719 236.886719 C 294.332031 238.425781 301.488281 245.800781 303.820312 255.246094 C 307.539062 270.328125 299.335938 287.089844 281.308594 301.242188 L 281.257812 301.28125 C 271.460938 308.972656 266.570312 312.664062 262.609375 312.671875 L 262.597656 312.671875 C 258.65625 312.671875 253.738281 309.011719 243.917969 301.394531 L 243.835938 301.328125 C 217.386719 280.859375 218.242188 261.921875 219.835938 254.730469 Z M 219.835938 254.730469 " fill-opacity="1" fill-rule="nonzero"/><path fill="#000000" d="M 254.304688 286.351562 C 254.664062 286.710938 255.082031 286.988281 255.554688 287.183594 C 256.023438 287.378906 256.515625 287.476562 257.027344 287.476562 C 257.535156 287.476562 258.027344 287.378906 258.5 287.183594 C 258.96875 286.988281 259.386719 286.710938 259.746094 286.351562 L 279.570312 266.554688 C 279.753906 266.378906 279.917969 266.183594 280.066406 265.976562 C 280.210938 265.765625 280.332031 265.542969 280.433594 265.308594 C 280.535156 265.074219 280.609375 264.832031 280.664062 264.582031 C 280.714844 264.332031 280.742188 264.078125 280.746094 263.824219 C 280.75 263.570312 280.726562 263.316406 280.675781 263.066406 C 280.628906 262.8125 280.554688 262.570312 280.460938 262.335938 C 280.363281 262.097656 280.242188 261.875 280.101562 261.660156 C 279.960938 261.449219 279.800781 261.253906 279.617188 261.070312 C 279.4375 260.890625 279.242188 260.730469 279.027344 260.589844 C 278.816406 260.449219 278.589844 260.328125 278.355469 260.230469 C 278.117188 260.136719 277.875 260.0625 277.621094 260.015625 C 277.371094 259.964844 277.117188 259.945312 276.863281 259.945312 C 276.605469 259.949219 276.355469 259.976562 276.105469 260.027344 C 275.855469 260.082031 275.613281 260.15625 275.375 260.257812 C 275.140625 260.359375 274.917969 260.480469 274.707031 260.625 C 274.5 260.769531 274.304688 260.9375 274.125 261.121094 L 257.035156 278.195312 L 249.703125 270.875 C 249.34375 270.511719 248.925781 270.234375 248.457031 270.039062 C 247.984375 269.84375 247.492188 269.746094 246.980469 269.746094 C 246.46875 269.746094 245.980469 269.84375 245.507812 270.039062 C 245.035156 270.234375 244.617188 270.511719 244.257812 270.871094 C 243.894531 271.230469 243.617188 271.648438 243.421875 272.117188 C 243.226562 272.589844 243.125 273.078125 243.125 273.589844 C 243.125 274.101562 243.222656 274.589844 243.417969 275.0625 C 243.613281 275.535156 243.890625 275.949219 244.253906 276.3125 Z M 254.304688 286.351562 " fill-opacity="1" fill-rule="nonzero"/><g clip-path="url(#1edbed237d)"><path fill="#000000" d="M 227.316406 447.21875 L 214.121094 441.390625 L 177.929688 408.53125 C 177.839844 408.449219 177.738281 408.378906 177.648438 408.300781 C 177.292969 407.996094 176.941406 407.695312 176.570312 407.425781 L 176.476562 407.359375 C 174.839844 406.167969 173.046875 405.304688 171.09375 404.769531 C 169.144531 404.230469 167.160156 404.054688 165.144531 404.238281 L 160.933594 364.113281 C 160.824219 363.046875 160.617188 362.003906 160.308594 360.976562 C 160 359.953125 159.597656 358.964844 159.101562 358.019531 C 158.601562 357.070312 158.019531 356.175781 157.355469 355.339844 C 156.6875 354.503906 155.945312 353.734375 155.132812 353.039062 C 154.316406 352.34375 153.445312 351.730469 152.515625 351.199219 C 151.582031 350.667969 150.609375 350.230469 149.597656 349.886719 C 148.582031 349.542969 147.542969 349.296875 146.480469 349.148438 C 145.421875 349.003906 144.355469 348.957031 143.285156 349.011719 C 142.214844 349.070312 141.160156 349.226562 140.117188 349.480469 C 139.078125 349.738281 138.070312 350.09375 137.097656 350.539062 C 136.125 350.988281 135.203125 351.527344 134.332031 352.148438 C 133.460938 352.773438 132.660156 353.476562 131.921875 354.253906 C 131.1875 355.03125 130.53125 355.871094 129.953125 356.773438 C 129.378906 357.675781 128.890625 358.625 128.496094 359.617188 C 128.101562 360.613281 127.804688 361.636719 127.605469 362.6875 C 127.40625 363.738281 127.308594 364.800781 127.308594 365.871094 L 127.308594 432.078125 C 127.3125 434.964844 127.613281 437.824219 128.214844 440.648438 C 128.820312 443.472656 129.707031 446.203125 130.882812 448.839844 C 132.058594 451.480469 133.496094 453.964844 135.195312 456.304688 C 136.894531 458.640625 138.816406 460.773438 140.964844 462.707031 L 171.113281 489.820312 C 172.140625 490.746094 173.0625 491.769531 173.878906 492.886719 C 174.691406 494.003906 175.378906 495.195312 175.945312 496.457031 C 176.507812 497.722656 176.933594 499.027344 177.222656 500.382812 C 177.507812 501.734375 177.652344 503.101562 177.652344 504.484375 L 177.652344 523.398438 C 177.652344 523.910156 177.75 524.398438 177.945312 524.871094 C 178.140625 525.339844 178.421875 525.757812 178.78125 526.117188 C 179.140625 526.476562 179.558594 526.757812 180.03125 526.953125 C 180.503906 527.144531 180.992188 527.242188 181.503906 527.242188 L 246.558594 527.242188 C 247.070312 527.242188 247.5625 527.144531 248.035156 526.953125 C 248.503906 526.757812 248.921875 526.476562 249.28125 526.117188 C 249.644531 525.757812 249.921875 525.339844 250.117188 524.871094 C 250.3125 524.398438 250.410156 523.910156 250.410156 523.398438 L 250.410156 482.582031 C 250.410156 480.71875 250.277344 478.863281 250.007812 477.019531 C 249.738281 475.175781 249.339844 473.359375 248.808594 471.570312 C 248.277344 469.785156 247.617188 468.046875 246.832031 466.351562 C 246.050781 464.660156 245.148438 463.035156 244.128906 461.472656 C 243.109375 459.910156 241.980469 458.429688 240.746094 457.03125 C 239.511719 455.632812 238.183594 454.332031 236.761719 453.125 C 235.335938 451.917969 233.832031 450.820312 232.25 449.832031 C 230.667969 448.839844 229.023438 447.972656 227.316406 447.21875 Z M 242.714844 519.546875 L 185.355469 519.546875 L 185.355469 504.484375 C 185.355469 502.5625 185.152344 500.660156 184.753906 498.78125 C 184.351562 496.902344 183.761719 495.082031 182.976562 493.328125 C 182.195312 491.574219 181.238281 489.917969 180.105469 488.363281 C 178.972656 486.808594 177.691406 485.390625 176.261719 484.105469 L 146.121094 457 C 144.375 455.425781 142.808594 453.6875 141.429688 451.785156 C 140.046875 449.886719 138.878906 447.859375 137.921875 445.714844 C 136.964844 443.570312 136.242188 441.347656 135.75 439.050781 C 135.261719 436.75 135.015625 434.429688 135.011719 432.078125 L 135.011719 365.871094 C 135.011719 365.289062 135.066406 364.714844 135.175781 364.144531 C 135.28125 363.574219 135.445312 363.015625 135.660156 362.476562 C 135.875 361.9375 136.136719 361.421875 136.453125 360.933594 C 136.765625 360.445312 137.121094 359.988281 137.519531 359.566406 C 137.921875 359.144531 138.355469 358.765625 138.828125 358.425781 C 139.300781 358.085938 139.800781 357.796875 140.332031 357.554688 C 140.859375 357.308594 141.40625 357.117188 141.96875 356.980469 C 142.535156 356.839844 143.105469 356.753906 143.6875 356.722656 C 144.269531 356.691406 144.847656 356.71875 145.421875 356.796875 C 146 356.878906 146.5625 357.011719 147.113281 357.195312 C 147.664062 357.382812 148.191406 357.621094 148.699219 357.910156 C 149.203125 358.195312 149.675781 358.527344 150.117188 358.90625 C 150.5625 359.28125 150.964844 359.699219 151.324219 360.152344 C 151.6875 360.605469 152.003906 361.089844 152.273438 361.605469 C 152.546875 362.121094 152.765625 362.65625 152.933594 363.210938 C 153.101562 363.765625 153.214844 364.332031 153.273438 364.910156 L 157.664062 406.796875 C 156.578125 407.484375 155.582031 408.289062 154.675781 409.203125 C 154.292969 409.59375 153.925781 410.003906 153.582031 410.433594 C 153.238281 410.859375 152.917969 411.300781 152.617188 411.761719 C 152.316406 412.21875 152.039062 412.691406 151.785156 413.179688 C 151.53125 413.664062 151.300781 414.164062 151.09375 414.671875 C 150.890625 415.179688 150.710938 415.699219 150.558594 416.226562 C 150.402344 416.75 150.273438 417.285156 150.171875 417.824219 C 150.070312 418.363281 149.996094 418.90625 149.949219 419.453125 C 149.898438 420 149.878906 420.546875 149.882812 421.09375 C 149.890625 421.640625 149.921875 422.1875 149.980469 422.734375 C 150.042969 423.28125 150.128906 423.820312 150.242188 424.359375 C 150.351562 424.894531 150.492188 425.425781 150.65625 425.949219 C 150.820312 426.472656 151.011719 426.984375 151.226562 427.488281 C 151.441406 427.992188 151.683594 428.488281 151.945312 428.96875 C 152.210938 429.449219 152.496094 429.914062 152.808594 430.367188 C 153.117188 430.820312 153.449219 431.257812 153.800781 431.679688 C 154.15625 432.097656 154.527344 432.5 154.921875 432.882812 L 188.378906 465.601562 C 188.558594 465.785156 188.753906 465.945312 188.964844 466.085938 C 189.175781 466.230469 189.398438 466.347656 189.636719 466.445312 C 189.871094 466.542969 190.113281 466.617188 190.363281 466.667969 C 190.613281 466.71875 190.867188 466.742188 191.121094 466.742188 C 191.378906 466.738281 191.628906 466.714844 191.878906 466.664062 C 192.128906 466.613281 192.371094 466.539062 192.609375 466.4375 C 192.84375 466.339844 193.066406 466.21875 193.277344 466.074219 C 193.488281 465.933594 193.683594 465.769531 193.859375 465.585938 C 194.039062 465.40625 194.199219 465.207031 194.335938 464.996094 C 194.476562 464.78125 194.59375 464.554688 194.6875 464.320312 C 194.78125 464.082031 194.851562 463.839844 194.898438 463.589844 C 194.945312 463.335938 194.964844 463.085938 194.960938 462.832031 C 194.957031 462.574219 194.925781 462.324219 194.875 462.074219 C 194.820312 461.824219 194.738281 461.585938 194.636719 461.351562 C 194.535156 461.117188 194.410156 460.898438 194.265625 460.6875 C 194.117188 460.480469 193.953125 460.289062 193.769531 460.113281 L 160.308594 427.386719 C 159.730469 426.824219 159.234375 426.191406 158.828125 425.496094 C 158.417969 424.796875 158.109375 424.058594 157.898438 423.28125 C 157.6875 422.5 157.582031 421.707031 157.582031 420.898438 C 157.585938 420.089844 157.695312 419.296875 157.910156 418.515625 C 158.125 417.738281 158.4375 417 158.851562 416.304688 C 159.261719 415.609375 159.761719 414.984375 160.339844 414.421875 C 160.921875 413.859375 161.566406 413.382812 162.277344 412.992188 C 162.984375 412.605469 163.734375 412.3125 164.519531 412.125 C 164.757812 412.066406 165 412.035156 165.242188 411.996094 C 165.480469 411.957031 165.734375 411.925781 165.980469 411.90625 C 166.226562 411.890625 166.492188 411.875 166.769531 411.882812 C 167.046875 411.886719 167.234375 411.90625 167.464844 411.925781 C 167.824219 411.957031 168.179688 412.007812 168.53125 412.082031 C 168.867188 412.148438 169.199219 412.234375 169.527344 412.335938 C 169.738281 412.40625 169.941406 412.5 170.148438 412.59375 C 170.441406 412.714844 170.726562 412.851562 171.003906 413.003906 C 171.171875 413.09375 171.335938 413.1875 171.5 413.289062 C 171.945312 413.566406 172.367188 413.875 172.757812 414.222656 L 209.410156 447.515625 C 209.433594 447.53125 209.457031 447.535156 209.476562 447.554688 C 209.765625 447.808594 210.082031 448.015625 210.433594 448.179688 L 224.210938 454.261719 C 225.582031 454.863281 226.898438 455.558594 228.164062 456.351562 C 229.433594 457.144531 230.636719 458.023438 231.777344 458.992188 C 232.917969 459.957031 233.980469 461 234.96875 462.121094 C 235.957031 463.242188 236.859375 464.425781 237.679688 465.679688 C 238.496094 466.929688 239.21875 468.234375 239.84375 469.585938 C 240.472656 470.941406 241 472.335938 241.425781 473.769531 C 241.851562 475.199219 242.171875 476.652344 242.386719 478.132812 C 242.601562 479.609375 242.710938 481.09375 242.710938 482.589844 Z M 242.714844 519.546875 " fill-opacity="1" fill-rule="nonzero"/></g><g clip-path="url(#b261bb236d)"><path fill="#000000" d="M 391.582031 353.976562 C 390.453125 352.851562 389.195312 351.90625 387.800781 351.140625 C 386.40625 350.371094 384.929688 349.8125 383.378906 349.464844 C 381.824219 349.113281 380.253906 348.984375 378.664062 349.078125 C 377.078125 349.171875 375.53125 349.484375 374.03125 350.015625 C 372.53125 350.546875 371.132812 351.273438 369.839844 352.199219 C 368.546875 353.125 367.40625 354.214844 366.417969 355.460938 C 365.433594 356.710938 364.640625 358.070312 364.039062 359.542969 C 363.441406 361.015625 363.058594 362.542969 362.890625 364.121094 L 358.675781 404.238281 C 357.519531 404.132812 356.363281 404.144531 355.207031 404.277344 C 354.054688 404.414062 352.925781 404.664062 351.824219 405.035156 C 350.722656 405.40625 349.671875 405.886719 348.667969 406.472656 C 347.667969 407.0625 346.738281 407.75 345.878906 408.535156 L 309.703125 441.390625 L 296.515625 447.21875 C 294.804688 447.96875 293.160156 448.839844 291.574219 449.828125 C 289.992188 450.816406 288.488281 451.917969 287.066406 453.121094 C 285.644531 454.328125 284.3125 455.632812 283.078125 457.03125 C 281.84375 458.429688 280.714844 459.910156 279.695312 461.472656 C 278.675781 463.035156 277.773438 464.660156 276.992188 466.355469 C 276.207031 468.046875 275.546875 469.785156 275.015625 471.574219 C 274.484375 473.363281 274.085938 475.179688 273.816406 477.023438 C 273.546875 478.867188 273.414062 480.722656 273.414062 482.589844 L 273.414062 523.398438 C 273.414062 523.910156 273.511719 524.398438 273.707031 524.871094 C 273.902344 525.339844 274.179688 525.757812 274.539062 526.117188 C 274.902344 526.476562 275.316406 526.757812 275.789062 526.953125 C 276.261719 527.144531 276.753906 527.242188 277.261719 527.242188 L 342.320312 527.242188 C 342.832031 527.242188 343.320312 527.144531 343.792969 526.953125 C 344.265625 526.757812 344.679688 526.476562 345.042969 526.117188 C 345.402344 525.757812 345.679688 525.339844 345.875 524.871094 C 346.070312 524.398438 346.167969 523.910156 346.167969 523.398438 L 346.167969 504.484375 C 346.171875 503.101562 346.316406 501.730469 346.601562 500.378906 C 346.890625 499.027344 347.316406 497.71875 347.882812 496.457031 C 348.445312 495.191406 349.132812 494 349.949219 492.882812 C 350.761719 491.765625 351.683594 490.742188 352.714844 489.816406 L 382.855469 462.707031 C 385.003906 460.773438 386.925781 458.640625 388.625 456.304688 C 390.324219 453.964844 391.761719 451.480469 392.9375 448.839844 C 394.113281 446.203125 395.003906 443.472656 395.605469 440.648438 C 396.207031 437.824219 396.507812 434.964844 396.511719 432.078125 L 396.511719 365.871094 C 396.515625 363.636719 396.09375 361.492188 395.238281 359.429688 C 394.382812 357.367188 393.164062 355.550781 391.582031 353.976562 Z M 388.8125 432.078125 C 388.808594 434.429688 388.5625 436.75 388.074219 439.050781 C 387.582031 441.347656 386.859375 443.570312 385.902344 445.714844 C 384.945312 447.863281 383.777344 449.886719 382.394531 451.785156 C 381.011719 453.6875 379.449219 455.425781 377.703125 457 L 347.566406 484.097656 C 346.136719 485.382812 344.855469 486.804688 343.722656 488.359375 C 342.589844 489.914062 341.632812 491.570312 340.847656 493.324219 C 340.066406 495.082031 339.472656 496.898438 339.074219 498.78125 C 338.671875 500.660156 338.46875 502.5625 338.46875 504.484375 L 338.46875 519.554688 L 281.113281 519.554688 L 281.113281 482.582031 C 281.113281 481.089844 281.222656 479.605469 281.4375 478.125 C 281.652344 476.648438 281.972656 475.191406 282.398438 473.761719 C 282.824219 472.328125 283.351562 470.9375 283.980469 469.582031 C 284.609375 468.226562 285.332031 466.921875 286.148438 465.671875 C 286.964844 464.417969 287.867188 463.234375 288.859375 462.113281 C 289.847656 460.992188 290.910156 459.949219 292.050781 458.984375 C 293.191406 458.015625 294.394531 457.136719 295.664062 456.34375 C 296.933594 455.550781 298.25 454.855469 299.621094 454.253906 L 313.390625 448.171875 C 313.738281 448.011719 314.058594 447.804688 314.34375 447.546875 C 314.367188 447.53125 314.390625 447.527344 314.410156 447.507812 L 324.164062 438.652344 L 351.066406 414.222656 L 351.125 414.175781 C 351.5 413.847656 351.898438 413.550781 352.320312 413.285156 C 352.484375 413.183594 352.652344 413.089844 352.832031 412.996094 C 353.113281 412.84375 353.398438 412.707031 353.691406 412.585938 C 353.894531 412.5 354.089844 412.410156 354.296875 412.34375 C 354.679688 412.214844 355.066406 412.117188 355.460938 412.039062 C 355.742188 411.988281 356.03125 411.957031 356.320312 411.925781 C 356.605469 411.898438 356.832031 411.882812 357.089844 411.878906 C 357.34375 411.875 357.585938 411.878906 357.832031 411.90625 C 358.082031 411.929688 358.367188 411.957031 358.632812 412.003906 C 358.855469 412.039062 359.085938 412.066406 359.308594 412.121094 C 360.097656 412.308594 360.84375 412.597656 361.554688 412.988281 C 362.265625 413.375 362.910156 413.851562 363.492188 414.414062 C 364.074219 414.976562 364.574219 415.605469 364.984375 416.300781 C 365.398438 416.996094 365.714844 417.734375 365.929688 418.511719 C 366.144531 419.292969 366.253906 420.085938 366.253906 420.894531 C 366.257812 421.703125 366.152344 422.5 365.941406 423.277344 C 365.730469 424.058594 365.421875 424.800781 365.011719 425.496094 C 364.601562 426.195312 364.109375 426.824219 363.527344 427.390625 L 330.058594 460.113281 C 329.875 460.289062 329.707031 460.480469 329.5625 460.6875 C 329.414062 460.898438 329.289062 461.117188 329.1875 461.351562 C 329.085938 461.585938 329.007812 461.828125 328.953125 462.074219 C 328.898438 462.324219 328.871094 462.574219 328.863281 462.832031 C 328.859375 463.085938 328.882812 463.335938 328.925781 463.589844 C 328.972656 463.839844 329.042969 464.082031 329.136719 464.320312 C 329.230469 464.554688 329.347656 464.78125 329.488281 464.996094 C 329.628906 465.207031 329.785156 465.40625 329.964844 465.585938 C 330.144531 465.769531 330.339844 465.933594 330.550781 466.074219 C 330.761719 466.21875 330.984375 466.339844 331.21875 466.4375 C 331.453125 466.539062 331.695312 466.613281 331.945312 466.664062 C 332.195312 466.714844 332.449219 466.738281 332.703125 466.742188 C 332.957031 466.742188 333.210938 466.71875 333.460938 466.667969 C 333.710938 466.617188 333.953125 466.542969 334.191406 466.445312 C 334.425781 466.347656 334.648438 466.230469 334.863281 466.085938 C 335.074219 465.945312 335.269531 465.785156 335.449219 465.601562 L 368.902344 432.886719 C 369.296875 432.503906 369.667969 432.101562 370.023438 431.679688 C 370.375 431.261719 370.707031 430.824219 371.019531 430.371094 C 371.328125 429.917969 371.617188 429.453125 371.878906 428.972656 C 372.144531 428.492188 372.382812 427.996094 372.601562 427.492188 C 372.816406 426.988281 373.007812 426.476562 373.171875 425.953125 C 373.335938 425.429688 373.476562 424.898438 373.589844 424.363281 C 373.703125 423.824219 373.789062 423.285156 373.847656 422.738281 C 373.90625 422.195312 373.941406 421.644531 373.945312 421.097656 C 373.953125 420.550781 373.933594 420 373.882812 419.457031 C 373.835938 418.910156 373.761719 418.367188 373.660156 417.828125 C 373.558594 417.289062 373.429688 416.753906 373.277344 416.226562 C 373.121094 415.703125 372.945312 415.183594 372.738281 414.675781 C 372.535156 414.164062 372.304688 413.667969 372.050781 413.179688 C 371.796875 412.695312 371.519531 412.222656 371.21875 411.761719 C 370.917969 411.304688 370.597656 410.859375 370.253906 410.433594 C 369.910156 410.003906 369.542969 409.59375 369.160156 409.203125 C 368.253906 408.289062 367.257812 407.484375 366.171875 406.796875 L 370.5625 364.910156 C 370.621094 364.332031 370.734375 363.765625 370.902344 363.210938 C 371.070312 362.65625 371.289062 362.121094 371.5625 361.605469 C 371.832031 361.089844 372.148438 360.605469 372.511719 360.152344 C 372.875 359.699219 373.277344 359.28125 373.71875 358.90625 C 374.160156 358.527344 374.632812 358.195312 375.140625 357.910156 C 375.644531 357.621094 376.171875 357.382812 376.722656 357.195312 C 377.273438 357.011719 377.835938 356.878906 378.414062 356.796875 C 378.988281 356.71875 379.566406 356.691406 380.148438 356.722656 C 380.730469 356.753906 381.300781 356.839844 381.867188 356.980469 C 382.429688 357.117188 382.976562 357.308594 383.507812 357.554688 C 384.035156 357.796875 384.535156 358.085938 385.007812 358.425781 C 385.480469 358.765625 385.914062 359.144531 386.316406 359.566406 C 386.714844 359.988281 387.070312 360.445312 387.386719 360.933594 C 387.699219 361.421875 387.960938 361.9375 388.175781 362.476562 C 388.390625 363.015625 388.554688 363.574219 388.660156 364.144531 C 388.769531 364.714844 388.824219 365.289062 388.824219 365.871094 Z M 388.8125 432.078125 " fill-opacity="1" fill-rule="nonzero"/></g></svg>