<svg xmlns="http://www.w3.org/2000/svg" xmlns:xlink="http://www.w3.org/1999/xlink" width="3000" zoomAndPan="magnify" viewBox="0 0 2250 749.999995" height="1000" preserveAspectRatio="xMidYMid meet" version="1.0"><defs><g/><clipPath id="548f3921cd"><path d="M 127.160156 348 L 251 348 L 251 527.300781 L 127.160156 527.300781 Z M 127.160156 348 " clip-rule="nonzero"/></clipPath><clipPath id="b4f1e21e54"><path d="M 273 349 L 396.410156 349 L 396.410156 527.300781 L 273 527.300781 Z M 273 349 " clip-rule="nonzero"/></clipPath></defs><g fill="#ffffff" fill-opacity="1"><g transform="translate(529.174193, 437.181982)"><g><path d="M 84.34375 -73.6875 L 84.34375 -123.28125 L 102.15625 -123.28125 L 102.15625 0 L 84.34375 0 L 84.34375 -56.234375 L 32.65625 -56.234375 L 32.65625 0 L 15.015625 0 L 15.015625 -123.28125 L 32.65625 -123.28125 L 32.65625 -73.6875 Z M 84.34375 -73.6875 "/></g></g></g><g fill="#ffffff" fill-opacity="1"><g transform="translate(646.331241, 437.181982)"><g><path d="M 110.890625 -47.15625 C 110.890625 -39 109.460938 -31.863281 106.609375 -25.75 C 103.753906 -19.644531 99.878906 -14.550781 94.984375 -10.46875 C 90.097656 -6.394531 84.597656 -3.335938 78.484375 -1.296875 C 72.378906 0.734375 66.125 1.75 59.71875 1.75 C 53.4375 1.75 47.265625 0.734375 41.203125 -1.296875 C 35.148438 -3.335938 29.707031 -6.394531 24.875 -10.46875 C 20.050781 -14.550781 16.210938 -19.644531 13.359375 -25.75 C 10.503906 -31.863281 9.078125 -39 9.078125 -47.15625 C 9.078125 -55.300781 10.503906 -62.425781 13.359375 -68.53125 C 16.210938 -74.644531 20.082031 -79.738281 24.96875 -83.8125 C 29.863281 -87.894531 35.363281 -90.953125 41.46875 -92.984375 C 47.582031 -95.023438 53.84375 -96.046875 60.25 -96.046875 C 66.644531 -96.046875 72.84375 -95.023438 78.84375 -92.984375 C 84.84375 -90.953125 90.253906 -87.894531 95.078125 -83.8125 C 99.910156 -79.738281 103.753906 -74.644531 106.609375 -68.53125 C 109.460938 -62.425781 110.890625 -55.300781 110.890625 -47.15625 Z M 26.1875 -47.15625 C 26.1875 -39.695312 27.84375 -33.492188 31.15625 -28.546875 C 34.476562 -23.597656 38.726562 -19.875 43.90625 -17.375 C 49.09375 -14.875 54.484375 -13.625 60.078125 -13.625 C 65.773438 -13.625 71.1875 -14.875 76.3125 -17.375 C 81.4375 -19.875 85.65625 -23.625 88.96875 -28.625 C 92.289062 -33.632812 93.953125 -39.8125 93.953125 -47.15625 C 93.953125 -54.601562 92.320312 -60.828125 89.0625 -65.828125 C 85.800781 -70.835938 81.578125 -74.59375 76.390625 -77.09375 C 71.210938 -79.59375 65.832031 -80.84375 60.25 -80.84375 C 54.539062 -80.84375 49.09375 -79.59375 43.90625 -77.09375 C 38.726562 -74.59375 34.476562 -70.867188 31.15625 -65.921875 C 27.84375 -60.972656 26.1875 -54.71875 26.1875 -47.15625 Z M 26.1875 -47.15625 "/></g></g></g><g fill="#ffffff" fill-opacity="1"><g transform="translate(767.504097, 437.181982)"><g><path d="M 24.96875 -67.234375 C 24.96875 -64.316406 25.695312 -62.039062 27.15625 -60.40625 C 28.613281 -58.78125 30.503906 -57.617188 32.828125 -56.921875 C 35.160156 -56.222656 37.578125 -55.785156 40.078125 -55.609375 C 42.578125 -55.441406 44.875 -55.300781 46.96875 -55.1875 C 51.394531 -54.832031 55.847656 -54.160156 60.328125 -53.171875 C 64.816406 -52.179688 68.921875 -50.664062 72.640625 -48.625 C 76.367188 -46.59375 79.367188 -43.800781 81.640625 -40.25 C 83.910156 -36.695312 85.046875 -32.242188 85.046875 -26.890625 C 85.046875 -21.421875 83.847656 -16.851562 81.453125 -13.1875 C 79.066406 -9.519531 75.925781 -6.609375 72.03125 -4.453125 C 68.132812 -2.296875 63.859375 -0.753906 59.203125 0.171875 C 54.546875 1.109375 50.003906 1.578125 45.578125 1.578125 C 39.054688 1.578125 32.914062 0.585938 27.15625 -1.390625 C 21.394531 -3.367188 16.648438 -6.597656 12.921875 -11.078125 C 9.191406 -15.566406 7.097656 -21.535156 6.640625 -28.984375 L 23.75 -28.984375 C 24.09375 -23.742188 26.414062 -19.8125 30.71875 -17.1875 C 35.03125 -14.570312 40.097656 -13.265625 45.921875 -13.265625 C 48.835938 -13.265625 51.984375 -13.644531 55.359375 -14.40625 C 58.734375 -15.164062 61.671875 -16.5625 64.171875 -18.59375 C 66.671875 -20.632812 67.921875 -23.515625 67.921875 -27.234375 C 67.921875 -29.921875 67.132812 -32.046875 65.5625 -33.609375 C 64 -35.179688 61.992188 -36.40625 59.546875 -37.28125 C 57.097656 -38.15625 54.59375 -38.765625 52.03125 -39.109375 C 49.476562 -39.460938 47.148438 -39.695312 45.046875 -39.8125 C 40.859375 -40.039062 36.582031 -40.59375 32.21875 -41.46875 C 27.851562 -42.34375 23.835938 -43.769531 20.171875 -45.75 C 16.503906 -47.726562 13.5625 -50.429688 11.34375 -53.859375 C 9.132812 -57.296875 8.03125 -61.632812 8.03125 -66.875 C 8.03125 -74.207031 9.890625 -80.03125 13.609375 -84.34375 C 17.335938 -88.65625 22.113281 -91.738281 27.9375 -93.59375 C 33.757812 -95.457031 39.695312 -96.390625 45.75 -96.390625 C 52.039062 -96.390625 57.863281 -95.457031 63.21875 -93.59375 C 68.570312 -91.738281 72.992188 -88.769531 76.484375 -84.6875 C 79.972656 -80.613281 81.894531 -75.257812 82.25 -68.625 L 65.3125 -68.625 C 64.84375 -72.820312 62.65625 -75.9375 58.75 -77.96875 C 54.851562 -80.007812 50.347656 -81.03125 45.234375 -81.03125 C 39.992188 -81.03125 35.304688 -79.953125 31.171875 -77.796875 C 27.035156 -75.640625 24.96875 -72.117188 24.96875 -67.234375 Z M 24.96875 -67.234375 "/></g></g></g><g fill="#ffffff" fill-opacity="1"><g transform="translate(858.471029, 437.181982)"><g><path d="M 12.921875 27.59375 L 12.921875 -94.46875 L 30.03125 -94.46875 L 30.03125 -81.90625 C 33.40625 -87.019531 38.09375 -90.65625 44.09375 -92.8125 C 50.09375 -94.96875 56.054688 -96.046875 61.984375 -96.046875 C 72.929688 -96.046875 81.984375 -93.742188 89.140625 -89.140625 C 96.304688 -84.546875 101.660156 -78.519531 105.203125 -71.0625 C 108.753906 -63.613281 110.53125 -55.582031 110.53125 -46.96875 C 110.53125 -38.46875 108.695312 -30.519531 105.03125 -23.125 C 101.363281 -15.738281 95.921875 -9.773438 88.703125 -5.234375 C 81.484375 -0.691406 72.519531 1.578125 61.8125 1.578125 C 56 1.578125 50.296875 0.644531 44.703125 -1.21875 C 39.117188 -3.082031 34.226562 -6.804688 30.03125 -12.390625 L 30.03125 27.59375 Z M 30.03125 -47.328125 C 30.03125 -39.867188 31.570312 -33.632812 34.65625 -28.625 C 37.75 -23.625 41.738281 -19.875 46.625 -17.375 C 51.507812 -14.875 56.570312 -13.625 61.8125 -13.625 C 68.800781 -13.625 74.648438 -15.253906 79.359375 -18.515625 C 84.078125 -21.773438 87.597656 -25.992188 89.921875 -31.171875 C 92.253906 -36.347656 93.421875 -41.734375 93.421875 -47.328125 C 93.421875 -53.023438 92.253906 -58.4375 89.921875 -63.5625 C 87.597656 -68.6875 84.109375 -72.878906 79.453125 -76.140625 C 74.796875 -79.398438 68.972656 -81.03125 61.984375 -81.03125 C 56.753906 -81.03125 51.691406 -79.773438 46.796875 -77.265625 C 41.910156 -74.765625 37.894531 -71.039062 34.75 -66.09375 C 31.601562 -61.144531 30.03125 -54.890625 30.03125 -47.328125 Z M 30.03125 -47.328125 "/></g></g></g><g fill="#ffffff" fill-opacity="1"><g transform="translate(978.770872, 437.181982)"><g><path d="M 12.046875 -118.75 C 12.046875 -122.007812 13.179688 -124.453125 15.453125 -126.078125 C 17.722656 -127.710938 20.195312 -128.53125 22.875 -128.53125 C 25.550781 -128.53125 27.96875 -127.742188 30.125 -126.171875 C 32.28125 -124.597656 33.359375 -122.125 33.359375 -118.75 C 33.359375 -115.488281 32.25 -113.015625 30.03125 -111.328125 C 27.820312 -109.640625 25.378906 -108.796875 22.703125 -108.796875 C 20.140625 -108.796875 17.722656 -109.640625 15.453125 -111.328125 C 13.179688 -113.015625 12.046875 -115.488281 12.046875 -118.75 Z M 14.140625 -95.515625 L 14.140625 0 L 31.265625 0 L 31.265625 -95.515625 Z M 14.140625 -95.515625 "/></g></g></g><g fill="#ffffff" fill-opacity="1"><g transform="translate(1025.738448, 437.181982)"><g><path d="M 35.453125 -94.46875 L 56.234375 -94.46875 L 56.234375 -80.84375 L 35.453125 -80.84375 L 35.453125 -27.59375 C 35.453125 -22 36.726562 -18.300781 39.28125 -16.5 C 41.84375 -14.695312 45.28125 -13.796875 49.59375 -13.796875 C 50.644531 -13.796875 51.78125 -13.820312 53 -13.875 C 54.21875 -13.9375 55.46875 -14.023438 56.75 -14.140625 L 56.75 0.171875 C 55.351562 0.285156 54.015625 0.375 52.734375 0.4375 C 51.453125 0.5 50.171875 0.53125 48.890625 0.53125 C 42.722656 0.53125 37.335938 -0.3125 32.734375 -2 C 28.140625 -3.695312 24.585938 -6.582031 22.078125 -10.65625 C 19.578125 -14.726562 18.328125 -20.429688 18.328125 -27.765625 L 18.328125 -80.84375 L 4.1875 -80.84375 L 4.1875 -94.46875 L 18.328125 -94.46875 L 18.328125 -112.109375 L 35.453125 -115.421875 Z M 35.453125 -94.46875 "/></g></g></g><g fill="#ffffff" fill-opacity="1"><g transform="translate(1085.801093, 437.181982)"><g><path d="M 111.234375 0 L 94.125 0 L 94.125 -12.75 C 91.914062 -9.375 88.890625 -6.632812 85.046875 -4.53125 C 81.203125 -2.4375 77.125 -0.925781 72.8125 0 C 68.507812 0.925781 64.378906 1.453125 60.421875 1.578125 C 49.472656 1.578125 40.210938 -0.71875 32.640625 -5.3125 C 25.078125 -9.914062 19.347656 -15.972656 15.453125 -23.484375 C 11.554688 -30.992188 9.609375 -39.054688 9.609375 -47.671875 C 9.609375 -56.171875 11.585938 -64.085938 15.546875 -71.421875 C 19.503906 -78.753906 25.265625 -84.691406 32.828125 -89.234375 C 40.398438 -93.773438 49.484375 -96.046875 60.078125 -96.046875 C 64.035156 -96.046875 68.109375 -95.664062 72.296875 -94.90625 C 76.484375 -94.15625 80.5 -92.757812 84.34375 -90.71875 C 88.1875 -88.675781 91.503906 -85.738281 94.296875 -81.90625 L 94.125 -94.46875 L 111.234375 -94.46875 Z M 94.125 -47.328125 C 94.125 -54.890625 92.40625 -61.144531 88.96875 -66.09375 C 85.53125 -71.039062 81.191406 -74.765625 75.953125 -77.265625 C 70.722656 -79.773438 65.429688 -81.03125 60.078125 -81.03125 C 53.203125 -81.03125 47.257812 -79.546875 42.25 -76.578125 C 37.25 -73.609375 33.410156 -69.617188 30.734375 -64.609375 C 28.054688 -59.609375 26.71875 -53.960938 26.71875 -47.671875 C 26.71875 -41.734375 28.054688 -36.171875 30.734375 -30.984375 C 33.410156 -25.804688 37.222656 -21.617188 42.171875 -18.421875 C 47.117188 -15.222656 53.085938 -13.625 60.078125 -13.625 C 65.304688 -13.625 70.539062 -14.84375 75.78125 -17.28125 C 81.019531 -19.726562 85.382812 -23.453125 88.875 -28.453125 C 92.375 -33.460938 94.125 -39.753906 94.125 -47.328125 Z M 94.125 -47.328125 "/></g></g></g><g fill="#ffffff" fill-opacity="1"><g transform="translate(1208.37077, 437.181982)"><g><path d="M 13.09375 0 L 13.09375 -122.234375 L 30.203125 -122.234375 L 30.203125 0 Z M 13.09375 0 "/></g></g></g><g fill="#ffffff" fill-opacity="1"><g transform="translate(1251.671715, 437.181982)"><g/></g></g><g fill="#ffffff" fill-opacity="1"><g transform="translate(1295.147289, 437.181982)"><g><path d="M 76.140625 -90.625 C 75.328125 -94.238281 73.640625 -97.179688 71.078125 -99.453125 C 68.515625 -101.722656 65.515625 -103.410156 62.078125 -104.515625 C 58.640625 -105.617188 55.175781 -106.171875 51.6875 -106.171875 C 47.5 -106.171875 43.304688 -105.441406 39.109375 -103.984375 C 34.921875 -102.535156 31.546875 -100.179688 28.984375 -96.921875 C 27.941406 -95.640625 27.1875 -94.15625 26.71875 -92.46875 C 26.25 -90.78125 26.015625 -89.0625 26.015625 -87.3125 C 26.015625 -82.65625 27.378906 -79.160156 30.109375 -76.828125 C 32.847656 -74.503906 36.34375 -72.929688 40.59375 -72.109375 C 44.84375 -71.296875 49.238281 -70.660156 53.78125 -70.203125 C 57.976562 -69.734375 62.285156 -69.003906 66.703125 -68.015625 C 71.128906 -67.023438 75.347656 -65.597656 79.359375 -63.734375 C 83.378906 -61.867188 86.875 -59.363281 89.84375 -56.21875 C 92.8125 -53.082031 94.878906 -49.070312 96.046875 -44.1875 C 96.628906 -41.269531 96.921875 -38.585938 96.921875 -36.140625 C 96.921875 -30.203125 95.609375 -24.9375 92.984375 -20.34375 C 90.367188 -15.75 86.878906 -11.847656 82.515625 -8.640625 C 78.148438 -5.441406 73.257812 -3.023438 67.84375 -1.390625 C 62.425781 0.234375 56.984375 1.046875 51.515625 1.046875 C 46.859375 1.046875 42.054688 0.347656 37.109375 -1.046875 C 32.160156 -2.441406 27.5625 -4.503906 23.3125 -7.234375 C 19.0625 -9.972656 15.507812 -13.410156 12.65625 -17.546875 C 9.800781 -21.679688 8.085938 -26.484375 7.515625 -31.953125 L 7.328125 -35.28125 L 25.140625 -35.625 L 25.328125 -33 L 25.328125 -33.703125 C 25.785156 -29.972656 27.378906 -26.796875 30.109375 -24.171875 C 32.847656 -21.554688 36.195312 -19.609375 40.15625 -18.328125 C 44.113281 -17.054688 47.957031 -16.421875 51.6875 -16.421875 C 56.113281 -16.421875 60.421875 -17.203125 64.609375 -18.765625 C 68.796875 -20.335938 72.257812 -22.609375 75 -25.578125 C 77.738281 -28.546875 79.109375 -32.128906 79.109375 -36.328125 C 79.109375 -37.609375 78.929688 -39.003906 78.578125 -40.515625 C 77.878906 -43.660156 76.160156 -46.015625 73.421875 -47.578125 C 70.691406 -49.148438 67.40625 -50.285156 63.5625 -50.984375 C 59.71875 -51.679688 55.757812 -52.207031 51.6875 -52.5625 C 46.914062 -53.03125 42.082031 -53.757812 37.1875 -54.75 C 32.300781 -55.738281 27.757812 -57.335938 23.5625 -59.546875 C 19.375 -61.753906 15.910156 -64.804688 13.171875 -68.703125 C 10.441406 -72.609375 8.84375 -77.765625 8.375 -84.171875 L 8.375 -84 C 8.375 -84.582031 8.34375 -85.101562 8.28125 -85.5625 C 8.226562 -86.03125 8.203125 -86.5 8.203125 -86.96875 C 8.203125 -94.53125 10.472656 -101.28125 15.015625 -107.21875 C 19.085938 -112.570312 24.5 -116.613281 31.25 -119.34375 C 38.007812 -122.082031 44.9375 -123.453125 52.03125 -123.453125 C 58.320312 -123.453125 64.460938 -122.316406 70.453125 -120.046875 C 76.453125 -117.785156 81.546875 -114.296875 85.734375 -109.578125 C 89.929688 -104.859375 92.550781 -98.773438 93.59375 -91.328125 Z M 76.140625 -90.625 "/></g></g></g><g fill="#ffffff" fill-opacity="1"><g transform="translate(1399.034711, 437.181982)"><g><path d="M 110.890625 -47.15625 C 110.890625 -39 109.460938 -31.863281 106.609375 -25.75 C 103.753906 -19.644531 99.878906 -14.550781 94.984375 -10.46875 C 90.097656 -6.394531 84.597656 -3.335938 78.484375 -1.296875 C 72.378906 0.734375 66.125 1.75 59.71875 1.75 C 53.4375 1.75 47.265625 0.734375 41.203125 -1.296875 C 35.148438 -3.335938 29.707031 -6.394531 24.875 -10.46875 C 20.050781 -14.550781 16.210938 -19.644531 13.359375 -25.75 C 10.503906 -31.863281 9.078125 -39 9.078125 -47.15625 C 9.078125 -55.300781 10.503906 -62.425781 13.359375 -68.53125 C 16.210938 -74.644531 20.082031 -79.738281 24.96875 -83.8125 C 29.863281 -87.894531 35.363281 -90.953125 41.46875 -92.984375 C 47.582031 -95.023438 53.84375 -96.046875 60.25 -96.046875 C 66.644531 -96.046875 72.84375 -95.023438 78.84375 -92.984375 C 84.84375 -90.953125 90.253906 -87.894531 95.078125 -83.8125 C 99.910156 -79.738281 103.753906 -74.644531 106.609375 -68.53125 C 109.460938 -62.425781 110.890625 -55.300781 110.890625 -47.15625 Z M 26.1875 -47.15625 C 26.1875 -39.695312 27.84375 -33.492188 31.15625 -28.546875 C 34.476562 -23.597656 38.726562 -19.875 43.90625 -17.375 C 49.09375 -14.875 54.484375 -13.625 60.078125 -13.625 C 65.773438 -13.625 71.1875 -14.875 76.3125 -17.375 C 81.4375 -19.875 85.65625 -23.625 88.96875 -28.625 C 92.289062 -33.632812 93.953125 -39.8125 93.953125 -47.15625 C 93.953125 -54.601562 92.320312 -60.828125 89.0625 -65.828125 C 85.800781 -70.835938 81.578125 -74.59375 76.390625 -77.09375 C 71.210938 -79.59375 65.832031 -80.84375 60.25 -80.84375 C 54.539062 -80.84375 49.09375 -79.59375 43.90625 -77.09375 C 38.726562 -74.59375 34.476562 -70.867188 31.15625 -65.921875 C 27.84375 -60.972656 26.1875 -54.71875 26.1875 -47.15625 Z M 26.1875 -47.15625 "/></g></g></g><g fill="#ffffff" fill-opacity="1"><g transform="translate(1520.207567, 437.181982)"><g><path d="M 13.09375 0 L 13.09375 -122.234375 L 30.203125 -122.234375 L 30.203125 0 Z M 13.09375 0 "/></g></g></g><g fill="#ffffff" fill-opacity="1"><g transform="translate(1563.508513, 437.181982)"><g><path d="M 12.046875 -118.75 C 12.046875 -122.007812 13.179688 -124.453125 15.453125 -126.078125 C 17.722656 -127.710938 20.195312 -128.53125 22.875 -128.53125 C 25.550781 -128.53125 27.96875 -127.742188 30.125 -126.171875 C 32.28125 -124.597656 33.359375 -122.125 33.359375 -118.75 C 33.359375 -115.488281 32.25 -113.015625 30.03125 -111.328125 C 27.820312 -109.640625 25.378906 -108.796875 22.703125 -108.796875 C 20.140625 -108.796875 17.722656 -109.640625 15.453125 -111.328125 C 13.179688 -113.015625 12.046875 -115.488281 12.046875 -118.75 Z M 14.140625 -95.515625 L 14.140625 0 L 31.265625 0 L 31.265625 -95.515625 Z M 14.140625 -95.515625 "/></g></g></g><g fill="#ffffff" fill-opacity="1"><g transform="translate(1610.476089, 437.181982)"><g><path d="M 106 -122.234375 L 106 0 L 88.890625 0 L 88.890625 -12.75 C 85.503906 -7.625 80.875 -3.984375 75 -1.828125 C 69.125 0.316406 63.21875 1.453125 57.28125 1.578125 C 46.332031 1.578125 37.101562 -0.570312 29.59375 -4.875 C 22.082031 -9.1875 16.4375 -15.066406 12.65625 -22.515625 C 8.875 -29.972656 6.984375 -38.359375 6.984375 -47.671875 C 6.984375 -56.753906 8.929688 -64.929688 12.828125 -72.203125 C 16.734375 -79.484375 22.441406 -85.273438 29.953125 -89.578125 C 37.460938 -93.890625 46.515625 -96.046875 57.109375 -96.046875 C 62.921875 -96.046875 68.648438 -95.140625 74.296875 -93.328125 C 79.941406 -91.523438 84.804688 -87.832031 88.890625 -82.25 L 88.890625 -122.234375 Z M 88.890625 -47.328125 C 88.890625 -54.890625 87.34375 -61.144531 84.25 -66.09375 C 81.164062 -71.039062 77.207031 -74.765625 72.375 -77.265625 C 67.550781 -79.773438 62.460938 -81.03125 57.109375 -81.03125 C 50.117188 -81.03125 44.175781 -79.398438 39.28125 -76.140625 C 34.394531 -72.878906 30.640625 -68.6875 28.015625 -63.5625 C 25.398438 -58.4375 24.09375 -53.023438 24.09375 -47.328125 C 24.09375 -40.921875 25.375 -35.15625 27.9375 -30.03125 C 30.5 -24.914062 34.253906 -20.898438 39.203125 -17.984375 C 44.148438 -15.078125 50.054688 -13.625 56.921875 -13.625 C 62.273438 -13.625 67.394531 -14.84375 72.28125 -17.28125 C 77.175781 -19.726562 81.164062 -23.453125 84.25 -28.453125 C 87.34375 -33.460938 88.890625 -39.753906 88.890625 -47.328125 Z M 88.890625 -47.328125 "/></g></g></g><g fill="#ffffff" fill-opacity="1"><g transform="translate(1729.902969, 437.181982)"><g><path d="M 59.375 -132.1875 L 81.71875 -132.1875 L 61.984375 -113.5 L 46.796875 -113.5 Z M 108.4375 0 L 91.328125 0 L 91.328125 -12.75 C 89.117188 -9.375 86.09375 -6.632812 82.25 -4.53125 C 78.40625 -2.4375 74.328125 -0.925781 70.015625 0 C 65.710938 0.925781 61.582031 1.453125 57.625 1.578125 C 46.6875 1.578125 37.429688 -0.71875 29.859375 -5.3125 C 22.296875 -9.914062 16.5625 -15.972656 12.65625 -23.484375 C 8.757812 -30.992188 6.8125 -39.054688 6.8125 -47.671875 C 6.8125 -56.171875 8.789062 -64.085938 12.75 -71.421875 C 16.707031 -78.753906 22.46875 -84.691406 30.03125 -89.234375 C 37.601562 -93.773438 46.6875 -96.046875 57.28125 -96.046875 C 61.238281 -96.046875 65.3125 -95.664062 69.5 -94.90625 C 73.6875 -94.15625 77.703125 -92.757812 81.546875 -90.71875 C 85.390625 -88.675781 88.707031 -85.738281 91.5 -81.90625 L 91.328125 -94.46875 L 108.4375 -94.46875 Z M 91.328125 -47.328125 C 91.328125 -54.890625 89.609375 -61.144531 86.171875 -66.09375 C 82.742188 -71.039062 78.410156 -74.765625 73.171875 -77.265625 C 67.929688 -79.773438 62.632812 -81.03125 57.28125 -81.03125 C 50.40625 -81.03125 44.460938 -79.546875 39.453125 -76.578125 C 34.453125 -73.609375 30.613281 -69.617188 27.9375 -64.609375 C 25.257812 -59.609375 23.921875 -53.960938 23.921875 -47.671875 C 23.921875 -41.734375 25.257812 -36.171875 27.9375 -30.984375 C 30.613281 -25.804688 34.425781 -21.617188 39.375 -18.421875 C 44.320312 -15.222656 50.289062 -13.625 57.28125 -13.625 C 62.519531 -13.625 67.753906 -14.84375 72.984375 -17.28125 C 78.222656 -19.726562 82.585938 -23.453125 86.078125 -28.453125 C 89.578125 -33.460938 91.328125 -39.753906 91.328125 -47.328125 Z M 91.328125 -47.328125 "/></g></g></g><g fill="#ffffff" fill-opacity="1"><g transform="translate(1849.679005, 437.181982)"><g><path d="M 30.03125 -82.765625 C 33.40625 -87.546875 37.390625 -91.007812 41.984375 -93.15625 C 46.585938 -95.3125 51.507812 -96.390625 56.75 -96.390625 C 58.613281 -96.390625 60.476562 -96.269531 62.34375 -96.03125 C 64.207031 -95.800781 66.066406 -95.457031 67.921875 -95 L 67.921875 -79.984375 C 65.128906 -80.796875 62.222656 -81.203125 59.203125 -81.203125 C 53.960938 -81.203125 49.128906 -79.890625 44.703125 -77.265625 C 40.273438 -74.648438 36.722656 -71.097656 34.046875 -66.609375 C 31.367188 -62.128906 30.03125 -56.984375 30.03125 -51.171875 L 30.03125 0 L 13.09375 0 L 13.09375 -94.296875 L 30.03125 -94.296875 Z M 30.03125 -82.765625 "/></g></g></g><g fill="#ffffff" fill-opacity="1"><g transform="translate(1923.011298, 437.181982)"><g><path d="M 12.046875 -118.75 C 12.046875 -122.007812 13.179688 -124.453125 15.453125 -126.078125 C 17.722656 -127.710938 20.195312 -128.53125 22.875 -128.53125 C 25.550781 -128.53125 27.96875 -127.742188 30.125 -126.171875 C 32.28125 -124.597656 33.359375 -122.125 33.359375 -118.75 C 33.359375 -115.488281 32.25 -113.015625 30.03125 -111.328125 C 27.820312 -109.640625 25.378906 -108.796875 22.703125 -108.796875 C 20.140625 -108.796875 17.722656 -109.640625 15.453125 -111.328125 C 13.179688 -113.015625 12.046875 -115.488281 12.046875 -118.75 Z M 14.140625 -95.515625 L 14.140625 0 L 31.265625 0 L 31.265625 -95.515625 Z M 14.140625 -95.515625 "/></g></g></g><g fill="#ffffff" fill-opacity="1"><g transform="translate(1969.978874, 437.181982)"><g><path d="M 110.890625 -47.15625 C 110.890625 -39 109.460938 -31.863281 106.609375 -25.75 C 103.753906 -19.644531 99.878906 -14.550781 94.984375 -10.46875 C 90.097656 -6.394531 84.597656 -3.335938 78.484375 -1.296875 C 72.378906 0.734375 66.125 1.75 59.71875 1.75 C 53.4375 1.75 47.265625 0.734375 41.203125 -1.296875 C 35.148438 -3.335938 29.707031 -6.394531 24.875 -10.46875 C 20.050781 -14.550781 16.210938 -19.644531 13.359375 -25.75 C 10.503906 -31.863281 9.078125 -39 9.078125 -47.15625 C 9.078125 -55.300781 10.503906 -62.425781 13.359375 -68.53125 C 16.210938 -74.644531 20.082031 -79.738281 24.96875 -83.8125 C 29.863281 -87.894531 35.363281 -90.953125 41.46875 -92.984375 C 47.582031 -95.023438 53.84375 -96.046875 60.25 -96.046875 C 66.644531 -96.046875 72.84375 -95.023438 78.84375 -92.984375 C 84.84375 -90.953125 90.253906 -87.894531 95.078125 -83.8125 C 99.910156 -79.738281 103.753906 -74.644531 106.609375 -68.53125 C 109.460938 -62.425781 110.890625 -55.300781 110.890625 -47.15625 Z M 26.1875 -47.15625 C 26.1875 -39.695312 27.84375 -33.492188 31.15625 -28.546875 C 34.476562 -23.597656 38.726562 -19.875 43.90625 -17.375 C 49.09375 -14.875 54.484375 -13.625 60.078125 -13.625 C 65.773438 -13.625 71.1875 -14.875 76.3125 -17.375 C 81.4375 -19.875 85.65625 -23.625 88.96875 -28.625 C 92.289062 -33.632812 93.953125 -39.8125 93.953125 -47.15625 C 93.953125 -54.601562 92.320312 -60.828125 89.0625 -65.828125 C 85.800781 -70.835938 81.578125 -74.59375 76.390625 -77.09375 C 71.210938 -79.59375 65.832031 -80.84375 60.25 -80.84375 C 54.539062 -80.84375 49.09375 -79.59375 43.90625 -77.09375 C 38.726562 -74.59375 34.476562 -70.867188 31.15625 -65.921875 C 27.84375 -60.972656 26.1875 -54.71875 26.1875 -47.15625 Z M 26.1875 -47.15625 "/></g></g></g><g fill="#ffffff" fill-opacity="1"><g transform="translate(2091.173857, 437.181982)"><g/></g></g><path fill="#ffffff" d="M 184.023438 403.5625 L 339.421875 403.5625 C 339.933594 403.5625 340.425781 403.464844 340.894531 403.269531 C 341.367188 403.078125 341.78125 402.796875 342.140625 402.4375 C 342.503906 402.078125 342.78125 401.660156 342.976562 401.191406 C 343.171875 400.71875 343.269531 400.230469 343.269531 399.71875 L 343.269531 381.707031 C 343.265625 380.207031 343.160156 378.714844 342.945312 377.230469 C 342.734375 375.742188 342.417969 374.28125 342 372.839844 C 341.582031 371.402344 341.066406 369.996094 340.449219 368.628906 C 339.835938 367.261719 339.125 365.945312 338.324219 364.675781 C 337.523438 363.40625 336.640625 362.203125 335.667969 361.058594 C 334.699219 359.914062 333.652344 358.847656 332.53125 357.851562 C 331.410156 356.855469 330.222656 355.941406 328.972656 355.113281 C 327.726562 354.28125 326.421875 353.542969 325.070312 352.898438 C 325.722656 352.417969 326.351562 351.902344 326.953125 351.359375 C 327.554688 350.8125 328.125 350.234375 328.664062 349.628906 C 329.207031 349.023438 329.714844 348.390625 330.1875 347.730469 C 330.664062 347.074219 331.101562 346.390625 331.503906 345.6875 C 331.90625 344.980469 332.273438 344.257812 332.601562 343.515625 C 332.925781 342.769531 333.214844 342.011719 333.464844 341.238281 C 333.710938 340.464844 333.917969 339.683594 334.085938 338.886719 C 334.25 338.09375 334.375 337.289062 334.457031 336.484375 C 334.539062 335.675781 334.578125 334.863281 334.578125 334.054688 C 334.574219 333.242188 334.527344 332.429688 334.441406 331.625 C 334.355469 330.816406 334.226562 330.015625 334.054688 329.222656 C 333.882812 328.429688 333.671875 327.644531 333.417969 326.875 C 333.167969 326.101562 332.875 325.34375 332.542969 324.605469 C 332.210938 323.863281 331.839844 323.140625 331.433594 322.4375 C 331.023438 321.738281 330.582031 321.058594 330.101562 320.402344 C 329.625 319.746094 329.113281 319.117188 328.570312 318.511719 C 328.023438 317.910156 327.449219 317.339844 326.847656 316.796875 C 326.242188 316.253906 325.609375 315.742188 324.953125 315.265625 C 324.296875 314.789062 323.613281 314.351562 322.910156 313.945312 C 322.207031 313.539062 321.484375 313.171875 320.742188 312.84375 C 320 312.511719 319.242188 312.222656 318.472656 311.972656 C 317.699219 311.722656 316.914062 311.511719 316.121094 311.34375 C 315.324219 311.175781 314.523438 311.046875 313.71875 310.964844 C 312.910156 310.878906 312.101562 310.835938 311.289062 310.835938 C 310.476562 310.835938 309.664062 310.878906 308.859375 310.964844 C 308.050781 311.046875 307.25 311.175781 306.457031 311.34375 C 305.660156 311.511719 304.878906 311.722656 304.105469 311.972656 C 303.332031 312.222656 302.574219 312.511719 301.832031 312.84375 C 301.089844 313.171875 300.367188 313.539062 299.664062 313.945312 C 298.960938 314.351562 298.28125 314.789062 297.621094 315.265625 C 296.964844 315.742188 296.332031 316.253906 295.730469 316.796875 C 295.125 317.339844 294.550781 317.910156 294.007812 318.511719 C 293.460938 319.117188 292.949219 319.746094 292.472656 320.402344 C 291.992188 321.058594 291.550781 321.738281 291.144531 322.4375 C 290.734375 323.140625 290.367188 323.863281 290.035156 324.605469 C 289.703125 325.34375 289.410156 326.101562 289.15625 326.875 C 288.902344 327.644531 288.691406 328.429688 288.519531 329.222656 C 288.351562 330.015625 288.222656 330.816406 288.132812 331.625 C 288.046875 332.429688 288 333.242188 288 334.054688 C 287.996094 334.863281 288.035156 335.675781 288.117188 336.484375 C 288.199219 337.289062 288.324219 338.09375 288.492188 338.886719 C 288.65625 339.683594 288.863281 340.464844 289.113281 341.238281 C 289.359375 342.011719 289.648438 342.769531 289.976562 343.515625 C 290.304688 344.257812 290.667969 344.980469 291.070312 345.6875 C 291.472656 346.390625 291.914062 347.074219 292.386719 347.730469 C 292.863281 348.390625 293.371094 349.023438 293.910156 349.628906 C 294.449219 350.234375 295.023438 350.8125 295.621094 351.359375 C 296.222656 351.902344 296.851562 352.417969 297.503906 352.898438 C 295.726562 353.75 294.042969 354.757812 292.449219 355.921875 C 290.855469 357.085938 289.382812 358.386719 288.03125 359.820312 C 286.679688 361.257812 285.46875 362.804688 284.402344 364.460938 C 283.332031 366.121094 282.425781 367.863281 281.679688 369.6875 C 279.621094 367.132812 277.148438 365.082031 274.261719 363.535156 C 274.722656 363.117188 275.164062 362.675781 275.578125 362.210938 C 275.996094 361.746094 276.390625 361.265625 276.761719 360.761719 C 277.128906 360.257812 277.472656 359.738281 277.789062 359.203125 C 278.105469 358.664062 278.394531 358.113281 278.65625 357.546875 C 278.917969 356.980469 279.152344 356.402344 279.355469 355.8125 C 279.558594 355.222656 279.734375 354.625 279.878906 354.015625 C 280.019531 353.410156 280.132812 352.796875 280.214844 352.179688 C 280.300781 351.5625 280.351562 350.941406 280.371094 350.316406 C 280.390625 349.691406 280.378906 349.070312 280.335938 348.449219 C 280.292969 347.824219 280.222656 347.207031 280.117188 346.589844 C 280.011719 345.976562 279.878906 345.367188 279.710938 344.765625 C 279.546875 344.164062 279.351562 343.574219 279.125 342.992188 C 278.902344 342.410156 278.648438 341.839844 278.367188 341.285156 C 278.085938 340.726562 277.777344 340.1875 277.441406 339.660156 C 277.105469 339.132812 276.742188 338.628906 276.355469 338.136719 C 275.96875 337.648438 275.558594 337.179688 275.125 336.730469 C 274.691406 336.285156 274.234375 335.859375 273.757812 335.457031 C 273.28125 335.054688 272.785156 334.675781 272.269531 334.324219 C 271.757812 333.96875 271.226562 333.644531 270.679688 333.34375 C 270.132812 333.042969 269.570312 332.773438 268.996094 332.527344 C 268.421875 332.285156 267.835938 332.070312 267.242188 331.886719 C 266.644531 331.703125 266.042969 331.546875 265.429688 331.425781 C 264.820312 331.300781 264.203125 331.207031 263.582031 331.144531 C 262.960938 331.082031 262.339844 331.050781 261.714844 331.050781 C 261.089844 331.050781 260.46875 331.082031 259.847656 331.144531 C 259.226562 331.207031 258.613281 331.300781 258 331.425781 C 257.390625 331.546875 256.785156 331.703125 256.1875 331.886719 C 255.59375 332.070312 255.007812 332.285156 254.433594 332.527344 C 253.859375 332.773438 253.296875 333.042969 252.75 333.34375 C 252.203125 333.644531 251.671875 333.96875 251.160156 334.324219 C 250.644531 334.675781 250.148438 335.054688 249.671875 335.457031 C 249.195312 335.859375 248.738281 336.285156 248.304688 336.730469 C 247.871094 337.179688 247.460938 337.648438 247.074219 338.136719 C 246.6875 338.628906 246.328125 339.132812 245.992188 339.660156 C 245.652344 340.1875 245.34375 340.726562 245.0625 341.285156 C 244.78125 341.839844 244.527344 342.410156 244.304688 342.992188 C 244.078125 343.574219 243.882812 344.164062 243.71875 344.765625 C 243.554688 345.367188 243.417969 345.976562 243.3125 346.589844 C 243.210938 347.207031 243.136719 347.824219 243.09375 348.449219 C 243.050781 349.070312 243.039062 349.691406 243.058594 350.316406 C 243.078125 350.941406 243.132812 351.5625 243.214844 352.179688 C 243.296875 352.796875 243.410156 353.410156 243.554688 354.015625 C 243.695312 354.625 243.871094 355.222656 244.074219 355.8125 C 244.277344 356.402344 244.511719 356.980469 244.773438 357.546875 C 245.035156 358.113281 245.324219 358.664062 245.640625 359.203125 C 245.957031 359.738281 246.300781 360.257812 246.671875 360.761719 C 247.039062 361.265625 247.433594 361.746094 247.851562 362.210938 C 248.269531 362.675781 248.707031 363.117188 249.167969 363.535156 C 246.316406 365.0625 243.867188 367.082031 241.824219 369.59375 C 241.082031 367.75 240.179688 365.988281 239.109375 364.3125 C 238.042969 362.636719 236.828125 361.070312 235.46875 359.621094 C 234.109375 358.167969 232.628906 356.855469 231.023438 355.679688 C 229.421875 354.503906 227.722656 353.484375 225.933594 352.625 C 226.585938 352.144531 227.214844 351.628906 227.816406 351.082031 C 228.417969 350.539062 228.988281 349.960938 229.527344 349.355469 C 230.066406 348.75 230.574219 348.117188 231.050781 347.457031 C 231.523438 346.800781 231.964844 346.117188 232.367188 345.410156 C 232.769531 344.707031 233.136719 343.984375 233.460938 343.238281 C 233.789062 342.496094 234.078125 341.738281 234.324219 340.964844 C 234.574219 340.191406 234.78125 339.40625 234.945312 338.613281 C 235.113281 337.816406 235.238281 337.015625 235.320312 336.207031 C 235.402344 335.402344 235.441406 334.589844 235.4375 333.777344 C 235.4375 332.964844 235.390625 332.15625 235.304688 331.347656 C 235.21875 330.542969 235.085938 329.742188 234.917969 328.949219 C 234.746094 328.152344 234.535156 327.371094 234.28125 326.597656 C 234.027344 325.828125 233.734375 325.070312 233.402344 324.332031 C 233.070312 323.589844 232.703125 322.867188 232.292969 322.164062 C 231.886719 321.460938 231.445312 320.78125 230.964844 320.128906 C 230.488281 319.472656 229.976562 318.839844 229.429688 318.238281 C 228.886719 317.636719 228.3125 317.0625 227.707031 316.519531 C 227.105469 315.980469 226.472656 315.46875 225.816406 314.992188 C 225.15625 314.515625 224.476562 314.074219 223.773438 313.671875 C 223.070312 313.265625 222.347656 312.898438 221.605469 312.566406 C 220.863281 312.238281 220.105469 311.949219 219.332031 311.699219 C 218.558594 311.445312 217.777344 311.238281 216.984375 311.070312 C 216.1875 310.902344 215.386719 310.773438 214.578125 310.6875 C 213.773438 310.605469 212.960938 310.5625 212.148438 310.5625 C 211.339844 310.5625 210.527344 310.605469 209.71875 310.6875 C 208.914062 310.773438 208.113281 310.902344 207.316406 311.070312 C 206.523438 311.238281 205.738281 311.445312 204.96875 311.699219 C 204.195312 311.949219 203.4375 312.238281 202.695312 312.566406 C 201.953125 312.898438 201.230469 313.265625 200.527344 313.671875 C 199.824219 314.074219 199.140625 314.515625 198.484375 314.992188 C 197.828125 315.46875 197.195312 315.980469 196.59375 316.519531 C 195.988281 317.0625 195.414062 317.636719 194.867188 318.238281 C 194.324219 318.839844 193.8125 319.472656 193.335938 320.128906 C 192.855469 320.78125 192.414062 321.460938 192.003906 322.164062 C 191.597656 322.867188 191.226562 323.589844 190.894531 324.332031 C 190.5625 325.070312 190.273438 325.828125 190.019531 326.597656 C 189.765625 327.371094 189.554688 328.152344 189.382812 328.949219 C 189.210938 329.742188 189.082031 330.542969 188.996094 331.347656 C 188.910156 332.15625 188.863281 332.964844 188.863281 333.777344 C 188.859375 334.589844 188.898438 335.402344 188.980469 336.207031 C 189.0625 337.015625 189.1875 337.816406 189.351562 338.613281 C 189.519531 339.40625 189.726562 340.191406 189.972656 340.964844 C 190.222656 341.738281 190.511719 342.496094 190.835938 343.238281 C 191.164062 343.984375 191.53125 344.707031 191.933594 345.410156 C 192.335938 346.117188 192.773438 346.800781 193.25 347.457031 C 193.722656 348.117188 194.230469 348.75 194.773438 349.355469 C 195.3125 349.960938 195.882812 350.539062 196.484375 351.082031 C 197.085938 351.628906 197.714844 352.144531 198.367188 352.625 C 197.015625 353.269531 195.714844 354.007812 194.464844 354.835938 C 193.214844 355.667969 192.027344 356.578125 190.90625 357.574219 C 189.785156 358.570312 188.742188 359.640625 187.769531 360.785156 C 186.800781 361.929688 185.914062 363.132812 185.113281 364.402344 C 184.3125 365.667969 183.601562 366.988281 182.988281 368.355469 C 182.371094 369.722656 181.855469 371.125 181.4375 372.566406 C 181.019531 374.007812 180.703125 375.46875 180.492188 376.953125 C 180.277344 378.4375 180.171875 379.929688 180.167969 381.429688 L 180.167969 399.71875 C 180.167969 400.230469 180.265625 400.722656 180.464844 401.191406 C 180.660156 401.664062 180.9375 402.082031 181.300781 402.441406 C 181.660156 402.800781 182.078125 403.078125 182.550781 403.273438 C 183.023438 403.46875 183.515625 403.566406 184.023438 403.5625 Z M 295.695312 334.167969 C 295.695312 333.148438 295.792969 332.140625 295.992188 331.140625 C 296.1875 330.140625 296.480469 329.167969 296.867188 328.226562 C 297.253906 327.28125 297.730469 326.386719 298.292969 325.539062 C 298.855469 324.6875 299.496094 323.902344 300.214844 323.175781 C 300.929688 322.453125 301.710938 321.804688 302.554688 321.234375 C 303.402344 320.664062 304.292969 320.179688 305.230469 319.78125 C 306.171875 319.386719 307.140625 319.085938 308.136719 318.878906 C 309.136719 318.671875 310.144531 318.566406 311.164062 318.558594 C 312.183594 318.546875 313.191406 318.636719 314.195312 318.828125 C 315.195312 319.015625 316.167969 319.300781 317.117188 319.683594 C 318.0625 320.0625 318.960938 320.53125 319.816406 321.089844 C 320.667969 321.644531 321.460938 322.277344 322.191406 322.992188 C 322.917969 323.703125 323.574219 324.476562 324.148438 325.320312 C 324.726562 326.160156 325.21875 327.046875 325.621094 327.980469 C 326.023438 328.917969 326.332031 329.886719 326.546875 330.882812 C 326.761719 331.878906 326.875 332.886719 326.894531 333.90625 C 326.910156 334.925781 326.828125 335.933594 326.644531 336.9375 C 326.460938 337.941406 326.183594 338.917969 325.8125 339.867188 C 325.4375 340.8125 324.976562 341.71875 324.425781 342.574219 C 323.878906 343.433594 323.25 344.230469 322.542969 344.964844 C 321.835938 345.699219 321.066406 346.359375 320.230469 346.941406 C 319.394531 347.527344 318.511719 348.023438 317.578125 348.433594 C 316.644531 348.84375 315.679688 349.160156 314.683594 349.382812 C 313.691406 349.605469 312.683594 349.726562 311.664062 349.75 C 311.542969 349.75 311.421875 349.730469 311.296875 349.730469 C 311.171875 349.730469 311.039062 349.75 310.925781 349.75 C 309.917969 349.726562 308.921875 349.605469 307.9375 349.386719 C 306.953125 349.167969 305.996094 348.859375 305.074219 348.457031 C 304.148438 348.054688 303.273438 347.566406 302.441406 346.996094 C 301.613281 346.421875 300.847656 345.777344 300.140625 345.054688 C 299.4375 344.335938 298.808594 343.554688 298.257812 342.710938 C 297.703125 341.867188 297.234375 340.980469 296.855469 340.046875 C 296.472656 339.113281 296.1875 338.152344 295.992188 337.164062 C 295.796875 336.175781 295.699219 335.175781 295.695312 334.167969 Z M 287.007812 381.707031 C 287.011719 380.917969 287.050781 380.132812 287.128906 379.351562 C 287.203125 378.566406 287.320312 377.789062 287.472656 377.015625 C 287.625 376.246094 287.816406 375.480469 288.042969 374.726562 C 288.269531 373.972656 288.53125 373.234375 288.832031 372.503906 C 289.132812 371.777344 289.464844 371.066406 289.832031 370.371094 C 290.199219 369.675781 290.601562 368.996094 291.035156 368.339844 C 291.46875 367.683594 291.933594 367.050781 292.429688 366.4375 C 292.925781 365.828125 293.449219 365.242188 294.003906 364.679688 C 294.554688 364.121094 295.132812 363.585938 295.738281 363.082031 C 296.34375 362.578125 296.96875 362.105469 297.621094 361.660156 C 298.269531 361.21875 298.941406 360.804688 299.628906 360.429688 C 300.320312 360.050781 301.027344 359.707031 301.75 359.394531 C 302.476562 359.085938 303.210938 358.8125 303.960938 358.574219 C 304.710938 358.335938 305.472656 358.136719 306.242188 357.972656 C 307.011719 357.808594 307.789062 357.679688 308.570312 357.59375 C 309.351562 357.503906 310.136719 357.453125 310.925781 357.441406 C 311.050781 357.441406 311.179688 357.457031 311.296875 357.457031 C 311.410156 357.457031 311.550781 357.441406 311.664062 357.441406 C 312.453125 357.453125 313.234375 357.503906 314.019531 357.589844 C 314.800781 357.679688 315.578125 357.808594 316.347656 357.972656 C 317.117188 358.136719 317.875 358.335938 318.625 358.574219 C 319.375 358.8125 320.113281 359.085938 320.835938 359.394531 C 321.5625 359.707031 322.269531 360.050781 322.957031 360.425781 C 323.648438 360.804688 324.320312 361.214844 324.96875 361.660156 C 325.621094 362.105469 326.246094 362.578125 326.851562 363.082031 C 327.457031 363.585938 328.035156 364.117188 328.585938 364.679688 C 329.140625 365.242188 329.664062 365.828125 330.160156 366.4375 C 330.65625 367.050781 331.117188 367.683594 331.554688 368.339844 C 331.988281 368.996094 332.386719 369.671875 332.757812 370.367188 C 333.125 371.066406 333.457031 371.777344 333.757812 372.503906 C 334.054688 373.234375 334.320312 373.972656 334.546875 374.726562 C 334.773438 375.480469 334.964844 376.246094 335.117188 377.015625 C 335.269531 377.789062 335.382812 378.566406 335.460938 379.351562 C 335.539062 380.132812 335.578125 380.917969 335.578125 381.707031 L 335.578125 395.875 L 287.007812 395.875 Z M 261.722656 338.78125 C 262.441406 338.78125 263.148438 338.847656 263.851562 338.984375 C 264.554688 339.121094 265.238281 339.324219 265.898438 339.59375 C 266.5625 339.863281 267.191406 340.195312 267.789062 340.589844 C 268.386719 340.984375 268.941406 341.429688 269.453125 341.933594 C 269.960938 342.433594 270.417969 342.980469 270.820312 343.574219 C 271.222656 344.164062 271.566406 344.789062 271.847656 345.449219 C 272.128906 346.105469 272.339844 346.785156 272.488281 347.484375 C 272.636719 348.1875 272.714844 348.894531 272.722656 349.609375 C 272.734375 350.324219 272.671875 351.035156 272.542969 351.738281 C 272.410156 352.441406 272.214844 353.125 271.949219 353.792969 C 271.6875 354.457031 271.359375 355.089844 270.972656 355.691406 C 270.582031 356.292969 270.140625 356.851562 269.644531 357.367188 C 269.144531 357.878906 268.601562 358.339844 268.015625 358.75 C 267.425781 359.15625 266.804688 359.503906 266.148438 359.792969 C 265.492188 360.078125 264.816406 360.296875 264.117188 360.453125 C 263.417969 360.605469 262.710938 360.691406 261.996094 360.707031 L 261.453125 360.707031 C 260.738281 360.691406 260.03125 360.605469 259.332031 360.453125 C 258.632812 360.296875 257.953125 360.078125 257.296875 359.792969 C 256.640625 359.503906 256.019531 359.15625 255.433594 358.75 C 254.84375 358.339844 254.300781 357.878906 253.804688 357.367188 C 253.308594 356.851562 252.863281 356.292969 252.476562 355.691406 C 252.089844 355.089844 251.761719 354.457031 251.496094 353.792969 C 251.234375 353.125 251.035156 352.441406 250.90625 351.738281 C 250.777344 351.035156 250.714844 350.324219 250.722656 349.609375 C 250.734375 348.894531 250.8125 348.1875 250.960938 347.484375 C 251.105469 346.785156 251.320312 346.105469 251.601562 345.449219 C 251.882812 344.789062 252.222656 344.164062 252.625 343.574219 C 253.03125 342.980469 253.484375 342.433594 253.996094 341.933594 C 254.507812 341.429688 255.058594 340.984375 255.65625 340.589844 C 256.253906 340.195312 256.886719 339.863281 257.546875 339.59375 C 258.210938 339.324219 258.894531 339.121094 259.597656 338.984375 C 260.300781 338.847656 261.007812 338.78125 261.722656 338.78125 Z M 260.472656 368.394531 L 261.179688 368.394531 C 261.363281 368.394531 261.539062 368.421875 261.722656 368.421875 C 261.910156 368.421875 262.085938 368.398438 262.265625 368.394531 L 262.972656 368.394531 C 263.507812 368.394531 264.042969 368.421875 264.574219 368.476562 C 265.105469 368.527344 265.632812 368.605469 266.160156 368.710938 C 266.683594 368.816406 267.203125 368.945312 267.714844 369.101562 C 268.226562 369.257812 268.730469 369.4375 269.222656 369.640625 C 269.71875 369.847656 270.199219 370.074219 270.671875 370.328125 C 271.144531 370.582031 271.601562 370.855469 272.046875 371.152344 C 272.492188 371.449219 272.921875 371.769531 273.335938 372.109375 C 273.75 372.445312 274.144531 372.804688 274.523438 373.183594 C 274.902344 373.5625 275.261719 373.957031 275.601562 374.371094 C 275.941406 374.785156 276.257812 375.214844 276.558594 375.660156 C 276.855469 376.101562 277.128906 376.5625 277.382812 377.035156 C 277.632812 377.503906 277.863281 377.988281 278.070312 378.480469 C 278.273438 378.976562 278.453125 379.480469 278.609375 379.992188 C 278.765625 380.503906 278.898438 381.019531 279 381.546875 C 279.105469 382.070312 279.1875 382.597656 279.238281 383.132812 C 279.292969 383.664062 279.320312 384.199219 279.320312 384.734375 L 279.320312 395.867188 L 244.128906 395.867188 L 244.128906 384.734375 C 244.128906 384.199219 244.15625 383.664062 244.207031 383.132812 C 244.261719 382.597656 244.339844 382.070312 244.445312 381.546875 C 244.550781 381.019531 244.679688 380.503906 244.835938 379.992188 C 244.992188 379.480469 245.171875 378.976562 245.378906 378.480469 C 245.582031 377.988281 245.8125 377.503906 246.066406 377.035156 C 246.316406 376.5625 246.59375 376.105469 246.890625 375.660156 C 247.1875 375.214844 247.507812 374.785156 247.84375 374.371094 C 248.183594 373.957031 248.542969 373.5625 248.921875 373.183594 C 249.300781 372.804688 249.695312 372.445312 250.109375 372.109375 C 250.523438 371.769531 250.953125 371.449219 251.398438 371.152344 C 251.84375 370.855469 252.300781 370.582031 252.773438 370.328125 C 253.246094 370.074219 253.726562 369.847656 254.222656 369.640625 C 254.714844 369.4375 255.21875 369.257812 255.730469 369.101562 C 256.242188 368.945312 256.761719 368.816406 257.285156 368.710938 C 257.8125 368.605469 258.339844 368.527344 258.871094 368.476562 C 259.40625 368.421875 259.9375 368.394531 260.472656 368.394531 Z M 196.554688 333.894531 C 196.550781 332.875 196.648438 331.867188 196.847656 330.867188 C 197.042969 329.867188 197.335938 328.894531 197.722656 327.953125 C 198.109375 327.007812 198.585938 326.113281 199.148438 325.261719 C 199.710938 324.414062 200.351562 323.625 201.070312 322.902344 C 201.785156 322.175781 202.566406 321.53125 203.410156 320.957031 C 204.253906 320.386719 205.148438 319.902344 206.085938 319.507812 C 207.023438 319.109375 207.992188 318.808594 208.992188 318.601562 C 209.988281 318.398438 211 318.289062 212.019531 318.28125 C 213.039062 318.269531 214.046875 318.363281 215.050781 318.550781 C 216.050781 318.738281 217.023438 319.023438 217.96875 319.40625 C 218.914062 319.785156 219.816406 320.253906 220.667969 320.808594 C 221.523438 321.367188 222.316406 322 223.046875 322.710938 C 223.773438 323.425781 224.429688 324.199219 225.007812 325.039062 C 225.582031 325.878906 226.074219 326.765625 226.476562 327.703125 C 226.882812 328.640625 227.191406 329.605469 227.402344 330.601562 C 227.617188 331.597656 227.734375 332.605469 227.75 333.625 C 227.765625 334.644531 227.683594 335.65625 227.503906 336.660156 C 227.320312 337.660156 227.042969 338.636719 226.671875 339.585938 C 226.296875 340.535156 225.835938 341.4375 225.285156 342.296875 C 224.734375 343.15625 224.109375 343.949219 223.402344 344.6875 C 222.695312 345.421875 221.925781 346.082031 221.089844 346.664062 C 220.253906 347.25 219.371094 347.746094 218.4375 348.15625 C 217.503906 348.566406 216.539062 348.882812 215.546875 349.105469 C 214.550781 349.328125 213.542969 349.449219 212.523438 349.472656 C 212.398438 349.472656 212.269531 349.457031 212.152344 349.457031 C 212.039062 349.457031 211.894531 349.472656 211.785156 349.472656 C 210.777344 349.449219 209.78125 349.328125 208.796875 349.109375 C 207.8125 348.894531 206.859375 348.582031 205.933594 348.179688 C 205.007812 347.777344 204.132812 347.292969 203.300781 346.71875 C 202.472656 346.148438 201.707031 345.5 201 344.78125 C 200.296875 344.058594 199.667969 343.277344 199.113281 342.4375 C 198.5625 341.59375 198.09375 340.707031 197.710938 339.773438 C 197.332031 338.839844 197.042969 337.878906 196.847656 336.890625 C 196.652344 335.902344 196.554688 334.902344 196.554688 333.894531 Z M 187.871094 381.429688 C 187.871094 380.644531 187.910156 379.859375 187.988281 379.074219 C 188.0625 378.292969 188.179688 377.515625 188.332031 376.742188 C 188.484375 375.96875 188.675781 375.207031 188.902344 374.453125 C 189.128906 373.699219 189.390625 372.957031 189.691406 372.230469 C 189.992188 371.503906 190.324219 370.789062 190.691406 370.09375 C 191.0625 369.398438 191.460938 368.722656 191.894531 368.066406 C 192.328125 367.410156 192.792969 366.773438 193.289062 366.164062 C 193.785156 365.550781 194.308594 364.964844 194.863281 364.40625 C 195.414062 363.84375 195.992188 363.3125 196.597656 362.808594 C 197.203125 362.304688 197.828125 361.828125 198.480469 361.386719 C 199.128906 360.941406 199.800781 360.53125 200.488281 360.152344 C 201.179688 359.773438 201.886719 359.429688 202.609375 359.121094 C 203.335938 358.8125 204.070312 358.535156 204.820312 358.296875 C 205.570312 358.0625 206.332031 357.859375 207.101562 357.695312 C 207.871094 357.53125 208.648438 357.40625 209.429688 357.316406 C 210.210938 357.226562 210.996094 357.175781 211.785156 357.164062 C 211.90625 357.164062 212.027344 357.183594 212.152344 357.183594 C 212.277344 357.183594 212.410156 357.164062 212.523438 357.164062 C 213.3125 357.175781 214.097656 357.226562 214.878906 357.316406 C 215.660156 357.40625 216.4375 357.53125 217.207031 357.695312 C 217.976562 357.859375 218.734375 358.0625 219.484375 358.296875 C 220.238281 358.535156 220.972656 358.8125 221.695312 359.121094 C 222.421875 359.429688 223.128906 359.773438 223.816406 360.152344 C 224.507812 360.53125 225.179688 360.941406 225.828125 361.386719 C 226.480469 361.828125 227.105469 362.304688 227.710938 362.808594 C 228.316406 363.3125 228.894531 363.84375 229.445312 364.40625 C 230 364.964844 230.523438 365.550781 231.019531 366.164062 C 231.511719 366.773438 231.976562 367.410156 232.414062 368.066406 C 232.847656 368.722656 233.246094 369.398438 233.617188 370.09375 C 233.984375 370.789062 234.316406 371.503906 234.617188 372.230469 C 234.914062 372.957031 235.179688 373.699219 235.40625 374.453125 C 235.632812 375.207031 235.824219 375.96875 235.976562 376.742188 C 236.128906 377.515625 236.242188 378.292969 236.320312 379.074219 C 236.398438 379.859375 236.4375 380.644531 236.4375 381.429688 L 236.4375 395.875 L 187.871094 395.875 Z M 187.871094 381.429688 " fill-opacity="1" fill-rule="nonzero"/><path fill="#ffffff" d="M 238.882812 307.359375 L 238.964844 307.425781 C 250.035156 316.011719 256.234375 320.308594 262.410156 320.308594 C 268.582031 320.308594 274.777344 315.976562 285.820312 307.300781 L 285.875 307.257812 C 314.925781 284.40625 313.144531 261.988281 311.03125 253.40625 C 310.71875 251.945312 310.304688 250.515625 309.789062 249.113281 C 309.273438 247.710938 308.660156 246.351562 307.953125 245.039062 C 307.242188 243.722656 306.441406 242.464844 305.554688 241.265625 C 304.664062 240.066406 303.695312 238.933594 302.640625 237.875 C 301.589844 236.8125 300.46875 235.832031 299.277344 234.929688 C 298.089844 234.027344 296.839844 233.214844 295.53125 232.492188 C 294.222656 231.769531 292.871094 231.140625 291.476562 230.613281 C 290.078125 230.082031 288.652344 229.65625 287.195312 229.328125 C 277.824219 227.589844 268.753906 231.121094 261.707031 239.046875 C 253.679688 230.804688 243.847656 227.371094 234.148438 229.578125 C 232.78125 229.941406 231.445312 230.398438 230.144531 230.949219 C 228.839844 231.5 227.582031 232.136719 226.367188 232.863281 C 225.15625 233.589844 224 234.394531 222.898438 235.285156 C 221.796875 236.171875 220.765625 237.132812 219.800781 238.167969 C 218.835938 239.199219 217.945312 240.296875 217.136719 241.453125 C 216.324219 242.613281 215.597656 243.820312 214.953125 245.082031 C 214.3125 246.339844 213.761719 247.640625 213.300781 248.976562 C 212.84375 250.316406 212.476562 251.675781 212.210938 253.066406 C 210.292969 261.683594 209.078125 284.207031 238.882812 307.359375 Z M 219.707031 254.730469 C 219.898438 253.695312 220.160156 252.675781 220.492188 251.679688 C 220.824219 250.679688 221.222656 249.710938 221.691406 248.769531 C 222.160156 247.824219 222.691406 246.921875 223.289062 246.050781 C 223.882812 245.183594 224.535156 244.363281 225.246094 243.585938 C 225.957031 242.808594 226.71875 242.085938 227.53125 241.414062 C 228.339844 240.746094 229.195312 240.136719 230.09375 239.585938 C 230.988281 239.035156 231.921875 238.550781 232.886719 238.128906 C 233.851562 237.710938 234.839844 237.359375 235.855469 237.078125 C 243.863281 235.253906 252.234375 239.03125 258.835938 247.433594 C 259.210938 247.917969 259.671875 248.289062 260.226562 248.546875 C 260.78125 248.804688 261.363281 248.921875 261.972656 248.902344 C 262.582031 248.882812 263.152344 248.730469 263.6875 248.4375 C 264.226562 248.148438 264.667969 247.753906 265.015625 247.253906 C 270.652344 239.136719 278.035156 235.464844 285.792969 236.886719 C 294.097656 238.425781 301.246094 245.800781 303.574219 255.246094 C 307.289062 270.328125 299.09375 287.089844 281.09375 301.242188 L 281.042969 301.28125 C 271.257812 308.972656 266.375 312.664062 262.421875 312.671875 L 262.410156 312.671875 C 258.472656 312.671875 253.5625 309.011719 243.753906 301.394531 L 243.675781 301.328125 C 217.261719 280.859375 218.113281 261.921875 219.707031 254.730469 Z M 219.707031 254.730469 " fill-opacity="1" fill-rule="nonzero"/><path fill="#ffffff" d="M 254.125 286.351562 C 254.488281 286.710938 254.902344 286.988281 255.375 287.183594 C 255.84375 287.378906 256.335938 287.476562 256.84375 287.476562 C 257.355469 287.476562 257.84375 287.378906 258.316406 287.183594 C 258.789062 286.988281 259.203125 286.710938 259.5625 286.351562 L 279.359375 266.554688 C 279.542969 266.378906 279.707031 266.183594 279.851562 265.976562 C 279.996094 265.765625 280.121094 265.542969 280.21875 265.308594 C 280.320312 265.074219 280.398438 264.832031 280.449219 264.582031 C 280.503906 264.332031 280.53125 264.078125 280.53125 263.824219 C 280.535156 263.570312 280.511719 263.316406 280.464844 263.066406 C 280.414062 262.8125 280.34375 262.570312 280.246094 262.335938 C 280.148438 262.097656 280.03125 261.875 279.890625 261.660156 C 279.746094 261.449219 279.585938 261.253906 279.40625 261.070312 C 279.226562 260.890625 279.027344 260.730469 278.816406 260.589844 C 278.605469 260.449219 278.378906 260.328125 278.144531 260.230469 C 277.90625 260.136719 277.664062 260.0625 277.414062 260.015625 C 277.164062 259.964844 276.910156 259.945312 276.652344 259.945312 C 276.398438 259.949219 276.144531 259.976562 275.898438 260.027344 C 275.648438 260.082031 275.40625 260.15625 275.171875 260.257812 C 274.9375 260.359375 274.714844 260.480469 274.503906 260.625 C 274.292969 260.769531 274.097656 260.9375 273.921875 261.121094 L 256.855469 278.195312 L 249.535156 270.875 C 249.171875 270.511719 248.757812 270.234375 248.285156 270.039062 C 247.816406 269.84375 247.324219 269.746094 246.8125 269.746094 C 246.304688 269.746094 245.8125 269.84375 245.34375 270.039062 C 244.871094 270.234375 244.453125 270.511719 244.09375 270.871094 C 243.734375 271.230469 243.453125 271.648438 243.257812 272.117188 C 243.0625 272.589844 242.964844 273.078125 242.964844 273.589844 C 242.964844 274.101562 243.0625 274.589844 243.257812 275.0625 C 243.453125 275.535156 243.730469 275.949219 244.089844 276.3125 Z M 254.125 286.351562 " fill-opacity="1" fill-rule="nonzero"/><g clip-path="url(#548f3921cd)"><path fill="#ffffff" d="M 227.175781 447.21875 L 214 441.390625 L 177.859375 408.53125 C 177.769531 408.449219 177.667969 408.378906 177.578125 408.300781 C 177.222656 407.996094 176.871094 407.695312 176.5 407.425781 L 176.40625 407.359375 C 174.773438 406.167969 172.984375 405.304688 171.035156 404.769531 C 169.085938 404.230469 167.105469 404.054688 165.09375 404.238281 L 160.886719 364.113281 C 160.777344 363.046875 160.570312 362.003906 160.261719 360.976562 C 159.953125 359.953125 159.550781 358.964844 159.054688 358.019531 C 158.558594 357.070312 157.976562 356.175781 157.3125 355.339844 C 156.644531 354.503906 155.90625 353.734375 155.09375 353.039062 C 154.28125 352.34375 153.410156 351.730469 152.480469 351.199219 C 151.550781 350.667969 150.578125 350.230469 149.566406 349.886719 C 148.550781 349.542969 147.515625 349.296875 146.453125 349.148438 C 145.394531 349.003906 144.332031 348.957031 143.261719 349.011719 C 142.191406 349.070312 141.140625 349.226562 140.101562 349.480469 C 139.0625 349.738281 138.054688 350.09375 137.085938 350.539062 C 136.113281 350.988281 135.191406 351.527344 134.324219 352.148438 C 133.453125 352.773438 132.652344 353.476562 131.914062 354.253906 C 131.179688 355.03125 130.523438 355.871094 129.949219 356.773438 C 129.375 357.675781 128.890625 358.625 128.496094 359.617188 C 128.101562 360.613281 127.804688 361.636719 127.605469 362.6875 C 127.40625 363.738281 127.304688 364.800781 127.308594 365.871094 L 127.308594 432.078125 C 127.3125 434.964844 127.613281 437.824219 128.214844 440.648438 C 128.816406 443.472656 129.703125 446.203125 130.878906 448.839844 C 132.054688 451.480469 133.488281 453.964844 135.183594 456.304688 C 136.878906 458.640625 138.800781 460.773438 140.945312 462.707031 L 171.050781 489.820312 C 172.078125 490.746094 173 491.769531 173.8125 492.886719 C 174.625 494.003906 175.3125 495.195312 175.875 496.457031 C 176.4375 497.722656 176.863281 499.027344 177.152344 500.382812 C 177.4375 501.734375 177.582031 503.101562 177.582031 504.484375 L 177.582031 523.398438 C 177.582031 523.910156 177.679688 524.398438 177.875 524.871094 C 178.070312 525.339844 178.347656 525.757812 178.710938 526.117188 C 179.070312 526.476562 179.484375 526.757812 179.957031 526.953125 C 180.429688 527.144531 180.917969 527.242188 181.429688 527.242188 L 246.394531 527.242188 C 246.902344 527.242188 247.394531 527.144531 247.863281 526.953125 C 248.335938 526.757812 248.753906 526.476562 249.113281 526.117188 C 249.472656 525.757812 249.75 525.339844 249.945312 524.871094 C 250.140625 524.398438 250.238281 523.910156 250.238281 523.398438 L 250.238281 482.582031 C 250.238281 480.71875 250.105469 478.863281 249.835938 477.019531 C 249.570312 475.175781 249.167969 473.359375 248.636719 471.570312 C 248.105469 469.785156 247.449219 468.046875 246.667969 466.351562 C 245.882812 464.660156 244.984375 463.035156 243.964844 461.472656 C 242.945312 459.910156 241.820312 458.429688 240.589844 457.03125 C 239.355469 455.632812 238.027344 454.332031 236.605469 453.125 C 235.1875 451.917969 233.683594 450.820312 232.105469 449.832031 C 230.523438 448.839844 228.882812 447.972656 227.175781 447.21875 Z M 242.554688 519.546875 L 185.273438 519.546875 L 185.273438 504.484375 C 185.273438 502.5625 185.074219 500.660156 184.671875 498.78125 C 184.273438 496.902344 183.679688 495.082031 182.898438 493.328125 C 182.117188 491.574219 181.160156 489.917969 180.03125 488.363281 C 178.902344 486.808594 177.621094 485.390625 176.195312 484.105469 L 146.09375 457 C 144.351562 455.425781 142.789062 453.6875 141.410156 451.785156 C 140.027344 449.886719 138.859375 447.859375 137.90625 445.714844 C 136.949219 443.570312 136.226562 441.347656 135.738281 439.050781 C 135.25 436.75 135.003906 434.429688 135 432.078125 L 135 365.871094 C 135 365.289062 135.054688 364.714844 135.164062 364.144531 C 135.273438 363.574219 135.433594 363.015625 135.648438 362.476562 C 135.863281 361.9375 136.125 361.421875 136.4375 360.933594 C 136.75 360.445312 137.105469 359.988281 137.507812 359.566406 C 137.90625 359.144531 138.339844 358.765625 138.8125 358.425781 C 139.285156 358.085938 139.785156 357.796875 140.3125 357.554688 C 140.839844 357.308594 141.386719 357.117188 141.949219 356.980469 C 142.511719 356.839844 143.085938 356.753906 143.664062 356.722656 C 144.246094 356.691406 144.820312 356.71875 145.398438 356.796875 C 145.972656 356.878906 146.535156 357.011719 147.085938 357.195312 C 147.636719 357.382812 148.164062 357.621094 148.667969 357.910156 C 149.171875 358.195312 149.644531 358.527344 150.085938 358.90625 C 150.527344 359.28125 150.929688 359.699219 151.292969 360.152344 C 151.65625 360.605469 151.96875 361.089844 152.238281 361.605469 C 152.511719 362.121094 152.730469 362.65625 152.898438 363.210938 C 153.066406 363.765625 153.179688 364.332031 153.238281 364.910156 L 157.621094 406.796875 C 156.535156 407.484375 155.542969 408.289062 154.636719 409.203125 C 154.253906 409.59375 153.890625 410.003906 153.546875 410.433594 C 153.203125 410.859375 152.878906 411.300781 152.582031 411.761719 C 152.28125 412.21875 152.003906 412.691406 151.75 413.179688 C 151.496094 413.664062 151.265625 414.164062 151.0625 414.671875 C 150.859375 415.179688 150.679688 415.699219 150.523438 416.226562 C 150.371094 416.75 150.242188 417.285156 150.140625 417.824219 C 150.039062 418.363281 149.964844 418.90625 149.917969 419.453125 C 149.867188 420 149.847656 420.546875 149.851562 421.09375 C 149.859375 421.640625 149.890625 422.1875 149.949219 422.734375 C 150.007812 423.28125 150.097656 423.820312 150.207031 424.359375 C 150.320312 424.894531 150.460938 425.425781 150.625 425.949219 C 150.789062 426.472656 150.980469 426.984375 151.195312 427.488281 C 151.410156 427.992188 151.648438 428.488281 151.914062 428.96875 C 152.175781 429.449219 152.460938 429.914062 152.773438 430.367188 C 153.082031 430.820312 153.414062 431.257812 153.765625 431.679688 C 154.117188 432.097656 154.488281 432.5 154.882812 432.882812 L 188.292969 465.601562 C 188.472656 465.785156 188.667969 465.945312 188.878906 466.085938 C 189.089844 466.230469 189.3125 466.347656 189.546875 466.445312 C 189.785156 466.542969 190.027344 466.617188 190.277344 466.667969 C 190.527344 466.71875 190.777344 466.742188 191.035156 466.742188 C 191.289062 466.738281 191.539062 466.714844 191.789062 466.664062 C 192.039062 466.613281 192.28125 466.539062 192.515625 466.4375 C 192.75 466.339844 192.972656 466.21875 193.183594 466.074219 C 193.394531 465.933594 193.589844 465.769531 193.769531 465.585938 C 193.945312 465.40625 194.105469 465.207031 194.246094 464.996094 C 194.382812 464.78125 194.5 464.554688 194.59375 464.320312 C 194.6875 464.082031 194.757812 463.839844 194.804688 463.589844 C 194.851562 463.335938 194.871094 463.085938 194.867188 462.832031 C 194.863281 462.574219 194.832031 462.324219 194.777344 462.074219 C 194.722656 461.824219 194.644531 461.585938 194.542969 461.351562 C 194.441406 461.117188 194.316406 460.898438 194.171875 460.6875 C 194.023438 460.480469 193.859375 460.289062 193.675781 460.113281 L 160.261719 427.386719 C 159.683594 426.824219 159.191406 426.191406 158.78125 425.496094 C 158.375 424.796875 158.0625 424.058594 157.855469 423.28125 C 157.644531 422.5 157.539062 421.707031 157.539062 420.898438 C 157.542969 420.089844 157.652344 419.296875 157.867188 418.515625 C 158.082031 417.738281 158.394531 417 158.804688 416.304688 C 159.21875 415.609375 159.714844 414.984375 160.296875 414.421875 C 160.875 413.859375 161.519531 413.382812 162.226562 412.992188 C 162.933594 412.605469 163.683594 412.3125 164.46875 412.125 C 164.707031 412.066406 164.945312 412.035156 165.1875 411.996094 C 165.429688 411.957031 165.679688 411.925781 165.925781 411.90625 C 166.171875 411.890625 166.4375 411.875 166.714844 411.882812 C 166.992188 411.886719 167.179688 411.90625 167.410156 411.925781 C 167.769531 411.957031 168.121094 412.007812 168.472656 412.082031 C 168.808594 412.148438 169.140625 412.234375 169.46875 412.335938 C 169.679688 412.40625 169.882812 412.5 170.089844 412.59375 C 170.378906 412.714844 170.664062 412.851562 170.941406 413.003906 C 171.109375 413.09375 171.277344 413.1875 171.4375 413.289062 C 171.882812 413.566406 172.300781 413.875 172.695312 414.222656 L 209.296875 447.515625 C 209.316406 447.53125 209.34375 447.535156 209.363281 447.554688 C 209.648438 447.808594 209.96875 448.015625 210.316406 448.179688 L 224.078125 454.261719 C 225.441406 454.863281 226.757812 455.558594 228.023438 456.351562 C 229.289062 457.144531 230.492188 458.023438 231.632812 458.992188 C 232.769531 459.957031 233.832031 461 234.820312 462.121094 C 235.808594 463.242188 236.707031 464.425781 237.523438 465.679688 C 238.339844 466.929688 239.0625 468.234375 239.6875 469.585938 C 240.316406 470.941406 240.839844 472.335938 241.265625 473.769531 C 241.691406 475.199219 242.011719 476.652344 242.226562 478.132812 C 242.441406 479.609375 242.550781 481.09375 242.550781 482.589844 Z M 242.554688 519.546875 " fill-opacity="1" fill-rule="nonzero"/></g><g clip-path="url(#b4f1e21e54)"><path fill="#ffffff" d="M 391.210938 353.976562 C 390.085938 352.851562 388.828125 351.90625 387.4375 351.140625 C 386.042969 350.371094 384.574219 349.8125 383.023438 349.464844 C 381.472656 349.113281 379.902344 348.984375 378.316406 349.078125 C 376.730469 349.171875 375.1875 349.484375 373.6875 350.015625 C 372.1875 350.546875 370.792969 351.273438 369.5 352.199219 C 368.210938 353.125 367.070312 354.214844 366.085938 355.460938 C 365.101562 356.710938 364.308594 358.070312 363.710938 359.542969 C 363.113281 361.015625 362.726562 362.542969 362.5625 364.121094 L 358.355469 404.238281 C 357.199219 404.132812 356.042969 404.144531 354.890625 404.277344 C 353.738281 404.414062 352.613281 404.664062 351.511719 405.035156 C 350.410156 405.40625 349.359375 405.886719 348.359375 406.472656 C 347.359375 407.0625 346.433594 407.75 345.574219 408.535156 L 309.449219 441.390625 L 296.277344 447.21875 C 294.570312 447.96875 292.925781 448.839844 291.347656 449.828125 C 289.765625 450.816406 288.265625 451.917969 286.84375 453.121094 C 285.421875 454.328125 284.09375 455.632812 282.863281 457.03125 C 281.628906 458.429688 280.503906 459.910156 279.484375 461.472656 C 278.464844 463.035156 277.566406 464.660156 276.78125 466.355469 C 276 468.046875 275.339844 469.785156 274.808594 471.574219 C 274.277344 473.363281 273.878906 475.179688 273.609375 477.023438 C 273.34375 478.867188 273.210938 480.722656 273.210938 482.589844 L 273.210938 523.398438 C 273.210938 523.910156 273.308594 524.398438 273.503906 524.871094 C 273.699219 525.339844 273.976562 525.757812 274.335938 526.117188 C 274.695312 526.476562 275.113281 526.757812 275.582031 526.953125 C 276.054688 527.144531 276.542969 527.242188 277.054688 527.242188 L 342.019531 527.242188 C 342.53125 527.242188 343.019531 527.144531 343.492188 526.953125 C 343.960938 526.757812 344.378906 526.476562 344.738281 526.117188 C 345.097656 525.757812 345.378906 525.339844 345.570312 524.871094 C 345.765625 524.398438 345.863281 523.910156 345.863281 523.398438 L 345.863281 504.484375 C 345.863281 503.101562 346.007812 501.730469 346.296875 500.378906 C 346.585938 499.027344 347.011719 497.71875 347.574219 496.457031 C 348.136719 495.191406 348.824219 494 349.636719 492.882812 C 350.453125 491.765625 351.371094 490.742188 352.402344 489.816406 L 382.5 462.707031 C 384.644531 460.773438 386.566406 458.640625 388.261719 456.304688 C 389.957031 453.964844 391.394531 451.480469 392.566406 448.839844 C 393.742188 446.203125 394.628906 443.472656 395.230469 440.648438 C 395.832031 437.824219 396.132812 434.964844 396.136719 432.078125 L 396.136719 365.871094 C 396.140625 363.636719 395.71875 361.492188 394.863281 359.429688 C 394.011719 357.367188 392.792969 355.550781 391.210938 353.976562 Z M 388.445312 432.078125 C 388.445312 434.429688 388.199219 436.75 387.710938 439.050781 C 387.21875 441.347656 386.5 443.570312 385.542969 445.714844 C 384.585938 447.863281 383.417969 449.886719 382.039062 451.785156 C 380.660156 453.6875 379.097656 455.425781 377.351562 457 L 347.257812 484.097656 C 345.832031 485.382812 344.550781 486.804688 343.421875 488.359375 C 342.289062 489.914062 341.332031 491.570312 340.550781 493.324219 C 339.769531 495.082031 339.175781 496.898438 338.777344 498.78125 C 338.375 500.660156 338.175781 502.5625 338.175781 504.484375 L 338.175781 519.554688 L 280.898438 519.554688 L 280.898438 482.582031 C 280.898438 481.089844 281.007812 479.605469 281.222656 478.125 C 281.4375 476.648438 281.757812 475.191406 282.183594 473.761719 C 282.609375 472.328125 283.132812 470.9375 283.761719 469.582031 C 284.390625 468.226562 285.109375 466.921875 285.925781 465.671875 C 286.742188 464.417969 287.644531 463.234375 288.632812 462.113281 C 289.621094 460.992188 290.683594 459.949219 291.820312 458.984375 C 292.960938 458.015625 294.164062 457.136719 295.429688 456.34375 C 296.695312 455.550781 298.011719 454.855469 299.378906 454.253906 L 313.128906 448.171875 C 313.480469 448.011719 313.796875 447.804688 314.085938 447.546875 C 314.105469 447.53125 314.128906 447.527344 314.152344 447.507812 L 323.890625 438.652344 L 350.753906 414.222656 L 350.8125 414.175781 C 351.1875 413.847656 351.585938 413.550781 352.007812 413.285156 C 352.171875 413.183594 352.339844 413.089844 352.519531 412.996094 C 352.796875 412.84375 353.082031 412.707031 353.375 412.585938 C 353.578125 412.5 353.773438 412.410156 353.980469 412.34375 C 354.363281 412.214844 354.75 412.117188 355.144531 412.039062 C 355.425781 411.988281 355.710938 411.957031 356 411.925781 C 356.285156 411.898438 356.511719 411.882812 356.769531 411.878906 C 357.023438 411.875 357.261719 411.878906 357.511719 411.90625 C 357.761719 411.929688 358.042969 411.957031 358.308594 412.003906 C 358.535156 412.039062 358.761719 412.066406 358.984375 412.121094 C 359.773438 412.308594 360.519531 412.597656 361.226562 412.988281 C 361.9375 413.375 362.582031 413.851562 363.164062 414.414062 C 363.746094 414.976562 364.242188 415.605469 364.65625 416.300781 C 365.066406 416.996094 365.382812 417.734375 365.597656 418.511719 C 365.8125 419.292969 365.921875 420.085938 365.921875 420.894531 C 365.925781 421.703125 365.820312 422.5 365.609375 423.277344 C 365.398438 424.058594 365.089844 424.800781 364.679688 425.496094 C 364.269531 426.195312 363.777344 426.824219 363.199219 427.390625 L 329.777344 460.113281 C 329.589844 460.289062 329.425781 460.480469 329.28125 460.6875 C 329.132812 460.898438 329.007812 461.117188 328.90625 461.351562 C 328.804688 461.585938 328.726562 461.828125 328.671875 462.074219 C 328.617188 462.324219 328.589844 462.574219 328.585938 462.832031 C 328.578125 463.085938 328.601562 463.335938 328.644531 463.589844 C 328.691406 463.839844 328.761719 464.082031 328.855469 464.320312 C 328.949219 464.554688 329.066406 464.78125 329.207031 464.996094 C 329.347656 465.207031 329.503906 465.40625 329.683594 465.585938 C 329.859375 465.769531 330.054688 465.933594 330.265625 466.074219 C 330.476562 466.21875 330.699219 466.339844 330.933594 466.4375 C 331.167969 466.539062 331.410156 466.613281 331.660156 466.664062 C 331.910156 466.714844 332.164062 466.738281 332.417969 466.742188 C 332.671875 466.742188 332.925781 466.71875 333.175781 466.667969 C 333.425781 466.617188 333.667969 466.542969 333.902344 466.445312 C 334.136719 466.347656 334.359375 466.230469 334.574219 466.085938 C 334.785156 465.945312 334.980469 465.785156 335.160156 465.601562 L 368.566406 432.886719 C 368.957031 432.503906 369.332031 432.101562 369.683594 431.679688 C 370.035156 431.261719 370.367188 430.824219 370.679688 430.371094 C 370.988281 429.917969 371.273438 429.453125 371.539062 428.972656 C 371.804688 428.492188 372.042969 427.996094 372.257812 427.492188 C 372.472656 426.988281 372.664062 426.476562 372.828125 425.953125 C 372.992188 425.429688 373.132812 424.898438 373.246094 424.363281 C 373.359375 423.824219 373.445312 423.285156 373.503906 422.738281 C 373.5625 422.195312 373.597656 421.644531 373.601562 421.097656 C 373.609375 420.550781 373.589844 420 373.539062 419.457031 C 373.492188 418.910156 373.417969 418.367188 373.316406 417.828125 C 373.214844 417.289062 373.085938 416.753906 372.933594 416.226562 C 372.78125 415.703125 372.601562 415.183594 372.398438 414.675781 C 372.191406 414.164062 371.964844 413.667969 371.710938 413.179688 C 371.457031 412.695312 371.179688 412.222656 370.878906 411.761719 C 370.578125 411.304688 370.257812 410.859375 369.914062 410.433594 C 369.570312 410.003906 369.207031 409.59375 368.824219 409.203125 C 367.917969 408.289062 366.925781 407.484375 365.839844 406.796875 L 370.222656 364.910156 C 370.28125 364.332031 370.394531 363.765625 370.5625 363.210938 C 370.730469 362.65625 370.949219 362.121094 371.222656 361.605469 C 371.492188 361.089844 371.808594 360.605469 372.167969 360.152344 C 372.53125 359.699219 372.933594 359.28125 373.375 358.90625 C 373.816406 358.527344 374.289062 358.195312 374.792969 357.910156 C 375.296875 357.621094 375.824219 357.382812 376.375 357.195312 C 376.925781 357.011719 377.488281 356.878906 378.0625 356.796875 C 378.640625 356.71875 379.214844 356.691406 379.796875 356.722656 C 380.375 356.753906 380.949219 356.839844 381.511719 356.980469 C 382.074219 357.117188 382.621094 357.308594 383.148438 357.554688 C 383.675781 357.796875 384.175781 358.085938 384.648438 358.425781 C 385.121094 358.765625 385.554688 359.144531 385.953125 359.566406 C 386.355469 359.988281 386.710938 360.445312 387.023438 360.933594 C 387.335938 361.421875 387.597656 361.9375 387.8125 362.476562 C 388.027344 363.015625 388.1875 363.574219 388.296875 364.144531 C 388.40625 364.714844 388.460938 365.289062 388.460938 365.871094 Z M 388.445312 432.078125 " fill-opacity="1" fill-rule="nonzero"/></g></svg>