<svg xmlns="http://www.w3.org/2000/svg" xmlns:xlink="http://www.w3.org/1999/xlink" width="500" zoomAndPan="magnify" viewBox="0 0 375 374.999991" height="500" preserveAspectRatio="xMidYMid meet" version="1.0"><defs><clipPath id="70d7ab1a28"><path d="M 37.5 37.5 L 337.5 37.5 L 337.5 337.5 L 37.5 337.5 Z M 37.5 37.5 " clip-rule="nonzero"/></clipPath></defs><g clip-path="url(#70d7ab1a28)"><path fill="#000000" d="M 91.945312 64.980469 C 77.085938 64.980469 65 77.070312 65 91.925781 L 65 283.042969 C 65 297.898438 77.085938 309.988281 91.945312 309.988281 L 283.058594 309.988281 C 297.917969 309.988281 310.007812 297.898438 310.007812 283.042969 L 310.007812 91.925781 C 310.007812 77.070312 297.917969 64.980469 283.058594 64.980469 Z M 283.058594 337.480469 L 91.945312 337.480469 C 61.925781 337.480469 37.507812 313.058594 37.507812 283.042969 L 37.507812 91.925781 C 37.507812 61.910156 61.925781 37.488281 91.945312 37.488281 L 283.058594 37.488281 C 313.078125 37.488281 337.5 61.910156 337.5 91.925781 L 337.5 283.042969 C 337.5 313.058594 313.078125 337.480469 283.058594 337.480469 " fill-opacity="1" fill-rule="nonzero"/></g><path fill="#000000" d="M 219.9375 287.859375 L 154.507812 287.859375 L 154.507812 87.109375 L 219.9375 87.109375 L 219.9375 287.859375 " fill-opacity="1" fill-rule="nonzero"/><path fill="#000000" d="M 86.847656 220.199219 L 86.847656 154.769531 L 287.59375 154.769531 L 287.59375 220.199219 L 86.847656 220.199219 " fill-opacity="1" fill-rule="nonzero"/></svg>