<svg xmlns="http://www.w3.org/2000/svg" xmlns:xlink="http://www.w3.org/1999/xlink" width="500" zoomAndPan="magnify" viewBox="0 0 375 374.999991" height="500" preserveAspectRatio="xMidYMid meet" version="1.0"><path fill="#000000" d="M 81.035156 272.085938 C 38.015625 200.148438 61.46875 106.960938 133.40625 63.941406 C 186.15625 32.398438 250.039062 37.238281 297.472656 70.09375 C 246.613281 26.277344 172.734375 16.066406 111.960938 52.394531 C 36.019531 97.792969 11.253906 196.171875 56.671875 272.101562 C 93.003906 332.894531 162.921875 358.839844 228.472656 344.324219 C 171.140625 350.796875 112.570312 324.828125 81.035156 272.085938 Z M 81.035156 272.085938 " fill-opacity="1" fill-rule="nonzero"/><path fill="#000000" d="M 343.320312 256.390625 C 343.90625 252.890625 342.941406 249.410156 339.828125 245.910156 C 332.089844 237.5625 313.261719 251.144531 313.261719 251.144531 C 313.066406 251.335938 312.878906 251.53125 312.6875 251.53125 C 337.304688 212.355469 341.773438 163.09375 316.757812 121.1875 C 290.5625 77.351562 234.902344 53.695312 186.988281 56.804688 C 244.605469 44.964844 305.691406 68.234375 337.507812 121.589844 C 363.101562 164.261719 363.6875 214.882812 343.320312 256.390625 Z M 343.320312 256.390625 " fill-opacity="1" fill-rule="nonzero"/><path fill="#000000" d="M 313.453125 259.875 C 308.601562 263.558594 303.949219 266.859375 299.484375 269.765625 C 264.589844 292.65625 240.722656 294.589844 225.203125 290.132812 C 206.1875 284.320312 199.402344 268.394531 199.402344 268.394531 C 258.558594 285.863281 267.296875 276.953125 268.457031 270.351562 C 269.226562 266.859375 267.871094 263.742188 263.589844 261.816406 C 262.25 261.226562 260.496094 260.460938 258.753906 259.875 C 237.410156 251.523438 194.945312 238.15625 194.945312 238.15625 C 152.304688 220.96875 124.132812 236.757812 108.128906 250.632812 C 100.851562 240.523438 94.925781 229.140625 91.019531 216.375 C 76.105469 167.542969 95.921875 110.394531 130.375 76.972656 C 82.957031 111.734375 58.953125 172.726562 77.402344 232.042969 C 82.316406 247.839844 92.847656 265.039062 92.847656 265.039062 C 129.664062 325.96875 190.558594 338.578125 227.132812 335.902344 C 287.539062 331.503906 341.191406 282.355469 335.171875 255.816406 C 333.085938 246.570312 313.453125 259.875 313.453125 259.875 Z M 313.453125 259.875 " fill-opacity="1" fill-rule="nonzero"/><path fill="#000000" d="M 168.917969 224.164062 C 177.011719 225.140625 185.578125 227.039062 194.921875 230.804688 C 194.921875 230.804688 210.144531 235.597656 226.886719 241.222656 L 226.886719 209.679688 L 288.871094 209.679688 L 288.871094 153.082031 L 226.886719 153.082031 L 226.886719 91.085938 L 168.917969 91.085938 L 168.917969 153.082031 L 106.945312 153.082031 L 106.945312 209.679688 L 168.917969 209.679688 Z M 168.917969 224.164062 " fill-opacity="1" fill-rule="nonzero"/></svg>