<svg xmlns="http://www.w3.org/2000/svg" xmlns:xlink="http://www.w3.org/1999/xlink" width="3000" zoomAndPan="magnify" viewBox="0 0 2250 749.999995" height="1000" preserveAspectRatio="xMidYMid meet" version="1.0"><defs><g/><clipPath id="6cb4bfba8a"><path d="M 124.257812 225 L 424.257812 225 L 424.257812 525 L 124.257812 525 Z M 124.257812 225 " clip-rule="nonzero"/></clipPath></defs><g clip-path="url(#6cb4bfba8a)"><path fill="#000000" d="M 178.703125 252.480469 C 163.84375 252.480469 151.753906 264.570312 151.753906 279.425781 L 151.753906 470.542969 C 151.753906 485.398438 163.84375 497.488281 178.703125 497.488281 L 369.816406 497.488281 C 384.675781 497.488281 396.761719 485.398438 396.761719 470.542969 L 396.761719 279.425781 C 396.761719 264.570312 384.675781 252.480469 369.816406 252.480469 Z M 369.816406 524.980469 L 178.703125 524.980469 C 148.683594 524.980469 124.261719 500.558594 124.261719 470.542969 L 124.261719 279.425781 C 124.261719 249.410156 148.683594 224.988281 178.703125 224.988281 L 369.816406 224.988281 C 399.835938 224.988281 424.253906 249.410156 424.253906 279.425781 L 424.253906 470.542969 C 424.253906 500.558594 399.835938 524.980469 369.816406 524.980469 " fill-opacity="1" fill-rule="nonzero"/></g><path fill="#000000" d="M 306.691406 475.359375 L 241.265625 475.359375 L 241.265625 274.609375 L 306.691406 274.609375 L 306.691406 475.359375 " fill-opacity="1" fill-rule="nonzero"/><path fill="#000000" d="M 173.601562 407.699219 L 173.601562 342.269531 L 374.351562 342.269531 L 374.351562 407.699219 L 173.601562 407.699219 " fill-opacity="1" fill-rule="nonzero"/><g fill="#000000" fill-opacity="1"><g transform="translate(463.976486, 437.181982)"><g><path d="M 84.34375 -73.6875 L 84.34375 -123.28125 L 102.15625 -123.28125 L 102.15625 0 L 84.34375 0 L 84.34375 -56.234375 L 32.65625 -56.234375 L 32.65625 0 L 15.015625 0 L 15.015625 -123.28125 L 32.65625 -123.28125 L 32.65625 -73.6875 Z M 84.34375 -73.6875 "/></g></g></g><g fill="#000000" fill-opacity="1"><g transform="translate(581.133534, 437.181982)"><g><path d="M 110.890625 -47.15625 C 110.890625 -39 109.460938 -31.863281 106.609375 -25.75 C 103.753906 -19.644531 99.878906 -14.550781 94.984375 -10.46875 C 90.097656 -6.394531 84.597656 -3.335938 78.484375 -1.296875 C 72.378906 0.734375 66.125 1.75 59.71875 1.75 C 53.4375 1.75 47.265625 0.734375 41.203125 -1.296875 C 35.148438 -3.335938 29.707031 -6.394531 24.875 -10.46875 C 20.050781 -14.550781 16.210938 -19.644531 13.359375 -25.75 C 10.503906 -31.863281 9.078125 -39 9.078125 -47.15625 C 9.078125 -55.300781 10.503906 -62.425781 13.359375 -68.53125 C 16.210938 -74.644531 20.082031 -79.738281 24.96875 -83.8125 C 29.863281 -87.894531 35.363281 -90.953125 41.46875 -92.984375 C 47.582031 -95.023438 53.84375 -96.046875 60.25 -96.046875 C 66.644531 -96.046875 72.84375 -95.023438 78.84375 -92.984375 C 84.84375 -90.953125 90.253906 -87.894531 95.078125 -83.8125 C 99.910156 -79.738281 103.753906 -74.644531 106.609375 -68.53125 C 109.460938 -62.425781 110.890625 -55.300781 110.890625 -47.15625 Z M 26.1875 -47.15625 C 26.1875 -39.695312 27.84375 -33.492188 31.15625 -28.546875 C 34.476562 -23.597656 38.726562 -19.875 43.90625 -17.375 C 49.09375 -14.875 54.484375 -13.625 60.078125 -13.625 C 65.773438 -13.625 71.1875 -14.875 76.3125 -17.375 C 81.4375 -19.875 85.65625 -23.625 88.96875 -28.625 C 92.289062 -33.632812 93.953125 -39.8125 93.953125 -47.15625 C 93.953125 -54.601562 92.320312 -60.828125 89.0625 -65.828125 C 85.800781 -70.835938 81.578125 -74.59375 76.390625 -77.09375 C 71.210938 -79.59375 65.832031 -80.84375 60.25 -80.84375 C 54.539062 -80.84375 49.09375 -79.59375 43.90625 -77.09375 C 38.726562 -74.59375 34.476562 -70.867188 31.15625 -65.921875 C 27.84375 -60.972656 26.1875 -54.71875 26.1875 -47.15625 Z M 26.1875 -47.15625 "/></g></g></g><g fill="#000000" fill-opacity="1"><g transform="translate(702.30639, 437.181982)"><g><path d="M 24.96875 -67.234375 C 24.96875 -64.316406 25.695312 -62.039062 27.15625 -60.40625 C 28.613281 -58.78125 30.503906 -57.617188 32.828125 -56.921875 C 35.160156 -56.222656 37.578125 -55.785156 40.078125 -55.609375 C 42.578125 -55.441406 44.875 -55.300781 46.96875 -55.1875 C 51.394531 -54.832031 55.847656 -54.160156 60.328125 -53.171875 C 64.816406 -52.179688 68.921875 -50.664062 72.640625 -48.625 C 76.367188 -46.59375 79.367188 -43.800781 81.640625 -40.25 C 83.910156 -36.695312 85.046875 -32.242188 85.046875 -26.890625 C 85.046875 -21.421875 83.847656 -16.851562 81.453125 -13.1875 C 79.066406 -9.519531 75.925781 -6.609375 72.03125 -4.453125 C 68.132812 -2.296875 63.859375 -0.753906 59.203125 0.171875 C 54.546875 1.109375 50.003906 1.578125 45.578125 1.578125 C 39.054688 1.578125 32.914062 0.585938 27.15625 -1.390625 C 21.394531 -3.367188 16.648438 -6.597656 12.921875 -11.078125 C 9.191406 -15.566406 7.097656 -21.535156 6.640625 -28.984375 L 23.75 -28.984375 C 24.09375 -23.742188 26.414062 -19.8125 30.71875 -17.1875 C 35.03125 -14.570312 40.097656 -13.265625 45.921875 -13.265625 C 48.835938 -13.265625 51.984375 -13.644531 55.359375 -14.40625 C 58.734375 -15.164062 61.671875 -16.5625 64.171875 -18.59375 C 66.671875 -20.632812 67.921875 -23.515625 67.921875 -27.234375 C 67.921875 -29.921875 67.132812 -32.046875 65.5625 -33.609375 C 64 -35.179688 61.992188 -36.40625 59.546875 -37.28125 C 57.097656 -38.15625 54.59375 -38.765625 52.03125 -39.109375 C 49.476562 -39.460938 47.148438 -39.695312 45.046875 -39.8125 C 40.859375 -40.039062 36.582031 -40.59375 32.21875 -41.46875 C 27.851562 -42.34375 23.835938 -43.769531 20.171875 -45.75 C 16.503906 -47.726562 13.5625 -50.429688 11.34375 -53.859375 C 9.132812 -57.296875 8.03125 -61.632812 8.03125 -66.875 C 8.03125 -74.207031 9.890625 -80.03125 13.609375 -84.34375 C 17.335938 -88.65625 22.113281 -91.738281 27.9375 -93.59375 C 33.757812 -95.457031 39.695312 -96.390625 45.75 -96.390625 C 52.039062 -96.390625 57.863281 -95.457031 63.21875 -93.59375 C 68.570312 -91.738281 72.992188 -88.769531 76.484375 -84.6875 C 79.972656 -80.613281 81.894531 -75.257812 82.25 -68.625 L 65.3125 -68.625 C 64.84375 -72.820312 62.65625 -75.9375 58.75 -77.96875 C 54.851562 -80.007812 50.347656 -81.03125 45.234375 -81.03125 C 39.992188 -81.03125 35.304688 -79.953125 31.171875 -77.796875 C 27.035156 -75.640625 24.96875 -72.117188 24.96875 -67.234375 Z M 24.96875 -67.234375 "/></g></g></g><g fill="#000000" fill-opacity="1"><g transform="translate(793.273321, 437.181982)"><g><path d="M 12.921875 27.59375 L 12.921875 -94.46875 L 30.03125 -94.46875 L 30.03125 -81.90625 C 33.40625 -87.019531 38.09375 -90.65625 44.09375 -92.8125 C 50.09375 -94.96875 56.054688 -96.046875 61.984375 -96.046875 C 72.929688 -96.046875 81.984375 -93.742188 89.140625 -89.140625 C 96.304688 -84.546875 101.660156 -78.519531 105.203125 -71.0625 C 108.753906 -63.613281 110.53125 -55.582031 110.53125 -46.96875 C 110.53125 -38.46875 108.695312 -30.519531 105.03125 -23.125 C 101.363281 -15.738281 95.921875 -9.773438 88.703125 -5.234375 C 81.484375 -0.691406 72.519531 1.578125 61.8125 1.578125 C 56 1.578125 50.296875 0.644531 44.703125 -1.21875 C 39.117188 -3.082031 34.226562 -6.804688 30.03125 -12.390625 L 30.03125 27.59375 Z M 30.03125 -47.328125 C 30.03125 -39.867188 31.570312 -33.632812 34.65625 -28.625 C 37.75 -23.625 41.738281 -19.875 46.625 -17.375 C 51.507812 -14.875 56.570312 -13.625 61.8125 -13.625 C 68.800781 -13.625 74.648438 -15.253906 79.359375 -18.515625 C 84.078125 -21.773438 87.597656 -25.992188 89.921875 -31.171875 C 92.253906 -36.347656 93.421875 -41.734375 93.421875 -47.328125 C 93.421875 -53.023438 92.253906 -58.4375 89.921875 -63.5625 C 87.597656 -68.6875 84.109375 -72.878906 79.453125 -76.140625 C 74.796875 -79.398438 68.972656 -81.03125 61.984375 -81.03125 C 56.753906 -81.03125 51.691406 -79.773438 46.796875 -77.265625 C 41.910156 -74.765625 37.894531 -71.039062 34.75 -66.09375 C 31.601562 -61.144531 30.03125 -54.890625 30.03125 -47.328125 Z M 30.03125 -47.328125 "/></g></g></g><g fill="#000000" fill-opacity="1"><g transform="translate(913.573165, 437.181982)"><g><path d="M 12.046875 -118.75 C 12.046875 -122.007812 13.179688 -124.453125 15.453125 -126.078125 C 17.722656 -127.710938 20.195312 -128.53125 22.875 -128.53125 C 25.550781 -128.53125 27.96875 -127.742188 30.125 -126.171875 C 32.28125 -124.597656 33.359375 -122.125 33.359375 -118.75 C 33.359375 -115.488281 32.25 -113.015625 30.03125 -111.328125 C 27.820312 -109.640625 25.378906 -108.796875 22.703125 -108.796875 C 20.140625 -108.796875 17.722656 -109.640625 15.453125 -111.328125 C 13.179688 -113.015625 12.046875 -115.488281 12.046875 -118.75 Z M 14.140625 -95.515625 L 14.140625 0 L 31.265625 0 L 31.265625 -95.515625 Z M 14.140625 -95.515625 "/></g></g></g><g fill="#000000" fill-opacity="1"><g transform="translate(960.540741, 437.181982)"><g><path d="M 35.453125 -94.46875 L 56.234375 -94.46875 L 56.234375 -80.84375 L 35.453125 -80.84375 L 35.453125 -27.59375 C 35.453125 -22 36.726562 -18.300781 39.28125 -16.5 C 41.84375 -14.695312 45.28125 -13.796875 49.59375 -13.796875 C 50.644531 -13.796875 51.78125 -13.820312 53 -13.875 C 54.21875 -13.9375 55.46875 -14.023438 56.75 -14.140625 L 56.75 0.171875 C 55.351562 0.285156 54.015625 0.375 52.734375 0.4375 C 51.453125 0.5 50.171875 0.53125 48.890625 0.53125 C 42.722656 0.53125 37.335938 -0.3125 32.734375 -2 C 28.140625 -3.695312 24.585938 -6.582031 22.078125 -10.65625 C 19.578125 -14.726562 18.328125 -20.429688 18.328125 -27.765625 L 18.328125 -80.84375 L 4.1875 -80.84375 L 4.1875 -94.46875 L 18.328125 -94.46875 L 18.328125 -112.109375 L 35.453125 -115.421875 Z M 35.453125 -94.46875 "/></g></g></g><g fill="#000000" fill-opacity="1"><g transform="translate(1020.603386, 437.181982)"><g><path d="M 111.234375 0 L 94.125 0 L 94.125 -12.75 C 91.914062 -9.375 88.890625 -6.632812 85.046875 -4.53125 C 81.203125 -2.4375 77.125 -0.925781 72.8125 0 C 68.507812 0.925781 64.378906 1.453125 60.421875 1.578125 C 49.472656 1.578125 40.210938 -0.71875 32.640625 -5.3125 C 25.078125 -9.914062 19.347656 -15.972656 15.453125 -23.484375 C 11.554688 -30.992188 9.609375 -39.054688 9.609375 -47.671875 C 9.609375 -56.171875 11.585938 -64.085938 15.546875 -71.421875 C 19.503906 -78.753906 25.265625 -84.691406 32.828125 -89.234375 C 40.398438 -93.773438 49.484375 -96.046875 60.078125 -96.046875 C 64.035156 -96.046875 68.109375 -95.664062 72.296875 -94.90625 C 76.484375 -94.15625 80.5 -92.757812 84.34375 -90.71875 C 88.1875 -88.675781 91.503906 -85.738281 94.296875 -81.90625 L 94.125 -94.46875 L 111.234375 -94.46875 Z M 94.125 -47.328125 C 94.125 -54.890625 92.40625 -61.144531 88.96875 -66.09375 C 85.53125 -71.039062 81.191406 -74.765625 75.953125 -77.265625 C 70.722656 -79.773438 65.429688 -81.03125 60.078125 -81.03125 C 53.203125 -81.03125 47.257812 -79.546875 42.25 -76.578125 C 37.25 -73.609375 33.410156 -69.617188 30.734375 -64.609375 C 28.054688 -59.609375 26.71875 -53.960938 26.71875 -47.671875 C 26.71875 -41.734375 28.054688 -36.171875 30.734375 -30.984375 C 33.410156 -25.804688 37.222656 -21.617188 42.171875 -18.421875 C 47.117188 -15.222656 53.085938 -13.625 60.078125 -13.625 C 65.304688 -13.625 70.539062 -14.84375 75.78125 -17.28125 C 81.019531 -19.726562 85.382812 -23.453125 88.875 -28.453125 C 92.375 -33.460938 94.125 -39.753906 94.125 -47.328125 Z M 94.125 -47.328125 "/></g></g></g><g fill="#000000" fill-opacity="1"><g transform="translate(1143.173063, 437.181982)"><g><path d="M 13.09375 0 L 13.09375 -122.234375 L 30.203125 -122.234375 L 30.203125 0 Z M 13.09375 0 "/></g></g></g><g fill="#000000" fill-opacity="1"><g transform="translate(1186.474008, 437.181982)"><g/></g></g><g fill="#000000" fill-opacity="1"><g transform="translate(1229.949581, 437.181982)"><g><path d="M 89.578125 -17.640625 L 89.578125 0 L 15.015625 0 L 15.015625 -123.453125 L 89.40625 -123.453125 L 89.40625 -105.828125 L 32.828125 -105.828125 L 32.828125 -71.421875 L 88.1875 -71.421875 L 88.1875 -53.609375 L 32.828125 -53.609375 L 32.828125 -17.640625 Z M 89.578125 -17.640625 "/></g></g></g><g fill="#000000" fill-opacity="1"><g transform="translate(1327.376734, 437.181982)"><g><path d="M 24.96875 -67.234375 C 24.96875 -64.316406 25.695312 -62.039062 27.15625 -60.40625 C 28.613281 -58.78125 30.503906 -57.617188 32.828125 -56.921875 C 35.160156 -56.222656 37.578125 -55.785156 40.078125 -55.609375 C 42.578125 -55.441406 44.875 -55.300781 46.96875 -55.1875 C 51.394531 -54.832031 55.847656 -54.160156 60.328125 -53.171875 C 64.816406 -52.179688 68.921875 -50.664062 72.640625 -48.625 C 76.367188 -46.59375 79.367188 -43.800781 81.640625 -40.25 C 83.910156 -36.695312 85.046875 -32.242188 85.046875 -26.890625 C 85.046875 -21.421875 83.847656 -16.851562 81.453125 -13.1875 C 79.066406 -9.519531 75.925781 -6.609375 72.03125 -4.453125 C 68.132812 -2.296875 63.859375 -0.753906 59.203125 0.171875 C 54.546875 1.109375 50.003906 1.578125 45.578125 1.578125 C 39.054688 1.578125 32.914062 0.585938 27.15625 -1.390625 C 21.394531 -3.367188 16.648438 -6.597656 12.921875 -11.078125 C 9.191406 -15.566406 7.097656 -21.535156 6.640625 -28.984375 L 23.75 -28.984375 C 24.09375 -23.742188 26.414062 -19.8125 30.71875 -17.1875 C 35.03125 -14.570312 40.097656 -13.265625 45.921875 -13.265625 C 48.835938 -13.265625 51.984375 -13.644531 55.359375 -14.40625 C 58.734375 -15.164062 61.671875 -16.5625 64.171875 -18.59375 C 66.671875 -20.632812 67.921875 -23.515625 67.921875 -27.234375 C 67.921875 -29.921875 67.132812 -32.046875 65.5625 -33.609375 C 64 -35.179688 61.992188 -36.40625 59.546875 -37.28125 C 57.097656 -38.15625 54.59375 -38.765625 52.03125 -39.109375 C 49.476562 -39.460938 47.148438 -39.695312 45.046875 -39.8125 C 40.859375 -40.039062 36.582031 -40.59375 32.21875 -41.46875 C 27.851562 -42.34375 23.835938 -43.769531 20.171875 -45.75 C 16.503906 -47.726562 13.5625 -50.429688 11.34375 -53.859375 C 9.132812 -57.296875 8.03125 -61.632812 8.03125 -66.875 C 8.03125 -74.207031 9.890625 -80.03125 13.609375 -84.34375 C 17.335938 -88.65625 22.113281 -91.738281 27.9375 -93.59375 C 33.757812 -95.457031 39.695312 -96.390625 45.75 -96.390625 C 52.039062 -96.390625 57.863281 -95.457031 63.21875 -93.59375 C 68.570312 -91.738281 72.992188 -88.769531 76.484375 -84.6875 C 79.972656 -80.613281 81.894531 -75.257812 82.25 -68.625 L 65.3125 -68.625 C 64.84375 -72.820312 62.65625 -75.9375 58.75 -77.96875 C 54.851562 -80.007812 50.347656 -81.03125 45.234375 -81.03125 C 39.992188 -81.03125 35.304688 -79.953125 31.171875 -77.796875 C 27.035156 -75.640625 24.96875 -72.117188 24.96875 -67.234375 Z M 24.96875 -67.234375 "/></g></g></g><g fill="#000000" fill-opacity="1"><g transform="translate(1418.343665, 437.181982)"><g><path d="M 12.921875 27.59375 L 12.921875 -94.46875 L 30.03125 -94.46875 L 30.03125 -81.90625 C 33.40625 -87.019531 38.09375 -90.65625 44.09375 -92.8125 C 50.09375 -94.96875 56.054688 -96.046875 61.984375 -96.046875 C 72.929688 -96.046875 81.984375 -93.742188 89.140625 -89.140625 C 96.304688 -84.546875 101.660156 -78.519531 105.203125 -71.0625 C 108.753906 -63.613281 110.53125 -55.582031 110.53125 -46.96875 C 110.53125 -38.46875 108.695312 -30.519531 105.03125 -23.125 C 101.363281 -15.738281 95.921875 -9.773438 88.703125 -5.234375 C 81.484375 -0.691406 72.519531 1.578125 61.8125 1.578125 C 56 1.578125 50.296875 0.644531 44.703125 -1.21875 C 39.117188 -3.082031 34.226562 -6.804688 30.03125 -12.390625 L 30.03125 27.59375 Z M 30.03125 -47.328125 C 30.03125 -39.867188 31.570312 -33.632812 34.65625 -28.625 C 37.75 -23.625 41.738281 -19.875 46.625 -17.375 C 51.507812 -14.875 56.570312 -13.625 61.8125 -13.625 C 68.800781 -13.625 74.648438 -15.253906 79.359375 -18.515625 C 84.078125 -21.773438 87.597656 -25.992188 89.921875 -31.171875 C 92.253906 -36.347656 93.421875 -41.734375 93.421875 -47.328125 C 93.421875 -53.023438 92.253906 -58.4375 89.921875 -63.5625 C 87.597656 -68.6875 84.109375 -72.878906 79.453125 -76.140625 C 74.796875 -79.398438 68.972656 -81.03125 61.984375 -81.03125 C 56.753906 -81.03125 51.691406 -79.773438 46.796875 -77.265625 C 41.910156 -74.765625 37.894531 -71.039062 34.75 -66.09375 C 31.601562 -61.144531 30.03125 -54.890625 30.03125 -47.328125 Z M 30.03125 -47.328125 "/></g></g></g><g fill="#000000" fill-opacity="1"><g transform="translate(1538.643533, 437.181982)"><g><path d="M 105.828125 -51.34375 C 105.941406 -50.875 106 -50.40625 106 -49.9375 C 106 -49.476562 106 -48.957031 106 -48.375 C 106 -46.507812 105.820312 -44.757812 105.46875 -43.125 L 25.5 -43.125 C 25.5 -36.957031 27.15625 -31.660156 30.46875 -27.234375 C 33.789062 -22.816406 37.925781 -19.414062 42.875 -17.03125 C 47.820312 -14.644531 52.625 -13.453125 57.28125 -13.453125 C 63.101562 -13.453125 68.546875 -14.726562 73.609375 -17.28125 C 78.671875 -19.84375 82.597656 -23.800781 85.390625 -29.15625 L 103.03125 -29.15625 C 100.695312 -22.289062 97.144531 -16.554688 92.375 -11.953125 C 87.601562 -7.359375 82.160156 -3.925781 76.046875 -1.65625 C 69.929688 0.613281 63.617188 1.75 57.109375 1.75 C 51.046875 1.75 45.101562 0.734375 39.28125 -1.296875 C 33.46875 -3.335938 28.234375 -6.394531 23.578125 -10.46875 C 18.921875 -14.550781 15.222656 -19.644531 12.484375 -25.75 C 9.742188 -31.863281 8.375 -39 8.375 -47.15625 C 8.375 -55.300781 9.742188 -62.398438 12.484375 -68.453125 C 15.222656 -74.503906 18.921875 -79.566406 23.578125 -83.640625 C 28.234375 -87.710938 33.46875 -90.769531 39.28125 -92.8125 C 45.101562 -94.851562 51.160156 -95.875 57.453125 -95.875 C 65.253906 -95.875 72.734375 -94.210938 79.890625 -90.890625 C 87.046875 -87.578125 93.007812 -82.628906 97.78125 -76.046875 C 102.5625 -69.472656 105.242188 -61.238281 105.828125 -51.34375 Z M 87.84375 -57.28125 C 86.789062 -62.976562 84.722656 -67.546875 81.640625 -70.984375 C 78.554688 -74.421875 74.890625 -76.921875 70.640625 -78.484375 C 66.390625 -80.054688 61.992188 -80.84375 57.453125 -80.84375 C 52.910156 -80.84375 48.457031 -80.054688 44.09375 -78.484375 C 39.726562 -76.921875 35.941406 -74.390625 32.734375 -70.890625 C 29.535156 -67.398438 27.351562 -62.863281 26.1875 -57.28125 Z M 87.84375 -57.28125 "/></g></g></g><g fill="#000000" fill-opacity="1"><g transform="translate(1653.879951, 437.181982)"><g><path d="M 30.03125 -82.765625 C 33.40625 -87.546875 37.390625 -91.007812 41.984375 -93.15625 C 46.585938 -95.3125 51.507812 -96.390625 56.75 -96.390625 C 58.613281 -96.390625 60.476562 -96.269531 62.34375 -96.03125 C 64.207031 -95.800781 66.066406 -95.457031 67.921875 -95 L 67.921875 -79.984375 C 65.128906 -80.796875 62.222656 -81.203125 59.203125 -81.203125 C 53.960938 -81.203125 49.128906 -79.890625 44.703125 -77.265625 C 40.273438 -74.648438 36.722656 -71.097656 34.046875 -66.609375 C 31.367188 -62.128906 30.03125 -56.984375 30.03125 -51.171875 L 30.03125 0 L 13.09375 0 L 13.09375 -94.296875 L 30.03125 -94.296875 Z M 30.03125 -82.765625 "/></g></g></g><g fill="#000000" fill-opacity="1"><g transform="translate(1727.212245, 437.181982)"><g><path d="M 111.234375 0 L 94.125 0 L 94.125 -12.75 C 91.914062 -9.375 88.890625 -6.632812 85.046875 -4.53125 C 81.203125 -2.4375 77.125 -0.925781 72.8125 0 C 68.507812 0.925781 64.378906 1.453125 60.421875 1.578125 C 49.472656 1.578125 40.210938 -0.71875 32.640625 -5.3125 C 25.078125 -9.914062 19.347656 -15.972656 15.453125 -23.484375 C 11.554688 -30.992188 9.609375 -39.054688 9.609375 -47.671875 C 9.609375 -56.171875 11.585938 -64.085938 15.546875 -71.421875 C 19.503906 -78.753906 25.265625 -84.691406 32.828125 -89.234375 C 40.398438 -93.773438 49.484375 -96.046875 60.078125 -96.046875 C 64.035156 -96.046875 68.109375 -95.664062 72.296875 -94.90625 C 76.484375 -94.15625 80.5 -92.757812 84.34375 -90.71875 C 88.1875 -88.675781 91.503906 -85.738281 94.296875 -81.90625 L 94.125 -94.46875 L 111.234375 -94.46875 Z M 94.125 -47.328125 C 94.125 -54.890625 92.40625 -61.144531 88.96875 -66.09375 C 85.53125 -71.039062 81.191406 -74.765625 75.953125 -77.265625 C 70.722656 -79.773438 65.429688 -81.03125 60.078125 -81.03125 C 53.203125 -81.03125 47.257812 -79.546875 42.25 -76.578125 C 37.25 -73.609375 33.410156 -69.617188 30.734375 -64.609375 C 28.054688 -59.609375 26.71875 -53.960938 26.71875 -47.671875 C 26.71875 -41.734375 28.054688 -36.171875 30.734375 -30.984375 C 33.410156 -25.804688 37.222656 -21.617188 42.171875 -18.421875 C 47.117188 -15.222656 53.085938 -13.625 60.078125 -13.625 C 65.304688 -13.625 70.539062 -14.84375 75.78125 -17.28125 C 81.019531 -19.726562 85.382812 -23.453125 88.875 -28.453125 C 92.375 -33.460938 94.125 -39.753906 94.125 -47.328125 Z M 94.125 -47.328125 "/></g></g></g><g fill="#000000" fill-opacity="1"><g transform="translate(1849.781922, 437.181982)"><g><path d="M 30.203125 -82.765625 C 33.703125 -87.890625 37.925781 -91.351562 42.875 -93.15625 C 47.820312 -94.96875 53.265625 -95.875 59.203125 -95.875 C 68.859375 -95.875 76.679688 -94.007812 82.671875 -90.28125 C 88.671875 -86.550781 93.097656 -81.3125 95.953125 -74.5625 C 98.804688 -67.8125 100.234375 -59.894531 100.234375 -50.8125 L 100.234375 0 L 83.296875 0 L 83.296875 -50.640625 C 83.296875 -56.578125 82.625 -61.816406 81.28125 -66.359375 C 79.945312 -70.898438 77.445312 -74.421875 73.78125 -76.921875 C 70.113281 -79.421875 64.84375 -80.671875 57.96875 -80.671875 C 52.03125 -80.671875 46.992188 -79.359375 42.859375 -76.734375 C 38.734375 -74.117188 35.59375 -70.597656 33.4375 -66.171875 C 31.28125 -61.753906 30.203125 -56.8125 30.203125 -51.34375 L 30.203125 0 L 13.09375 0 L 13.09375 -94.46875 L 30.203125 -94.46875 Z M 30.203125 -82.765625 "/></g></g></g><g fill="#000000" fill-opacity="1"><g transform="translate(1962.923109, 437.181982)"><g><path d="M 105.828125 -36.5 C 104.429688 -28.925781 101.664062 -22.488281 97.53125 -17.1875 C 93.394531 -11.894531 88.472656 -7.734375 82.765625 -4.703125 C 77.066406 -1.679688 71.015625 0.234375 64.609375 1.046875 L 62.515625 6.109375 C 67.640625 6.460938 71.539062 8.003906 74.21875 10.734375 C 76.894531 13.472656 78.234375 16.707031 78.234375 20.4375 C 78.234375 24.394531 77.097656 27.796875 74.828125 30.640625 C 72.554688 33.492188 69.644531 35.707031 66.09375 37.28125 C 62.539062 38.851562 58.84375 39.640625 55 39.640625 C 50.695312 39.640625 46.625 38.59375 42.78125 36.5 C 38.9375 34.40625 36.144531 31.085938 34.40625 26.546875 L 45.234375 21.484375 C 46.628906 23.335938 48.195312 24.703125 49.9375 25.578125 C 51.6875 26.453125 53.316406 26.890625 54.828125 26.890625 C 57.160156 27.003906 59.226562 26.535156 61.03125 25.484375 C 62.832031 24.441406 63.734375 22.875 63.734375 20.78125 C 63.734375 19.144531 62.800781 17.570312 60.9375 16.0625 C 59.082031 14.550781 55.648438 13.796875 50.640625 13.796875 C 49.941406 13.796875 49.210938 13.796875 48.453125 13.796875 C 47.703125 13.796875 46.859375 13.851562 45.921875 13.96875 L 51.515625 1.046875 C 44.179688 0.234375 37.132812 -2.09375 30.375 -5.9375 C 23.625 -9.78125 18.09375 -15.164062 13.78125 -22.09375 C 9.476562 -29.019531 7.328125 -37.429688 7.328125 -47.328125 C 7.328125 -55.472656 8.78125 -62.570312 11.6875 -68.625 C 14.601562 -74.675781 18.476562 -79.738281 23.3125 -83.8125 C 28.144531 -87.894531 33.554688 -90.953125 39.546875 -92.984375 C 45.546875 -95.023438 51.570312 -96.046875 57.625 -96.046875 C 64.84375 -96.046875 71.828125 -94.644531 78.578125 -91.84375 C 85.328125 -89.050781 91.144531 -84.859375 96.03125 -79.265625 C 100.925781 -73.679688 104.191406 -66.644531 105.828125 -58.15625 L 88.1875 -58.15625 C 86.09375 -65.71875 82.132812 -71.421875 76.3125 -75.265625 C 70.488281 -79.109375 64.316406 -81.03125 57.796875 -81.03125 C 52.554688 -81.03125 47.375 -79.773438 42.25 -77.265625 C 37.132812 -74.765625 32.890625 -71.007812 29.515625 -66 C 26.140625 -61 24.453125 -54.773438 24.453125 -47.328125 C 24.453125 -39.867188 26.109375 -33.632812 29.421875 -28.625 C 32.742188 -23.625 36.960938 -19.875 42.078125 -17.375 C 47.203125 -14.875 52.441406 -13.625 57.796875 -13.625 C 64.316406 -13.625 70.488281 -15.539062 76.3125 -19.375 C 82.132812 -23.21875 86.09375 -28.925781 88.1875 -36.5 Z M 105.828125 -36.5 "/></g></g></g><g fill="#000000" fill-opacity="1"><g transform="translate(2077.286539, 437.181982)"><g><path d="M 111.234375 0 L 94.125 0 L 94.125 -12.75 C 91.914062 -9.375 88.890625 -6.632812 85.046875 -4.53125 C 81.203125 -2.4375 77.125 -0.925781 72.8125 0 C 68.507812 0.925781 64.378906 1.453125 60.421875 1.578125 C 49.472656 1.578125 40.210938 -0.71875 32.640625 -5.3125 C 25.078125 -9.914062 19.347656 -15.972656 15.453125 -23.484375 C 11.554688 -30.992188 9.609375 -39.054688 9.609375 -47.671875 C 9.609375 -56.171875 11.585938 -64.085938 15.546875 -71.421875 C 19.503906 -78.753906 25.265625 -84.691406 32.828125 -89.234375 C 40.398438 -93.773438 49.484375 -96.046875 60.078125 -96.046875 C 64.035156 -96.046875 68.109375 -95.664062 72.296875 -94.90625 C 76.484375 -94.15625 80.5 -92.757812 84.34375 -90.71875 C 88.1875 -88.675781 91.503906 -85.738281 94.296875 -81.90625 L 94.125 -94.46875 L 111.234375 -94.46875 Z M 94.125 -47.328125 C 94.125 -54.890625 92.40625 -61.144531 88.96875 -66.09375 C 85.53125 -71.039062 81.191406 -74.765625 75.953125 -77.265625 C 70.722656 -79.773438 65.429688 -81.03125 60.078125 -81.03125 C 53.203125 -81.03125 47.257812 -79.546875 42.25 -76.578125 C 37.25 -73.609375 33.410156 -69.617188 30.734375 -64.609375 C 28.054688 -59.609375 26.71875 -53.960938 26.71875 -47.671875 C 26.71875 -41.734375 28.054688 -36.171875 30.734375 -30.984375 C 33.410156 -25.804688 37.222656 -21.617188 42.171875 -18.421875 C 47.117188 -15.222656 53.085938 -13.625 60.078125 -13.625 C 65.304688 -13.625 70.539062 -14.84375 75.78125 -17.28125 C 81.019531 -19.726562 85.382812 -23.453125 88.875 -28.453125 C 92.375 -33.460938 94.125 -39.753906 94.125 -47.328125 Z M 94.125 -47.328125 "/></g></g></g></svg>